<svg xmlns="http://www.w3.org/2000/svg" width="29" height="32"><path d="M14.432 33.824q-.256 0-.464-.128t-.336-.272-.448-.544-.544-.656q-1.12-1.312-2.48-3.072t-2.512-3.408-2.128-3.056-1.616-2.368-.672-1.024l-.064-.064V19.2l-.128-.128-.032-.064q-1.76-2.144-1.856-2.624-.032-.096-.032-.192 0-.192.096-.32.384-.768 1.824-2.624 1.472-1.92 5.008-6.272t4.88-6.112q.16-.224.4-.544t.352-.448.272-.32.272-.256.288-.112.368-.048q.256 0 .448.128t.336.272.448.528.56.672q1.12 1.312 2.48 3.072t2.528 3.408 2.144 3.056 1.632 2.368.688 1.024q.224.288.48.608t.416.528.336.432.272.368.208.304.176.272.112.224.048.192v.208q-.16.704-1.92 2.912-1.408 1.824-4.944 6.176t-4.944 6.208q-.16.224-.4.544t-.352.448-.272.32-.272.256-.288.112-.368.048z"/></svg>