<svg xmlns="http://www.w3.org/2000/svg" width="30" height="32"><path d="M14.752 14.656q-.32 0-.64-.096t-.48-.224l-.128-.096q-2.208-2.336-2.528-2.624-.192-.256-.336-.56t-.176-.464l-.032-.16q-.288-3.68-.32-4.448-.128-1.248.64-1.952 1.088-.96 4-.96 2.944 0 4.032.96.864.768.736 1.952l-.384 4.448q-.096.608-.544 1.184L16 14.24q-.384.416-1.248.416zm0-1.6h.064q2.4-2.496 2.4-2.528.064-.064.128-.256.288-3.52.416-4.416 0-.224-.192-.384-.672-.544-2.816-.544t-2.688.48q-.224.192-.192.544.064.544.352 4.352.032.096.064.16zM25.6 21.472l-4.448-.384q-.608-.096-1.12-.544l-2.688-2.592q-.416-.384-.416-1.248 0-.352.112-.64t.208-.416l.096-.128q2.336-2.272 2.688-2.592.224-.192.512-.336t.448-.176l.16-.032q3.744-.288 4.448-.384 1.12-.16 1.952.704.96 1.088.96 4 0 3.04-.96 3.968-.832.896-1.952.8zm-21.632 0q-1.024.256-1.952-.64-.896-1.152-.896-4 0-2.912.896-4.128.8-.736 1.952-.64l4.512.384q.608.096 1.024.544.192.128.864.784t1.248 1.232l.576.576q.512.384.512 1.248 0 .352-.128.64t-.256.416l-.128.128q-2.24 2.272-2.688 2.592-.192.192-.448.336t-.416.176l-.16.032q-3.744.288-4.512.32zm-.192-1.76q.416-.032 4.416-.352.096-.032.16-.128.064 0 .704-.608t1.248-1.184l.608-.608v-.064l-2.56-2.432q-.064-.064-.16-.096-3.872-.384-4.32-.416-.352-.032-.48.128-.48.672-.48 2.88 0 2.176.48 2.752.128.16.384.128zm22.08.128q.16.032.224.016t.16-.144q.48-.576.48-2.752 0-2.208-.48-2.88-.128-.16-.48-.128-.512.032-4.32.416-.096.032-.16.096l-2.56 2.432v.064q2.4 2.4 2.56 2.4.064.096.16.128 4 .32 4.416.352zM14.752 30.464q-2.912 0-4-.96-.736-.8-.64-1.952l.32-4.448q.096-.64.544-1.184l2.528-2.624q.512-.48 1.248-.48.384 0 .688.128t.432.256l.128.096q2.336 2.336 2.592 2.624.192.256.336.544t.176.448l.032.192q.288 3.68.384 4.448.096 1.12-.736 1.952-1.088.96-4.032.96zm0-1.76q2.144 0 2.816-.544.192-.16.192-.384-.128-.896-.416-4.416-.064-.192-.128-.256l-2.4-2.528h-.064l-2.464 2.592q-.032.064-.064.16-.288 3.808-.352 4.352-.032.352.192.544.544.48 2.688.48z"/></svg>