<svg xmlns="http://www.w3.org/2000/svg" width="39" height="32"><path d="M12.608 11.488q.224.224.208.304t-.208.336q-.096.192-.864.864-.064.064-.272.288t-.4.416l-.192.192-.128-.064q-.384-.416-.544-.576-.096-.096-.032-.16l.176-.176.272-.256.224-.208H5.184L3.04 14.56l.704.032q.352-.032.352.096v.768q.032.16-.096.16-.096 0-1.04-.016t-1.104-.016q-.032 0-.256.032-.288.032-.352-.048t-.096-.4q-.064-.192 0-1.216v-.304l-.016-.4-.016-.368v-.176l.16-.064.768.032q.128 0 .128.096.032.128.016.512t-.016.512l.032-.032-.032-.032 2.144-2.144V5.76l-.544.48-.288.16-.576-.544-.032-.192q.064-.064.752-.72t.784-.752q.032-.032.16-.192.224-.256.32-.24t.32.24q.192.096.864.832.096.096.304.288t.4.384l.192.192-.064.16q-.416.352-.544.512-.096.096-.192.032L6 6.224l-.256-.272-.208-.224v5.504h5.024q.16-.032.288-.032l-.48-.512-.192-.288.544-.576.192-.032q.064.064.72.752t.784.752q0 .032.192.192zm22.72 3.84q.352 1.28.576 2.24t.432 2.112.208 2-.144 1.616-.576 1.248-1.104.672q-.768.192-1.376 0t-1.056-.8-.72-1.168-.624-1.424l-.576-1.6q-.032-.064-.096-.128t-.128-.112-.128-.08-.096-.032h-.064q-.672.576-1.536.576-.96 0-1.632-.64h-4.16q-.704.64-1.632.64-.896 0-1.568-.576-.416.064-.512.352-.32.896-.576 1.6-.32.832-.608 1.408t-.736 1.168-1.056.8-1.376.016q-.672-.192-1.12-.672t-.576-1.264-.128-1.616.208-2 .432-2.112.608-2.224q.352-1.344.672-2.112.352-.768.544-1.152l.544-.896.256-.064v-.224l.064-.064q.64-.416 1.44-.416.416 0 .768.064t.512.128l.16.064q.032.032.032.064v.288l.224.032.128.128q.128.096.448.096h1.056l.16-.064h7.424l.128.064h1.056l.448-.096.352-.16v-.288l.064-.064q.512-.256 1.408-.256.8 0 1.44.416l.064.064v.224l.256.064q.352.608.544.896.224.384.544 1.152t.704 2.112zm-3.472-1.44q.304 0 .512-.208t.208-.512-.208-.528-.512-.224-.512.224-.208.528.208.512.512.208zm-14.864-1.28q-.096.096-.096.288l.032.608q0 .096.096.16l.32.352q.096.064.192.064l.16-.064.352-.352.064-.16q.064-.512.064-.608.032-.192-.096-.288-.16-.128-.544-.128-.416 0-.544.128zm2.464 2.464q.128-.128.128-.544t-.128-.544q-.096-.128-.256-.096l-.608.064q-.096 0-.16.064l-.384.352q-.032.064-.032.16l.032.16.384.384.16.064q.512.032.608.064.128 0 .256-.128zm-2.848 0 .384-.352q.064-.064.064-.16l-.064-.192q-.32-.288-.384-.352l-.128-.064q-.512-.032-.608-.064-.192 0-.288.096-.096.16-.096.576t.096.544q.128.096.288.096l.608-.064zm13.52.544q.304 0 .528-.224t.224-.512q0-.192-.096-.368t-.272-.272-.368-.096q-.32 0-.528.208t-.208.512.208.528.512.224zm3.424 0q.304 0 .512-.208t.208-.512-.208-.528-.512-.224-.512.224-.208.528.208.512.512.208zm-15.472.864q.128-.128.096-.288l-.064-.608q0-.096-.064-.16l-.352-.352q-.064-.064-.16-.064l-.192.064q-.288.32-.32.352l-.096.16q-.032.512-.032.608-.032.192.096.288.128.128.544.128t.544-.128zm13.776.832q.304 0 .512-.208t.208-.512-.208-.528-.512-.224-.512.224-.208.528.208.512.512.208zM28.32 19.36q.576 0 .992-.4t.416-.976-.416-.992-.992-.416-.992.416-.416.992.416.976.992.4zm-7.424.064q.576 0 .976-.4t.4-.976-.4-.992-.976-.416-.992.416-.416.992.416.976.992.4z"/></svg>