<svg xmlns="http://www.w3.org/2000/svg" width="28" height="32"><path d="M12.864 8.224q.032-.448.128-1.568t.128-1.248q0-.064.032-.864-.096.064-.256.144l-.288.144-.272.144-.256.128-.208.112q-.16.032-.32-.032l-.96-.608-.096-.128q0-.032.368-.176t.784-.32.544-.24q1.152-.576 1.44-.64.032 0 .192-.08t.256-.08q.128 0 .256.032t.208.08.144.048q.224.128.256.128.096.064.768.352t1.312.56.704.304l-.032.16q-.832.576-.992.64-.064.032-.208-.016l-.24-.08-.096-.064q-.416-.16-.96-.448 0 .096-.016.256t-.016.192q0 .448.16 3.168h-2.464zM2.976 25.216q-.704-.192-1.136-.672t-.576-1.264-.144-1.616.224-2 .448-2.112.576-2.224q.384-1.344.704-2.112t.544-1.152l.544-.896.256-.064v-.224q0-.032.032-.064.672-.416 1.472-.416.384 0 .752.064t.496.128l.16.064q.064.032.064.064v.288l.224.032.128.128q.096.096.416.096h1.088l.128-.064H16.8l.16.064h1.056l.416-.096.384-.16v-.288l.032-.064q.512-.256 1.44-.256.8 0 1.44.416l.032.064v.224l.256.064q.384.608.544.896.224.384.576 1.152.32.768.672 2.112.352 1.28.592 2.24t.448 2.112.208 2-.144 1.616-.576 1.248-1.136.672q-.736.192-1.344 0t-1.056-.8-.72-1.168-.624-1.424l-.576-1.6q-.064-.128-.192-.208t-.224-.112l-.096-.032q-.672.576-1.568.576-.928 0-1.632-.64h-4.16q-.672.64-1.632.64-.896 0-1.568-.576-.384.064-.48.352-.32.896-.608 1.6-.32.832-.608 1.408T5.376 24.4t-1.056.8-1.344.016zm17.392-11.328q.304 0 .512-.208t.208-.512-.208-.528-.512-.224-.528.224-.224.528.224.512.528.208zm-14.352.192.192-.064.352-.352.064-.16q.032-.512.064-.608 0-.192-.096-.288-.16-.128-.576-.128-.384 0-.544.128-.096.096-.096.288l.064.608q0 .096.064.16l.352.352q.064.064.16.064zM7.68 15.2q.16 0 .288-.128t.128-.544-.128-.544-.288-.096l-.608.064q-.064 0-.128.064l-.384.352q-.064.064-.064.16l.064.16.384.384.128.064q.512.032.608.064zm-3.328 0 .64-.064.128-.064.384-.352q.064-.064.064-.16l-.064-.192q-.32-.288-.384-.352l-.128-.064q-.512-.032-.64-.064-.16 0-.256.096-.128.16-.128.576t.128.544q.096.096.256.096zm14.288.416q.304 0 .512-.224t.208-.528-.208-.512-.512-.208-.512.208-.208.512.208.528.512.224zm3.424 0q.304 0 .512-.224t.208-.512-.208-.512-.512-.224-.528.224-.224.512.224.512.528.224zm-16.048.992q.416 0 .576-.128.096-.128.096-.288l-.064-.608q0-.096-.064-.16l-.352-.352q-.064-.064-.192-.064l-.16.064-.352.352-.064.16q-.032.512-.064.608 0 .192.096.288.16.128.544.128zm14.352.704q.304 0 .512-.208t.208-.512-.208-.528-.512-.224-.528.224-.224.528.224.512.528.208zm-3.536 2.048q.576 0 .976-.4t.4-.976-.4-.992-.976-.416-.992.416-.416.992.416.976.992.4zm-7.456.064q.576 0 .992-.4t.416-.976q0-.224-.064-.448t-.208-.384-.304-.288-.384-.208-.448-.08q-.576 0-.976.416t-.4.992.4.976.976.4zm4.544 14.112q-.224.032-.656-.32t-.464-.352q-.704-.32-3.232-2.56-.288-.224-.992-.784t-1.344-1.04l-.64-.48q-.064-.096.032-.192t.192-.128l.096-.064L9.088 26.4q.352-.224.608-.064.32.16 1.168.832t1.168.896q0-.16.032-.656t.048-.896.016-.72q0-.544.224-5.248l3.328-.032q.288 5.024.416 6.144 0 .096.032.304t.08.464.048.448q.48-.352.928-.64t.64-.416l.224-.128q.064-.064.176-.144t.384-.192.4-.016l2.208 1.248q.032.032.064.048t.112.064.128.096.048.128-.096.144q-.224.16-2.608 2t-2.736 2.192q-.128.032-.64.608-.096.032-.272.144t-.336.208-.416.192-.544.128z"/></svg>