<svg xmlns="http://www.w3.org/2000/svg" width="38" height="32"><path d="M3.904 27.808q-.928-.224-1.52-.832t-.896-1.424-.352-1.984.064-2.304.416-2.656.608-2.752.752-2.896q.576-1.984 1.056-3.104.48-1.184.832-1.728l.8-1.376.384-.096v-.32q.032-.064.064-.096.096-.064.368-.192t.816-.288.992-.16q.608 0 1.136.096t.752.192l.256.096q.064.064.064.128v.416l.32.064.224.192q.16.128.64.128h1.6l.224-.128 11.136.032.192.096h1.6q.128 0 .256-.016t.192-.032.112-.032.08-.048l.544-.256v-.416l.064-.128q.8-.384 2.144-.384.448 0 .992.16t.832.288.352.192l.064.096v.32l.384.096q.544.896.832 1.376.32.544.832 1.728.48 1.12 1.024 3.104.448 1.632.752 2.896t.608 2.784.4 2.656.048 2.304-.352 1.968-.896 1.408-1.488.832q-.512.16-.992.16t-.864-.112-.752-.352-.672-.512-.592-.704-.496-.8-.464-.896-.416-.928-.352-.944l-.896-2.368q-.032-.128-.128-.224t-.192-.16-.192-.096-.16-.064h-.064q-1.024.864-2.368.864-1.408 0-2.432-.96h-6.24q-1.024.96-2.432.96-1.344 0-2.368-.864-.576.128-.736.544-.48 1.344-.864 2.368-.224.544-.384.944t-.4.912-.464.896-.528.8-.592.688-.656.512-.768.352-.864.128-.976-.144zm26.032-16.96q.464 0 .784-.32t.32-.768-.32-.784-.784-.336-.784.336-.32.784.32.768.784.32zm-21.488.256.256-.064.544-.544.096-.256q.064-.736.096-.896.032-.256-.16-.416-.224-.192-.832-.192t-.8.192q-.16.128-.128.416l.064.896q0 .16.096.256l.512.544q.128.064.256.064zm2.496 1.664q.224.032.416-.16t.192-.8-.192-.832q-.16-.16-.416-.128l-.896.064q-.128.032-.224.128-.544.48-.544.512-.096.096-.096.256l.096.256q.448.48.544.544l.224.096q.768.064.896.064zm-4.96 0 .928-.064q.096-.032.192-.096l.544-.544q.128-.064.128-.224l-.128-.256-.544-.544-.192-.096q-.768-.064-.928-.096-.288-.032-.416.128-.192.256-.192.864 0 .64.192.8.16.16.416.128zm21.392.64q.464 0 .784-.32t.32-.768-.32-.768-.784-.32-.784.32-.32.768.32.768.784.32zm5.12.032q.464 0 .784-.336t.32-.784-.32-.768-.784-.32-.784.32-.32.768.32.784.784.336zM8.448 14.912q.64 0 .832-.224.192-.16.16-.384l-.096-.928q0-.128-.096-.224l-.544-.544q-.064-.096-.256-.096l-.256.096q-.448.48-.512.544l-.096.224q-.064.768-.064.928-.032.256.128.384.224.224.8.224zm21.488 1.056q.464 0 .784-.32t.32-.768-.32-.768-.784-.32-.784.32-.32.768.32.768.784.32zm-5.296 3.104q.864 0 1.488-.624t.624-1.488-.624-1.472-1.488-.608-1.472.608-.608 1.472.608 1.488 1.472.624zm-11.136.096q.864 0 1.472-.624t.608-1.488q0-.576-.272-1.056t-.752-.752-1.056-.272q-.864 0-1.488.608t-.624 1.472.624 1.488 1.488.624z"/></svg>