<svg xmlns="http://www.w3.org/2000/svg" width="56" height="32"><path d="M42.88 5.888v-.064q-.192-1.28.544-2.336t2.08-1.184q1.344-.096 2.288.752t.944 2.128q0 .448-.064.704l-.416-.064V5.76q0-.032.032-.24t.032-.336q0-.672-.384-1.248t-1.024-.896-1.344-.288q-1.088.128-1.76 1.024t-.512 1.984v.064zM12.992 9.152v-5.92h3.616v.992H14.24V5.6h2.208v.992H14.24v1.504h2.432v1.056h-3.68zm4.064 0 1.888-3.136-1.696-2.784h1.376l1.12 1.984 1.248-1.984h1.376l-1.76 2.784 1.888 3.136h-1.44l-1.312-2.24-1.248 2.24h-1.44zm7.136 0V4.224H22.56v-.992h4.384v.992h-1.568v4.928h-1.184zm21.664 1.344q-.352 0-.656-.224t-.4-.576l.128-.128H44.8q-1.152-.864-1.504-2.144l-.288-1.12V6.24l.672-.192V5.76l.32-.128h.128l.224 1.856-.224.064H44l-.064-.288h-.256q.448 1.152 1.248 1.792.448-.576 1.136-.384t.688.896q0 .352-.272.64t-.624.288zm1.696-2.944-.448-.064.384-1.856h.064l.384.128H48l-.064.288.672.192h.064l-.064.064-.192.96v.16h-.096l-.576-.16h-.064zm-1.696 2.496q.096 0 .208-.048t.176-.16.064-.272q0-.192-.064-.32t-.176-.192-.208-.064q-.608 0-.608.576 0 .48.608.48zm-36.16 19.68q-3.552 0-6.064-2.496t-2.512-6.08q0-3.552 2.528-6.08t6.048-2.528h36.288q3.52 0 6.016 2.528t2.496 6.08q0 3.584-2.48 6.08t-6.032 2.496H9.696zm36.288-1.952q2.72 0 4.64-1.936t1.92-4.688q0-1.856-.88-3.392t-2.384-2.416-3.296-.88q-1.888 0-3.44.88t-2.432 2.416-.88 3.392q0 2.784 1.952 4.704t4.8 1.92zm0-.928q-2.368 0-4.08-1.68t-1.712-4.016q0-2.4 1.696-4.08t4.096-1.68q1.536 0 2.832.768t2.048 2.096.752 2.896q0 2.368-1.648 4.032t-3.984 1.664zM9.696 25.472h21.376q1.76 0 3.024-1.296t1.264-3.024q0-1.792-1.264-3.056t-3.024-1.264H9.696q-1.792 0-3.024 1.264T5.44 21.152q0 1.76 1.232 3.04t3.024 1.28zm0-1.056q-.672 0-1.28-.272t-1.04-.704-.688-1.04-.256-1.248q0-1.408.944-2.352t2.32-.944h21.376q1.408 0 2.384.944t.976 2.352q0 1.312-.992 2.288t-2.368.976H9.696z"/></svg>