<svg xmlns="http://www.w3.org/2000/svg" viewBox="0 0 21 32"><path d="M1.248 14.336v-.192q-.416-2.592.464-5.008T4.656 5.04t4.816-1.968q2.752-.192 5.104.96t3.696 3.312 1.344 4.784q0 1.408-.192 2.208l-1.312-.192v-.224q0-.128.096-.736t.096-1.056q0-2.112-1.2-3.92t-3.2-2.816-4.24-.912q-3.36.448-5.472 3.248T2.56 13.92v.224zM10.592 28.8q-1.152 0-2.096-.704t-1.232-1.824l.416-.384h-.416q-3.584-2.72-4.704-6.752l-.928-3.488v-.224l2.112-.576v-.928l1.024-.384h.384l.704 5.824-.704.192h-.384l-.224-.896h-.8q1.376 3.616 3.936 5.632.864-1.216 2.24-1.376t2.416.704 1.04 2.272q0 1.12-.864 2.016t-1.92.896zm5.312-9.248-1.408-.192 1.216-5.824h.192l1.216.384h.192l-.192.928 2.08.576h.224l-.224.224-.576 3.008v.48h-.32l-1.792-.48h-.224zm-5.312 7.84q.512 0 .96-.416T12 25.888q0-.832-.448-1.328t-.96-.496q-.864 0-1.392.464t-.528 1.36q0 .736.528 1.12t1.392.384z"/></svg>