<svg xmlns="http://www.w3.org/2000/svg" width="31" height="32"><path d="M15.52 33.248q-3.072 0-5.232-1.392t-2.16-3.408v-7.04Q4.96 20.16 3.04 18.032t-1.92-4.624q0-2.592 1.92-5.008t5.28-3.952 7.2-1.536q2.912 0 5.6.912t4.592 2.384 3.056 3.376 1.152 3.824q0 2.496-1.904 4.624t-5.104 3.376v7.04q0 2.016-2.16 3.408t-5.232 1.392zm3.2-16.256q1.44 0 2.368-.672t.928-1.952q0-1.6-1.76-2.048 1.504-.48 1.504-2.048 0-1.12-.832-1.696T18.848 8q-1.28 0-2.592.544l.416 1.376q1.12-.512 1.952-.512.608 0 .992.288t.384.8q0 1.216-1.856 1.216h-.928v1.408h.864q2.112 0 2.112 1.184 0 1.28-1.632 1.28-1.152 0-2.112-.48L16 16.448q1.152.544 2.72.544zm-9.152-.128h5.152v-1.408h-3.392V8.288h-1.76v8.576z"/></svg>