<svg xmlns="http://www.w3.org/2000/svg" width="51" height="32"><path d="M3.968 11.552q-1.152 0-2-.832T1.12 8.672q0-1.152.848-1.984t2-.832q1.184 0 2.032.816t.848 2q0 1.216-.848 2.048t-2.032.832zm10.688 0q-1.152 0-2-.832t-.848-2.048q0-1.152.848-1.984t2-.832q1.184 0 2.032.816t.848 2q0 1.216-.848 2.048t-2.032.832zm10.752 0q-1.216 0-2.032-.832t-.816-2.048q0-1.184.832-2t2.016-.816 2 .816.816 2q0 1.216-.816 2.048t-2 .832zm10.688 0q-1.344 0-2.224-.832t-.88-2.048q0-1.184.88-2t2.224-.816q1.184 0 2.032.816t.848 2q0 1.216-.848 2.048t-2.032.832zm10.464 0q-1.184 0-2.032-.832t-.848-2.048q0-1.184.848-2t2.032-.816q1.152 0 2 .832t.848 1.984q0 1.216-.848 2.048t-2 .832zM9.472 19.68q-1.152 0-2.016-.848T6.592 16.8t.864-2.032 2.016-.848q1.184 0 2.032.848t.848 2.032-.848 2.032-2.032.848zm10.464 0q-1.184 0-2.032-.848t-.848-2.032.848-2.032 2.032-.848q1.312 0 2.08.832t.768 2.048-.768 2.048-2.08.832zm10.656 0q-1.152 0-2-.848t-.848-2.032.848-2.032 2-.848q1.184 0 2.032.848t.848 2.032-.848 2.032-2.032.848zm10.688 0q-1.152 0-2-.848t-.848-2.032.848-2.032 2-.848q1.184 0 2.032.848t.848 2.032-.848 2.032-2.032.848zm-26.624 8.384q-1.152 0-2-.848t-.848-2.032.848-2.032 2-.848q1.184 0 2.032.848t.848 2.032-.848 2.032-2.032.848zm10.752 0q-1.184 0-2.016-.848t-.832-2.032.832-2.032 2.016-.848 2 .848.816 2.032-.816 2.032-2 .848zm10.688 0q-1.312 0-2.208-.848t-.896-2.032.896-2.032 2.208-.848q1.184 0 2.032.848t.848 2.032-.848 2.032-2.032.848z"/></svg>