<svg xmlns="http://www.w3.org/2000/svg" width="15" height="32"><path d="M7.296 33.28q-2.56 0-4.368-1.824T1.12 27.072V6.848q.032-2.528 1.84-4.32T7.296.736t4.352 1.792 1.856 4.32v20.224q0 2.56-1.824 4.384T7.296 33.28zM5.024 9.792h.672V8.576h3.84v-.928h-3.84V6.464h-.672v3.328zm0 4.32h4.512v-.992H7.712v-.416q0-.48.128-.624t.544-.272q.48-.096 1.152-.32v-.992q-.224.096-.688.224t-.688.192q-.704.192-.832.576h-.032q-.256-.768-1.088-.768-1.184 0-1.184 1.568v1.824zm.672-.992v-.608q0-.864.672-.864.608 0 .608.864v.608h-1.28zm3.84 6.56v-.992l-1.088-.352v-1.792l1.088-.416v-.992l-4.512 1.6v1.312zm-1.824-1.6-2.016-.64 1.984-.704zm-2.688 5.088h.672v-1.184h3.84v-.928h-3.84V19.84h-.672v3.328zm1.216 3.968q.864 0 1.376-1.28.384-.896.768-.896.512 0 .512.832 0 .672-.192 1.184l.704.16q.224-.576.224-1.408 0-.736-.336-1.216t-.976-.48q-.576 0-.88.32t-.56.96q-.352.864-.736.864-.48 0-.48-.736 0-.544.16-.96l-.736-.192q-.16.448-.16 1.216 0 .64.336 1.136t.976.496z"/></svg>