<svg xmlns="http://www.w3.org/2000/svg" width="22" height="32"><path d="M11.04 35.904q-4.096 0-7.008-2.832T1.12 26.144V7.488q0-4.096 2.912-7.024t7.008-2.928q4.064 0 6.896 2.912t2.832 7.04v18.656q0 4.096-2.816 6.928t-6.912 2.832zm-7.104-14.4q.352.48 1.072.448t1.36-.608q.896-.96 4.208-4.448t3.376-3.52q.096-.192.416-.16.32.192.192.384 0 .288-1.472 5.44-.288 1.152.352 1.616t1.44.176l3.424-1.664q.096-.032.176-.16t.048-.256q-.16-.448-.512-.384h-.096q-2.272.672-2.464.672-.384.096-.56-.016t-.112-.496l1.632-6.784q.096-.096.096-.352 0-.48-.304-.768t-.752-.288q-.416 0-.8.32-.064.064-2.544 2.112T7.12 16.864t-2.832 2.304q-.576.48-.672 1.184t.32 1.152z"/></svg>