<svg xmlns="http://www.w3.org/2000/svg" width="10" height="32"><path d="M3.84 29.792q-.768 0-1.296-.256t-.752-.736-.304-.96-.08-1.184q0-.256.032-.544.096-1.024.192-2.08l.128-2.08q0-.352.048-.512t.048-.544q0-.608-.032-1.184l-.064-1.184q-.032-.608-.096-1.184-.128-1.184-.256-1.984-.16-.928-.224-1.28-.032-.16-.032-.32-.032-.16-.032-.32v-.288q0-.16.016-.32l.032-.32.048-.32.064-.304.096-.304.192-.512q0-.032.032-.032 1.184-.224 1.792-.32.288 0 .288-.144t-.256-.272q-.768-.416-1.216-1.184t-.464-1.648.416-1.648 1.2-1.2 1.648-.432 1.632.432 1.184 1.2.416 1.648-.464 1.648-1.216 1.184q-.544.288.448.448h-.032q-.224 0-.448-.032.096.032.496.064t.768.064.592.096q.032 0 .032.032.16.352.192.512.064.16.096.304t.064.304l.064.32.032.32v.608l-.032.32q0 .16-.032.288l-.032.192-.192 1.12q-.128.768-.256 1.984-.032.576-.096 1.184l-.064 1.184V20.8q0 .384.048.544t.048.512l.128 2.08q.064 1.088.192 2.08.032.544.032.672-.032.544-.08.944t-.176.832-.352.704-.592.448-.88.176H3.84zM4.992 9.856q.992 0 1.68-.704t.688-1.68-.688-1.664-1.68-.688-1.68.688-.688 1.664.688 1.68 1.68.704zm-1.824 5.216q.192 0 .32-.144t.128-.336-.128-.336-.32-.144-.336.144-.144.336.144.336.336.144zm3.632 0q.208 0 .336-.144t.128-.336-.128-.336-.336-.144-.336.144-.128.336.128.336.336.144zm-1.84 2.08q.32 0 .544-.224t.224-.544v-1.472q0-.32-.224-.544t-.544-.224-.544.224-.224.544v1.472q0 .32.224.544t.544.224zm-1.76-.16q.128 0 .24-.064t.176-.176.064-.24q0-.192-.144-.336t-.336-.144-.32.144-.128.336.128.336.32.144zm3.552 0q.192 0 .336-.144t.144-.336q0-.128-.064-.24t-.176-.176-.24-.064q-.192 0-.336.144t-.144.336.144.336.336.144z"/></svg>