<svg xmlns="http://www.w3.org/2000/svg" width="10" height="32"><path d="M7.424 29.408H3.36q-.48 0-.752-.24t-.592-.784q-.544-.896-.448-3.104.032-.096.048-.432t.064-.736.048-.528l.128-1.392q.064-.688.096-.928t.032-.704-.032-.976-.128-1.44q-.032-.512.256-.64-.288-.256-.656-1.328t-.304-1.2l.16-.096q.032 0 .304-.112t.48-.24.368-.288q.288-.32.288-.512 0-.032-.048-.112t-.128-.176-.08-.128q-.032-.064-.096-.16-.032-.032-.032-.064l-.032-.016-.064-.016q0-.064-.064-.128l-.032-.064q-.096-.224-.16-.352-.064-.096-.176-.24t-.224-.256-.112-.144q-.128-.16-.096-.416.096-.352.288-.768.032-.096.096-.128.096 0 1.536-.16.576-.064.576-.32l-.096-.096q-.064-.064-.192-.128t-.16-.096q-.352-.256-.64-.608-.544-.672-.704-1.504-.096-.576.016-1.152t.4-1.072.768-.848q.768-.672 1.824-.736t1.92.48q.736.48 1.152 1.264t.384 1.664-.512 1.616q-.256.352-.576.64-.128.128-.32.256-.032.032-.112.08t-.144.08-.096.096q-.16.128.176.224t.72.16q.128 0 .288.032.544.064.864.128.032.032.096.16.288.608.352 1.312.064.512.032 1.088 0 .128-.016.224t-.048.16-.048.128-.064.16-.048.192q-.064.128-.192 1.088-.16 1.024-.24 2.864t.016 2.992q.032.192.128 1.504t.192 2.208q.032.928.016 1.984t-.432 1.92-1.152.864zM5.28 9.44q.736 0 1.344-.432t.864-1.136q.256-.672.064-1.408t-.768-1.2-1.328-.512-1.376.336-.928 1.056-.16 1.392.672 1.232 1.264.64q.192.032.352.032zm-2.688 7.488q.16.064.528-.624t.368-1.168q.032-.544-.32-.896.096.192-.416.672-.352.384-.736.48-.032.032-.032.112t.032.208.08.272.112.32.128.304.128.224.128.096z"/></svg>