<svg xmlns="http://www.w3.org/2000/svg" width="10" height="32"><path d="M3.04 29.728q-.736 0-1.152-.864t-.432-1.92.016-1.984q.096-.896.192-2.208t.096-1.504q.096-1.152.032-2.992t-.224-2.864q-.16-.96-.192-1.088 0-.064-.112-.336t-.144-.528q-.032-.576.032-1.088.096-.704.352-1.312.064-.128.128-.16.288-.064.864-.128.16-.032.288-.032.384-.064.72-.16t.176-.224q-.064-.064-.192-.144t-.16-.112q-.192-.128-.352-.256-.32-.288-.544-.64-.48-.736-.512-1.616t.384-1.664T3.456 4.64q.864-.544 1.904-.48t1.84.736q.672.544.992 1.376t.192 1.696q-.16.832-.704 1.504-.288.352-.64.608-.032.032-.08.064t-.096.048-.096.048-.08.064q-.288.224.288.352l.192.064q1.44.16 1.536.16.064.032.096.128.16.384.256.768.064.256-.064.416 0 .032-.112.144t-.224.256-.176.24q-.096.128-.192.352-.096.16-.096.192l-.064.032-.064.064q-.032.096-.064.16 0 .032-.144.192t-.144.224q.032.192.32.512.16.16.368.288t.48.24.304.112l.128.096q.096.128-.288 1.2t-.64 1.328q.288.128.256.64-.128 1.152-.144 1.776t-.016.912.096 1.136.16 1.616q0 .16.064.88t.064.816q.128 2.208-.416 3.104-.32.544-.592.784t-.752.24H3.04zM5.152 9.76q.192 0 .384-.032.704-.128 1.248-.64t.688-1.232-.16-1.392-.928-1.056-1.376-.336-1.328.512-.768 1.2.064 1.408q.224.704.848 1.136t1.328.432zm2.72 7.488q.128-.032.304-.416t.256-.736.016-.384q-.384-.096-.736-.48-.512-.48-.448-.672-.32.352-.32.896.032.48.384 1.168t.544.624z"/></svg>