<svg xmlns="http://www.w3.org/2000/svg" width="10" height="32"><path d="M9.248 12.768v.64l-.016.304-.016.304-.064.16-.192 1.152q-.128.768-.256 1.984-.032.608-.096 1.184-.032.608-.048 1.2t-.016 1.2l.224 3.232q.096 1.12.192 2.112v.544q.032 1.952-1.184 2.88l-1.376.352H4l-1.408-.352q-1.184-.928-1.184-2.88 0-.256.032-.544.096-.992.192-2.112l.224-3.232q0-.576-.032-1.184t-.064-1.184q-.032-.608-.096-1.216-.128-1.152-.256-1.984-.16-.896-.224-1.312-.032-.128-.032-.288-.032-.16-.032-.32v-.32l.016-.32.032-.32.048-.304.064-.304.096-.32.192-.512q0-.032.032-.032.256-.064.656-.096t.816-.064.544-.064q.288 0 .288-.144t-.256-.272q-.512-.288-.896-.736t-.592-.992-.208-1.12q-.032-.864.416-1.648t1.2-1.232 1.648-.448 1.648.448 1.2 1.232.432 1.664-.464 1.632-1.248 1.2q-.224.224-.064.304t.512.144q.832.032 1.536.192.032 0 .032.032.16.384.208.528l.096.288.064.304.048.32.032.32zM2.88 7.488q0 .96.688 1.648t1.648.688 1.648-.688.688-1.648-.688-1.632-1.648-.672-1.648.672-.688 1.632zm1.504 6.4v.128q0 .192-.032.704-.032.224 0 .256 0 .096.032.096t.16-.032q.48-.128.608-.128.224 0 .736.128.192.032.208 0t.016-.128v-.096q-.032-.448-.032-.704v-.384l-.032-.032H4.416l-.032.032v.16zm2.176 2.784v-1.088l-.064-.992v.496l-.016.288-.048.208q-.032.096-.224.064-.032 0-.144-.032t-.144-.032q-.416-.096-.64-.096-.288-.032-.608.064l-.384.064q-.16.064-.224.032-.096 0-.128-.192v-.8q-.064-.128-.096.224v.672q0 .608.032 1.056 0 .224.064.32.096.192.32.288.256.128.8.128.576.032.864-.032.608-.16.64-.64z"/></svg>