<svg xmlns="http://www.w3.org/2000/svg" width="15" height="32"><path d="M7.296 33.28q-2.56 0-4.368-1.824T1.12 27.072V6.848q.032-2.528 1.84-4.32T7.296.736t4.352 1.792 1.856 4.32v20.224q0 2.56-1.824 4.384T7.296 33.28zM6.304 8.608q.544 0 .832-.32t.512-.96q.416-.864.768-.864.512 0 .512.736 0 .48-.16.896l.736.224q.128-.416.128-1.184 0-.672-.32-1.136t-.96-.464q-.896 0-1.344 1.216-.384.896-.736.896-.576 0-.576-.768 0-.672.256-1.184l-.768-.192q-.192.704-.192 1.408t.352 1.2.96.496zm-1.248 4h.704V10.72h1.248v1.664h.672V10.72h1.184v1.824H9.6v-2.72H5.056v2.784zm0 3.968h.704v-1.76H9.6v-.96H5.056v2.72zm0 3.84h.704v-1.824h1.248v1.664h.672v-1.664h1.184v1.76H9.6v-2.688H5.056v2.752zm.096 4.416.704-.16q-.16-.48-.16-.896 0-.64.464-1.04t1.136-.4q.704 0 1.168.384t.464 1.088q0 .352-.16.832l.704.16q.16-.416.16-1.088 0-1.056-.64-1.648t-1.696-.592-1.68.592-.624 1.616q0 .576.16 1.152zm3.712 4.064H9.6V25.6h-.736v1.184H5.056v.928h3.808v1.184z"/></svg>