<svg xmlns="http://www.w3.org/2000/svg" width="28" height="32"><path d="M3.168 7.84q-.992 0-1.52-.624T1.12 5.568q0-1.056.528-1.68t1.52-.624q.96 0 1.488.624t.528 1.68q0 1.024-.528 1.648t-1.488.624zm13.824 0q-.96 0-1.52-.64t-.56-1.632q0-1.056.56-1.68t1.52-.624q.992 0 1.52.624t.528 1.68q0 1.024-.544 1.648t-1.504.624zm8.48 0q-.704 0-1.312-.256l.192-.768q.512.256 1.12.256.768 0 .768-.48 0-.416-.864-.768-1.216-.448-1.216-1.248 0-.64.464-.976t1.104-.336q.704 0 1.12.192l-.096.672q-.32-.096-.96-.096-.672 0-.672.416t.8.704q1.184.48 1.184 1.376 0 .608-.464.96t-1.168.352zM5.984 7.712V3.328H7.68q.672 0 1.12.336t.448 1.04q0 1.44-1.568 1.44h-.768v1.568h-.928zm4.704 0V4.064H9.472v-.736h3.2v.736h-1.12v3.648h-.864zm2.56 0V3.328h.864v4.384h-.864zm6.624 0V3.328h1.376l1.312 3.488h.064V3.328h.8v4.384h-1.312l-1.376-3.52h-.064v3.52h-.8zm-16.704-.64q1.12 0 1.12-1.504 0-1.536-1.12-1.536-1.184 0-1.184 1.536 0 .672.304 1.088t.88.416zm13.824 0q.576 0 .88-.416t.304-1.088q0-1.536-1.184-1.536-1.12 0-1.12 1.536 0 1.504 1.12 1.504zM6.912 5.376h.64q.8 0 .8-.608 0-.704-.864-.704h-.576v1.312zm7.264 24.768q-2.272 0-3.888-1.6T8.672 24.64V14.464q0-2.272 1.616-3.856t3.888-1.584q2.304 0 3.904 1.568t1.6 3.872V24.64q0 2.304-1.616 3.904t-3.888 1.6z"/></svg>