<svg xmlns="http://www.w3.org/2000/svg" width="31" height="32"><path d="M15.52 33.248q-3.072 0-5.232-1.392t-2.16-3.408v-7.04Q4.96 20.16 3.04 18.032t-1.92-4.624q0-2.592 1.92-5.008t5.28-3.952 7.2-1.536q2.912 0 5.6.912t4.592 2.384 3.056 3.376 1.152 3.824q0 2.496-1.904 4.624t-5.104 3.376v7.04q0 2.016-2.16 3.408t-5.232 1.392zm-2.976-16.384h1.76v-3.456h.8q.864 0 1.168.256t.528.96q.32 1.376.64 2.24h1.856q-.16-.48-.416-1.36t-.384-1.264q-.256-.8-.464-1.104t-.592-.464q1.408-.576 1.408-2.048 0-2.272-2.976-2.272h-3.328v8.512zm1.76-4.896V9.696h1.216q1.568 0 1.568 1.152 0 1.12-1.632 1.12h-1.152z"/></svg>