<svg xmlns="http://www.w3.org/2000/svg" width="33" height="32"><path d="M2.592 19.584q-.96-1.76-1.28-4.192t-.16-4l.128-1.536v-.32h29.792l.096.384q.064.224.128.608t.144 1.552.016 2.272-.432 2.576-1.04 2.656q-1.28 2.272-3.488 3.904t-4.752 2.432-5.392.832-5.408-.704-4.8-2.4-3.552-4.064zm7.808 1.824h1.792v-3.52h.8q.896 0 1.2.256t.528.992q.064.192.608 2.272h1.952q-.192-.512-.464-1.456t-.368-1.232q-.288-.8-.496-1.12t-.624-.48q1.44-.544 1.44-2.048 0-2.368-3.008-2.368H10.4v8.704zm9.344 0h1.792v-8.704h-1.792l-2.272 1.312.736 1.312 1.536-.96v7.04zm-7.552-4.96V14.08h1.216q1.6 0 1.6 1.152 0 1.216-1.664 1.216h-1.152z"/></svg>