<svg xmlns="http://www.w3.org/2000/svg" width="30" height="32"><path d="m1.12 29.472 1.152-14.496.416-3.168q.8-3.776 3.792-6.272t6.864-2.496q3.744 0 6.64 2.368t3.632 5.952l5.088 18.112H1.12zm13.472-8.064h5.856v-1.44h-3.584q2.016-1.76 2.768-2.736t.752-2.064q0-1.28-.848-1.984t-2.192-.704q-1.504 0-2.688.864l.544 1.248q1.088-.672 2.016-.672.576 0 .976.336t.4.912q0 .736-.816 1.712t-3.184 3.056v1.472zm-7.456 0h1.76v-3.552h.864q.864 0 1.184.256t.544.96q.352 1.536.608 2.336h1.92q-.16-.448-.8-2.752-.256-.768-.48-1.104t-.64-.496q1.44-.512 1.44-2.048 0-2.368-3.04-2.368h-3.36v8.768zm1.76-4.928v-2.464h1.28q1.6 0 1.6 1.216 0 1.248-1.664 1.248H8.896z"/></svg>