<svg xmlns="http://www.w3.org/2000/svg" width="31" height="32"><path d="M15.52 33.248q-3.072 0-5.232-1.392t-2.16-3.408v-7.04Q4.96 20.16 3.04 18.032t-1.92-4.624q0-2.592 1.92-5.008t5.28-3.952 7.2-1.536q2.912 0 5.6.912t4.592 2.384 3.056 3.376 1.152 3.824q0 2.496-1.904 4.624t-5.104 3.376v7.04q0 2.016-2.16 3.408t-5.232 1.392zm3.776-16.096q1.472 0 2.4-.688t.928-2q0-.704-.464-1.264t-1.264-.72q1.44-.48 1.44-2.048 0-1.152-.816-1.728t-2.096-.576q-1.312 0-2.56.576l.416 1.344q.992-.48 1.92-.48.64 0 1.008.288t.368.768q0 1.216-1.792 1.216h-.992v1.44h.928q2.08 0 2.08 1.152 0 1.28-1.632 1.28-1.216 0-2.08-.48l-.48 1.344q1.216.576 2.688.576zm-10.4-.288h1.728v-3.456h.832q.864 0 1.168.256t.528.96l.256 1.008q.224.88.352 1.232h1.888q-.16-.416-.416-1.296t-.416-1.328q-.224-.768-.432-1.088t-.624-.48q1.408-.544 1.408-2.048 0-2.272-2.976-2.272H8.896v8.512zm1.728-4.896V9.696h1.248q1.536 0 1.536 1.152 0 1.12-1.568 1.12h-1.216z"/></svg>