<svg xmlns="http://www.w3.org/2000/svg" width="16" height="32"><path d="M13.344 16.832q-.096.32.016.464t.336.288.448.448.352 1.184.032 2.256q0 .992-.544 2.096t-1.12 2.176-.64 1.936q-.032.448-.88.832t-2.048.512-2.416.048-2.08-.608-.896-1.424q-.032-.992-.208-1.664t-.416-1.04-.48-.688-.464-.864-.352-1.344q-.064-.576-.032-2.064T1.92 16.96q-.096-.992-.432-3.104t-.368-3.04q-.032-1.056.16-1.44t.928-.448q.32-.032.528.032t.336.288.192.384.176.592.176.624q.544 1.888.736 4.672 0-.32.032-.624t.16-.688.464-.64.848-.256.832.224.448.576.16.624 0 .528q.256-1.952 1.312-1.952.8-.032 1.248.496t.544 1.04l.064.544L11.776 7.2q.192-1.6 1.344-1.6.448 0 .752.176t.416.432.144.496.032.432l-.032.16z"/></svg>