<svg xmlns="http://www.w3.org/2000/svg" width="22" height="32"><path d="M2.496 7.68q-.768 0-1.376-.256l.192-.736q.512.256 1.12.256.768 0 .768-.512 0-.416-.896-.736-1.12-.416-1.12-1.312 0-.64.448-.944t1.056-.304q.544 0 1.184.16L3.68 4q-.288-.128-.928-.128-.672 0-.672.448 0 .32.8.672 1.248.544 1.248 1.376 0 .608-.48.96t-1.152.352zM4.8 7.552V3.2h.96v1.792h1.664V3.2h.896v4.352h-.896V5.696H5.76v1.856H4.8zm4 0L10.368 3.2h1.184l1.632 4.352h-.992l-.384-1.056h-1.696L9.76 7.552H8.8zm4.832 0V3.2h1.76q1.472 0 1.472 1.184 0 .768-.736 1.056.32.096.576.8.128.544.352 1.312h-.928q-.032-.192-.16-.608t-.16-.512q-.096-.352-.256-.48t-.608-.128h-.384v1.728h-.928zm4.064 0V3.2h2.624v.736h-1.76v1.056h1.568v.704H18.56V6.88h1.824v.672h-2.688zm-7.392-1.728h1.312l-.672-1.888zm4.256-.704h.576q.864 0 .864-.608 0-.576-.8-.576h-.64V5.12zm-3.712 24.832q-2.272 0-3.888-1.6T5.344 24.48V14.272Q5.344 12 6.96 10.4t3.888-1.6 3.872 1.616 1.6 3.856V24.48q0 2.272-1.6 3.872t-3.872 1.6z"/></svg>