<svg xmlns="http://www.w3.org/2000/svg" width="37" height="32"><path d="M18.144 30.56q-.704-.16-2.912-1.92-1.824-1.408-6.176-4.944t-6.208-4.944q-.224-.16-.544-.4T1.856 18t-.32-.272-.256-.272-.112-.288-.048-.368q0-.256.128-.464T1.52 16t.544-.448.656-.544q1.312-1.12 3.072-2.48T9.2 10.016t3.056-2.128 2.368-1.616 1.024-.672q2.368-1.92 2.816-2.048.16-.064.288-.064.192 0 .32.096.768.384 2.624 1.824 1.92 1.472 6.272 5.008t6.112 4.88q.224.16.544.4t.448.352.32.272.256.272.112.288.048.368q0 .256-.128.448t-.272.336-.528.448-.672.56q-1.312 1.12-3.072 2.48t-3.408 2.528-3.056 2.144-2.368 1.632-1.024.688q-.288.224-.608.48t-.528.416-.432.336-.368.272-.304.208-.272.176-.224.112-.192.048h-.208z"/></svg>