<svg xmlns="http://www.w3.org/2000/svg" width="39" height="32"><path d="M19.456 29.184q-5.888-.064-9.76-1.248t-6.272-4q-.448-.512-.784-1.072l-.576-.96-.4-1.072-.24-.976-.128-1.12-.064-1.056-.016-1.264v-1.28q0-.384-.048-1.296t-.048-1.232.048-1.008.208-.976.448-.752.736-.704 1.12-.48 1.568-.4q2.656-.48 5.184-1.328t4.56-1.376 4.72-.528q2.656 0 4.688.528t4.544 1.376 5.168 1.328q2.272.384 3.216 1.328t.912 2.304-.032 3.216q0 .448-.016 1.456T38.16 18t-.096 1.2-.208 1.248-.368 1.104-.608 1.216-.88 1.168q-2.464 2.88-6.464 4.096t-10.08 1.152zm-.672-7.776h1.824v-7.296h2.272v-1.408h-6.4v1.408h2.304v7.296z"/></svg>