<svg xmlns="http://www.w3.org/2000/svg" width="34" height="32"><path d="M32.608 8.032q0 .768-.16 3.12t-.032 3.664q.16.8 0 4.448t-.16 4.48q0 .032-.016.096t-.096.288-.16.432-.208.496-.288.528-.4.496-.496.432-.608.288-.736.112q-1.344 0-3.792.048t-4.448.048-3.76-.096q-1.504-.096-3.28-.112t-3.088 0-3.344.048-3.152.064q-2.432.064-3.168-3.616.032-4.832-.032-5.76-.128-.48-.048-4.72t.08-4.688q1.184 0 4.368.016t5.536 0 4.368-.08q1.824-.032 3.952-.048t3.776 0 3.904.032 3.792.016zm-2.336 15.68q0-.768.176-4.224t-.016-4.224q-.128-1.184-.128-5.088-1.44 0-4.208-.032t-5.184-.032-4.72.064q-1.856.064-3.984.064t-4.72-.032-4-.032q0 .992-.16 3.52t-.064 4.032q.064.896.08 1.776t0 2.112-.016 1.808l1.024.768q.608.576.064.576H29.28q.64-.704.736-.416.032.064-.064.16-.256.224-.672.256.448-.032.672-.256.128-.128.208-.336t.112-.336v-.128zM5.808 12.928q.56 0 .944.4t.384.976q0 .448-.4.848t-.944.4q-.448 0-.88-.416t-.432-.832q0-.576.384-.976t.944-.4zm3.696 0q.48 0 .88.464t.4.912q0 .512-.368.88t-.928.368-.96-.368-.4-.88q0-.576.4-.976t.976-.4zm3.648 0q.576 0 .96.384t.384.992q0 .512-.384.88t-.96.368q-.544 0-.928-.368t-.384-.88q0-.224.112-.48t.288-.448.432-.32.48-.128zm3.696 0q.368 0 .672.176t.48.496.176.704q0 .512-.384.88t-.96.368q-.352 0-.672-.176t-.496-.464-.176-.608q0-.384.176-.704t.496-.496.688-.176zm3.696 0q.544 0 .912.4t.368.976q0 .512-.384.88t-.912.368-.928-.368-.4-.88q0-.384.176-.704t.48-.496.688-.176zm3.648 0q.48 0 .912.448t.432.928q0 .512-.4.88t-.944.368-.928-.368-.384-.88q0-.576.384-.976t.928-.4zm3.68 0q.48 0 .928.432t.448.944-.4.88-.976.368q-.384 0-.704-.24t-.464-.512-.144-.496q0-.384.176-.704t.48-.496.656-.176zM5.792 16.96q.576 0 .96.384t.384.96q0 .512-.384.912t-.96.4q-.544 0-.928-.384t-.384-.928q0-.288.208-.608t.528-.528.576-.208zm3.712 0q.544 0 .912.384t.368.944-.368.944-.912.384-.96-.432-.416-.88q0-.384.192-.688t.496-.48.688-.176zm3.648 0q.576 0 .96.384t.384.944-.384.944-.96.384q-.544 0-.928-.384t-.384-.928q0-.384.464-.864t.848-.48zm3.696 0q.56 0 .944.384t.384.944-.384.944-.96.384q-.352 0-.672-.176t-.496-.48-.176-.656q0-.576.4-.96t.96-.384zm3.696 0q.544 0 .912.384t.368.944-.368.944-.912.384q-.48 0-.912-.48t-.432-.832q0-.576.4-.96t.944-.384zm3.648 0q.384 0 .688.176t.48.48.176.688q0 .544-.384.928t-.96.384q-.544 0-.928-.384t-.384-.944.384-.944.928-.384zm3.68 0q.576 0 .976.384t.4.944-.4.944-.976.384q-.448 0-.88-.432t-.432-.88q0-.576.384-.96t.928-.384zm-22.08 4.064q.576 0 .96.384t.384.896q0 .48-.448.928t-.896.448q-.352 0-.656-.192t-.48-.496-.176-.688q0-.352.496-.816t.816-.464zm3.696 0q.368 0 .672.176t.464.48.16.624q0 .576-.368.976t-.928.4-.96-.4-.4-.976q0-.32.192-.624t.496-.48.672-.176zm3.664 0q.48 0 .912.448t.432.832q0 .576-.384.976t-.96.4q-.544 0-.928-.4t-.384-.976q0-.512.384-.896t.928-.384zm3.68 0q.576 0 .96.384t.384.896q0 .384-.176.688t-.48.496-.688.192q-.544 0-.944-.4t-.4-.976q0-.128.096-.32t.24-.352.32-.304.352-.224.336-.08zm3.712 0q.448 0 .864.448t.416.832q0 .576-.368.976t-.912.4-.944-.4-.4-.976q0-.512.4-.896t.944-.384zm3.648 0q.544 0 .944.384t.4.896q0 .384-.176.688t-.48.496-.688.192q-.544 0-.928-.4t-.384-.976q0-.352.432-.816t.88-.464zm3.68 0q.576 0 .976.384t.4.896q0 .448-.432.912t-.944.464q-.544 0-.928-.4t-.384-.976q0-.512.384-.896t.928-.384zM1.216 23.488z"/></svg>