<svg xmlns="http://www.w3.org/2000/svg" width="29" height="32"><path d="M13.664 20.544q-.416-.512-.48-.576-.288-.32-2.304-2.272t-2.24-2.112q-.096-.16-.064-.288t.128-.192l.096-.096q1.376-1.408 1.664-1.568.096-.128.32 0t.384.288l.16.192q.64.48 1.568 1.44 0-.32.032-.848t.032-.656q.032-.544.032-1.6t-.016-1.936-.016-1.696.032-.88q0-.128.032-.192t.096-.064h.16l.224-.032 1.984.064q.608 0 .672.128.096.096.128.336t.016.448.016.4q0 .192.032 1.776t0 2.128v2.816q.192-.192.432-.448t.448-.48.432-.464.416-.432.32-.288q.256-.192.512.096l1.632 1.536.224.192q.064.096 0 .224l-.592.576q-.56.544-1.184 1.136t-.848.848q-2.048 2.208-2.56 2.496-.544.448-.768.576t-.48.016-.672-.592zM3.936 26.4q-2.112.064-2.72-3.104 0-4.16-.032-4.992-.128-.384-.048-4.032t.08-4.064q1.088 0 3.456.016t3.616.016 3.552-.032v.128l.032 1.536v.16q-.896.032-4.368 0T3.168 12q0 .832-.144 3.024t-.048 3.472q.032.576.032 4.896l.08.32.288.512.592.32h21.568q.16-.032.272-.08t.176-.096.112-.144.064-.16.032-.192.048-.224q0-.64.144-3.632t-.016-3.632q-.096-1.056-.096-4.384-1.12 0-2.704-.032T20.4 11.92t-2.896.016v-.032l-.032-1.696v-.096q1.632 0 4.752.032t4.592.032l1.44-.032q0 .672-.144 2.688t-.048 3.136q.16.704.016 3.856t-.144 3.856q0 .096-.048.288t-.256.656-.48.832-.752.656-1.024.288q-1.152 0-3.264.032t-3.84.032-3.264-.064q-1.28-.064-2.816-.08t-2.656 0-2.88.048-2.72.032zm1.216-9.792q-.416 0-.784-.352T4 15.52q0-.48.336-.832t.816-.352.816.352.336.832q0 .416-.352.752t-.8.336zm19.04 0q-.512 0-.832-.368t-.32-.72q0-.48.336-.832t.816-.352q.416 0 .784.384t.368.8q0 .224-.096.432t-.24.352-.368.224-.448.08zm-19.04 3.52q-.48 0-.816-.336T4 18.976q0-.384.384-.768t.768-.384q.48 0 .816.336t.336.816q0 .224-.08.432t-.24.368-.368.256-.464.096zm3.168 0q-.416 0-.784-.384t-.368-.768q0-.48.336-.816t.816-.336.816.336.336.816-.336.816-.816.336zm12.672 0q-.448 0-.784-.336t-.336-.816.336-.816.784-.336q.512 0 .832.336t.32.816-.32.816-.832.336zm3.2 0q-.416 0-.784-.384t-.368-.768q0-.48.336-.816t.816-.336.816.336.336.816-.336.816-.816.336zm-19.04 3.488q-.32 0-.576-.16t-.416-.432-.16-.56q0-.16.144-.368t.32-.368.368-.288.32-.128q.48 0 .816.336t.336.816q0 .192-.112.4t-.272.368-.368.272-.4.112zm3.168 0q-.48 0-.816-.336t-.336-.816.336-.816.816-.336.816.336.336.816-.336.816-.816.336zm3.168 0q-.48 0-.816-.336t-.336-.816q0-.32.16-.576t.416-.416.576-.16q.416 0 .784.4t.368.752q0 .48-.32.816t-.832.336zm6.352 0q-.464 0-.8-.336t-.336-.816.336-.816.816-.336q.384 0 .752.4t.368.752q0 .48-.336.816t-.8.336zm3.152 0q-.448 0-.784-.336t-.336-.816q0-.32.368-.736t.752-.416q.48 0 .816.336t.336.816-.336.816-.816.336zm3.2 0q-.32 0-.576-.16t-.416-.432-.16-.56q0-.48.336-.816t.816-.336.816.336.336.816q0 .352-.368.752t-.784.4z"/></svg>