<svg xmlns="http://www.w3.org/2000/svg" width="30" height="32"><path d="M15.04 25.312q-3.008 0-5.712-.592t-4.512-1.536T2 21.04t-.848-2.416q.32-1.728 1.568-3.056t2.96-2.08 3.424-1.136 3.344-.416l.128 1.408q-.32.064-1.184.16t-1.456.192-1.44.304-1.424.512-1.136.752-.864 1.12-.304 1.536q.192 1.056 1.168 1.792t2.496 1.12 3.12.544 3.456.16q1.824 0 3.616-.24t3.408-.72 2.528-1.36.688-2q-.256-1.12-1.376-2t-2.656-1.36-3.296-.576l1.792 1.92-1.536 1.28-3.584-4.288 4.128-3.424 1.216 1.408-1.888 1.504q.928.032 1.984.192t2.176.448 2.192.736 1.984.992 1.632 1.296 1.04 1.552q.864 3.552-2.992 5.984T15.04 25.312z"/></svg>