<svg xmlns="http://www.w3.org/2000/svg" width="26" height="32"><path d="M24.736 7.168q.256 4.384 0 11.968-.192 5.632-.096 8.544l-2.08.064q-.096-2.976.096-8.672.256-7.488 0-11.776zM1.344 7.2l2.08.096Q2.976 17.664 3.36 27.68l-2.08.064Q.896 17.664 1.344 7.2zm16.096 5.472q.704.64.896 1.248.224.992.128 2.304l-.128 1.6-.128 1.408-.192 1.6-.224 2.272q-.16 1.792-.192 2.176l-.064.256q-.064.064-.224.064-1.792 0-2.208-.032-.16 0-.16-.064-.032-.032-.032-.16l.032-.256q.032-.32.224-2.976 0-.192.048-.896t.08-1.248l.128-1.408q.064-1.024.096-1.44 0-.8-.128-1.344-.224-.672-.544-.96-.288-.352-.864-.352-.48 0-.96.192-.544.192-.896.416-.416.288-.672.416-.512.32-.704.64l-.224 2.112-.128 1.28-.384 4.704q-.032.064-.032.448 0 .096-.016.192t-.032.176-.016.112v.16q-.032.128-.128.16-.032 0-.112.016t-.144.016q-.192.064-.48.064-.256 0-.352.032-.416 0-.576.032l-.256.032q-.096 0-.544-.064-.192-.064-.192-.16-.032-.064.032-.576v-.352q.096-.64.32-3.296l.352-3.776.16-1.888q.064-1.024.064-1.184l.096-1.152.096-1.024q0-.128.096-.128.032-.032.384-.032h1.824q.224 0 .288.032.064 0 .16.096.064.32 0 1.248.192-.256.352-.352.064-.064.416-.224.32-.128.352-.16 1.024-.384 1.952-.64.544-.128 1.152-.128.416 0 .544.032.928.064 1.664.736z"/></svg>