<svg xmlns="http://www.w3.org/2000/svg" width="31" height="32"><path d="M19.712 28.192q-2.112-.096-2.56-.256-1.664-.512-3.056-2t-2.256-3.28q-.608-1.376-.704-1.728-.32.096-.592.144t-.432.032-.512-.048-.64-.032q-3.968-.128-6.176-4.864l-.448-.896-.448-1.12q-.448-1.408-.608-4.032-.032-.32-.064-1.056T1.152 8q0-.224.016-.944t-.048-.944q0-.928.032-.928l2.88.704 1.616.192q1.072.128 1.328.16 1.792.032 2 .064t2.016-.176 2-.24q.416-.064 1.568-.224t1.76-.288q1.12-.16 1.184-.128.256.192.256 1.376.032.768.016 1.056t-.08.928-.096 1.12q0 .224-.16 1.12 1.696.064 3.04-.032 5.024-.672 6.272-.8l2.272-.128q.096.32.224 1.568t.192 1.504q.064.288.064.896 0 2.112-.064 3.264-.128 1.472-.544 2.992t-1.088 3.072-1.76 2.784-2.4 1.776q-.288.128-.768.192t-1.088.128-.768.096q-.224 0-.656.016t-.656.016zM7.488 12.032q.288-.064.432-.176t.176-.208v-.096q0-.064-.048-.304T8 10.88q-.064-.128-.192-.416t-.192-.416q-.064-.096-.224-.304t-.272-.352-.24-.176q-.288-.16-.864-.16-.096-.064-.336-.064t-.4.064q-.384.032-.832.336t-.672.656q-.224.384-.288.48-.256.576-.256.64v.256q.128.512.672.512.576-.064.608-.448 0-.032.064-.224 0-.064.032-.144t.032-.112q.224-.48.608-.64.32-.128.736-.064l.064.032.096.032q.064.032.192.112t.192.144q.224.352.288.544.064.096.064.448 0 .064.048.16t.192.176.368.08zm3.504-.016q.24.016.4-.112t.16-.224q.032-.224.176-.56t.272-.432q.576-.416.736-.448.736 0 1.152.864.032.128.128.272t.128.24q0 .064.096.16.032.032.064.08t.048.08.112.064.256.016.256-.08.128-.128v-.064q.064-.192-.064-.576-.032-.064-.064-.288t-.096-.352q-.288-.64-.48-.8-.352-.448-1.408-.576-.8-.096-1.504.416-.064.032-.32.352t-.32.544q-.032 0-.192.352 0 .224-.096.384 0 .032-.032.224t-.032.256v.08l.128.144.368.112zm7.92 13.392h.8q1.536 0 2.496-.32.768-.256 1.376-.72t1.024-.96.736-1.216.496-1.328.32-1.488.192-1.456.112-1.504q.032-.288.048-.592t.032-.64.048-.656q0-.448-.192-1.408-.96.096-2.944.464t-3.168.464q-1.088.096-3.2-.096-.224 1.792-1.088 3.392.096.064.512.064.352 0 .576-.416.192-.192.256-.512v-.416q.032-.064.064-.16t.208-.24.464-.144q.32 0 .496.176t.208.368v.192q0 .16-.064.448 0 .064-.032.16-.032.192-.096.288-.096.16-.192.352-.032.192-.288.544t-.352.448q-.448.416-1.664.32-.544 0-.864-.256-.16.224-.4.432t-.336.304-.224.192-.256.208-.256.208q.16.896.8 2.048.544 1.152 1.024 1.792t1.296 1.072 2.032.592zM8.896 16.672q1.248 0 1.76-.384l.224-.224.24-.288.176-.224q.128-.288.192-1.12 0-.32-.304-.368t-.432.048q-.032 0-.224.096t-.4.192-.464.176-.416.08q-.672 0-1.184-.32-.288-.32-.768-.32t-.48.416q0 .288.064.576.096.768.688 1.216t1.328.448zm13.792 1.984q-.288 0-.512-.16-.256-.096-.512-.384t-.448-.624-.256-.624q-.096-.48-.096-.768 0-.064.032-.16t.208-.256.464-.128q.256 0 .416.128t.176.224.016.192q0 .384.032.512 0 .192.016.256t.048.144.112.112.208.096q.352.32.8.064.032-.032.128-.064t.128-.048.096-.064.096-.096.08-.112.048-.16q0-.032.032-.112t.032-.144v-.288q.032-.288.176-.432t.272-.144h.128q.192.032.272.064t.16.16.08.352v.416q0 .256-.192.736-.032.032-.112.192t-.112.192q-.096.16-.256.32t-.336.288-.368.224-.352.096q-.32.096-.704 0zm-1.024 3.712-.192-.096-.4-.192-.464-.16-.448-.064q-.672 0-1.152.288-.32.32-.784.32t-.464-.384q0-.32.064-.608.096-.768.688-1.216t1.328-.448q1.248 0 1.76.384.128.128.352.4t.288.336q.128.32.192 1.12 0 .32-.304.368t-.464-.048z"/></svg>