<svg xmlns="http://www.w3.org/2000/svg" width="33" height="32"><path d="M20.608 12.032q-.864-1.568-.96-2.88-.16-1.632.688-3.152t2.352-2.384l.096-.064q1.568-.608 3.296-.608 2.208 0 3.968 2.4 1.984 2.688 1.44 4.96-.544 2.336-3.552 4.064-1.408.8-2.944.736-.896-.032-1.408-.256-1.248-.64-2.432-1.984-.096-.128-.544-.832zm1.824-2.176 6.432-.128q.32 0 .4-.16t.08-.672v-.768q0-.096-.064-.128t-.48-.032h-3.904l-1.696.064q-.704 0-.96.064-.224.032-.224.16v.736q0 .512.064.672.096.192.352.192zM11.36 27.808q-1.184-1.952-2.336-4.992-.96-2.528-1.472-3.584-.064.192-.368.8t-.432.816l-.384.624-.576.736q-.16.192-.528.288t-.64.112-.784 0-.608-.016q-.352 0-1.056.032t-1.056.032l.064-3.424 2.944-.032 2.976-5.568q.32-.512.608-.576t.464.144.4.624q.224.448.304.64t.128.304.208.576.416 1.168q.288.704.544 1.392t.368.976.224.592.208.496.192.4.256.528q.128-.416.48-1.728t.576-1.92q.64-1.6 1.552-3.344t1.552-3.12q.16-.384.48-.448t.56.08.304.304q.288.704.736 1.424t.672 1.2q.192.384 2.72 5.824.224 0 .592.048t.624.08.576 0q.352-.128 1.632-.048t1.44.08l-.032 3.232q-.288 0-.864-.048t-1.088-.048-1.024.096q-.48.064-1.056.064t-1.28-.032-1.088-.032q-.288-.768-.816-1.744t-.944-1.872q-.192-.416-.64-1.12t-.64-1.216q-.32.928-.688 1.76t-.64 1.536-.528 1.792q-.16.64-.448 1.488t-.544 1.472-.688 1.648-.592 1.472q-.096.192-.224.32t-.336.08-.4-.368z"/></svg>