<svg xmlns="http://www.w3.org/2000/svg" width="33" height="32"><path d="M30.752 5.984q.864 1.568.96 2.88.16 1.664-.704 3.2t-2.368 2.4l-.096.064q-1.6.64-3.328.64-2.24 0-4-2.432-2.016-2.72-1.472-5.024.544-2.336 3.584-4.096 1.44-.832 2.976-.736.928 0 1.44.256 1.248.64 2.464 2.016.096.128.544.832zm-4.864 6.112q.704 0 .704-.096v-.8l-.032-1.664 1.504-.032q.672-.032.832-.064.192-.064.192-.16v-.64q0-.448-.064-.608t-.32-.16l-2.144.064q0-1.792-.064-2.272-.032-.128-.064-.192t-.08-.096-.176-.032h-.608q-.288 0-.416.064-.128.032-.16.16t-.032.48v1.92L23.104 8q-.256 0-.336.144t-.08.56v.704q0 .064.064.096.032.032.416.032h1.824l.032 2.432q0 .096.16.096.224.032.704.032zM11.36 27.808q-1.216-1.952-2.336-4.992-.96-2.528-1.472-3.584-.064.192-.368.8t-.432.816l-.384.624-.576.736q-.16.192-.528.288t-.64.112-.784 0-.608-.016q-.352 0-1.056.032t-1.056.032l.064-3.424 2.944-.032 2.976-5.568q.192-.32.384-.464t.336-.144.288.128.24.288.224.384q.224.448.304.64t.128.304.208.576.416 1.168q.32.8.624 1.6t.4 1.056.24.592.24.544.288.592q.128-.416.48-1.728t.576-1.92q.64-1.6 1.552-3.344t1.552-3.12q.16-.384.48-.448t.56.08.304.304q.288.704.736 1.424t.672 1.2q.192.384 2.72 5.824.192 0 .848.08t.944.048q.352-.128 1.632-.048t1.44.08l-.032 3.232q-.288 0-.864-.048t-1.088-.048-1.024.096q-.48.064-1.056.064t-1.28-.032-1.088-.032q-.288-.768-.816-1.744t-.944-1.872q-.192-.416-.64-1.12t-.64-1.216q-.256.768-.896 2.224t-.96 2.864q-.128.512-.32 1.12t-.448 1.264-.48 1.216-.544 1.296-.48 1.184q-.096.192-.224.32t-.336.08-.4-.368z"/></svg>