<svg xmlns="http://www.w3.org/2000/svg" width="28" height="32"><path d="M11.68 23.936q-1.216-2.016-2.4-5.152-.992-2.624-1.504-3.68-.096.16-.4.784t-.432.848-.4.656-.592.784q-.16.192-.544.288t-.656.112-.816-.016-.64-.032q-.288 0-.688.032t-.8.048-.688.016l.064-3.52 3.04-.064 3.072-5.76q.32-.512.624-.576t.496.16.416.64q.192.352.256.528t.128.32.112.304.192.592.4 1.04q.32.832.624 1.648t.416 1.072.256.624.24.576.288.592q.16-.448.512-1.792t.608-1.952q.64-1.664 1.584-3.456t1.584-3.232q.192-.416.512-.464T17.12 6t.32.304q.32.704.768 1.456t.704 1.264q.192.384 2.816 5.984.192 0 .864.096t.96.032q.352-.128 1.68-.032t1.488.096l-.032 3.296q-.288 0-.88-.032t-1.136-.032-1.024.064q-.544.096-1.136.096t-1.312-.048-1.104-.048q-.32-.768-.864-1.776t-.96-1.936q-.192-.448-.656-1.168t-.656-1.232q-.32.928-.72 1.792t-.672 1.6-.528 1.856q-.16.64-.464 1.52t-.56 1.536-.704 1.712-.64 1.504q-.064.224-.208.352t-.352.08-.432-.4z"/></svg>