<svg xmlns="http://www.w3.org/2000/svg" width="26" height="32"><path d="M6.72 7.744q-.384 0-.512-.352-.096-.224 0-.432t.32-.272q.864-.352 1.664-.48.224-.032.416.096t.224.352-.096.4-.352.24q-.704.096-1.472.384-.096.064-.192.064zm5.216.224q-.16 0-.288-.064-.608-.416-1.312-.576-.16-.032-.256-.144t-.144-.24-.016-.288q.064-.224.256-.336t.384-.048q.928.192 1.696.704.16.128.208.352t-.08.416q-.16.224-.448.224zm-8.064 2.144q-.16 0-.256-.064-.192-.096-.272-.304t.016-.432q.416-.832 1.12-1.44.16-.16.384-.144t.384.176.144.384-.176.384q-.544.48-.864 1.152-.16.288-.48.288zm10.336.864q-.384 0-.512-.32-.288-.736-.704-1.376-.128-.16-.08-.384t.24-.352.416-.08.352.208q.448.736.8 1.568.064.224-.016.416t-.304.288q-.096.032-.192.032zm-5.504 4.768q-1.312 0-2.336-1.408-1.184-1.6-.864-2.944t2.112-2.368q.832-.48 1.728-.448.512.032.832.16.736.352 1.408 1.184.064.064.32.48.512.896.576 1.664.064.672-.144 1.296t-.64 1.136-1.008.832l-.064.032q-.928.384-1.92.384zm8.704-3.776h-.064q-.768-.128-1.568-.16-.128 0-.224-.048t-.16-.112-.112-.176-.048-.208q0-.16.08-.288t.208-.192.288-.064q.864.032 1.696.16.224.032.352.208t.096.4q-.064.48-.544.48zM3.36 13.824q-.224 0-.368-.128t-.176-.32q-.064-.576-.064-1.152v-.608q.032-.224.192-.368t.4-.128.384.192.112.4v.512q0 .512.064.992 0 .224-.128.4t-.352.208H3.36zm17.632-.64q-.128 0-.256-.064-.64-.384-1.408-.672-.192-.064-.288-.272t-.016-.416.272-.304.416-.032q.864.32 1.568.736.192.128.256.352t-.064.416q-.16.256-.48.256zm2.592 2.752q-.352 0-.48-.32-.352-.672-.832-1.248-.16-.16-.144-.384t.192-.368.4-.128.352.176q.576.672.992 1.472.096.192.032.416t-.288.32q-.096.064-.224.064zm-7.52 9.6q-2.176 0-3.936-2.336-1.952-2.688-1.408-4.928.512-2.272 3.488-4 1.408-.8 2.912-.736.896.032 1.408.256 1.248.608 2.4 1.984.096.096.544.8.864 1.536.928 2.848.16 1.6-.672 3.104t-2.304 2.336l-.128.064q-1.536.64-3.232.608zM2.496 17.28q-.128 0-.224-.032-.224-.096-.288-.32t.032-.416q.384-.768.864-1.472.096-.192.32-.24t.416.08.24.352-.08.384q-.448.672-.768 1.376-.16.288-.512.288zm14.208 5.28q.704 0 .704-.096v-.768l-.032-1.664L18.848 20q.64-.032.832-.064.16-.032.16-.128V19.2q0-.48-.064-.608-.064-.16-.288-.16l-2.112.064q0-1.76-.064-2.24-.032-.192-.096-.24t-.224-.048h-.608q-.256 0-.384.032-.128.064-.16.16-.032.16-.032.48v1.888l-1.824.032q-.256 0-.336.128t-.08.544v.672q0 .096.064.128h.448q.448 0 1.76.032l.032 2.368q0 .064.16.096.192.032.672.032zm-10.4-.768q-.992 0-1.792-1.056-.896-1.216-.64-2.24t1.6-1.792q.64-.384 1.312-.352.384.032.64.128.544.288 1.088.896.032.032.224.352.384.704.416 1.28.096.736-.288 1.424t-1.056 1.072l-.064.032q-.672.256-1.44.256zm18.144-2.176q-.16 0-.288-.064t-.208-.192-.08-.288q-.032-.8-.16-1.536-.032-.224.096-.4t.352-.224.4.08.24.352q.128.8.16 1.696.032.224-.128.4t-.384.176zM1.696 20.96q-.48 0-.544-.448-.032-.32-.032-.64 0-.576.128-1.184.032-.224.224-.336t.416-.08.352.224.064.416q-.096.512-.096.96 0 .256.032.48.032.16-.032.288t-.176.224-.24.096h-.096zM24 23.392q-.064 0-.16-.032-.192-.064-.304-.256t-.048-.416q.192-.704.288-1.504.032-.224.208-.368t.4-.112.368.208.112.4q-.128.896-.352 1.664-.096.416-.512.416zm-20.256.64q-.128 0-.224-.032-.832-.416-1.44-1.248-.128-.192-.096-.416t.224-.352.416-.096.352.224q.416.608.992.896.224.096.288.304t-.032.432q-.128.288-.48.288zm5.248 2.016q-.704 0-1.248-.768-.64-.864-.48-1.568.192-.736 1.152-1.312.448-.256.928-.224.288 0 .448.096.384.192.768.64.032.032.192.256.256.48.288.896.032.352-.08.688t-.336.624-.544.448l-.032.032q-.512.192-1.056.192zm-3.328.416q-.352 0-.48-.32-.384-.832-.48-1.76 0-.224.144-.4t.368-.192.4.128.176.368q.064.736.384 1.376.096.224.016.432t-.304.304q-.096.064-.224.064zm16.384.128q-.256 0-.416-.224-.16-.16-.144-.384t.208-.384q.544-.448.96-1.088.128-.192.352-.224t.416.08.24.336-.08.416q-.512.768-1.216 1.344-.128.128-.32.128zM10.688 28q-.352 0-.48-.288-.096-.224-.032-.432t.288-.304q.704-.352 1.28-.8.32-.224.64-.032.224.16.576.32.192.096.272.304t-.016.416-.304.272-.432-.032q-.16-.064-.352-.16-.576.384-1.184.704-.128.032-.256.032zm7.872.064q-.448 0-.544-.448-.032-.224.096-.416t.352-.224q.864-.16 1.504-.416.192-.064.4.032t.288.304-.016.416-.32.272q-.704.256-1.664.448-.032.032-.096.032zm-9.984.48q-1.024 0-1.824-.544-.16-.128-.208-.352t.08-.384q.288-.448.736-.16l.032.032q.512.32 1.184.32.224 0 .384.16t.16.4-.144.384-.4.144zm7.84-.192q-.896 0-1.76-.16-.224-.064-.336-.256t-.08-.416q.032-.128.128-.24t.24-.16.272-.016q.768.16 1.44.16h.064q.224 0 .4.16t.176.384-.16.384-.384.16z"/></svg>