<svg xmlns="http://www.w3.org/2000/svg" width="24" height="32"><path d="M17.536 10.784q-.096.032-.48-.16l-.864-.512q-.032-.032-.128-.064-.16-.096-.064-.16.064-.064.656-.448t1.328-.864.992-.672q.064-.032.256-.192t.32-.256l-1.376.064q-.672 0-.736-.16-.032-.064-.032-.336V6.24l.16-.192q.096 0 .944.016t1.712.016h1.12q.064.032.512 0 .576 0 .72.128t.24.576v.096q.032.096.08.416t.08.592.096.4q.032.192.112.768t.08.608q0 .064-.08.064h-.24l-.96.032q-.288 0-.352-.128-.064-.16-.128-.608t-.128-.64q-.128.096-.368.224t-.48.288-.4.256q-1.408.992-2.016 1.376-.032.032-.112.08t-.144.08-.16.064-.16.032zm-10.688.16q-.064 0-.16-.032t-.16-.08-.144-.096-.112-.08q-.608-.384-2.016-1.376-.192-.128-.672-.416t-.576-.32q-.064.192-.128.64t-.128.576-.352.16l-.96-.064q-.288.064-.32-.064L1.2 9.2l.144-.752q.032-.16.064-.432t.08-.592.08-.416v-.096q.064-.32.112-.432t.24-.176.608-.064h.512q.48 0 2.048-.016t1.728-.048l.16.192q.032.992-.032 1.12-.032.064-.208.112t-.368.048h-.16l-1.376-.032q.128.064.32.224t.256.192q.256.192.992.672t1.328.864.656.448q.096.064-.064.16-.096.032-.128.064l-.864.512q-.384.192-.48.192zm5.648 15.072q-.208 0-.4-.096l-6.368-3.264q-.512-.256-.512-.8v-8.032q0-.576.48-.832L12.032 9.6q.416-.224.832 0l6.4 3.264q.512.256.512.8l-.032 8.192q0 .544-.48.8l-6.336 3.264q-.224.096-.432.096zm.048-.96.064-.032.096-.064.064-.192.032-1.44.064-2.432.064-1.056.032-1.152.032-1.024.032-.416v-.064l.352-.192 1.024-.512 2.144-1.152 2.4-1.344.096-.256-.096-.096h-.16l-3.424 1.472-1.056.48-.992.448-.832.384-.416-.192-1.216-.576-1.728-.768-2.88-1.248h-.16l-.128.096v.128l.096.128 2.912 1.632 1.792.928.864.48.384.16v.48l.032 1.024.064 1.152.064 1.088.096 2.4.032 1.44.096.192.064.064zM6.912 29.28q-.128-.032-1.712-.032H3.168q-.096-.032-.544 0-.32 0-.496-.032t-.272-.176-.112-.208-.08-.384L1.44 27.04q-.032-.16-.08-.48t-.08-.592-.064-.304l.32-.064.96-.032q.288 0 .352.128.064.16.144.608t.144.608q.064-.032.544-.304t.704-.432q1.376-.992 1.984-1.376.032-.032.16-.112t.224-.112.224-.064q.096 0 .448.192l.864.512.128.064q.16.096.064.16-.032.064-.64.448t-1.328.864l-1.008.672q-.032.032-.24.192t-.336.224l1.376-.032q.704 0 .736.16.032.064.048.336t-.016.528v.256zm10.784.128-.16-.192q-.064-.992.032-1.12 0-.064.192-.096t.352-.032h.16L19.68 28q-.16-.096-.352-.256t-.224-.192q-.224-.128-.72-.464t-.976-.64-.864-.56-.448-.288q-.064-.096.064-.16.096-.064.16-.096l.832-.48q.384-.192.48-.192t.208.048.224.128.144.08q.608.384 2.016 1.376l.24.16.288.176.272.16.256.144.192.128q.064-.192.128-.64t.128-.608q.096-.128.352-.128l.992.064q.256-.064.288.032 0 .032-.08.608t-.112.768l-.256 1.408v.096q-.064.448-.208.576t-.72.128q-.48-.032-.544 0-.448 0-2.032.016t-1.712.016z"/></svg>