<svg xmlns="http://www.w3.org/2000/svg" width="30" height="32"><path d="M11.104 28.672q-1.888.032-3.744.016t-3.424-.016H2.24q-.576 0-.944-.528t.08-1.36q.64-.96 1.424-2.192t1.296-2.048.544-.848q.576-.896 1.008-1.536t.544-.784.368-.544.48-.832.896-1.616q.224-.416.752-1.456t1.216-2.352 1.296-2.4q1.6-2.912 2.368-4.128.032 0 .208-.32t.336-.56.4-.464.464-.256q.192-.032.384.064t.352.304.256.368.256.464.224.368q1.696 2.912 2.656 4.512.224.384.48.88t.528.992.496.912q.416.672 1.36 2.176t1.456 2.336q.128.224 1.264 2.256t1.872 3.024q1.472 2.08 2.464 3.808.096.096.144.32t.032.528-.32.528-.912.224q-2.144 0-15.232.064-.288 0-.816.048t-.816.048zm5.12-7.52q.384 0 .496-.048t.112-.24l.096-2.08q.064-.576.256-2.016.16-1.888.288-2.816.16-1.408.16-1.44 0-.32-.128-.32-.48-.096-2.336-.096-.288 0-.704.016t-.736.016h-.352q-.416 0-.416.288-.032.128-.016.288t.032.256.032.256.016.288q.096 1.952.224 2.976 0 .064.096.88t.128 1.2q.16.928.192 2.304.032.16.128.224t.384.064h2.048zm-.96 5.152q.288 0 .56-.112t.512-.32.416-.448.272-.544.096-.592q0-.64-.528-1.152t-1.2-.544q-.864-.032-1.408.48t-.576 1.28q0 .768.592 1.36t1.264.592z"/></svg>