<svg xmlns="http://www.w3.org/2000/svg" width="31" height="32"><path d="m13.952 10.176-.016-.256v-.704l.016-.512V6.688q0-.32.128-.352t.256-.032q.48 0 1.088-.064 1.152-.128 2.048.032.064 0 .192.016t.224.016q.128.064.16.064h.192l.192-.032q1.088-.128 2.432 0 .736.064 1.28.064.128 0 .32.032.128.032.128.32v.512l.032 1.536V10l-.032.24q-.192 0-.736.064t-.736 0q-.48-.064-.656-.064t-.64.048-.656.048q-.96.064-1.184.032h-.224v-.064q-.128 0-.928-.032-.16 0-.544-.048t-.544-.048-.544.032q-.16.064-.624 0t-.624-.032zm-2.624 6.528q-.032 0-.048-.24t0-.656.016-.48v-1.92q0-.288.192-.32.256-.032.416-.032.768 0 1.76-.064 1.856-.128 3.296.032h.32l.352.032.256.064q.128 0 .336-.016t.304-.016q1.728-.128 3.904-.032 1.184.064 2.08.064.224 0 .512.032.224.032.224.32v1.92q0 .064.016.496t.016.672-.064.24q-.288-.032-1.184.032t-1.184 0q-.096 0-.16-.032-.096 0-.288.032-4.096.096-4.576.064h-.32l-.096-.032v-.032q-.192 0-1.44-.032-.256 0-.88-.048t-.88-.048-.896.064q-.224.032-.992-.016t-.992-.048zm-5.92 5.024q.096.096 0 .192-.576.48-3.168 2.24-.32.224-.544.288t-.336-.032-.176-.208-.064-.416.016-.48l.048-.528q.032-.096.032-.16t.016-.144.016-.144v-.128l.192-2.816q0-.096.112-.144t.208.016q.544.448 1.904 1.296t1.744 1.168zm24.16.512q0 .064.032.512t.016.704-.112.256q-.448 0-1.888.048t-1.92-.016q-.608-.032-1.296-.032t-1.216.016-1.296.048-1.248.032q-2.56.064-3.104.032h-.304l-.224-.016-.112-.016v-.032q-.288 0-2.368-.064-.416 0-1.424-.048t-1.424-.048-1.44.064q-.384.064-1.6 0t-1.6-.064q-.096 0-.112-.24t.016-.688.032-.512v-2.048q0-.192.064-.24t.256-.08q.384-.032.672-.032 1.248 0 2.848-.064 3.008-.128 5.344 0 .16.032.496.032t.56.032q.416.032.448.064.192 0 .528-.016t.528-.016q2.784-.16 6.304-.032 1.888.064 3.36.064.352 0 .8.032.224.032.288.096t.064.256q0 .064.016.128t.016.112v1.776z"/></svg>