<svg xmlns="http://www.w3.org/2000/svg" width="24" height="32"><path d="M17.824 20.224q.608 1.504.4 3.024t-.96 2.88-1.904 2.384q-1.728 1.536-3.888 2.08t-4.368-.032q-1.984-.544-3.552-1.936t-2.144-3.28q-.608-1.952.032-4.16.544-1.856 2.56-3.872.608-.608.96-1.008t.704-1.04.48-1.312q.096-.576.128-1.328t.032-1.2T6.24 10t-.064-1.232q-.992-.352-1.68-1.28T4.032 5.6q.224-1.088.944-1.824t1.744-.704q1.024.064 1.904.688t1.168 1.584q.256.928-.128 1.856T8.416 8.544q.064.192.288 1.024t.32 1.152.352 1.04.48 1.088.576.88.784.848.944.56q.256.128.704.32t.768.32.704.32.72.4.624.464q1.344 1.184 2.144 3.264zM5.856 5.984q.096.416.464.704t.784.24.672-.272.288-.512T8 5.568t-.368-.512-.656-.288q-.224-.032-.48.096-.032 0-.032.032-.32.16-.512.48t-.096.608zm10.496 7.488q-.064 0-.96-.784t-1.76-1.6-.896-.944q0-.16.672-.816t.832-.656q.032 0 .16.096t.304.256.368.368.384.4l.704.704 5.088-5.184 1.568 1.568q-6.304 6.528-6.464 6.592zm-1.184 11.36q.832-1.472.544-3.2t-1.504-2.88q-.448-.384-1.04-.688t-1.344-.592-1.168-.512q-.96-.544-1.488-.992t-.88-1.248q-.032.736-.256 1.216t-.768 1.248q-.192.256-.416.512t-.432.48-.432.432-.464.448-.432.464q-.896 1.056-1.296 2.352t-.048 2.544q.352 1.152 1.264 2.048t2.096 1.376q2.24.896 4.56.016t3.504-3.024zm-.864-3.616q.064.608-.176 1.072t-.784.624l-.128.048-.16.048q-.896.16-1.536-.736-.256-.352-.288-.512-.064-.416.192-.928.384-.832 1.056-.864.544-.032.992.224h-.032q-.192.032-.288.208t-.064.368.192.304.32.08q.448-.096.384-.544.192.288.32.608zm-6.368 1.152q.096.608-.144 1.056t-.784.608q0 .032-.128.08t-.192.048q-.864.16-1.504-.768-.256-.32-.288-.48-.064-.416.192-.96.384-.8 1.056-.832.544-.032.992.224h-.032q-.192.032-.288.192t-.064.368.192.32.32.08q.448-.096.384-.544.192.256.288.608zm3.68 1.344q-.096 0-.192.032l-.128.128q-.256.256-.48.416-.48.352-.928.352t-1.024-.352q-.096-.064-.128-.064-.16-.032-.256.032-.096.096-.112.256t.08.288q.096.096.224.256.416.448.896.64.288.128.576.096t.544-.16q.448-.256.8-.8.064-.128.16-.288.096-.192.128-.32.064-.16.032-.32l-.064-.128z"/></svg>