<svg xmlns="http://www.w3.org/2000/svg" width="22" height="32"><path d="M9.248 11.68q-2.048.16-4.64.032-1.376-.064-2.464-.064-.256 0-.576-.032-.128-.032-.176-.048t-.08-.096-.032-.208V9.248q0-.064-.016-.512t-.016-.704.064-.256q.352.032 1.408-.032t1.408 0q.896.032 1.248.032t1.232-.048T7.84 7.68q1.76-.032 2.048-.032v-.032q0-.032.096-.032h.448q.48-.032 2.688.032.384 0 .88.016t.896.032.848.032.896 0 .864-.048q.416-.064 1.664 0t1.664.064q.064 0 .08.24t0 .688-.016.512v1.536q0 .128-.016.288t-.016.224q0 .192-.064.256t-.256.064q-.384.032-.672.032-1.28 0-2.944.064-3.04.128-5.472 0-.16-.032-.448-.032h-.448q-.032 0-.384.064-.16 0-.304.016t-.32.016h-.304zm11.616 2.944q.032 0 .048.24t0 .656-.016.48v1.92q0 .288-.192.32-.256.032-.448.032-.768 0-1.792.064-1.888.128-3.392-.032h-.544q-.032 0-.256.032-.096.032-.288.048t-.256.016q-1.28.128-2.88.032-.864-.064-1.536-.064-.16 0-.352-.064-.16 0-.16-.288 0-.064-.016-.224t-.016-.256v-2.608l.032-.24q.224.032.88-.032t.88 0q.256.032.576.048t.56 0 .576-.048.56-.064q1.12-.032 1.28 0v-.064q0-.032.32 0h.032q.416-.064 3.968.064h.384q.256-.064 1.024-.016t1.024.048zm-.032 6.528q.064 0 .08.256t0 .704-.016.512v1.696l-.016.176-.016.144q0 .192-.048.256t-.208.096q-.352.032-.608.032-1.152 0-2.592.064-2.688.128-4.8-.032h-.272l-.272-.016-.256-.016q-.032.032-.352.064-.16.032-.416.032t-.384.032q-1.792.128-4.064 0-1.216-.064-2.176-.064-.224 0-.512-.032-.256-.032-.256-.32v-2.048q0-.064-.016-.512t0-.688.048-.24q.288 0 1.232-.064t1.232 0q.8.064 1.104.064T8.32 21.2t1.088-.048q1.568-.064 1.824-.032v-.064l.08-.016.16-.016.16.016.08.016q.416-.032 2.368 0 .352 0 1.28.048t1.28.048 1.28-.032q.384-.064 1.472 0t1.44.032z"/></svg>