<svg xmlns="http://www.w3.org/2000/svg" width="31" height="32"><path d="M5.408 9.504q.096.096 0 .192-.384.32-1.744 1.168T1.76 12.16q-.096.064-.208.016t-.112-.144l-.192-2.848v-.128l-.016-.144-.016-.128-.032-.144-.048-.544q-.016-.192-.016-.48t.064-.416.176-.224.336-.016.544.272q2.592 1.76 3.168 2.272zm24.096-1.792q.064 0 .08.096t.016.288v.368l-.016.384-.016.304v1.536q0 .128-.016.288t-.016.224q0 .192-.064.256t-.288.064q-.448.032-.8.032-1.472 0-3.36.064-3.52.128-6.304 0-.192-.032-.528-.032h-.528q-.032 0-.448.064-.16 0-.336.016t-.368.016h-.352q-2.368.16-5.344.032-1.6-.064-2.848-.064-.288 0-.672-.032-.192-.032-.256-.096t-.064-.256V9.248q0-.064-.032-.512t-.016-.704.112-.256q.384.032 1.6-.032t1.6 0q1.024.032 1.44.032t1.424-.048 1.424-.048q2.048-.032 2.368-.032v-.032q0-.032.112-.032h.528q.544-.032 3.104.032.416 0 .992.016t1.04.032.976.032 1.04 0 1.008-.048q.48-.064 1.92 0t1.888.064zm-4.288 6.912q.064 0 .064.24t-.016.656-.016.48v1.92q0 .288-.224.32-.288.032-.512.032-.896 0-2.08.064-2.176.128-3.904-.032h-.64l-.256.032q-.128.032-.352.048t-.32.016q-1.44.128-3.296.032-.992-.064-1.76-.064-.16 0-.416-.064-.192 0-.192-.288v-1.92q0-.064-.016-.496t-.016-.672.064-.24q.224.032.976-.032t1.008 0q.32.032.688.048t.64 0 .672-.048.656-.064q1.248-.032 1.44 0v-.064q.032 0 .096-.016t.128-.016.128.016l.064.016q.48-.064 4.576.064h.448q.288-.064 1.184-.016t1.184.048zm-2.624 6.528q.032 0 .032.256v1.216q0 .224-.016.48t-.016.56v.976q0 .32-.128.352-.192.032-.32.032-.544 0-1.28.064-1.344.128-2.432-.032-.064 0-.192-.016t-.192-.016q-.032.032-.16.064-.064.032-.144.032H17.6l-.128.032q-.896.128-2.048 0-.608-.064-1.088-.064-.128 0-.256-.032t-.128-.32v-2.048q0-.064-.016-.512t0-.688l.016-.24q.16 0 .624-.064t.624 0q.384.064.544.064t.544-.048.544-.048q.8-.064.928-.032v-.064q0-.032.224-.032v.032q.224-.032 1.184 0 .192 0 .656.048t.64.048.656-.032q.192-.064.736 0t.736.032z"/></svg>