<svg xmlns="http://www.w3.org/2000/svg" width="26" height="32"><path d="M24.928 11.36q-.032.416 0 2.416t.08 4 .048 2.192-.16.32-.416.176-.576.064-.608 0-.512.016q-.288 0-2.752-.064t-3.488-.032H7.456q-.48 0-.72-.448t-.208-.864v-.448q-.032-.896-.064-2.144t-.08-4.368.048-3.536q.064-.8 1.056-.896.352-.064 7.264-.096t7.2-.032q2.016-.064 2.464.096.672.256.512 3.648zm-6.112-.992q0-.768-.032-.768-.224 0-.88-.032t-.848 0q-.224.032-2.304-.032h-1.728v.032q-.128 0-1.056.032-1.792.032-1.952.032-.192-.032-.752 0t-.72 0q-.032 0-.032.768v1.088q0 .16.128.16.192.032.32.032.576 0 1.312.032 1.344.064 2.432-.032h.48l.192-.032h.48q1.28.096 2.88.032.864-.064 1.536-.064h.352q.16-.032.192-.192v-1.056zm3.648 11.424q.032.288.032.496t-.064.352-.24.256-.464.144q-.32.064-1.728.064-.8 0-2.304-.032t-2.016-.064q-.64 0-3.136.048t-4.304 0-2.352-.24q-.96-.448-1.504-1.136t-.512-1.936q-.032-.832-.032-1.664v-1.664q-.064-2.368-.032-3.744v-.816l.032-.368.08-.384.144-.304.24-.272.352-.144.464-.08v1.984q0 1.888.096 4.48.064 2.848.224 3.392.192.48.624.896t.944.512q.64.128 2.656.128h8.672q.544.032 1.952.064t2.176.032zm-2.656 2.56q.096.448 0 .832t-.544.512q-.32.096-1.824.096-.832 0-2.384-.048t-2.032-.048q-.832 0-2.176-.016t-2.416-.032-2.016-.016-1.264-.032q-.608-.032-1.168-.208t-.944-.432-.688-.592-.496-.672-.32-.704-.176-.64-.048-.496q-.032-.832-.096-1.44t-.064-1.44q-.032-2.368-.032-3.712v-.192q.032-.352.032-.528t.048-.48.128-.448.224-.32.4-.24.576-.096v.896q0 .864.032 2.016 0 .32.016.656t.032 1.152.048 2.224l-.064.48q.064 1.216.432 2.048t.944 1.2 1.056.512.992.144h7.6l.72-.032q.96 0 3.168.064 1.92.032 2.304.032zM8.48 13.28l-.016.128v.352l.016.256v.992q0 .16.096.16.096.032.192.032.352 0 .8.032.832.064 1.504 0 .032 0 .128-.016t.16-.016l.128-.032h.288q.8.096 1.792.032.544-.032.928-.032.096 0 .224-.032.128 0 .128-.16v-1.6l-.032-.128q-.128 0-.528-.032t-.528 0h-.224q-1.856-.064-2.08-.032h-.192v.032h-.672q-1.088.064-1.184.032-.128-.032-.464 0t-.464.032zm9.056 4.16q0-.768-.032-.768-.192 0-.768-.032t-.768 0q-.16.032-2.016-.032h-1.504v.032q-.128 0-.928.032-1.568.032-1.728.032-.16-.032-.656 0t-.656 0l-.016.064-.016.16v.192l.016.208.016.144v1.088q0 .16.128.16.16.032.256.032.512 0 1.152.032 1.184.064 2.144 0 .064-.032.208-.032h.208q.16-.032.192-.032h.416q1.12.096 2.528.032.768-.064 1.344-.064h.32q.16-.032.16-.192V17.44z"/></svg>