<svg xmlns="http://www.w3.org/2000/svg" width="22" height="32"><path d="M20.768 7.712q.064 0 .08.24t0 .688-.016.512q0 .32-.016.864t-.016.672v.512q0 .128-.032.192t-.096.096-.192.032q-.416.032-.704.032-1.248 0-2.912.064-3.072.128-5.472 0-.16-.032-.448-.032h-.448q-.032 0-.384.064-.192 0-.496.016t-.432.016q-2.048.16-4.64.032-1.408-.064-2.464-.064-.256 0-.608-.032-.064-.032-.112-.048t-.08-.048-.048-.096-.016-.16v-.48q0-.128-.016-.688t-.016-.848q0-.064-.016-.512t0-.704.08-.256q.352.032 1.408-.032t1.408 0q.864.032 1.216.032t1.248-.048 1.248-.048q1.76-.032 2.048-.032v-.032q0-.032.096-.032h.448q.48-.032 2.688.032.416 0 1.456.048t1.456.048 1.472-.064q.416-.064 1.664 0t1.664.064zM1.152 17.536v-1.44q0-.064-.016-.496t0-.672.048-.24q.192.032.848-.032t.88 0q.256.032.576.048t.56 0 .592-.048.576-.064q1.088-.032 1.248 0v-.064q.032-.032.32 0h.032q.416-.064 3.968.064h.384q.256-.064 1.04-.016t1.008.048q.064 0 .064.24v1.6l-.016.528-.016.48v.448q0 .288-.192.32-.256.032-.416.032-.8 0-1.824.064-1.888.128-3.36-.032H6.88l-.224.032q-.096.032-.192.032t-.208.016-.176.016q-1.28.128-2.88.032-.832-.064-1.504-.064-.16 0-.384-.064-.16 0-.16-.288v-.48zm17.184 3.616q.064 0 .08.256t0 .704-.016.512q0 .288-.016.832t-.016.704v.48q0 .192-.064.256t-.224.096q-.352.032-.608.032-1.12 0-2.56.064-2.688.128-4.832-.032-.128 0-.384-.016t-.384-.016q-.032.032-.352.064-.16.032-.432.032t-.368.032q-1.792.128-4.064 0-1.248-.064-2.208-.064-.192 0-.512-.032-.224-.032-.224-.32v-.992l-.016-.56-.016-.496v-1.2l.064-.24q.288 0 1.216-.064t1.248 0q.768.064 1.088.064t1.088-.048 1.088-.048q1.568-.064 1.792-.032v-.064q.032 0 .096-.016t.16-.016.176.016l.08.016q.384-.032 2.368 0 .352 0 1.264.048t1.28.048 1.296-.032q.352-.064 1.456 0t1.456.032z"/></svg>