<svg xmlns="http://www.w3.org/2000/svg" width="31" height="32"><path d="M11.136 10.784V9.248q0-.064-.016-.512t0-.704.048-.256q.256.032 1.024-.032t1.024 0q.64.032.912.032t.912-.048.896-.048q1.312-.032 1.504-.032v-.032q0-.032.064-.032h.352q.32-.032 1.952.032.32 0 1.088.048t1.072.048 1.072-.064q.288-.064 1.2 0t1.2.064q.064 0 .08.24t0 .688-.016.512v1.536q0 .128-.016.288t-.016.224q0 .288-.224.32-.288.032-.512.032-.928 0-2.144.064-2.24.128-4 0-.128-.032-.336-.032h-.336l-.288.064q-.096 0-.208.016t-.24.016h-.224q-1.472.16-3.392.032-1.024-.064-1.792-.064-.192 0-.448-.032-.192-.032-.192-.352v-.48zM5.408 16.32q.096.096 0 .16-.384.352-1.744 1.2T1.76 18.976q-.096.064-.208.016t-.112-.176L1.248 16v-.128l-.016-.144-.016-.128-.032-.144-.048-.544q-.016-.192-.016-.48t.064-.416.176-.224.336-.032.544.288q2.56 1.76 3.168 2.272zm24.096-1.696q.064 0 .08.096t.016.272v.352l-.016.368-.016.288v1.616l-.016.16-.016.144q0 .192-.064.256t-.288.064q-.448.032-.8.032-1.472 0-3.36.064-3.52.128-6.304-.032h-1.056q-.032 0-.448.032-.16.032-.336.032t-.368.016-.352.016q-2.368.128-5.344.032-1.6-.064-2.848-.064-.288 0-.672-.064-.192 0-.256-.064t-.064-.224V16.8l-.016-.352-.016-.352q0-.064-.016-.496t0-.672.08-.24q.384.032 1.616-.032t1.616 0q.416.032.864.048t.88 0 .816-.032.88-.032.848-.048q2.048-.032 2.368 0v-.064l.112-.016.224-.016.208.016.096.016q.8-.064 7.424.064h.736q.48-.064 1.92-.016t1.888.048zm-3.936 6.496q.064 0 .08.24t0 .688-.016.512v1.712l-.016.176-.016.16q0 .288-.224.32-.288.032-.512.032-.928 0-2.144.096-2.24.128-4-.032-.096 0-.208-.016t-.24-.016h-.192q-.032.032-.288.064-.16.032-.368.032h-.304q-1.504.16-3.392.032-1.024-.064-1.824-.064-.192 0-.416-.032t-.224-.352v-2.016q0-.064-.016-.512t0-.704.048-.256q.256.032 1.024-.032t1.024 0q.32.032.704.048t.656-.016.688-.048.672-.048q1.312-.032 1.504-.032v-.032q0-.032.064-.032h.352q.32-.032 1.952.032.32 0 1.088.048t1.072.048 1.072-.064q.288-.064 1.2 0t1.2.064z"/></svg>