<svg xmlns="http://www.w3.org/2000/svg" width="26" height="32"><path d="M10.08 28.192q-.16 0-.448-.672t-.688-1.552-.752-1.264q-.16-.16-2.272-.144t-2.112-.016q-.224-.256.032-2.144t.192-2.016q-.16-.224-.896-.928T1.76 18.144l-.64-.608Q3.552 14.72 3.648 14.4q-.064-.224-.256-.672t-.352-.848-.304-.832-.144-.816.192-.64q.128-.16 2.048-.56t2.144-.56q.032-.064.4-1.024t.736-1.792.56-.896q.448-.16 1.28.192t1.568.784.928.4q.288 0 1.856-.96T16 5.28q.512.256 1.2 1.68t.784 1.456q.16.096 1.184.24t1.968.336.976.352q.128.576-.112 2.16t-.208 1.68.56.4 1.136.672 1.12.832.544.88q.032.192-.112.496t-.384.608-.544.624-.592.592-.544.48-.416.336l-.16.128q.032.064.032.128t.048.32.096.48.096.576.096.624.096.592.064.528l.032.416-.016.24q.032.224-.816.464t-1.824.416-1.104.272q-.096.064-.8 1.792t-.992 1.824q-.352-.096-1.952-.72t-1.824-.688q-.512.384-1.872 1.088t-1.68.608zm3.84-9.6q.384 0 .512-.048t.128-.24l.064-2.112q.096-.672.256-1.984.16-1.888.288-2.848.16-1.408.16-1.44 0-.288-.128-.32-.48-.064-2.336-.064-.384 0-1.088.016l-.704.016q-.416 0-.416.288-.032.096-.016.256t.032.272.032.272.016.288q.128 1.952.224 2.976.032.224.08.656t.096.768.08.656q.128.928.192 2.272 0 .192.112.256t.4.064h2.016zm-.96 5.12q.736 0 1.296-.608t.592-1.376q0-.672-.544-1.168t-1.216-.528q-.864-.032-1.408.464t-.576 1.296q0 .736.592 1.328t1.264.592z"/></svg>