<svg xmlns="http://www.w3.org/2000/svg" width="22" height="32"><path d="M9.824 7.648q-.288 0-2.048.032-.352 0-1.248.048t-1.248.048-1.216-.032q-.352-.064-1.408 0t-1.408.032q-.064 0-.08.256t0 .704.016.512q0 .288.016.848t.016.688v.48q0 .192.064.256t.192.096q.352.032.608.032 1.056 0 2.464.064 2.592.128 4.64-.032h.304l.32-.016.304-.016q.352-.064.384-.064h.656l.24.032q2.4.128 5.472 0 1.664-.064 2.912-.064.288 0 .704-.032.192 0 .256-.064t.064-.256v-.512l.016-.672.016-.864q0-.064.016-.512t0-.688-.08-.24q-.416 0-1.664-.064t-1.664 0q-1.056.064-1.472.064t-1.456-.048-1.456-.048q-2.208-.064-2.688-.032h-.48l-.064.032v.032zm.32 6.976q-.192 0-1.504.032-.256.032-.896.064t-.896.032-.896-.032q-.256-.064-1.024 0t-1.024.032q-.032 0-.048.24t0 .672.016.464V17.6q0 .096.016.256t.016.192q0 .288.192.32.224.032.416.032.8 0 1.792.064 1.888.128 3.392 0 .096-.032.208-.032h.224l.208-.032q.256-.032.288-.064.128.032.336.032h.336q1.728.16 3.968.032 1.184-.064 2.112-.064.224 0 .512-.032.224-.032.224-.32 0-.064.016-.208t.016-.272v-1.44q0-.064.016-.48t0-.656-.08-.24q-.288 0-1.184-.048t-1.216-.016q-.256.032-.528.048t-.528.016-.544-.016-.512-.032-.528-.032-.528-.016q-1.632-.064-1.952-.032h-.272l-.144.032v.032zM9.76 21.12q-.256-.032-2.048.032-.352 0-1.232.048t-1.232.048T4 21.184q-.352-.064-1.408 0t-1.408.064q-.032 0-.048.24t0 .688.016.512v2.048q.032.192.08.256t.208.064q.32.032.576.032 1.088 0 2.496.064 2.592.128 4.608 0 .128-.032.432-.032t.496-.032q.352-.032.384-.064.16 0 .448.016t.448.016q2.432.16 5.472.032 1.664-.064 2.944-.064.288 0 .672-.032.192-.032.256-.096t.064-.256q0-.064.016-.144t.016-.176v-1.696q0-.064.016-.512t0-.704-.08-.256q-.384.032-1.648-.032t-1.648 0q-1.056.032-1.472.032t-1.456-.048-1.456-.048q-2.24-.032-2.688 0l-.096-.016-.192-.016-.192.016-.096.016v.064z"/></svg>