<svg xmlns="http://www.w3.org/2000/svg" width="29" height="32"><path d="M4.464 22.752q-1.392 0-2.368-.976t-.976-2.384q0-1.088.656-1.968t1.68-1.2q.064-.288.096-.64.192-1.056.384-2.016l.128-.576q-.992-.96-.992-2.368 0-1.376.976-2.368t2.384-.992q.896 0 1.648.448t1.2 1.184h3.552q.672-.032 1.44-.032.544 0 1.088-.032.448-.704 1.2-1.136t1.648-.432q1.376 0 2.368.992t.992 2.368q0 .608-.224 1.184.192.288.224.352l1.856 2.528.768 1.024q.16.224.256.352 1.344.032 2.288 1.008t.944 2.32q0 1.408-.976 2.384t-2.368.976-2.368-.976-.976-2.384q0-.992.544-1.856-.128-.192-.416-.576-.672-.896-1.504-2.048-.32-.448-.736-1.024-.32.096-.672.096-.992 0-1.808-.528t-1.232-1.424q-1.088.032-2.016.064H9.408q-.704 1.44-2.272 1.792-.16.864-.352 1.92-.096.48-.192 1.024 1.216.992 1.216 2.56 0 1.408-.976 2.384t-2.368.976zm14.32 6.688q-.128 0-.128-.192V27.2q0-.256-.016-.768t-.016-.64v-1.248q0-.16.016-.192t.144-.064q.544-.032 1.056-.032h.544q.832.128 1.152.544t.352.8v.288q0 .48-.128.896-.128.512-.48.8-.256.192-.672.288-.512.096-.896.096v.704q0 .256-.032.64 0 .096-.16.096-.224.032-.736.032zM16 29.472q-.064 0-.096-.16 0-.288-.032-.832v-.544q0-.128-.016-.64t-.016-.608q0-.064-.016-.272t-.016-.304q0 .032-.048.144t-.08.224l-.032.112q-.064.192-.48 1.216-.16.352-.288.352h-.416q-.16 0-.32-.32-.064-.192-.256-.656t-.256-.624q-.128-.352-.192-.448-.032.64-.064 1.76l-.064 1.472q0 .064-.096.096h-.832q-.096 0-.096-.128v-.8l.032-.352.064-1.472q.032-.16.064-.544t.032-.576q.032-.352.064-1.056 0-.032.016-.128t.112-.096q.096-.032.288-.032.128 0 .384.016t.416.016q.064 0 .096.096.064.096.16.32t.128.352q.096.192.176.416t.144.416.096.256l.16.32q.064-.192.256-.576.352-.8.512-1.12.096-.256.128-.32.096-.16.256-.16h.832q.128 0 .128.288.032 1.408.032 2.144l.064 1.472q0 .032.016.48t.016.608-.064.16q-.192 0-.464.016t-.432.016zm-5.952 0q-.128 0-.128-.128-.032-.128-.08-.352t-.08-.288q-.032-.128-.032-.16h-1.44q-.032.032-.032.096-.16.448-.224.672-.064.128-.16.128h-.8q-.16-.032-.16-.064t.032-.128q.096-.32.384-1.312.064-.16.128-.368t.128-.384.128-.4.128-.384q0-.064.144-.512t.24-.704q.224-.608.288-.768.032-.128.16-.128h.832q.128 0 .224.224l.096.384q.128.448.368 1.264t.272.976q.064.192.128.432l.128.48.096.432q.032.064.224.768v.096q0 .096-.128.096-.064 0-.48.032h-.384zm9.664-2.56q.608 0 .768-.064.416-.16.416-.864 0-.32-.128-.512-.288-.224-.576-.224-.352 0-.48.032v1.632zm-10.752.704.512-.032q-.032-.224-.192-.896t-.224-.928h-.064q-.064.256-.24.944t-.24.88q.096 0 .24.016t.208.016z"/></svg>