<svg xmlns="http://www.w3.org/2000/svg" width="25" height="32"><path d="M12.416 28.736q-2.656 0-5.088-1.68t-3.744-4.048q-.48.224-.832.256-.736 0-1.12-.608-.512-.8-.512-1.696 0-3.744 1.6-4.48.256-.064.448-.096t.48.112l.512.256.512.368.496.448.464.48.4.464.336.384.256.304q.96 1.088.512 1.92-.224.416-.864.672.832 1.44 2.16 2.448t2.704 1.392q.352-6.656.256-13.312-1.504-.448-2.144-1.728-.288-.608-.352-1.408-.128-1.632.768-2.912 1.024-1.504 2.752-1.664 1.472-.128 2.688.8 1.344 1.024 1.616 2.688t-.688 3.072q-.352.512-.768.8-.416.256-.928.352.096 6.688-.288 13.344.96-.16 1.712-.512t1.328-.896.912-.976.848-1.136q-.448-.224-.672-.448-.512-.544-.32-1.28.096-.288.544-.976T19.552 18t1.536-1.088 1.696.016q.576.32.864 1.392t.24 2.048-.048 1.552q-.16 1.472-1.088 1.696-.48.096-1.184-.288-.064.096-.192.32-.576.832-.928 1.312t-1.184 1.28-1.664 1.264-2.16.832-2.896.4h-.128zM12.8 9.952q.224 0 .704-.064.064 0 .128-.048t.096-.08.064-.032q0-.032.032-.064.352-.512.256-1.136t-.576-.976q-.352-.288-.736-.288h-.096q-.48.064-.832.544-.32.48-.288 1.184.032.256.096.384.192.416.48.48.352.096.672.096z"/></svg>