<svg xmlns="http://www.w3.org/2000/svg" width="26" height="32"><path d="m24.8 28.704-22.848-.032q-.64.032-.768-.096-.064-.064-.064-.24v-.304l.032-.16v-1.248h1.312q.192 0 .192-.224v-1.44q0-.192-.192-.192H1.152l.032-13.376q-.032-.288.064-.352l.416-.064h.832q.192 0 .192-.192v-1.44q0-.224-.192-.224H1.184V7.936q0-.32.064-.384l.416-.128 5.44-.032q.288 0 .864.032t.8.032q5.568.096 7.136.096.768 0 2.208-.048t2.016-.048q.64 0 1.872.032t1.584.032q.416 0 1.28-.032.256 0 .384.096l.096.32v1.248h-1.312q-.192 0-.192.224.064.736 0 1.44 0 .192.192.192h1.312L25.312 24.8q-.672-.064-1.312 0-.192 0-.192.192v1.44q0 .224.192.224h1.312v1.376q0 .384-.096.512zm-3.328-17.696q.192 0 .192-.192V9.344q0-.192-.16-.192l-1.024-.064-1.216.064q-.192 0-.192.192v1.472q0 .192.192.192 1.504-.032 2.208 0zm-14.24-.032q.192 0 .192-.192l-.032-.8.032-.64q0-.224-.192-.224l-1.696.032-.512-.032q-.192 0-.192.224v1.44q0 .192.192.192l.96-.032zm4.768.032q.192 0 .192-.224v-1.44q0-.192-.192-.192H9.76q-.192 0-.192.192v.512l.064.512-.064.416q0 .224.192.224H12zm4.736 0q.192 0 .192-.192V9.344q0-.192-.192-.192-1.408.064-2.208 0-.192 0-.192.192v1.44q0 .224.192.224l1.312-.032q.48-.032.896.032zm-5.568 11.456q.096-.032.304-.128t.336-.16q.352-.192 1.008-.592t1.104-.688 1.088-.688 1.312-.864 1.408-.976q.096-.096.112-.208t-.08-.208q-.224-.192-.576-.416-.64-.416-2.672-1.904t-3.056-1.936q-.608-.288-.608.384 0 6.88.032 8.096v.096q0 .096.08.16t.208.032zm.8 4.16q.192 0 .192-.192l.032-.8-.032-.64q0-.224-.192-.224-.416-.032-.64-.032l-1.056.032H9.76q-.192 0-.192.192v1.472q0 .192.192.192h2.208zm-4.736 0q.16 0 .16-.192l.032-1.472q0-.192-.192-.192l-.672.032-.928-.032h-.64q-.192 0-.192.192.032.384.032.608l-.032.864q0 .192.192.192h2.24zm9.472 0q.192 0 .192-.192v-1.44q0-.224-.192-.224l-.416.032-1.792-.032q-.192 0-.192.224v1.44q0 .192.192.192h2.208zm4.768.032q.192 0 .192-.224v-1.44q0-.192-.192-.192h-2.24q-.192 0-.192.192v1.44q0 .224.192.224h2.24z"/></svg>