<svg xmlns="http://www.w3.org/2000/svg" width="26" height="32"><path d="M23.648 28.032q-.096 0-.992-.032-1.056-.064-1.344-.064-.384 0-.608.032-.832.032-2.08.032-.512 0-2.656-.032-2.528-.064-3.04-.064h-3.36q-4.032 0-6.08-.096-.16 0-.432-.048t-.816-.304-.8-.64q-.32-.576-.32-1.632 0-.832.096-1.024 1.856-4.16 4.16-6.848 1.024-1.184 2.752-3.904 1.376-2.176 2.112-3.072l.064-.096q2.4-3.072 3.456-4.544.16-.256.256-.384.352-.352.592-.256t1.104.864q.352.32.576.512t.672.56.896.72l.352.352q.064.096-.416.736-1.184 1.696-4.128 5.44.608.704.704.8l-.608.384.544.864.704-.48q0 .032.032.064l.064.064q.288.32.608.896l-.608.288.448.896.608-.288q.256.64.48 1.376l-.64.192.32.96.576-.16q.16.672.256 1.376l-.512.096.192.992.448-.096q.032.448.064.864.512 0 1.504.064t1.504.064q.576 0 1.056-.064.32-.032.704-.032.48 0 1.44.096.416.032.448.032.48 0 .544.032t.064.256q0 .064-.032.352l-.128 3.776q0 .064-.048.096t-.144.048-.176.016-.224-.016-.208-.016zM9.6 23.36q1.088 0 3.328-.032l.864-.032q-.096-1.216-.32-2.272-.128-.512-.32-1.024-.48-1.408-1.024-2.112-.32-.384-.608-.64-.096-.064-.288.192-2.464 3.296-3.84 5.888.928.032 2.208.032z"/></svg>