<svg xmlns="http://www.w3.org/2000/svg" width="19" height="32"><path d="M18.048 14.336q.928 1.6 1.024 3.328t-.336 2.992-1.2 2.448q-.288.416-.768 1.168t-.688 1.04-.592.816-.64.736-.656.496-.816.416-.96.224q-.736.096-1.552-.096t-1.296-.672q-.32.256-.56.4t-.544.208-.448.096-.56.064q-.896.064-1.568-.192T4.72 26.88t-.848-1.328-.912-1.808-1.04-1.952Q1.056 20.416.864 19.04t.096-2.416.928-2.016 1.312-1.6 1.44-1.136q.896-.576 2.08-.704t2.016 0q0-.064.032-.256.096-1.056.064-1.28-.032-.128-.064-.288-1.248.544-2.208.224-1.12-.384-2.16-1.104T2.896 7.296 1.568 5.952q.192 0 .768-.24t1.184-.464 1.504-.288 1.728.32Q8.224 5.92 9.376 8l.32-.192q1.92-.96 2.24-1.76.32-.832 1.12-.512.16.096.304.208t.224.176.176.096.112.08.048.08-.016.096-.064.128-.112.192-.16.256l-.064.064q0 .064-.096.256-.224.608-.736.96l-.24.24-.368.272q-1.376.64-1.536 1.088-.16.48-.16 1.312 1.568-.224 2.928-.128t2.592.944 2.16 2.48z"/></svg>