<svg xmlns="http://www.w3.org/2000/svg" width="30" height="32"><path d="m21.504 12.992-8.576-8.608.128-.032q.992-.128 1.984-.128 3.424 0 6.4 1.568l.064.064v7.136zm-4.864-2.816L3.712 10.08l.128-.224q2.656-3.584 6.912-4.96l.448-.16zm6.592 9.888L23.04 6.72l.192.16q1.952 1.44 3.328 3.472t1.984 4.4zm-21.824.672-.064-.096q-.224-1.248-.224-2.528 0-2.848 1.12-5.44l.704-1.344h7.872zm18.752 4.192 8.64-8.64.032.096q.128.864.128 1.728 0 3.584-1.728 6.72l-.064.064zM7.584 29.824l-.096-.032Q5.472 28.512 4 26.608t-2.208-4.176l-.032-.192 5.824-5.824v13.408zm7.456 2.208q-3.232 0-6.112-1.408l-.128-.096v-7.456l8.736 8.704-.064.064q-1.216.192-2.432.192zm3.968-.608-5.248-5.248h12.576v.064q-2.624 3.648-6.848 5.088z"/></svg>