<svg xmlns="http://www.w3.org/2000/svg" width="23" height="32"><path d="M8.832 25.216q-.16 0-1.088-.928-.608-.736-2.176-2.304-1.344-1.216-2.848-2.928t-1.568-2q-.096-.096.08-.368t.592-.704.768-.8.912-.912.784-.736q.384-.384 1.104-1.056t1.104-1.024Q7.872 9.92 9.12 8.928q.096-.064.768.64t1.296 1.44.592.768q-.544.544-1.008 1.088t-.784.896l-1.6 1.44q.096 0 .48.032t.832.048 1.152-.032 1.376-.208q3.072-.608 4.368-2.08t1.552-4.48h4.16q-.096 4.192-2.432 7.232-.672.864-1.536 1.52t-1.568 1.008-1.712.608-1.568.336-1.52.208q-.608.064-1.536.048t-1.296-.032-.496.08q.064.128.816.832t1.456 1.36.704.688q-.096.224-.288.464t-.608.672-.544.56q-1.152 1.152-1.344 1.152z"/></svg>