<svg xmlns="http://www.w3.org/2000/svg" width="18" height="32"><path d="m5.44 9.248 1.056.032q1.024.032 2.16.048t1.584-.016q3.904-.16 4.672.064 1.28.096 1.584.352t.208 1.408q-.128.864-.096.992-.064.544.016 4.224t.112 4.032q-.032.224-.192.32t-.32.096l-.128-.032q-2.624 0-3.008-.064-.224 0-.32-.32t-.064-.64v-.288q0-.128-.032-.352t-.064-.944 0-1.488q-.288.288-.816.736t-.656.576q-.512.48-1.68 1.648T7.2 21.904t-2 2.016l-1.04 1.04q-.096.064-.16.096t-.112.032-.096-.032-.096-.08-.112-.128-.16-.144l-1.792-1.856q-.544-.576-.512-.768t.192-.416.432-.48.336-.32 2.224-2.288 2.672-2.704Q7.2 15.68 9.6 13.28q-.448 0-1.936.064t-1.936 0q-.416-.064-.416-.576l-.064-2.912q-.16-.48.192-.608z"/></svg>