<svg xmlns="http://www.w3.org/2000/svg" width="18" height="32"><path d="m17.024 12.992-.032 1.056q-.032 1.024-.048 2.16t.016 1.584q.16 3.904-.064 4.672-.096 1.28-.352 1.584t-1.408.208q-.864-.128-.992-.096-.544-.064-4.208.016t-4.048.112q-.224-.032-.32-.192t-.096-.32l.032-.128q0-2.624.064-3.008 0-.224.32-.32t.64-.064h.32q.096 0 .32-.032t.944-.064 1.488 0q-.288-.288-.736-.816t-.576-.656q-.608-.672-2.304-2.352t-3.12-3.072-1.552-1.552q-.096-.128-.112-.224t.016-.144.144-.16l.208-.208 1.856-1.792q.576-.544.768-.512t.416.192.48.432.352.336q.032.064 2.256 2.224t2.704 2.672q.192.224 2.592 2.624 0-.448-.048-1.936t-.016-1.936q.064-.416.576-.416l2.912-.064q.48-.16.608.192z"/></svg>