<svg xmlns="http://www.w3.org/2000/svg" width="22" height="32"><path d="m8.544 24.832-.736-.768q-.704-.736-1.488-1.552t-1.104-1.136Q2.304 18.72 1.92 18.048q-.608-.704-.752-.992t0-.64.752-.896q.704-.512.768-.64.416-.32 2.96-2.976T8.416 8.96q.224-.128.384-.096t.256.16l.128.128q1.824 1.824 2.048 2.176.064.064.08.176t-.048.208-.144.208-.16.208-.16.176l-.144.144-.064.032q-.608.832-1.856 2.016.416 0 1.104.064t.848.064q.736.032 2.384.032t3.168-.016 2.864-.016h1.44q.192.032.256.08t.08.128.016.192v.304l-.064 2.56q0 .8-.16.928-.128.096-.336.144t-.416.048h-.784l-3.184.032q-3.088.032-3.824 0h-3.68q.352.352.976.928t1.104 1.04.704.72q.256.32-.096.704-.128.096-.304.272l-.368.368-.384.4-.368.4-.304.352-.224.224-.064.096q-.032.064-.08.128t-.208.176-.288-.016z"/></svg>