<svg xmlns="http://www.w3.org/2000/svg" width="19" height="32"><path d="M1.12 17.248q0-.192 1.152-1.344.16-.16.464-.432t.464-.432.384-.336.384-.24q.032-.032.688.688t1.376 1.472.816.784q.064.032.064-.16v-.544l-.016-.768v-.928l.048-.896q.128-.96.208-1.52t.336-1.568.608-1.728 1.008-1.568 1.52-1.52q3.04-2.336 7.232-2.432v4.128q-3.008.288-4.48 1.584t-2.08 4.368q-.192.864-.224 1.728t.016 1.456.048.624q1.344-1.472 1.44-1.568.352-.32.896-.784t1.088-1.008q.032-.032.768.592t1.44 1.296.64.736q-.992 1.248-2.528 2.656-.352.352-1.024 1.088t-1.056 1.12q-.192.192-.736.752t-.912.928-.8.784-.704.576-.368.096q-.288-.064-2-1.584t-2.928-2.832q-1.568-1.568-2.304-2.176-.928-.928-.928-1.088z"/></svg>