<svg xmlns="http://www.w3.org/2000/svg" width="18" height="32"><path d="M1.12 20.352q0-.064.032-1.088T1.2 17.12t.016-1.568q-.16-3.936.032-4.672.096-1.28.352-1.584t1.44-.208q.832.128.96.064.544.064 4.224 0t4.032-.096q.224 0 .336.16t.08.32v.16q0 2.592-.096 3.008 0 .224-.32.304t-.608.08l-.32-.032q-.128.032-.352.048t-.944.048-1.488.032q.288.288.736.816t.576.624q.64.672 2.32 2.352t3.104 3.088 1.552 1.568q.064.096.096.176t.016.128-.064.096-.128.144-.144.16l-1.888 1.792q-.576.576-.768.544t-.416-.208-.48-.432l-.32-.32-2.272-2.224-2.72-2.704q-.16-.192-2.592-2.592 0 .416.064 1.904t0 1.968q-.064.384-.576.384l-2.912.096q-.48.16-.608-.192z"/></svg>