<svg xmlns="http://www.w3.org/2000/svg" width="29" height="32"><path d="M25.024 18.592q.192.224.752.768t.928.896.768.8.576.72.112.368q-.064.256-1.584 1.968t-2.832 2.96q-1.568 1.536-2.176 2.272-.928.96-1.088.96-.192 0-1.344-1.184-.16-.16-.432-.448t-.432-.464-.336-.384-.24-.368q-.032-.032.688-.704t1.472-1.376.784-.832q.032-.032-.064-.048t-.288-.016-.448.016-.56.016h-.624l-.672-.016-.64-.048q-1.12-.128-1.808-.24t-1.776-.432-2.048-.912-1.76-1.488q-.704-.64-1.232-1.44t-.816-1.472-.496-1.584-.288-1.424-.176-1.408q-.064-.608-.048-1.52t.032-1.28-.08-.496q-.096.032-.816.784t-1.376 1.472-.688.72q-.16-.096-.384-.272t-.384-.32-.464-.432-.464-.416Q1.12 11.136 1.12 10.944t.928-1.12q.736-.608 2.304-2.176Q5.568 6.336 7.28 4.832t2-1.6q.096-.064.368.112t.704.576.8.768.912.928.736.784q.384.352 1.056 1.088t1.024 1.088q1.536 1.408 2.528 2.656.064.064-.64.736t-1.44 1.312-.768.608q-.544-.576-1.088-1.04t-.896-.752l-1.44-1.6q0 .064-.016.448t-.048.848.032 1.168.192 1.344q.544 2.752 1.792 4.096 1.312 1.184 4 1.728.864.16 1.728.192t1.456 0 .624-.032q-1.472-1.376-1.568-1.472-.32-.32-.784-.864t-1.008-1.12q-.032-.032.592-.768t1.296-1.424.736-.624q1.248.96 2.656 2.496.256.256.56.544t.544.512.544.496.56.528z"/></svg>