<svg xmlns="http://www.w3.org/2000/svg" width="23" height="32"><path d="M10.88 14.688q-.32-.416-.384-.448-.224-.256-1.856-1.824t-1.824-1.728q-.064-.128-.048-.224t.08-.16l.096-.064q1.12-1.152 1.344-1.28.096-.096.272 0t.304.256l.128.128q.512.384 1.248 1.152 0-.256.032-.672t.032-.512q.032-.576.032-1.712t-.016-1.824.016-1.008q0-.096.032-.144t.08-.064.112 0 .192-.016l1.568.032q.512.032.576.128t.096.288.016.352.016.32q0 .192.016 1.248t.016 1.504q-.032.16-.032 2.272.192-.192.816-.864t.848-.864q.224-.16.448.064l1.312 1.248q.032 0 .064.032t.096.128 0 .192q0 .032-.464.464t-.96.912-.688.672q-1.664 1.792-2.08 2.016-.416.384-.592.48t-.4 0-.544-.48zM21.632 19.2h-1.216q.032.192.048.88t.032 1.408.032 1.344.016.656q0 .576.048 1.344t.08 1.536.064 1.056q0 .384-.256.64t-.608.256q-.736 0-2.528.032t-3.248.032-2.368-.08-2.368-.08-3.264.032-2.512.032H3.2q-.192 0-.336-.144t-.144-.336v-4.992q0-.704-.032-3.712h-.096q-.608-.032-.928-.352t-.352-.896v-.208l-.016-.368-.016-.288q-.224-1.856-.144-2.752t.592-1.44l.16-.16.224-.064q.96-.32 4.032-.288l1.92 1.856q-3.52-.096-4.608.096-.128.416.064 2.464 0 .064.016.16t.016.128q1.6.064 5.6.096l.512.032h.768q.128 0 .256.032 5.76-.032 8.608-.064l-.128-2.656q-1.76-.064-3.936-.128.608-.672 1.76-1.76 1.984.064 3.616.128l.768.032zM18.4 26.016q-.032-.192-.048-1.312l-.032-2.24-.048-2.128-.032-1.168q-1.184 0-3.952.048t-3.76.048H9.312v-.032h-.32q-2.24-.032-4.288-.096.032 3.552.032 4.416v2.432z"/></svg>