<svg xmlns="http://www.w3.org/2000/svg" width="23" height="32"><path d="M14.592 25.184q-.192 0-1.344-1.152-.128-.16-.4-.448t-.432-.464-.336-.4-.24-.384q-.032-.032.688-.688T14 20.288t.784-.832q.032-.064-.16-.064h-.544l-.768.016h-.928l-.896-.048q-.96-.096-1.52-.192T8.4 18.816t-1.728-.608T5.104 17.2t-1.552-1.52Q1.248 12.64 1.12 8.448h4.16q.256 3.008 1.552 4.48t4.4 2.08q.832.192 1.712.224t1.472-.016.624-.048q-1.504-1.344-1.6-1.44-.288-.352-.752-.896t-1.008-1.088q-.032-.032.592-.768t1.296-1.44.736-.64q1.248.992 2.656 2.528.288.32.688.672t.8.72.688.688q.224.192.784.736t.928.912.768.8.576.704.112.368q-.064.192-.752 1.024t-1.744 1.968-1.92 1.936q-1.568 1.568-2.176 2.304-.928.928-1.12.928z"/></svg>