<svg xmlns="http://www.w3.org/2000/svg" width="19" height="32"><path d="M17.856 16.352q0 .192-1.152 1.344-.16.16-.464.432t-.464.432-.384.32-.384.256q-.032 0-.688-.72t-1.376-1.456-.816-.8q-.064-.032-.08.16t0 .56.032.784 0 .912-.048.912q-.128.96-.208 1.52t-.336 1.552-.608 1.712-1.008 1.584-1.552 1.536q-3.008 2.336-7.2 2.432v-4.16q2.976-.256 4.464-1.552t2.096-4.4q.192-.832.208-1.696t-.016-1.456-.032-.656q-1.376 1.504-1.472 1.6-.32.32-.864.768t-1.088 1.024q-.032.032-.784-.592t-1.44-1.296-.624-.768q.992-1.248 2.528-2.624.224-.256.512-.56t.512-.544.512-.544.512-.56q.224-.224.768-.784t.912-.912.8-.768.704-.592.368-.112q.288.096 1.984 1.6t2.944 2.848q1.568 1.568 2.304 2.144.928.96.928 1.12z"/></svg>