<svg xmlns="http://www.w3.org/2000/svg" width="26" height="32"><path d="m5.44 6.88.576.368q.224.144.672.464t.752.56.72.608.672.672.512.672.368.704.096.688-.208.672q-1.024 1.824-6.72-1.92-1.184-.768-1.584-1.68t.208-1.968q1.12-1.696 3.936.16zm8.064 12.992q-.064.544-.512.768t-.944.064-.656-.544q-.064-.192-.336-.752t-.48-1.12-.336-1.2q-.736-4.16.8-4.416.832-.16 1.488.944t1.008 2.672q.224 1.056-.032 3.584zm4.64-.8q1.696-1.152 2.368-3.168.224-.64.672-.544.384.128.192.704-.352.992-.592 1.6t-.752 1.36-1.12 1.168q-.32.256-.672.048t-.384-.544.288-.624zm4.544-.704q.704-.832.96-1.824.192-.608.576-.416.352.192.288.832-.032.064-.032.128-.032.352-.064.512t-.128.432-.24.528-.4.576-.624.256-.464-.368.128-.656zm-1.376 1.6q.16-.192.384-.24t.4.064.304.272.128.368-.192.4q-.736.832-1.632 1.44-.224.128-.432.112t-.368-.176-.24-.336-.016-.384.288-.368q.768-.48 1.376-1.152zm-4.32 6.464q-.512.064-1.024-.192.224.832-.384.992-.064.064-.224 0t-.208-.048-.208-.096-.208-.144-.176-.16-.16-.176-.16-.176l-.128-.128q-.128-.128-.224-.288-.032.576-.32.736-.32.192-.512-.096-.512-.64-.72-1.568t.016-1.76q-.032-.704.336-1.312t1.008-.928q1.408-.672 4.064.64.672.224.608.672-.096.704-1.248.64-.32 0-.32-.032.032.032.16.112t.192.128.192.128.192.144l.16.16.144.176.064.192.016.208q-.096.416-.544.432t-.736-.176q-.32-.128-.768-.384.32.352.576.576.768.8.864 1.248.032.096 0 .208t-.112.192-.208.08zm-9.216-3.616q-.672-.288-.544-.672.16-.256.672-.128 1.184.288 2.368.16.416-.032.624.304t.064.688-.56.384q-.896.096-2.624-.736zm2.816 2.048q.416 0 .608.352t.048.688-.56.336q-1.504 0-3.2-.448-.544-.128-1.36-.544t-1.04-.512q-.608-.256-.416-.544.192-.352.832-.064.352.128.72.224t.88.192.736.16q.8.192 2.752.16z"/></svg>