<svg xmlns="http://www.w3.org/2000/svg" width="22" height="32"><path d="M21.024 13.472q0 .448.016 1.584t.048 2.16.032 1.056q-.064.16-.224.208t-.256.016l-.128-.032-2.944-.064q-.512 0-.576-.416-.032-.576-.016-1.072t.048-1.408.032-1.392q-2.368 2.4-2.592 2.624-.48.512-2.688 2.672t-2.272 2.224-.384.352q-.352.448-.64.736.544-.032.976-.016t.768.032.56.032.352.016l.128.032q1.248-.128 1.248.352l.096 3.008q.096.608-.416.64-.352-.032-4.032-.096t-4.224 0q-.128-.064-.96.064-1.184.096-1.44-.208t-.352-1.584q-.192-.736-.032-4.672 0-.448-.016-1.568t-.048-2.144-.032-1.056q.064-.192.208-.24t.272-.016l.128.032 2.912.096q.512 0 .576.384.064.48 0 1.968t-.064 1.904q2.4-2.368 2.592-2.592.512-.544 2.72-2.704t2.272-2.192q.064-.064.352-.384.384-.448.64-.704-.768 0-1.456-.016T11.2 11.04l-.288-.032q-1.248.096-1.248-.384l-.096-3.008q-.128-.608.416-.64.352.032 4.032.096t4.224.032q.096.032.96-.096 1.152-.096 1.424.208t.368 1.584q.192.768.032 4.672z"/></svg>