<svg xmlns="http://www.w3.org/2000/svg" width="29" height="32"><path d="M27.264 9.824q.928.928.928 1.12t-1.152 1.344q-.16.128-.464.4t-.464.432-.384.336-.384.24q-.032.032-.688-.688t-1.376-1.472-.816-.784q-.064-.032-.064.16v.544l.016.768v.928l-.048.896q-.128 1.12-.256 1.808t-.432 1.792-.912 2.048-1.472 1.744q-.832.864-1.76 1.456t-2.016.896-1.776.416-1.776.24q-.608.064-1.52.064t-1.296-.032-.512.064q.064.128.816.832t1.456 1.376l.704.672q-.096.224-.288.464t-.608.672-.544.56q-1.152 1.152-1.344 1.152-.16 0-1.088-.928-.608-.736-2.176-2.272-1.344-1.248-2.848-2.96t-1.568-2q-.096-.096.08-.352t.592-.704.768-.8.912-.896.784-.768q.384-.384 1.104-1.04t1.104-1.04q1.376-1.536 2.624-2.496.096-.096.768.608t1.296 1.44.592.768q-.544.576-1.008 1.12t-.784.864l-1.6 1.472q.064-.032.656.016t1.456.016 1.728-.192q2.752-.576 4.064-1.792 1.184-1.344 1.728-4.032.192-.832.224-1.712t-.016-1.472-.048-.624Q16.8 12 16.704 12.096q-.32.288-.864.752t-1.088 1.008q-.032.032-.768-.592t-1.44-1.296-.64-.736q.992-1.248 2.528-2.656.352-.352 1.024-1.088T16.512 6.4q.192-.224.736-.784t.912-.928.8-.768.704-.576.368-.112q.128.032.672.48t1.264 1.072 1.552 1.408 1.44 1.456q1.568 1.568 2.304 2.176z"/></svg>