<svg xmlns="http://www.w3.org/2000/svg" width="22" height="32"><path d="M13.472 9.184q.032.032.736.784t1.488 1.552 1.136 1.12q2.88 2.656 3.264 3.328.608.704.752.992t.016.64-.768.896q-.704.512-.736.64-.448.352-2.992 2.992T13.6 25.056q-.096.096-.224.112t-.208-.032l-.16-.096-.112-.112-.032-.064q-1.856-1.824-2.08-2.176-.16-.16 0-.448t.384-.48l.256-.224q.608-.832 1.888-2.016-.416 0-1.104-.064t-.848-.064q-.928-.032-3.424-.016t-4.16.032-2.304-.016q-.16-.032-.24-.08t-.096-.128 0-.192-.016-.272l.064-2.592q0-.8.16-.928.128-.096.336-.128t.416-.032.432-.016.384-.016l3.152-.032q3.088-.032 3.824 0h3.68q-.32-.288-1.408-1.312t-1.376-1.376q-.256-.32.128-.672.16-.16.416-.432t.528-.56.512-.544.4-.448l.128-.16q.032-.064.08-.112t.208-.176.288 0z"/></svg>