<svg xmlns="http://www.w3.org/2000/svg" width="23" height="32"><path d="M8.832 8.608q.192 0 1.344 1.152.16.192.432.48t.432.464.32.384.256.368q0 .032-.704.688T9.456 13.52t-.816.848q0 .032.176.048t.544 0 .784-.016h.912l.912.064q.8.064 1.248.144t1.28.24 1.44.4 1.344.624 1.376.96 1.216 1.312q2.336 3.008 2.432 7.2h-4.16q-.256-2.976-1.552-4.448t-4.368-2.112q-.864-.16-1.728-.192t-1.456 0-.656.032q1.504 1.376 1.6 1.472.32.32.784.864t1.008 1.12q.032.032-.592.768t-1.296 1.424-.768.624q-1.248-.992-2.624-2.528-.384-.352-1.104-1.024T4.288 20.32q-.224-.224-.784-.768t-.912-.912-.768-.8-.592-.704-.08-.368q.064-.288 1.568-1.984t2.848-2.944q1.568-1.568 2.176-2.304.928-.928 1.088-.928z"/></svg>