<svg xmlns="http://www.w3.org/2000/svg" width="19" height="32"><path d="M17.856 17.248q0 .192-.928 1.12-.736.608-2.304 2.144-.832.896-1.952 1.952t-1.968 1.744-1.008.752q-.096.064-.368-.112t-.704-.592-.8-.768-.912-.912-.768-.784q-.352-.352-1.024-1.088t-1.024-1.12Q2.56 18.208 1.568 16.96q-.064-.064.624-.736t1.44-1.312.784-.608q.544.576 1.088 1.04t.864.752l1.472 1.6q0-.064.032-.64t.016-1.456-.208-1.712q-.608-3.104-2.096-4.4T1.12 7.936v-4.16q4.192.096 7.2 2.432.896.672 1.552 1.536t1.008 1.584.608 1.712.336 1.552.208 1.52q.064.608.048 1.536t-.032 1.296.048.496q.128-.032.848-.784t1.376-1.472.688-.72q.192.096.432.304t.688.608.576.528q1.152 1.152 1.152 1.344z"/></svg>