<svg xmlns="http://www.w3.org/2000/svg" width="18" height="32"><path d="m17.088 19.232-.768.736q-.736.704-1.552 1.488t-1.104 1.104q-.48.512-.768.816t-.88.912-1.024 1.008-.688.56q-.704.576-.992.736t-.64.016-.896-.752q-.512-.704-.608-.768-.352-.416-2.992-2.96T1.248 19.36q-.16-.224-.112-.384t.144-.256l.128-.128q1.856-1.824 2.176-2.048.16-.16.448 0t.512.384l.192.256q.832.608 2.048 1.856 0-.416.048-1.104t.048-.848q.032-.736.032-2.384t-.016-3.168-.016-2.864.032-1.44q0-.192.048-.256t.128-.08.192-.016h.304l2.592.064q.8 0 .896.16.128.16.176.464t.016.576 0 .496l.032 3.184q.032 3.088.032 3.824-.032.288-.032 3.68.32-.32 1.328-1.408t1.36-1.376q.352-.256.704.096.128.16.4.432t.56.544.56.512.432.4l.16.128.288.224q.096.192 0 .352z"/></svg>