<svg xmlns="http://www.w3.org/2000/svg" width="29" height="32"><path d="M28.16 11.488q.096.096-.08.352t-.592.704-.768.8-.928.896-.768.768q-.384.384-1.104 1.04t-1.104 1.04q-1.376 1.536-2.624 2.496-.096.096-.768-.608t-1.296-1.44-.592-.768q.544-.576 1.008-1.12t.784-.864l1.568-1.472q-.032.032-.624-.016t-1.456-.016-1.728.192q-2.752.576-4.064 1.792-1.184 1.344-1.728 4.032-.192.832-.224 1.712t.016 1.472.048.624q1.344-1.504 1.44-1.6.352-.288.896-.752t1.088-1.008q.032-.032.768.592t1.44 1.296.64.736q-.992 1.248-2.528 2.656-.352.352-1.024 1.088T12.8 27.2q-.192.224-.736.784t-.912.928-.8.768-.704.576-.368.112q-.288-.096-2-1.6t-2.928-2.816q-1.568-1.568-2.304-2.176-.928-.928-.928-1.12t1.152-1.344q.16-.128.464-.416t.464-.432.384-.32.384-.24q.032-.032.688.688t1.376 1.472.816.784q.064.032.064-.16v-.544l-.016-.768v-.928l.048-.896q.128-1.12.256-1.808t.432-1.792.912-2.048 1.472-1.744q.544-.608 1.168-1.056t1.296-.752 1.232-.512 1.312-.352 1.168-.192 1.152-.144q.608-.064 1.52-.064t1.296.032.512-.064q-.064-.128-.816-.832T18.4 6.848l-.704-.672q.096-.224.288-.464t.608-.672.544-.56q1.152-1.152 1.344-1.152.16 0 1.088.928.608.736 2.176 2.272 1.344 1.248 2.848 2.96t1.568 2z"/></svg>