<svg xmlns="http://www.w3.org/2000/svg" width="22" height="32"><path d="M11.168 28.672q-.512-.064-.912-.24t-.72-.4-.448-.256q-.704-.736-.832-.8-.48-.48-3.616-2.896t-3.424-2.608q-.096-.096-.096-.192t.064-.16.144-.128.176-.096l.064-.032q2.464-1.504 2.88-1.664.192-.128.528 0t.56.288l.224.192q.928.512 2.304 1.536.032-.352.128-.912t.096-.688q.096-.704.24-3.184t.272-4.72.128-2.432q.032-.16.128-1.696-.32.128-.848.416t-.976.512-.704.32q-.32.128-.608-.032L4 7.616l-.192-.128q-.096-.064 0-.128.064-.032.784-.32t1.504-.624 1.04-.464 1.376-.736 1.44-.736l.192-.112.368-.208.368-.144.288-.016q.32.192.544.336t.288.192.128.08.16.064q.416.256.512.288.32.192 2.464 1.232t2.368 1.136q.32.16-.064.32-1.664 1.12-1.952 1.216-.128.064-.4 0t-.496-.192l-.192-.096q-.768-.288-1.888-.864.032.192.096.496t.064.4q.128.608.416 4.896t.288 4.992q-.032.544.096 1.536t.16 1.28q.384-.288 1.024-.784t1.12-.832.768-.496q.384-.192.832.064l2.816 1.632q.032 0 .064.016t.144.064.16.112.096.144-.016.144q-.032.032-.56.432t-1.152.864-1.264.976-.928.768l-1.296 1.136q-.528.464-1.536 1.248t-1.424.976q-.064 0-.608.464t-.832.432z"/></svg>