<svg xmlns="http://www.w3.org/2000/svg" width="18" height="32"><path d="M1.152 14.4q.032-.032.784-.736t1.552-1.488 1.12-1.136q2.656-2.88 3.328-3.264.704-.608.992-.752t.64-.016.896.768q.512.704.64.736.352.448 2.992 2.992t2.928 2.768q.128.192.096.368t-.16.272l-.128.096q-1.824 1.856-2.176 2.08-.16.16-.448 0t-.48-.384l-.224-.256q-.832-.608-2.016-1.888 0 .416-.064 1.104t-.064.848q-.032.928-.016 3.424t.032 4.16-.016 2.304q-.032.16-.08.24t-.112.096-.192 0-.288.016l-2.592-.064q-.8 0-.896-.16-.128-.16-.176-.48t-.032-.576-.016-.512l-.032-3.152q-.032-3.088 0-3.824v-3.68q-.288.32-1.312 1.408t-1.376 1.376q-.32.256-.672-.128-.128-.096-.304-.272l-.368-.368-.4-.384-.4-.368-.336-.304-.24-.224-.096-.064-.256-.256q-.128-.16-.032-.32z"/></svg>