<svg xmlns="http://www.w3.org/2000/svg" width="23" height="32"><path d="M14.592 8.672q.16 0 1.12.928.576.704 2.144 2.272.896.832 1.936 1.952t1.744 1.968.736 1.04q.096.064-.08.336t-.592.72-.768.8-.912.896-.784.768q-.352.352-1.088 1.024t-1.12 1.056q-1.376 1.536-2.624 2.496-.096.096-.768-.608t-1.296-1.44-.592-.768q.576-.576 1.024-1.12t.768-.864l1.6-1.472q-.064 0-.656-.032t-1.456 0-1.696.192q-3.104.64-4.4 2.112T5.28 25.376H1.12q.096-4.192 2.432-7.2.672-.864 1.536-1.52t1.584-1.024 1.712-.624 1.552-.336 1.52-.176q.608-.064 1.536-.064t1.296.016.496-.048q-.032-.096-.352-.416t-.752-.72l-.864-.8-.72-.672-.288-.304q.096-.192.288-.432t.608-.688.544-.544q1.152-1.152 1.344-1.152z"/></svg>