<svg xmlns="http://www.w3.org/2000/svg" width="19" height="32"><path d="M1.12 15.936q0-.16.928-1.088.736-.608 2.304-2.176Q5.568 11.36 7.28 9.84t2-1.584q.096-.064.368.112t.704.576.8.768.912.928.736.752q.384.384 1.056 1.12T14.88 13.6q1.536 1.408 2.528 2.656.064.064-.64.736t-1.44 1.296-.768.592q-.544-.544-1.088-1.008t-.896-.752l-1.44-1.6q0 .032-.048.624t-.016 1.456.224 1.728q.608 3.072 2.08 4.384t4.48 1.568v4.128q-4.192-.096-7.232-2.432-.864-.672-1.52-1.52t-1.008-1.568-.608-1.728-.336-1.568-.208-1.52q-.064-.608-.048-1.52t.032-1.296-.08-.48q-.064 0-.304.24T6 16.592t-.656.704-.656.704-.512.544-.208.176q-.224-.096-.448-.288t-.672-.608-.576-.512Q1.12 16.128 1.12 15.936z"/></svg>