<svg xmlns="http://www.w3.org/2000/svg" width="28" height="32"><path d="M11.008 24.864H8.48q-.224 0-.288-.032-.032-.064-.032-.288v-1.792q-.384 0-.976-.016t-.88.016q-.192 0-.224-.032l-.064-.256v-2.432q0-.128.064-.16.064-.064.288-.064h.32q.192 0 .896-.032h.608v-.768q0-.352-.032-.736v-.512q-.032-.48-.064-1.312 0-.096-.016-.304t-.048-.304q-.032-.8-.064-1.312v-2.272q0-.192.016-.592T8 11.072V9.088q-.032-4.064-.032-4.32l3.104-.064v.128q.032.8.032 1.344v5.312l-.032.8v1.984q.032.512.064 1.344 0 .128.032.4t.032.4v.192q.032.576.064.96v.736q.032.64.032 1.28v.128q.576-.032.864-.032h.448q.672-.032 1.088-.032.768-.032 1.504-.032.672 0 1.344-.032h2.496q.256 0 .72-.016t.592-.016h1.856l.032-.032h.672q.128-.032 1.552-.048t1.552-.016h.224q.16-.032.256-.032t.128.064q.032.032.032.224.032.384.032 1.2t.032 1.2q0 .16-.032.224-.064.064-.192.096h-.32q-.128 0-.848.016t-1.44.016-.848.032h-.416q-.224.032-.384.032h-1.856q-.128 0-.576.016t-.704.016h-.32q-.64 0-1.12.032H15.36q-.832 0-1.568.032-.736 0-2.528.064v1.824q.032.224-.032.288zm6.144-6.528q-.416-.096-.832-.288-.032-.032-.064-.048t-.064-.016h-.064Q16 17.952 16 17.856l.32-.768q0-.032.08-.176t.08-.208-.192-.128q-.544-.288-.736-.448-.448-.352-.672-.704-.608.544-.704.608-.32.192-.416.128-.128-.064-.256-.256-.704-1.312-.544-1.408.608-.288.832-.416t.256-.16q.032-.064 0-.224-.064-.48-.064-.544-.192-.8-.064-1.216 0-.032-.128-.048t-.24-.032-.288-.064-.304-.096-.256-.112-.176-.128-.048-.144.064-.224.096-.208l.16-.64q.032-.032.08-.128t.048-.16l.064-.224q0 .032.08.048t.176.032.128.048q.032 0 .24.064t.416.144.272.144q.352-.544.704-.928l.64-.544.064-.064q.096-.032 0-.096 0-.032-.288-.416-.16-.192-.224-.32-.256-.384.032-.608.032 0 .256-.144T16 6.72q.032-.032.144-.048t.176-.048l.064-.032q.064-.064.096-.064.16.064.608 1.152 0 .032.048.128l.08.16q.064-.096.24-.128t.384-.064.304-.064q.576-.128.8-.064 0-.16.08-.48t.112-.352v-.16l.032-.208.064-.144q.064-.032.384 0 .096 0 .256.064t.224.096l.832.224q.16.032.16.064v.096q0 .064-.096.32-.32 1.024-.32 1.088l-.032.064q.032 0 .064.032t.096.064l.064.032q.32.256.672.672.032.032.08.112l.096.16.112.112q.064.064.16.032t.16-.096q.032-.032.272-.224t.368-.256q.32-.128.448.032.32.352.448.8.064.288.256.544.096.16.096.192.032.128-.032.16 0 .032-.096.048t-.128.048q-.896.32-.96.416-.032.064-.032.224.032.096.032.192.064.896.064 1.152v.192q.032.064.576.144t.704.08q.096 0 .128.064.064.064.016.08t-.048.048Q24 14.88 24 14.944q-.096.032-.528-.016t-.624-.112q-.032 0-.128-.048t-.16-.048q-.064.032-.608.672t-.704.768q.608.736.768 1.024.064.064-.08.176t-1.136.816q-.064.032-.096.064l-.032.064q-.16.128-.256 0l-.48-1.184q-.128-.288-.128-.32-.448.192-1.12.256-.256.032-.512.032-.128 0-.16.128l-.192.768v.16l-.032.128q0 .096-.064.112t-.144.016-.144-.016-.16-.032-.128-.016zm1.28-4.032q.768-.064 1.056-.288.608-.416.608-1.024.064-.352.064-.832 0-.192-.128-.48-.256-.672-.64-.832-.416-.224-1.168-.192t-1.04.352q-.096.128-.32.544-.192.384-.192.512-.032.256 0 .544.032.16.112.368t.272.592.544.592.832.144zm-17.088 8.48h-.192l-.032-.128v-2.688q0-.064.048-.112t.24-.048h2.56q.128-.032.16 0l.064.192v2.624q0 .096-.016.128t-.112.032h-2.72zM8.32 29.76l-.032-.352q0-.128-.016-.624t-.016-.56v.032q0-.736-.032-1.536 0-.096.032-.128l.128-.032 2.72-.064q.096 0 .16.032.064 0 .064.16v.704l.064 1.44q0 .256.032.448 0 .224-.032.224l-.256.064-2.496.16z"/></svg>