<svg xmlns="http://www.w3.org/2000/svg" width="33" height="32"><path d="M13.888 24.64q-.128.032-.608-.256-.224-.128-.512-.24t-.608-.24-.544-.256q-.288-.064-.352-.32 0-.128.128-.384.928-1.856 1.088-2.208 1.088-2.016 2.368-4.512-1.568-2.56-2.112-3.456-.384-.64-.64-1.088-.128-.192-.32-.528t-.224-.432q-.096-.128-.096-.224.032-.128.16-.192.032-.032.288-.192t.32-.192q.768-.448 1.408-.928.096-.064.192-.064.128.064.224.16.064.096.16.288t.128.224q.544.832.896 1.344 1.28 1.952 1.408 2.176l.288.384q.032-.064.384-.672.512-.896 1.792-3.296.032-.064.32-.48.256-.288.352-.304t.288.112q.416.16.608.288.16.096.512.368t.576.368q.288.192.288.288.032.064-.096.384-.032.16-.208.448t-.208.416q-.32.576-1.824 3.584-.096.224-.64 1.216l-.288.48q.352.672.384.704.384.672 1.184 1.808t1.152 1.712q.608.832 1.024 1.472v.064q.096.16.064.352-.032.32-.576.672-.288.192-.736.496t-.864.56q-.128.064-.224.032-.128.064-.224-.192-.832-1.376-1.312-2.144-.544-.896-1.728-2.656l-.224-.352-.256.544q-.256.544-1.344 2.72-.096.224-.368.816t-.464.944q-.16.384-.384.384zm-8.64-3.328-.4-.416-.832-.88-.624-.624q-1.6-1.472-1.824-1.856 0-.032-.24-.24t-.208-.336q.032-.192.112-.352t.192-.288.144-.192q.384-.288.416-.352.224-.192 1.648-1.664t1.552-1.632q.224-.192.416.096 1.024 1.024 1.152 1.216.096.096 0 .256t-.224.256l-.128.128q-.256.352-.96 1.024.224 0 .608.032t.48.032q2.688-.128 3.36-.064.096 0 .144.048t.048.096v.304l-.032 1.76q0 .512-.096.576-.128.128-.864.128-.256 0-.576-.016t-.592-.016-.56-.032q-.992-.096-2.016-.096.192.192.512.48t.544.512.352.384q.128.192-.064.384l-1.12 1.184zm22.72-.192q-.128.096-.208.08t-.144-.112l-.032-.064Q26.624 20 26.4 19.808q-.096-.096.016-.256t.24-.256l.16-.128.928-.96q-.192 0-1.168-.08t-1.136-.048q-1.376.096-2.144.096-.288-.064-.288-.416-.096-1.44-.096-1.504 0-.768.064-.8.448-.096.864-.032.288 0 .784-.032t.88 0q.96.096 2.208.096-.288-.256-.688-.608t-.576-.528-.144-.304q0-.128.672-.752l.672-.624q0-.032.032-.064t.112-.064.144 0l.144.128.336.304.416.384.432.4.4.368.288.24q.352.32 1.088 1.136t.896 1.072q.064.128.032.256t-.288.448q-.032 0-.112.096t-.144.176-.096.08q-.064.032-.304.384t-.624.848-.736.816q-.224.192-.48.416t-.448.384-.368.304-.288.224-.112.112z"/></svg>