<svg xmlns="http://www.w3.org/2000/svg" width="31" height="32"><path d="M1.696 17.632v-1.248q.544-3.808 2.528-7.2 2.528-4.352 9.248-5.12 1.152-.128 2.208-.16V3.84q-.288-.288-.704-.64t-.608-.544-.16-.288q0-.096.336-.432t.672-.624.336-.32.032-.064.112-.064.144 0q.032.032.288.304t.576.592l1.088 1.088q.384.352 1.024 1.04t.8.944q.096.224-.288.736-.192.16-.496.576t-.672.896-.752.832q-1.28 1.152-1.536 1.568-.224.192-.384-.096-.96-1.024-1.184-1.216-.192-.192.416-.64l1.216-1.28h-.288q-.896 0-1.856.128-5.568.64-7.648 4.256-1.632 2.784-2.08 5.92v.256l-.032.704zM22.464 5.088l1.088.64q3.008 2.368 4.96 5.792 2.496 4.352-.192 10.56-.448 1.056-.96 1.984l.064.032q.352-.096.912-.288t.704-.24.368.016q.128.064.32.944t.224.912q.096.192-.032.288-.064.032-.624.176t-1.216.304-.88.224q-1.856.576-2.624.576-.16 0-.24-.112t-.24-.496q-.064-.192-.48-1.168t-.576-1.648q-.352-1.664-.576-2.112-.032-.128.032-.208t.16-.08h.096q1.344-.32 1.632-.416.128-.032.208.144t.112.368l.032.16.512 1.728.128-.256q.416-.768.8-1.664 2.24-5.152.16-8.768-1.6-2.816-4.096-4.768l-.224-.128-.608-.352zm-9.056 18.176q-.128 0-.512-.192-.256-.16-.72-.352t-.688-.288q-.224-.064-.288-.256 0-.096.128-.32.736-1.536.896-1.824.896-1.696 1.952-3.712-1.312-2.112-1.728-2.88-.352-.512-.544-.896-.128-.128-.272-.416l-.176-.352q-.096-.128-.096-.192.032-.096.128-.16.064-.032.16-.096t.208-.128.144-.096q.64-.384 1.152-.768.096-.064.192-.064.096.064.16.16.064.064.144.224t.112.192q.416.672.736 1.088 1.056 1.632 1.184 1.824l.192.32q.032-.064.32-.576.448-.736 1.504-2.72.032-.064.256-.384.192-.224.288-.256t.256.096q.32.128.48.224t.432.32.464.32q.224.16.256.224 0 .032-.064.32-.064.128-.192.368t-.192.336q-.256.48-1.472 2.976-.096.16-.544.992l-.224.384q.288.544.288.608.352.512 1.008 1.456t.944 1.424q.512.704.832 1.216v.032q.096.16.064.32-.032.256-.48.544-.224.16-.608.416t-.704.448q-.128.064-.192.064-.096 0-.192-.16-.672-1.152-1.088-1.792-.448-.736-1.408-2.208l-.192-.288-.224.448q-.192.448-1.088 2.24-.096.192-.32.688t-.384.784q-.128.32-.288.32zm9.312 5.888-1.088.608q-3.584 1.44-7.488 1.408-5.056 0-9.088-5.44-.672-.928-1.216-1.824l-.064.032q-.096.352-.192.896t-.16.816-.192.304-.992-.224l-.864-.256q-.224-.032-.256-.192 0-.032.176-.608t.352-1.216.208-.864q.448-1.92.8-2.56.16-.224.8-.128.192.064.56.112t.72.08.816.112.848.208q1.664.512 2.144.544.128.032.16.128t-.032.192l-.032.064q-.416 1.344-.448 1.632-.096.256-.768-.032l-1.728-.416.128.256q.48.736 1.056 1.536 3.328 4.48 7.488 4.48 3.264.032 6.208-1.152l.224-.128.608-.32z"/></svg>