<svg xmlns="http://www.w3.org/2000/svg" width="19" height="32"><path d="M4.992 28.32q-.224.032-.896-.352-.448-.256-1.28-.592t-1.184-.496q-.416-.128-.512-.48 0-.192.192-.576 1.344-2.688 1.6-3.232Q4.48 19.648 6.368 16q-2.304-3.744-3.072-5.056-.576-.928-.96-1.6-.192-.256-.464-.752t-.336-.624q-.128-.224-.128-.352.064-.16.224-.256.096-.064.448-.288t.448-.32q1.12-.64 2.048-1.312.16-.128.32-.128.192.096.288.256t.256.416.192.32Q6.4 7.52 6.944 8.256q1.856 2.88 2.08 3.2l.384.576q.064-.096.576-.992.768-1.312 2.624-4.832.064-.096.48-.704.352-.384.496-.432t.432.144q.608.256.896.416.256.16.752.56t.816.56q.416.288.448.416.032.064-.128.544-.096.256-.336.672t-.304.576q-.448.864-2.656 5.28-.16.32-.96 1.76l-.384.704.544 1.056q.576.928 1.744 2.608t1.68 2.512q.896 1.248 1.504 2.176l-.032.064q.192.288.128.544-.032.448-.832.96-.416.288-1.088.736t-1.28.832q-.192.096-.32.064-.192.064-.32-.288-1.216-2.016-1.952-3.136-.8-1.344-2.496-3.904l-.352-.512-.384.768q-.352.832-1.952 4-.16.32-.56 1.184t-.656 1.408-.544.544z"/></svg>