<svg xmlns="http://www.w3.org/2000/svg" width="20" height="32"><path d="M8.768 28.192q-.8 0-.8-.576 0-1.76-.064-5.152 0-.928-.064-4.128-.48-.672-1.952-2.72t-1.792-2.56q-.48-.8-1.008-1.744t-.752-1.296Q1.12 7.968 1.12 7.808q0-.064.096-.16t.256-.192.224-.16Q3.168 6.208 4.224 5.28q.064-.064.128-.064.096 0 .32.32t.576.88.608.912q1.92 3.072 2.432 3.84.352.608 1.696 2.4l.48-.768q.8-1.248 2.16-3.52t1.936-3.2q.192-.32.256-.384.288-.448.544-.448.128 0 .448.16 1.28.704 2.656 1.472.256.16.256.288l.032.224q0 .288-.128.448l-2.112 3.168q-.256.384-.512.848t-.56.992-.496.88q-.192.288-.336.544t-.288.544-.304.544q-.032.064-.608 1.04t-.96 1.616v.576q0 1.248.032 3.744t.032 3.712v1.248q0 .576-.128.688t-.704.112q-1.472 0-1.92.032-.16 0-.544.032t-.448.032z"/></svg>