<svg xmlns="http://www.w3.org/2000/svg" width="33" height="32"><path d="M15.84 24.544q-.544 0-.544-.384 0-1.216-.032-3.52 0-.608-.064-2.816-.32-.48-1.328-1.872t-1.2-1.744q-.352-.544-.72-1.184t-.496-.896q-.832-1.376-.832-1.504 0-.032.064-.096t.176-.144.144-.112q.992-.736 1.728-1.376.064-.032.096-.032.064 0 .224.224t.4.592.4.624q1.312 2.112 1.664 2.624.256.416 1.152 1.632l.32-.512q.544-.864 1.488-2.416t1.328-2.192q.128-.192.16-.256.224-.288.384-.288.096 0 .288.096.896.48 1.824.992.192.128.192.224v.128q0 .192-.064.32-.032 0-1.472 2.176-.224.352-.592 1.008t-.464.848q-.16.256-.352.592t-.288.496q0 .032-.4.704t-.656 1.12v.384q0 .864.016 2.56t.016 2.56v.832q0 .384-.08.464t-.496.08q-.992 0-1.312.032-.096 0-.352.016t-.32.016zM5.248 21.312l-.4-.416-.832-.88-.624-.624q-1.6-1.472-1.824-1.856 0-.032-.24-.24t-.208-.336q.032-.192.112-.352t.192-.288.144-.192q.384-.288.416-.352.16-.128.928-.912T4.4 13.328t.784-.848q.224-.192.416.096 1.024 1.024 1.152 1.216.096.096 0 .256t-.224.256l-.128.128q-.256.352-.96 1.024.224 0 .608.032t.48.032q2.688-.128 3.36-.064.096 0 .144.048t.048.096v.304l-.032 1.76q0 .512-.096.576-.128.128-.864.128-.256 0-.576-.016t-.592-.016-.56-.032q-.992-.096-2.016-.096.16.16.704.672t.704.704q.128.192-.064.384l-1.12 1.184zm22.72-.192q-.128.096-.208.08t-.144-.112l-.032-.064Q26.624 20 26.4 19.808q-.192-.192.416-.64l.928-.96q-.192 0-1.168-.08t-1.136-.048q-1.376.096-2.144.096-.288-.064-.288-.416-.096-1.44-.096-1.504 0-.8.064-.8.448-.096.864-.032.288 0 .784-.032t.88 0q.96.096 2.208.096-.288-.256-.688-.608t-.576-.528-.144-.304q0-.128.672-.752l.672-.624q0-.032.032-.064t.112-.064.144 0q.032.032.448.416t.912.832.656.576q.352.32 1.088 1.136t.896 1.072q.064.128.032.256t-.288.448l-.08.08-.096.112-.112.112-.064.048q-.064.032-.304.384t-.624.848-.736.816q-.224.192-.48.416t-.448.384-.368.304-.288.224-.112.112z"/></svg>