<svg xmlns="http://www.w3.org/2000/svg" width="19" height="32"><path d="M1.92 28.128q-.544 0-.688-.144t-.112-.688q.032-.288.064-1.632t.096-2.176q.064-.384.288-.672 3.776-4.768 4.96-6.144Q8 14.944 10.784 11.424q1.088-1.248 1.12-1.312-.224 0-.72-.032t-.928-.064-.72-.032H2.432q-.256 0-.368-.016t-.16-.096-.048-.272v-.256q0-1.088.064-2.88 0-.448.176-.624t.624-.176h8.864q.896-.032 2.72-.032h2.944q.384 0 .576.032.224 0 .288.32t.064 1.568q0 2.048-.096 2.656-.064.672-.288.928-.736.928-2.144 2.48t-2.08 2.352q-.384.48-1.088 1.312T11.2 18.8t-1.088 1.296q-2.304 2.912-2.752 3.488h5.76q2.56.064 3.904.064.512 0 .928.096.384.128.384.48v.064q-.064.64-.096 1.616t-.064 1.232v.432l-.016.144-.064.112-.096.048-.144.048-.208.016h-.304Q15.872 28 15.008 28q-5.056.064-7.552.064-3.648.064-5.536.064z"/></svg>