<svg xmlns="http://www.w3.org/2000/svg" width="33" height="32"><path d="M11.232 24.576q-.352-.032-.448-.128T10.688 24q.032-.192.048-1.12t.08-1.472q.032-.288.192-.48 2.592-3.264 3.392-4.192.992-1.152 2.912-3.584.704-.832.736-.896-.032 0-.688-.032t-.912-.032h-4.864q-.256 0-.32-.048t-.064-.24v-.16q0-.768.032-1.984 0-.288.128-.416t.416-.128h10.336l.192.224q.032.224.032 1.088 0 1.376-.064 1.792-.032.48-.192.64-.512.64-1.472 1.696t-1.408 1.6q-2.336 2.816-2.368 2.816-1.568 1.984-1.888 2.4h3.936q1.76.032 2.688.032.32 0 .64.064.256.096.256.352v.032q-.032.32-.048.64t-.032.672-.048.64v.16q0 .256-.08.32t-.464.064q-1.024.032-1.6.032-3.456.064-5.184.064-2.464.032-3.776.032zm-5.984-3.264-.4-.416-.832-.88-.624-.624q-1.6-1.472-1.824-1.856 0-.032-.128-.144t-.224-.224-.096-.208q.032-.192.112-.352t.192-.288.144-.192q.384-.288.416-.352.224-.192 1.648-1.664t1.552-1.632q.224-.192.416.096 1.024 1.024 1.152 1.216.096.096 0 .256t-.224.256l-.128.128q-.256.352-.96 1.024.224 0 .608.032t.48.032q2.688-.128 3.36-.064.096 0 .144.048t.048.096v.304l-.032 1.76q0 .512-.096.576-.128.128-.864.128-.256 0-.576-.016t-.592-.016-.56-.032q-.992-.096-2.016-.096.16.16.704.672t.704.704q.128.192-.064.384l-1.12 1.184zm22.72-.192q-.128.096-.208.08t-.144-.112l-.032-.064Q26.624 20 26.4 19.808q-.096-.096.016-.256t.24-.256l.16-.128.928-.96q-.192 0-1.168-.08t-1.136-.048q-1.376.096-2.144.096-.288-.064-.288-.416-.096-1.44-.096-1.504 0-.8.064-.8.448-.096.864-.032.288 0 .784-.032t.88 0q.96.096 2.208.096-.288-.256-.688-.608t-.576-.528-.144-.304q0-.128.672-.752l.672-.624q0-.032.032-.064t.112-.064.144 0q.032.032.448.416t.912.832.656.576q.352.32 1.088 1.136t.896 1.072q.064.128.032.256t-.288.448q-.032 0-.112.096t-.144.176-.096.08q-.064.032-.176.176t-.272.368-.336.48-.416.528-.464.496q-.352.32-.768.656t-.656.544-.272.24z"/></svg>