<svg xmlns="http://www.w3.org/2000/svg" width="31" height="32"><path d="M1.696 17.632v-1.248q.544-3.808 2.528-7.2 2.528-4.352 9.248-5.12 1.152-.128 2.208-.16V3.84q-.288-.288-.704-.64t-.608-.544-.16-.288q.032-.128.688-.752l.656-.624q0-.032.032-.064t.112-.064.144 0q.032 0 .208.192t.416.448.496.528.496.496.336.32q.384.352 1.024 1.04t.8.944q.096.224-.288.736-.192.16-.496.576t-.672.896-.752.832q-1.28 1.152-1.536 1.568-.224.192-.384-.096-.96-1.024-1.184-1.216-.192-.192.416-.64l1.216-1.28h-.288q-.896 0-1.856.128-5.568.64-7.648 4.256-1.632 2.784-2.08 5.92v.256l-.032.704zM22.464 5.088l1.088.64q3.008 2.368 4.96 5.792 2.496 4.352-.192 10.56-.448 1.056-.96 1.984l.064.032q.352-.096.912-.288t.704-.24.368.016q.128.064.32.944t.224.912q.096.192-.032.288-.032.032-.272.096t-.592.144-.72.16-.688.176-.448.128q-1.856.576-2.624.576-.16 0-.24-.112t-.24-.496q-.064-.192-.48-1.168t-.576-1.648q-.352-1.664-.576-2.112-.032-.128.032-.208t.16-.08h.096q1.344-.32 1.632-.416.128-.032.208.144t.112.368l.032.16.512 1.728.128-.256q.416-.768.8-1.664 2.24-5.152.16-8.768-1.6-2.816-4.096-4.768l-.224-.128-.608-.352zM14.944 23.2q-.448 0-.448-.32 0-1.024-.032-2.912 0-.544-.032-2.336-.256-.384-1.104-1.536t-1.008-1.44q-.288-.448-.592-.976t-.4-.752q-.704-1.152-.704-1.248 0-.032.064-.08t.144-.112.112-.096q.832-.608 1.44-1.12.032-.032.064-.032.064 0 .192.176t.32.496.352.512q1.088 1.728 1.376 2.176.192.32.96 1.344l.256-.448q.288-.416.608-.944t.576-.96.56-.96.56-.912q.128-.192.16-.224.16-.256.288-.256.096 0 .256.096.736.384 1.504.832.16.096.16.16v.128q0 .16-.064.256-.032.032-1.184 1.792-.192.288-.496.832t-.4.704q-.128.192-.288.48t-.224.448q-.032 0-.352.56t-.544.912v.352q0 .704.016 2.096t.016 2.096v.704q0 .32-.064.384t-.416.064q-.8 0-1.056.032-.096 0-.32.016t-.256.016zm7.776 5.952-1.088.608q-3.584 1.44-7.488 1.408-5.056 0-9.088-5.44-.672-.928-1.216-1.824l-.064.032q-.064.256-.128.576t-.096.544-.08.432-.112.32-.128.144q-.128.032-.992-.224l-.864-.256q-.224-.032-.256-.192 0-.032.176-.608t.352-1.216.208-.864q.448-1.92.8-2.56.16-.224.8-.128.224.064.736.128t1.12.144 1.088.24q1.664.512 2.144.544.128.032.16.128t-.032.192l-.032.064q-.416 1.344-.448 1.632-.032.064-.112.096t-.192.016-.224-.048-.176-.064l-.064-.032-1.728-.416.128.256q.48.736 1.056 1.536 3.328 4.48 7.488 4.48 3.264.032 6.208-1.152l.224-.128.608-.32z"/></svg>