<svg xmlns="http://www.w3.org/2000/svg" width="21" height="32"><path d="M8.768 30.144q-.416-.032-.448-.384-.064-.448.704-.704.256-.096.416-.288t.208-.4.048-.4v-.32l-.032-.128q-.16-.032-.432-.128t-1.072-.48-1.536-.848-1.664-1.296-1.648-1.792T2 20.608 1.216 17.6q-.224-1.856.112-3.568t1.088-2.96T4.208 8.8 6.4 7.136t2.24-.976 2.016-.336q1.12 0 2.432.56t2.576 1.648 2.272 2.496 1.504 3.344.208 3.984q-.224 1.728-.784 3.2t-1.296 2.448T16 25.248t-1.616 1.184-1.424.688-1.056.368l-.384.064q-.032.064-.096.16t.048.448.528.768q.544.352.544.896-.032.256-.256.256-.192.032-.768-.08t-1.024-.08q-.32 0-.88.112t-.848.112zm6.528-14.432q.096.224.272.32t.336.08.304-.08.24-.176.096-.24q-.032-.736-.416-2.08t-.96-1.952q-.032-.032-.368-.416t-.592-.608-.48-.288q-1.664-.576-2.112.288-.224.352-.112.72t.336.576.672.592.896.752.976 1.04.912 1.472z"/></svg>