<svg xmlns="http://www.w3.org/2000/svg" width="16" height="32"><path d="M14.56 20.16q.32.256.352.8 0 .384-.192 1.376-.032.064-.064.224-.128.576-.224.864t-.4.736-.816.896l-.288.256-.224-.32q-.256-.352-.288-.96t.096-1.344q.032-.512.064-.768v-.064q.224-.992.416-1.312.096-.192.224-.32-.64-.512-1.408-2.656-.16-.416-.192-.544-.224-.512-.288-.736v.096q0 1.376-.96 2.368-.608.672-1.44.896.64.256 1.056.8t.416 1.216-.416 1.216q.8.032 1.088.928.128.448.224 1.76.064 1.216-.032 1.824-.16.992-.832 1.184-.096.032-.224.032-.224 0-.448-.16-.8-.576-.928-2.752-.096-1.28 0-1.76l.064-.256q-.416.16-.864.16-.384 0-.768-.128.064.128.064.288.064.48-.064 1.792-.256 2.144-1.088 2.656-.32.224-.704.096-.64-.224-.736-1.216-.064-.608.064-1.824.16-1.312.32-1.76.32-.8.992-.832-.448-.576-.448-1.248t.416-1.232 1.088-.784q-.768-.224-1.344-.8-1.056-1.056-1.056-2.56v-.192q-.064.288-.32.928-.064.128-.224.544-.768 2.176-1.376 2.656.096.128.192.288.192.352.416 1.344v.064q.032.256.064.768.128.736.096 1.344t-.288.96l-.224.32-.288-.256q-.736-.64-.992-1.152t-.448-1.344l-.032-.224q-.224-.992-.224-1.376.032-.544.352-.8-.224-.256-.32-.608-.096-.448.032-1.056.16-.704.736-2.048.128-.288.16-.384.384-.96.672-1.248.544-.64 1.344-.32.608.256.736.8.096-.832.576-1.248.512-.416 1.408-.48-.896-.32-1.568-1.12-1.152-1.344-1.152-3.232 0-2.144.704-3.2.928-1.376 3.232-1.376 1.888 0 2.784.832 1.152 1.088 1.152 3.744 0 1.888-1.12 3.232-.672.768-1.536 1.12.768.064 1.248.48t.672 1.248q.128-.544.704-.8.832-.32 1.344.32.288.288.672 1.248.032.096.16.384.576 1.344.736 2.048.128.608.032 1.056-.096.352-.32.608zM5.152 9.216q0 .928.384 1.728t1.056 1.264 1.44.464q1.216 0 2.048-1.008t.832-2.448q0-2.112-.832-2.88-.608-.576-2.048-.576-1.728 0-2.368.96-.512.768-.512 2.496zM9.6 18.032q.64-.656.64-1.616 0-1.152-.448-1.536t-1.568-.224q-.192.032-.352 0-.352-.032-.672-.032-.704 0-.992.256-.352.32-.352 1.472 0 1.024.704 1.728.64.64 1.536.64.864-.032 1.504-.688zm2.976-.688q.704 1.952 1.12 2.112.064.032.16 0 .608-.288-.416-2.624-.128-.256-.16-.384-.448-1.056-.736-1.056-.064 0-.192.032-.288.128-.288.416.032.256.32.992.064.128.192.512zm-8.672-1.44q.032-.256-.256-.384-.096-.032-.192-.032-.128 0-.256.128-.16.192-.448.896-.032.096-.16.352-.96 2.24-.384 2.496.064.032.16 0 .416-.16 1.056-2.016.128-.352.192-.48.288-.736.288-.96zm5.568 5.76q0-.512-.416-.896t-1.024-.384q-.384 0-.72.176t-.528.464-.192.64q0 .512.432.896t1.024.384 1.008-.384.416-.896zm4.512.512q.192-.864.192-1.152 0-.256-.208-.304t-.336.208q-.128.224-.32 1.088-.032.256-.064.736-.128 1.024-.096 1.344.544-.576.8-1.696 0-.096.032-.224zM2.816 23.904q.032-.288-.064-1.184-.032-.416-.064-.672-.16-.736-.288-.96-.096-.192-.224-.192h-.064q-.192.032-.192.288t.16 1.024q0 .064.032.192.224.992.704 1.504zm3.648 1.792q.064-.512.08-.752t-.016-.624-.32-.416h-.064q-.192 0-.32.32-.128.352-.256 1.376-.192 1.856.192 1.984l.064-.032q.448-.288.64-1.856zm3.168-1.344q-.064.352-.032 1.344.064.64.192 1.152.16.512.352.608l.032.032q.384-.096.288-1.856-.064-.992-.16-1.312-.128-.352-.368-.336t-.304.368z"/></svg>