<svg xmlns="http://www.w3.org/2000/svg" width="18" height="32"><path d="M17.312 22.4q-.288-.768-.592-1.392t-.656-1.04-.688-.72-.736-.464-.704-.272-.72-.128-.688-.016-.672.016-.592.016q-.736 0-1.472.016t-1.008.016-.4-.032q.096.096.08 2.672t-.432 2.096L6.496 21.76q-.192-.192-1.024-.896T4.288 19.68q-.32-.448-1.2-1.296t-1.472-1.472-.464-.752q.096-.384 1.584-2.144T5.568 11.2q.768-.608 2.144-2.272.032-.032.128-.16t.192-.24.192-.112q.256 0 .288 2.368t-.096 2.592q-.032.032.096.064t.448.032h2.4q.8 0 1.376.064t1.28.272 1.184.56.96 1.024.736 1.6.384 2.288.032 3.12z"/></svg>