<svg xmlns="http://www.w3.org/2000/svg" width="26" height="32"><path d="M6.496 22.4q-.64-.128-1.456-.592t-1.296-.976q-.576-.576-.704-.768-.096-.192-.624-1.056t-.592-.992q-.288-.576-.576-1.792 0-.064-.064-.496t-.064-.624q0-1.664.384-3.584.064-.256.224-.72t.224-.656q.096-.288.4-.8t.4-.736l.544-.928q.32-.64 1.728-1.52t2.24-1.168q.032.288.256 1.056t.336 1.296-.016.592q-1.184.352-1.792 1.056-.128.16-.512.512t-.672.752-.48 1.04q-.48 1.44-.576 2.08t0 1.696q.096 1.152.432 1.856t1.104 1.632q.224.256.944.768t.976.64q-.416 1.6-.768 2.432zm12.48.64q-.032-.288-.224-1.04t-.304-1.296-.016-.576q1.344-.512 1.792-1.088.128-.16.528-.496t.688-.736.48-1.04q.448-1.472.544-2.08t0-1.664q-.096-1.216-.432-1.952t-1.104-1.6q-.192-.256-.912-.768t-1.008-.608q.576-1.888.768-2.432.64.096 1.472.56t1.344 1.008q.064.064.32.336t.384.432q.096.192.64 1.088t.576.96q.224.544.512 1.792.128.416.128 1.12 0 1.664-.384 3.584-.064.256-.208.704t-.208.64q-.128.32-.448.848t-.416.72q-.064.16-.256.48t-.256.448q-.352.64-1.76 1.504t-2.24 1.152zm-1.696-4.96q-.224-.32-.256-.768l-.128-1.472q0-.032.16 0t.416-.064.496-.24.416-.544.176-.944q-.032-.864-.432-1.296t-.784-.496l-.416-.064.096-.512q0-.16.288-1.824.128.032.224.032.224.032.544.192l.384.192q.608.224 1.168.8t.784 1.312q.32.928.32 1.824.128 2.08-1.216 3.168zm-8.256.32q-.16-.064-.192-.064-.224-.032-.544-.192t-.416-.192q-.64-.224-1.2-.8t-.752-1.28q-.32-.864-.352-1.824-.064-2.144 1.248-3.168.096-.096.656-.272t1.104-.304l.512-.16q.192.352.256.768l.064 1.504q0 .032-.16 0t-.416.064-.496.24-.4.528-.16.96q0 .544.16.928t.4.528.48.224.416.096.176.048l-.064.512q0 .032-.016.144t-.112.608-.192 1.104zm1.408 9.984q-.064-.096.096-1.12t.368-2.416.24-2.064q.256-4.032.672-6.048-.8-.48-1.056-1.344-.448-1.184-.192-2.08.192-.576.688-.976t1.104-.496q1.504-.32 2.144.096 1.088.672 1.312 2.112.096.544-.256 1.44-.352.96-1.152 1.312.832 4.16.992 5.632 0 .096.112.64t.256 1.344.24 1.344q.064.512.224 1.184t.224 1.024 0 .416q-.16.16-2.944.224t-3.072-.224z"/></svg>