<svg xmlns="http://www.w3.org/2000/svg" width="38" height="32"><path d="M36.544 19.904q.288 1.408-.256 2.88-.544 1.568-1.696 2.768t-2.656 1.808q-.768.32-1.6.448-.448.064-.864.096-.64 0-.928-.064-1.472-.288-2.656-.992-2.368-1.44-2.848-4.032-.128-.64-.128-1.312.032-.064.016-.704t.016-.704q.192-1.632 1.44-3.04l-.64-.736-.096.16-.704 1.12-1.024 1.664-1.056 1.664-.672 1.088q-.096.128-.16.224-.384.544-1.12.576l-.672-.032h-1.536l-4.032-.064h-2.368l-1.152-.032h-.96q-.448 0-.544-.032-.864-.128-1.12-.96-.16-.576.128-1.12.064-.096.128-.208t.144-.24.144-.224l.8-1.408 1.024-1.76.992-1.696.736-1.28q.32-.576.48-.704l-.032-.032-.992-1.44q-.32-.48-.352-.896 0-.896.832-1.28.256-.128 1.344-.128l2.048-.032h1.152L15.136 12h-1.408l.096.16.224.32.128.192q.032 0 .224.032h1.152l6.08.064h.992v-.032l.096-.384q.064-.256.16-.704t.192-.832.16-.704.272-.56.496-.384.576-.144h.896q.384 0 1.424.016t1.392.016v2.752h-2.432q-.16 0-.192.032l-.096.384-.128.672-.16.64-.064.224v.064l.032.064.128.16.448.48.448.512.224.224q.032.064.064.064h.032q.064-.032.176-.08l.112-.048q.288-.16.608-.288.16-.064 1.216-.384.544-.16.928-.224.576-.064 1.248.032 1.888.32 3.616 2.048.32.32.576.64 1.152 1.376 1.472 2.88zm-25.184 4 .992.032h1.92q-.032.096-.064.176t-.064.128-.08.112-.08.16q-.576 1.184-1.6 2.016-1.088.864-2.496 1.184-.128 0-.384.048t-.32.048q-.704.128-.8.128-.608.096-1.344-.032-1.376-.256-2.624-1.12-1.216-.896-2.08-2.272-.192-.352-.704-1.408-.384-.736-.448-1.344-.256-1.6.576-3.296.704-1.408 1.792-2.464 1.216-1.184 2.624-1.568 1.376-.384 2.752 0v.032l-1.152 1.984-.224.384-.064.096h-.256q-.16 0-.272.032t-.192.08-.208.144-.224.16q-.8.448-1.536 1.44-.768 1.088-.896 1.92-.064.512.032.8.032.064.448.992.416.864 1.088 1.536.736.768 1.632 1.056.576.16.928.128.128-.032.448-.096t.48-.064q.864-.096 1.536-.576.096-.032.288-.128t.32-.256l.16-.192h.096zm7.296-4.672 2.336-3.712-4.896-.064zm-8.416.704 5.6.064-3.04-4.448zm23.552 1.632q.16-.512.032-1.056-.128-.704-.608-1.408-.608-.832-1.504-1.472-.704-.512-1.44-.576-.256-.032-.704.096-.928.288-1.056.352l2.976 3.264-2.048 1.856-3.168-3.52q-.16.224-.256.416-.288.512-.32.928v.8q0 .672.032.768.096 1.024.736 1.728.384.48.96.8.32.192.704.32.608.224.896.256.256.032.8-.032.384-.064.768-.16.768-.256 1.408-.736 1.312-.96 1.792-2.624zM13.824 18.88h-1.92l.96-1.664q.64.768.96 1.664z"/></svg>