<svg xmlns="http://www.w3.org/2000/svg" width="16" height="32"><path d="M7.84 14.176q-1.504 0-2.576-1.264T4.192 9.856q0-.992.128-1.696t.496-1.344 1.12-.96 1.904-.32q.832 0 1.44.16t1.136.592.8 1.328.272 2.24q0 1.184-.48 2.176T9.68 13.6t-1.84.576zm2.976 2.496q0 1.056-.608 1.888T8.64 19.648q.544.224.896.688t.352 1.04q0 .544-.32.992-.32.096-.48.448-.544.384-1.248.384-.64 0-1.152-.288.16.448-.032 1.984-.128 1.12-.496 1.904t-.816.624-.528-.944.08-1.776q.064-.672.112-.992t.176-.704.336-.528.528-.112h.064q-.32-.448-.32-.992 0-.576.352-1.04t.928-.688q-.992-.288-1.6-1.136t-.608-1.936q0-.704.08-1.12t.352-.784.864-.48 1.52.016h.288q.832-.096 1.376-.032t.88.4.464.832.128 1.264zm1.6 2.624q-.192.032-.352-.048t-.288-.24-.24-.4-.192-.48-.144-.544-.112-.544-.096-.496-.08-.384q-.224-.672-.16-1.152t.64-.544q.32-.064.528.032t.352.352.208.448.16.64q.032.096.128.432t.144.576.112.592.064.608-.048.528-.208.416-.416.208zm-8.128-4.832q.576.064.64.544t-.16 1.152q-.032.128-.128.656t-.192.896-.256.8-.4.64-.528.144q-.192-.032-.336-.144t-.208-.272-.096-.352-.016-.448.048-.464.08-.48.096-.464.112-.416.096-.32q.096-.448.16-.64t.208-.448.352-.352.528-.032zm8.384 4.848q.32-.016.48.224t.176.496.016.832v.496l-.016.224-.032.24-.048.208-.064.24-.096.24-.144.256-.176.256-.224.304q-.128-.096-.224-.24t-.16-.4-.08-.448-.064-.624-.08-.688q0-.544.032-.816t.208-.528.496-.272zm-9.664-.016q.352.032.512.288t.192.528.032.816q-.032.256-.08.688t-.064.624-.08.448-.16.4-.224.24q-.384-.48-.576-.944t-.208-.656-.016-.864q-.032-.32-.016-.608t.08-.512.208-.336.4-.112zm6.08 3.52q.288-.192.48-.448.096-.032.192-.032.32 0 .528.144t.304.56.128.736.064.96q.064 1.216-.032 1.904t-.576.784q-.448.16-.784-.656t-.4-1.936q-.064-1.536.096-2.016z"/></svg>