<svg xmlns="http://www.w3.org/2000/svg" width="16" height="32"><path d="M8.128 13.12q-.064.096-.16.192-.064.064-.096.128-.96.96-2.336 1.088-.224.032-.416.032.32.416.704 1.856.288.928.16 1.904t-.672 1.328q.32.288.304.736t-.176.784-.544 1.04q-.448.832-1.088 1.36T2.624 24q-.16-.128-.32-.192-.256-.192-.336-.496t.016-.704.256-.768.448-.88q.704-1.216 1.088-1.536-.544-.512-.992-2.208-.128-.48-.176-.704t-.112-.608-.016-.592.128-.464.304-.416.544-.256q-.768-.384-1.264-1.04T1.6 11.648q-.128-1.344.832-2.4t2.448-1.2 2.64.704 1.28 2.192q.128 1.184-.672 2.176zm6.24 8.832q.192.416-.256.8t-1.152.576q-.608.224-1.088.192t-.64-.576q-.16-.608.448-.896-.576-.128-.832-.96T10.72 19.2q.16-1.376.416-1.792-1.024-.192-2.08-1.088-.544-.48-.8-.736t-.512-.64-.224-.736.352-.768l.256-.32q.352-.32.704-.4t.768.128.688.416.816.656q1.056.928 1.456 1.616t-.048 1.36q0 .032-.032.064.704.16.832.88t-.064 1.648q-.192 1.76-.704 2.272 1.568-.448 1.824.192zM2.304 23.808l.032.032q.128.096.288.16.128.064.416.224.672.384.976.72t.144.752q-.224.384-.784.336T2.208 25.6q-.288-.16-.432-.256t-.336-.256-.256-.288-.064-.32.128-.384q.352-.576 1.056-.288z"/></svg>