<svg xmlns="http://www.w3.org/2000/svg" width="37" height="32"><path d="M33.792 20.672q-1.728.128-3.2-1.056-.544-.448-1.28-1.248-.032-.032-.128-.16t-.16-.192-.16-.096h-.208l-.128.016-.112.016q-.256 0-.736.08t-.736.112q-.192 0-.56-.048t-.528-.048q-.224 0-.384.256-.096.192-.224.592t-.304.624-.496.288q-.672.128-1.216-.832-.192-.352-.528-1.2t-.624-1.264q-.192-.32-.608-.56t-.592-.288-.816-.24q-.96-.256-1.472-.864-.608-.768-.672-1.664-.064-.832.928-1.728.96-.8 2.56-1.76.352-.192.384-.224.128-.064.672.032.96.192 1.792.224.224 0 .528-.016t.592-.048.512-.032q.8.032 1.216.416.32.288.8.992.064.128.288.464t.336.496.304.416.4.448.4.352q.544.384 1.12.448t1.056-.384q.192-.224.336-.544t.208-.56.144-.688.112-.576q.384-1.792 1.344-2.368.8-.48 1.888-.576-.224.672-.224.832 0 .224.288.672L36 9.28q.064.096-.064.128h-.032q-.064 0-.176.016t-.208.032-.16.048q-.288.128-.512.384-.704.864-.832 2.976-.032.704-.32 1.488t-.752 1.472-1.152 1.152-1.424.464q1.152 2.72 3.424 3.232zm-14.848 7.68h-.592l-.24-.032-.224-.048-.208-.064-.144-.112-.096-.16-.032-.192q.032-.224.272-.544t.208-.512q-.064-1.44-.064-2.336-.032-1.248-.384-1.888-.032-.064-.112-.352t-.144-.32q-.096-.032-.16-.032t-.192.016-.16.016l-.224.016-.352.016q-.448.032-1.28.304t-.96.304q-1.12.288-2.56.192-.48-.032-.672.352-.384.8.288 2.56 0 .032.144.432t.24.592q.32.64.288.864-.032.864-1.824.704-.032 0-.192-.016t-.272-.016-.288-.032T8.72 28t-.24-.08-.192-.128-.096-.176 0-.448.032-.448q-.032-.96-.064-1.728-.064-1.248-.128-1.6-.064-.48-.576-1.472-.096.096-.32.4t-.32.464-.24.416-.208.496-.096.528q-.128 1.6-.096 2.304.032.192.08.368t.16.384.144.336q.224.512-.448.64-.736.096-2.336-.16-.64-.128-.928-.224-.384-.128-.256-.64.032-.16.08-.336t.096-.304.096-.304.112-.304q.448-1.504.672-2.272.064-.288.128-.656t.128-.768.128-.656q.064-.352.08-.784l.032-.864.08-.752q.224-1.248.192-1.696-.032-.512-.16-.928l-.096.672-.112.736-.128.704-.16.72-.192.672-.272.656q-.448.992-1.28 1.728-.768.704-.896.64-.032-.032.048-.272t.208-.576.272-.672.256-.624.144-.32q.416-1.28.544-2.336.064-.352.08-1.008t.016-.784q.16-2.496 1.248-4.544t3.168-3.104q1.792-.928 3.904-.704.32.032.64.112t.624.176l.608.192.64.192.624.128q2.048.32 4.416-.128.896-.16 1.248-.16.672 0 2.08.384-.192.096-.512.224-2.528 1.12-3.488 2.08-.608.576-.64 1.472t.352 1.6q.672 1.44 2.432 1.824.992.224 1.28.48.096.096.176.208l.16.224.144.256.112.256.112.256.128.24q.256.544.448.864.096.16.288.4t.288.336q.128.192.208.448t.16.64.112.512q.224.832.544 1.824.832 2.496.928 3.104.032.128.144.208t.32.128.272.08q.32.192.368.512t-.24.512q-.544.352-1.184.48-1.024.224-1.408.064-.288-.128-.288-.432t.128-.56q.032-.192-.16-.512-.16-.288-.544-.96-.672-1.088-.832-1.728-.032-.16-.128-.592t-.192-.736-.256-.56q-.32 1.12-.416 2.176 0 .064-.032.688t-.128.912q0 .064-.128.368t-.096.464q0 .096.064.176t.224.16l.16.08q.576.384.416.832-.064.096-.144.16t-.208.08-.224.016h-.416q-.992.032-1.248 0zm7.36-13.376q.352 0 .592-.192t.288-.48 0-.56-.288-.48-.592-.208-.592.208-.304.48 0 .56.304.48.592.192z"/></svg>