<svg xmlns="http://www.w3.org/2000/svg" width="16" height="32"><path d="M11.488 12.096q0-1.344-.272-2.24t-.8-1.328-1.136-.592-1.44-.16q-1.152 0-1.904.32t-1.12.96T4.32 10.4t-.128 1.696q0 1.792 1.072 3.056t2.576 1.264 2.576-1.264 1.072-3.056zm-.672 6.816q0-1.536-.624-2.128t-2.224-.336H7.68q-.928-.128-1.52-.016t-.864.48-.352.784-.08 1.12q0 1.312.88 2.256t2.16.912q.576 0 1.12-.24t.944-.656.624-.992.224-1.184zm.096-.384q-.224-.64-.16-1.136t.64-.56q.32-.064.528.032t.352.352.208.464.16.624q.032.096.112.432t.144.576.128.608.064.624-.048.512-.208.416-.416.192q-.288.064-.528-.144t-.4-.64-.256-.784-.192-.896-.128-.672zm-6.144 0q-.032.128-.128.672t-.192.896-.256.784-.4.64-.528.144q-.256-.032-.416-.192t-.192-.416-.048-.512.048-.624.128-.608.144-.576.112-.432q.096-.416.16-.624t.208-.464.352-.352.528-.032q.576.064.64.56t-.16 1.136zm-1.024 4.8q-.032.224-.08.656t-.064.624-.08.448-.16.4-.224.24q-.384-.48-.576-.944t-.208-.656-.016-.864q-.032-.32-.016-.608t.08-.512.208-.336.4-.112q.48.032.608.416t.128 1.248zm8.192 0q0-.576.032-.848t.208-.528.496-.288q.256 0 .4.112t.208.336.08.512-.016.608v.512l-.016.224-.032.224-.048.208-.064.24-.096.24-.144.256-.176.256-.224.304q-.128-.096-.224-.24t-.16-.4-.08-.448-.064-.624-.08-.656z"/></svg>