<svg xmlns="http://www.w3.org/2000/svg" width="29" height="32"><path d="M4.352 27.552q-.48-.384 0-1.152l5.664-.64.544-1.472-6.816-.064q-1.056.192-1.6-.224-.096-.096-.336-.272t-.288-.24-.16-.224-.144-.384-.032-.608q-.064-.704-.064-3.792v-5.808l.032-2.752q-.032-.192-.032-.512t.256-.96.768-.864q.416-.192 1.04-.272t1.04-.08h.384l20.672-.256q.256 0 .592-.032t.48-.032.432.08.64.24q.608.288.64 1.216l.192 4.512-.192 9.888q-.096 1.408-.704 1.472l-2.368.096-6.528-.064.576 1.472 5.888.576q.096-.128.192.192l.128.928zm8.928-5.888 2.4-2.496h1.248l-2.592 2.496h1.376l2.4-2.496h1.248l-2.592 2.496q.672 0 1.376-.032l2.4-2.464h1.248l-2.56 2.464q.704 0 1.408-.032l2.336-2.432h1.248l-2.528 2.4q.8 0 1.44-.032l2.08-2.176q0-.256.032-.608l.032-1.44-.064-4.288-.064-.832h-.096l.096-.096q-.032-.512-.032-1.152l-1.216 1.248h-1.28l2.24-2.176-.352-.192h-.768l-2.272 2.368h-1.28l2.432-2.336H21.28l-2.24 2.336h-1.28l2.368-2.304h-1.312l-2.208 2.304h-1.28l2.336-2.272h-1.312l-2.176 2.272h-1.28l2.304-2.24h-1.312l-2.144 2.24h-1.28l2.272-2.208h-1.312l-2.112 2.208h-1.28l2.24-2.176H8.96l-2.08 2.176H5.6l2.208-2.144H6.496l-2.048 2.144h-.256v6.976h.576l-.544.512q.032.736.096 1.184l1.632-1.696H7.2l-2.432 2.336q.384.032 1.28.064l2.336-2.4h1.248L7.072 21.6q.608.032 1.376.032l2.368-2.464h1.248l-2.592 2.496h1.376l2.4-2.496h1.248l-2.592 2.496h1.376zM4.224 11.136l1.12-1.056h-.672q-.416.192-.416.544-.032.352-.032.512zm20.032 10.336q.576-.032.672-.096.128-.064.224-.736z"/></svg>