<svg xmlns="http://www.w3.org/2000/svg" width="24" height="32"><path d="M7.296 28.96q-.992-.192-1.616-.512t-.896-.848-.336-.96-.064-1.232q-1.408.032-2.144-.512t-1.056-2.144q-.288-1.376.672-2.608t2.4-1.296q1.664-.096 2.688 1.024l7.008-7.04q-.416-.32-.608-.736-.032-.096-.128-.256t-.128-.256l-.08-.24-.064-.272-.016-.288q0-1.376.64-2.272.544-.768 1.568-1.216t1.92-.288q.992.192 1.616.512t.896.848.336.96T20 10.56q1.376-.032 2.112.528t1.056 2.128q.192.928-.176 1.904t-1.168 1.568-1.696.432q-1.76-.288-2.72-.96l-6.976 7.008q.384.32.576.704l.16.32.16.336.064.272.032.416q0 1.376-.64 2.272-.512.736-1.536 1.184t-1.952.288z"/></svg>