<svg xmlns="http://www.w3.org/2000/svg" width="26" height="32"><path d="M24.672 10.08q.288 6.56.304 8.8t-.144 7.104l-1.568.576v-.288l-1.472.064 1.536-1.6q.064-1.728.064-3.104l-4.704 4.704h-2.72l7.424-7.424q-.032-1.184-.096-2.912L12.928 26.272l-.128-.032q-.256-.288-5.008-.208t-6.672.272q.096-.832.096-1.728.032-.736-.032-2.256t-.064-2.288q.032-.64.144-2.16t.112-2.352q1.248.064 2.496.064l6.4-6.368q-1.6.032-3.008 0l-5.056 5.12v-2.72l2.4-2.4L2.4 9.152l.032-1.728q4.64.16 12.736-.032 5.568-.128 6.944-.128.544 0 1.12.288t.992.784.416 1.04zM12.8 16.256q.032 1.28.064 1.792l9.024-9.056q-1.312.032-2.816.032l-6.784 6.496q.48.192.512.736zm2.4-7.136q-1.6.032-2.272.032l.032.064-6.336 6.368q.32 0 .736-.016t.736-.016.784-.016.784-.016l6.432-6.432zm-2.272 14.56L23.2 13.408q-.032-1.056-.096-2.656v-.224L12.928 20.672q.032 1.44 0 3.008z"/></svg>