<svg xmlns="http://www.w3.org/2000/svg" width="29" height="32"><path d="M2.464 9.536h-.032l-.16-.032q-.16-.032-.352-.032-.192-.032-.352-.064h-.16q-.32-.032-.288-.32t.288-.288l.16-.032h.384l.576.032q.16 0 .256.128t.08.288-.128.256-.272.064zm3.296 2.208-.032-.032q-.32-.352-.672-.672-.256-.224-.48-.384-.096-.064-.16-.128l-.064-.032q-.192-.128-.224-.336t.064-.4q.288-.384.704-.16l.064.032q.096.032.224.128.32.192.608.384l.576.448.224.224q.192.192.208.448t-.16.448-.432.192-.448-.16zm17.664 9.632q-.352 0-.768-.064t-.928-.24-.96-.544-.848-.848-.624-1.264-.224-1.728.272-1.696.72-1.248 1.088-.832 1.296-.496 1.424-.192q1.888-.096 3.232 1.136t1.248 3.344q-.064 1.184-.48 2.096t-.96 1.376-1.264.768-1.216.368-1.008.064zM9.088 15.632q-.288.144-.592.032t-.464-.4V15.2l-.384-.832q-.128-.288-.288-.576l-.096-.192-.064-.096q-.128-.256-.048-.528t.336-.432q.256-.128.528-.064t.432.288l.032.096.128.192q.16.256.352.608l.48.928q.128.288.032.592t-.384.448zm1.184 4.112q-.256.064-.48-.08t-.288-.4l-.096-.288q-.064-.224-.192-.64-.128-.288-.224-.608l-.128-.288q-.096-.32.032-.608t.432-.4.592.016.416.448v.064l.096.32q.064.32.16.672l.192.992q.064.256-.08.496t-.432.304zm6.624.128q-.192.16-.448.144t-.416-.208-.144-.448.208-.416q.032-.032.096-.064.16-.064.16-.096.16-.096.384-.192.064-.032.464-.256t.464-.256l.16-.064q.192-.032.352.064t.224.288q.064.32-.192.48-.224.16-.416.32l-.256.192zm-3.28 3.36q-.208-.096-.288-.32t.016-.416l.032-.096.096-.224q.16-.416.192-.416l-.128.224.544-.928q.064-.16.16-.288.128-.224.368-.272t.448.096.256.368-.08.448q-.064.096-.16.256-.32.512-.512.864l-.032.096-.032.032-.096.224-.032.064q-.096.224-.32.304t-.432-.016zm-2.64.416q-.256.032-.432-.208t-.224-.448-.112-.56q-.032-.096-.048-.224t-.048-.24-.032-.208l-.064-.288q-.032-.16.016-.32t.176-.272.288-.144q.288 0 .464.128t.224.224.048.16l.032.32q.032.096.064.32t.064.352q.16 1.312-.416 1.408zm.736 3.936q-.16 0-.336-.112t-.288-.256-.112-.24l-.352-1.792q0-.224.144-.4t.352-.192.368.128.16.368l.128 1.024q.32-1.152.48-1.44.224-.448.672-.32.224.064.336.288t.048.48l-.896 2.048q-.192.416-.704.416z"/></svg>