<svg xmlns="http://www.w3.org/2000/svg" width="23" height="32"><path d="M12.576 20.544q-.16.16-.496.176t-.88-.4q-.448-.384-.912-.816t-.784-.704-.384-.336q-.416-.416-.592-.832t.08-.736q.096-.096.544-.512t1.088-1.088 1.632-1.888q.832-.992 1.952-2.064t2.512-2.128 2.448-1.472q1.76-.64 2.336-.672.384 0 .416.032.16.096.08 1.152t-.432 1.792q-.896 1.888-1.936 3.376t-1.776 2.272-2.336 2.32-2.56 2.528zm-1.344 1.504q-.064.032-.144.08t-.208.08-.288.016-.336-.096-.368-.272q-.608-.544-1.408-1.264l-.8-.72q-.416-.384-.544-.784t.128-.688q.448-.48 1.152.16l2.336 2.208q.832.8.48 1.28zM1.12 27.232q0-.032.112 0t.288-.048.368-.208.4-.48.304-.864q.096-.32.192-.976t.16-.976q.032-.064.064-.192.128-.608.224-.912t.336-.736.592-.784q.576-.576 1.376-.688t1.456.112 1.072.576q.704.608 1.072 1.264t.336.976q-.192.992-.768 1.664-.8.896-1.856.896-.128 0-.464-.016t-.528-.016-.496.048-.528.176q-.256.096-.4.256t-.288.384-.304.384q-.448.48-1.12.528t-1.152-.176z"/></svg>