<svg xmlns="http://www.w3.org/2000/svg" width="20" height="32"><path d="M17.568 7.072q.64.064 1.056.56t.384 1.136q-.064.416-.32.72t-.624.464-.784.192l.032.032q-.96.096-1.728.448-.672.288-1.184.736-.608.544-1.024 1.248-.48.832-.736 2.048-.256 1.056-.352 3.328-.128 2.24-.832 4.032-.64 1.696-1.76 2.88-.96 1.024-2.24 1.696-1.184.608-2.528.8-.672.064-1.472.128t-1.488-.288-.816-1.12q-.128-.704.384-1.2t1.248-.592q.896-.096 1.664-.448.608-.288 1.088-.64.48-.416.864-.96.384-.64.64-1.472.288-.928.352-2.272.16-3.008.416-4 .448-1.888 1.344-3.36.832-1.344 1.984-2.304.96-.8 2.16-1.28t2.48-.576q.352-.032.704-.032.544 0 1.088.096z"/></svg>