<svg xmlns="http://www.w3.org/2000/svg" width="22" height="32"><path d="M20.608 10.272q.48 1.312.064 2.784t-1.504 2.208q-.96.64-2.464.704-1.312.064-2.464-.384t-1.824-1.472q-1.568-2.336 0-4.544 1.248-1.728 3.456-2.112 2.56-.448 4.032 1.504.416.576.704 1.312zM7.968 7.904q1.216.832 1.968 2.144t.336 2.624T8.96 14.96t-2.048 1.328q-.96.256-1.904.08t-1.792-.784-1.392-1.504q-.448-.768-.512-1.472-.128-1.056.672-2.56.928-1.76 1.92-2.4.96-.576 2.048-.496t2.016.752zm-.32 4.48q.704 0 .768-.032L8.288 11.2q-.288.064-1.024.032H6.56q0-1.088-.064-2.016l-1.12.064q.064.896.064 1.952L3.264 11.2v1.12l2.144.032q-.032.96-.064 1.696l1.088.096q.064-.768.096-1.792h.832l.16.016.128.016zm6.72-.064q1.92-.064 3.84-.16l-.064-1.12q-1.952.096-3.808.16zm-.544 5.408q1.248-1.024 2.528-.928t2.32.848 1.712 2 .704 2.56q0 1.088-.448 1.696-.352.512-1.216.96-.8.416-1.568.672t-1.536.256q-1.92.032-2.912-1.248-.576-.736-.864-2.336-.192-.992-.16-1.6.064-1.76 1.44-2.88zm-4.608.48q1.6 1.184 1.44 4.32-.032.768-.16 1.184-.256.64-.896 1.216-1.824 1.6-4.768 1.28-.96-.128-1.6-.448-.608-.32-1.088-.896-.864-1.024-1.008-2.432t.496-2.592 2.032-1.872 2.928-.624 2.624.864zm-4.16 1.088q-.096.16-.064.416 0 .224.032.32.096.256.352.384.224.128.512.096.192 0 .32-.064.448-.16.496-.64t-.368-.736q-.288-.192-.72-.144t-.56.368zm13.408.288-3.84.16.064 1.088 3.808-.192zm-9.6 2.72V21.28H2.848v1.024h6.016zm7.136.608q1.504 0 2.976-.288l-.256-.928q-2.048.384-4.128.192l-.096.96q.736.064 1.504.064zm-9.312 1.312q.032-.096.032-.224-.032-.352-.192-.576-.384-.48-1.056-.128-.16.064-.224.16-.128.16-.128.48 0 .352.128.48.096.096.32.192.288.096.48.064.128-.032.288-.096.256-.128.352-.352z"/></svg>