<svg xmlns="http://www.w3.org/2000/svg" width="35" height="32"><path d="M5.088 7.232q-1.184.832-2.064 1.952t-1.136 2.4q-.128.544-.48.224-.224-.192-.288-.544-.096-.704.512-2.112.288-.704.752-1.264t1.12-.928 1.424-.464q.32 0 .368.288t-.208.448zM9.376 8q-1.536.672-2.752 1.776t-1.952 2.608-.832 3.168q-.032.288-.208.4t-.432.016q-.352-.16-.352-1.088 0-1.92.736-3.648.48-1.12 1.232-1.984T6.592 7.84 8.8 7.104q.608-.096.896.32.256.352-.32.576zm17.248 6.56q.512.288.544.832t-.192 1.056q-.608 2.208-1.728 5.536-.128.288-.272.72t-.24.752-.24.736-.272.736q-.192.512-.32.672-.096.128-.192.208t-.208.112-.208.032-.224-.032-.224-.064l-.48-.16q-1.504-.416-3.136-.96t-3.696-1.248-3.088-1.056l-3.136-1.056q-.16-.032-.512-.128t-.608-.176-.56-.208-.528-.32-.32-.416q-.096-.16-.112-.352t0-.384.064-.432.112-.448.144-.448.16-.416.144-.384.128-.336q.512-1.664 1.376-4.256l.208-.704.368-1.056q.352-.928 1.136-1.072t1.648.24l13.408 4.128q.928.288 1.056.352zm-2.08-4.256q.416 0 .704.144t.448.352.256.56.128.624.08.72.08.64l-7.52-2.336 4.128-.48q.128-.032.752-.128t.944-.096zm.288 6.24q0-.192-.176-.368t-.592-.352-.688-.272-.784-.24-.544-.144l-4.352-1.344q-1.12-.352-3.2-.992l-2.912-.896q-.192.032-.352.24t-.24.416-.16.544-.112.4q-.448 1.28-.768 2.304-.48 1.536-.704 2.304 0 .032-.064.24t-.112.336-.08.336.064.24q.032.064.096.096t.16.064.176.064.176.064.128.032q.576.224 1.792.64 2.112.704 4.896 1.6 2.656.832 4.256 1.312.096 0 .4.112t.496.176.496.096.368-.064q.16-.128.304-.432t.256-.768.144-.528q.32-.96.8-2.528.064-.224.272-.784t.352-1.056.208-.848zm-18.4-.512q0-.16-.064-.608t-.08-.656-.016-.608.08-.608.224-.48.416-.448.624-.272q-.64 2.016-1.184 3.68zm24.928 3.84q.064 1.856-.544 3.488-.608 1.664-1.92 2.72-.192.128-.464.32t-.688.432-.784.384-.704.128-.464-.272q-.064-.416.288-.64 2.112-1.376 3.232-3.664t.8-4.752q-.032-.256.128-.432t.416-.144q.128.032.256.144t.192.32.112.384.08.464.032.432.016.4.016.288zm-5.248 3.168.832-2.432q.032.128.08.512t.048.544-.016.464-.112.448-.304.288-.528.176zm7.04-1.92q.512.096.512 1.024t-.24 1.792-.4 1.216q-.544 1.024-1.568 1.632-.608.352-.832.32-.256-.032-.336-.256t.144-.448q2.272-2.272 2.304-4.832.032-.416.416-.448zm-8.384 7.136q.128-.16.192.192l.096.928-16.672.032q-.48-.416 0-1.184L12 27.616l.448-3.136q-.48.032-1.536-.064t-1.568-.032q-1.312.16-1.792-.416-.16-.224-.256-.528t-.128-.528-.064-.624-.064-.56q.192.064.384.096l-.064-.032 2.176.736q.064.128.576.304t1.168.336.752.192l5.376 1.792 3.328 1.088.192 1.44z"/></svg>