<svg xmlns="http://www.w3.org/2000/svg" width="18" height="32"><path d="M8.768 27.392q-.864.064-1.76-.16-.832-.224-1.504-.768-.736-.608-1.312-1.632-.096-.192-.368-.784t-.464-.88q-.352-.32-.96-.448t-1.008-.64-.24-1.12q.16-.576.656-.88t1.056-.304 1.104.096q.8.192 1.504.736.256.192.528.48t.368.416.448.608.352.512q.448.576.672.672.224-.384.288-.928.096-.64.208-1.808t.144-1.584q.192-1.568.512-2.912.384-1.664.992-3.104.768-1.696 1.824-3.008.864-1.056 1.856-1.856.288-.224.416-.32t.432-.304.512-.288.48-.176.528-.08.48.144q.608.256.768.768t-.064 1.024-.64.896q-.32.288-.544.544-.608.64-1.056 1.312-.64 1.024-1.056 2.304-.352 1.12-.544 2.496-.128.96-.288 2.848-.224 2.784-.48 3.968-.352 1.472-.96 2.368-.576.832-1.376 1.312-.672.384-1.504.48z"/></svg>