<svg xmlns="http://www.w3.org/2000/svg" width="20" height="32"><path d="M2.528 27.168q-.736-.096-1.136-.64t-.256-1.2.816-1.04q.192-.096.416-.192t.544-.176.48-.144q1.088-.352 2.08-.864.896-.416 1.856-1.024.832-.544 1.6-1.216.736-.64 1.408-1.376.608-.672 1.28-1.536.64-.832 1.216-1.792.608-.992 1.12-2.08.544-1.152 1.024-2.432.448-1.248.864-2.848.224-.928.672-1.488t1.248-.464q.288.064.512.176t.368.32.256.4.144.496.064.528 0 .592-.048.56-.064.544-.048.48q-.192 1.728-.512 3.168-.352 1.536-.864 2.912-.544 1.408-1.232 2.64t-1.616 2.256q-.864 1.024-1.952 1.888-1.024.832-2.208 1.472t-2.464 1.088q-1.312.448-2.624.704-2.176.416-2.944.288z"/></svg>