<svg xmlns="http://www.w3.org/2000/svg" width="26" height="32"><path d="m24.64 15.744.096.704v7.648l-.16.544-.416.256h-1.216l-2.336-1.792h-1.376q-.032 1.056-.272 1.552t-1.04.944q-.608.288-1.264.448t-1.04.192h-.384l-10.56.032q.288 0-.096-.096-2.496-.704-2.88-1.344l-.064-.192q-.16-.288-.272-.72t-.176-.864-.096-.816-.032-.608v-.256l.064-4.16q0-.192.032-.464t.32-.896.8-.976q.384-.256.864-.416t.768-.192l.288-.032h1.952q-1.056-.128-1.984-.96-.288-.256-.432-.544t-.192-.592-.048-.752q0-1.376.48-1.92.416-.448 1.088-.704t1.312-.256q1.184 0 1.728.448.512.384.832 1.056t.32 1.376q0 .544-.208 1.056t-.56.88-.832.624-1.024.288l6.336.032q-1.664-.064-2.88-1.536-.928-1.088-.928-2.368 0-.864.368-1.712t.976-1.392q.928-.8 2.592-.8.96 0 1.792.576.864.576 1.472 1.488t.64 1.84q0 1.6-1.12 2.736t-2.688 1.168l2.688.032q1.184-.064 2.112.352 1.312.704 1.28 2.56h1.344l2.4-1.536h.96zM12.32 10.4q0 .32.224.544t.544.224.528-.224.208-.544-.208-.496-.528-.176q-.224 0-.4.08t-.272.224-.096.368zm-6.528 1.008q0 .24.176.4t.4.16.4-.16.176-.4-.176-.4-.4-.16-.4.16-.176.4z"/></svg>