<svg xmlns="http://www.w3.org/2000/svg" width="20" height="32"><path d="M2.72 27.232q-.32-.032-.544-.144t-.368-.32-.256-.4-.144-.512-.048-.544 0-.592.032-.544.064-.544.048-.464q.192-1.76.512-3.168.352-1.536.88-2.928t1.232-2.624 1.6-2.256 1.952-1.888q1.024-.832 2.224-1.488t2.48-1.072q1.312-.448 2.592-.704 2.176-.416 2.944-.32t1.152.64.24 1.2-.784 1.04q-.16.096-.352.176t-.352.128-.384.112-.352.096q-1.12.384-2.112.864-.896.416-1.824 1.056-.864.544-1.632 1.184-.736.64-1.408 1.376-.608.672-1.28 1.536-.64.864-1.216 1.792-.608 1.024-1.12 2.08-.544 1.152-.992 2.464-.448 1.248-.896 2.848-.224.896-.656 1.472t-1.232.448z"/></svg>