<svg xmlns="http://www.w3.org/2000/svg" width="20" height="32"><path d="M3.712 28.8q-1.12.032-1.504-.384-.096-.064-.336-.256t-.336-.336-.224-.608-.16-1.168q-.032-.576-.032-2.496v-4.24l.016-4.576.016-3.76V8.992l.192-.912.608-.944 1.136-.432 1.232-.048.512.032 11.488-.064q.064.032.208.048t.496.144.624.304.528.528.288.768q.096.704.112 2.096t.016 2.416v1.024l-.384 12.704q-.192 1.248-.48 1.6-.096.096-.24.192t-.32.16-.32.112-.272.048l-.096.032H3.712zm-.288-16.576h12.832q.416 0 .72-.304t.304-.72V9.184q0-.448-.304-.736t-.72-.288H3.424q-.416 0-.72.288t-.304.736V11.2q0 .416.304.72t.72.304zm10.88-.96q-.224 0-.416-.128-.192-.096-.256-.32-.032-.064-.032-.128t.032-.16q.064-.192.192-.352l.096-.096q0-.032-.096-.096-.064-.096-.128-.256-.032-.032-.032-.096 0-.128.032-.224.096-.224.384-.32h.192q.288 0 .512.192.096.128.096.288 0 .192-.128.32-.032.064-.16.16l.128.096q.096.064.192.192t.096.256q0 .192-.096.352-.16.224-.416.288-.128.032-.192.032zm-1.632 0q-.192 0-.384-.096-.128-.064-.208-.208t-.112-.4q-.032-.16-.032-.288t.032-.288q.064-.352.256-.64.096-.128.288-.224.096-.032.224-.032.256 0 .448.192l.096.128q.032.064 0 .064-.096.064-.224.128l-.032.032-.064-.064-.192-.064h-.096q-.16.064-.224.288 0 .064-.032.192.192-.032.32-.032.256 0 .416.096.224.16.224.576 0 .192-.128.384-.096.128-.288.192-.16.064-.288.064zm-7.264-.032q-.032 0-.032-.064v-.608q0-.224.096-.512.064-.224.096-.32.032-.064.16-.224h-.736l-.064-.064v-.224l.032-.096h1.328l.048.032v.288q0 .032-.032.064l-.096.096q-.16.224-.256.48-.032.096-.096.32-.032.192-.032.544v.224q0 .064-.064.064h-.352zm1.664.032q-.288 0-.512-.192-.096-.064-.032-.128l.128-.192q.064-.032.096 0 .16.096.32.096.064 0 .176-.096t.112-.224q0-.288-.224-.384-.096-.032-.16-.032t-.064-.064v-.256l.32-.32h-.4l-.176-.016-.064-.048v-.224q0-.064.064-.064h1.056l.064.048v.208l-.032.096q-.064.096-.288.32l-.016.032-.048.064q.16.064.256.16.224.16.224.416t-.16.48q-.128.16-.304.24t-.336.08zm8.736 0q-.288 0-.544-.192-.064-.064 0-.128.032-.064.096-.128l.032-.064q.032-.032.096 0 .16.096.288.096.096 0 .208-.096t.112-.224q0-.288-.224-.384-.096-.032-.16-.032-.096 0-.096-.064t.016-.128.016-.128l.064-.08.16-.16.096-.08h-.432l-.16-.016-.048-.048v-.224q0-.064.064-.064h1.024q.064 0 .064.048t.016.112.016.096-.064.096q-.064.096-.256.32l-.032.032-.032.064q.16.064.256.16.192.16.192.416t-.16.48q-.096.16-.288.24t-.32.08zm-11.712 0q-.256 0-.48-.128-.096-.032-.192-.128-.032-.032-.032-.048t.016-.048.048-.064l.128-.128.064-.032.032.032q.224.128.352.128t.224-.096.096-.288-.256-.288q-.16-.064-.288-.064-.032 0-.032-.064v-.192q0-.032.032-.064.16-.16.224-.256l.032-.064H3.52l-.064-.064v-.224q.032-.064.096-.064h1.056q.064 0 .096.096v.192q0 .032-.064.064-.032.032-.064.096l-.064.032q-.032.032-.096.128l-.064.032q0 .032-.032.064.032 0 .064.016t.064.016q.16.064.256.256.096.16.096.352 0 .16-.096.352 0 .032-.064.128-.096.16-.352.288-.096.032-.192.032zm4.64 0q-.256 0-.48-.128-.064-.032-.192-.128-.032-.032-.032-.048t.032-.048l.064-.064.032-.064.08-.08.048-.016.064.032q.224.128.336.128t.24-.096q.064-.096.064-.288t-.256-.288q-.16-.064-.256-.064-.064 0-.064-.064v-.192q0-.032.032-.064l.256-.256.032-.064h-.544q-.064 0-.064-.064v-.224q0-.064.064-.064H9.28q.064 0 .064.096v.192q0 .032-.032.064l-.128.128q-.064.032-.128.128-.032.032-.064.032l-.032.064q.032 0 .08.016l.048.016q.192.064.256.256.096.16.096.352 0 .16-.064.352-.032.032-.096.128-.096.16-.352.288-.064.032-.192.032zm2.144 0q-.352-.032-.48-.288-.096-.16-.096-.192l.032-.032.192-.096q.032-.032.08-.048t.064-.016.048.032q.096.192.16.192.128.032.256-.032t.128-.224q0-.128-.096-.224t-.288-.096q0-.032-.16-.032-.032 0-.16.032-.064 0-.064-.064v-.992q0-.064.064-.064h.992q.064 0 .064.064v.288q0 .064-.096.064h-.576v.32h.192q.288.032.448.224.128.16.128.416 0 .128-.032.224-.064.224-.224.352-.128.16-.416.192h-.16zm3.392-1.376q.192-.128.192-.288 0-.224-.224-.224-.192 0-.192.16 0 .192.224.352zm.032 1.024q.128 0 .192-.064t.064-.16v-.064q-.064-.192-.32-.352-.032.064-.096.128-.096.096-.096.256 0 .096.08.176t.176.08zm-1.632-.032h.128q.192-.064.192-.256v-.096q-.032-.16-.192-.224-.096-.032-.224 0-.032 0-.192.064v.16q.032.128.128.256.064.096.16.096zM4.64 17.216q.736 0 1.248-.528t.512-1.264q0-.352-.144-.688t-.368-.56-.56-.368-.688-.144q-.736 0-1.264.512t-.528 1.248.528 1.264 1.264.528zm5.216 0q.512 0 .912-.24t.64-.656.24-.896q0-.736-.528-1.248t-1.264-.512q-.352 0-.672.144t-.56.368-.384.56-.144.688q0 .736.528 1.264t1.232.528zm5.248 0q.736 0 1.264-.528t.528-1.264q0-.48-.24-.88t-.656-.64-.896-.24q-.736 0-1.248.512t-.512 1.248q0 .48.24.896t.64.656.88.24zM4.64 22.272q.736 0 1.248-.528T6.4 20.48q0-.48-.24-.88t-.64-.64-.88-.24q-.736 0-1.264.512t-.528 1.248q0 .48.24.896t.656.656.896.24zm5.232 0q.72 0 1.248-.528t.528-1.264-.528-1.248-1.248-.512-1.248.512-.528 1.248.528 1.264 1.248.528zm5.232 0q.256 0 .48-.064t.416-.176.368-.288.288-.368.176-.416.064-.48q0-.736-.528-1.248t-1.264-.512q-.352 0-.688.144t-.576.384-.368.56-.128.672q0 .736.512 1.264t1.248.528zM4.64 27.328q.736 0 1.248-.528t.512-1.264q0-.48-.24-.88t-.64-.64-.88-.24q-.736 0-1.264.512t-.528 1.248.528 1.264 1.264.528zm5.232 0q.72 0 1.248-.528t.528-1.264-.528-1.248-1.248-.512-1.248.512-.528 1.248.528 1.264 1.248.528zm5.232 0q.256 0 .48-.064t.416-.176.368-.288.288-.368.176-.416.064-.48q0-.352-.144-.672t-.384-.56-.576-.384-.688-.144-.688.144-.576.384-.368.56-.128.672q0 .48.24.896t.64.656.88.24z"/></svg>