<svg xmlns="http://www.w3.org/2000/svg" width="26" height="32"><path d="M19.52 7.68q-.16.224-.4.4t-.448.288-.416.192-.304.112l-.128.032q.672-1.056.928-1.568.704-1.376 1.152-.832.224.32.128.592t-.512.784zm-2.112-.192q-.352-.256-.192-.704.192-.576.64-.224.288.192.096.672-.064.096-.224.224t-.32.032zm-3.264 1.056q-.896-.032-1.6.544-.256-.896.032-1.376.256-.384.784-.4t.816.304q.32-.576.784-.784t1.072.08q.768.384 1.008 1.28t-.304 1.568q-.224-.224-.448-.384-1.376-1.12-2.144-.832zm-2.72-.64q-.288-.224-.16-.544.128-.384.544-.064.288.256.096.576-.16.256-.48.032zm-.928 1.152q-.352-.288-.72-.72t-.304-.592.144-.208.4.096.96.56q.992.64.96 1.184l-.576.224q-.352-.128-.864-.544zM21.6 13.76q-.224.352-.96.832.768.448.896 1.36t-.672 1.392q-.096.064-.352.128t-.352.128q-.096.032-.16.32 0 .064-.064.208t-.096.288 0 .208q.064.352.928.992-.64-.384-.896-.48-.224-.064-.512 0-.832.192-1.6-.288.128-.128.48-.224t.48-.32q.032-.064.08-.208t.112-.208l.032-.048.064-.112.064-.096q.064-.192.112-.352t.08-.288.032-.224.016-.144.016-.08.096-.064l.096-.064q.288-.256.288-.672-.032-.32-.256-.704-.032-.064-.112-.144t-.128-.144-.08-.128q-.032-.096.032-.176t.176-.176.176-.16q.672-.928.064-2.24-.48-1.088-1.536-1.184-.032 0-.224.016t-.304 0-.112-.144.544-.64q.416-.384.864-.544.416-.128.816-.032t.752.32.64.544q.288.352.48.832.032.064.08.272t.112.304q.128.192 1.152.224.288 0 .864-.032t.736-.032q-.224.064-.704.192t-.864.24-.704.272q-.128.064-.176.08t-.096.064-.064.096-.048.176q-.096.576-.288.864zm-3.52 3.424-6.56 5.504q.16.48.224.96-.064 1.472-.832 2.464t-2.144 1.152q-.032.032-.368.08t-.4.048q-.736 0-1.408-.352t-1.152-.88-.768-1.2q-.064-.096-.176-.32t-.144-.32-.08-.288-.048-.384q0-.096.032-.192-1.792-.928-2.72-2.72-.8-2.112-.16-4.048t2.592-2.96q.032-.032.512-.32t.608-.32l9.472-3.552q.064.032.208.096t.544.336.768.624.8.992.752 1.408.48 1.472.16 1.184-.032.848-.096.528zm4.352-2.56q.256.096.416.288t.16.384q0 .16-.272.176t-.4-.048q-.16-.064-.32-.24t-.128-.336q.032-.384.544-.224zm-4.96 4.512q.224.16.384.512.384.864-.032 1.024-.448.192-.768-.576-.128-.32-.16-.48zm-9.12 6.144q.608-.064.96-.512t.352-1.12q-.064-.672-.528-1.136T8 21.952q-.768-.096-1.344.704-.352.512-.352.992 0 .16.192.576.224.48.624.8t.88.32q.032 0 .224-.064h.128z"/></svg>