<svg xmlns="http://www.w3.org/2000/svg" width="22" height="32"><path d="M20.128 8.704q1.088 1.92-.256 3.904-.096.16-.368.576t-.352.528-.288.368-.352.336-.368.192-.512.144q-.8.096-1.248-.352-.384.288-.928.352-.416.032-.704-.08t-.512-.416-.384-.592-.4-.8-.464-.864q-.224-.384-.352-.768t-.144-.72.048-.656.208-.592.304-.512.368-.464.4-.368.384-.272q.384-.288.912-.336t.88.016l.032-.128q.032-.448 0-.576v-.096q-.544.224-.992.096-1.024-.352-2.208-1.6.096 0 .352-.112t.528-.208.672-.128.752.16q.64.288 1.152 1.184l.128-.064q.864-.448.992-.8.16-.352.512-.224l.384.288q0 .032-.16.288l-.032.032q0 .032-.032.128-.096.256-.352.416l-.096.096-.16.128q-.608.288-.672.48-.064.224-.064.576 1.12-.192 1.952.112t1.44 1.328zM6.624 14.176q-1.504 0-2.576-1.264T2.976 9.856q0-.992.128-1.696T3.6 6.816t1.136-.96 1.888-.32q.864 0 1.456.16t1.12.592.816 1.328.288 2.24q0 1.184-.496 2.176T8.464 13.6t-1.84.576zm3.008 2.496q0 1.056-.624 1.888t-1.584 1.088q.576.224.912.688t.336 1.04q0 .544-.32.992-.32.096-.448.448-.576.384-1.28.384-.608 0-1.12-.288.128.448-.032 1.984-.128 1.12-.496 1.904t-.848.624q-.448-.16-.528-.944t.08-1.776q.064-.672.128-.992t.176-.704.336-.528.544-.112h.032q-.32-.448-.32-.992 0-.576.352-1.04t.928-.688q-.96-.288-1.584-1.136t-.624-1.936q0-.704.08-1.12t.352-.784.864-.48 1.552.016h.288q1.056-.16 1.68.064t.896.8.272 1.6zm1.6 2.624q-.192.032-.368-.048t-.304-.24-.24-.4-.192-.48-.144-.544-.112-.544-.096-.496-.08-.384q-.224-.672-.16-1.152t.64-.544q.256-.032.448.032t.32.16.224.336.144.416.112.528q.032.096.128.432t.144.576.112.592.064.608-.048.528-.208.416-.384.208zm-8.16-4.832q.576.064.656.544t-.144 1.152q-.032.128-.144.656t-.192.896-.256.8-.416.64-.528.144q-.192-.032-.336-.144t-.208-.272-.096-.352-.016-.448.048-.464.096-.48.112-.464.096-.416.08-.32q.096-.448.16-.64t.208-.448.352-.352.528-.032zm14.464 4.48q0 .16-.032.384v1.488l-.032 1.52q0 .128-.032 1.472.128-.128.544-.56t.576-.56q.128-.096.256.064l.864.832.032.016.064.08v.128l-.304.288-.64.592-.464.432q-1.088 1.152-1.344 1.28-.384.352-.528.352T16 26.4q-.192-.288-.256-.32-.128-.16-1.168-1.2t-1.168-1.136q-.032-.064-.016-.128t.048-.128l.064-.032q.736-.736.864-.8.064-.064.112-.048t.112.064l.128.096.096.08.032.064q.32.256.8.768 0-.16.032-.384v-3.008q0-.128.032-1.472-.128.096-.544.528t-.544.56q-.128.096-.288-.064l-.832-.8-.096-.224q0-.032.304-.304t.624-.576.448-.464q1.088-1.12 1.376-1.28.384-.32.528-.336t.464.368q.224.256.256.288.096.128.656.688t1.088 1.072.592.576l-.064.288q-.768.736-.896.832-.064.064-.176 0t-.208-.16l-.064-.096q-.32-.256-.8-.768zm-6.064.368q.336-.016.496.224t.176.496-.016.832v.496l-.016.224-.032.24-.032.208-.064.24-.112.24-.128.256-.176.256-.24.304q-.096-.096-.192-.224t-.144-.272-.08-.384-.064-.416-.064-.512-.064-.592q0-.544.032-.816t.208-.528.512-.272zm-9.68-.016q.48.032.608.416t.128 1.216q-.032.256-.064.688t-.064.624-.096.448-.144.4-.24.24q-.128-.16-.24-.32t-.192-.32-.144-.256-.096-.272-.064-.24-.032-.256-.016-.24-.016-.288v-.272q0-.32.016-.608t.064-.512.192-.336.4-.112zm6.112 3.52q.256-.192.448-.448.096-.032.192-.032.32 0 .528.144t.304.56.128.736l.096.96q.032.704.016 1.264t-.16.96-.464.464q-.48.16-.8-.656t-.384-1.936q-.096-1.536.096-2.016z"/></svg>