<svg xmlns="http://www.w3.org/2000/svg" width="26" height="32"><path d="M10.048 27.808q-.192-.032-.48-.704t-.672-1.536-.736-1.248q-.16-.16-2.272-.144t-2.112-.016q-.192-.256.064-2.128T4 20q-.16-.224-.88-.912t-1.36-1.296l-.64-.608q2.4-2.784 2.528-3.104-.064-.256-.256-.688t-.352-.832-.304-.832-.144-.816.192-.64q.128-.16 2.032-.544t2.128-.576q.032-.064.272-.672t.48-1.232.512-1.168.432-.608q.448-.128 1.264.208t1.552.768.928.4q.256 0 1.824-.944t1.728-.88q.48.224 1.168 1.648t.784 1.456q.16.064 1.184.224t1.952.336.96.336q.128.608-.112 2.176t-.208 1.664.864.56 1.648 1.088.848 1.104q.032.224-.112.512t-.384.592-.544.624-.592.592-.544.48-.416.336l-.16.128q.032.032.048.112t.048.336.08.48.096.56.096.608.096.608.064.528.032.4-.016.24q.032.224-.816.464t-1.808.416-1.088.272q-.096.064-.8 1.792t-.992 1.792q-.352-.096-1.952-.72t-1.792-.688q-.512.384-1.856 1.104t-1.664.624zm1.504-6.944q1.024 0 1.888-.032h.928q.064 0 .4-.016t.496-.016q.448 0 .544-.224 0-.064.032-.192v-.16l.032-.064v-.464l.032-2.096h2.464q.48 0 .48-.288l-2.752-3.392-2.56-3.04-.32-.384q-.256-.288-.48-.16l-.192.192-.224.256q-.352.384-.448.512-1.024 1.152-1.792 2.112-.768.896-1.696 2.144-.736.96-.832 1.088-.352.512-.192.736.128.128.512.16.096 0 .32-.016t.288-.016h1.728l-.128 2.112v.928q0 .16.128.256.096.032.416.032.192.032.928.032z"/></svg>