<svg xmlns="http://www.w3.org/2000/svg" width="24" height="32"><path d="m7.744 8.704.192-1.408q.064-.544.16-.8.192-.512.88-1.056t1.168-.384q.384.096.336.576t-.208.912-.352.72q-.768 1.184-2.176 1.44zm8.352 0q-1.408-.256-2.176-1.44-.192-.288-.352-.72t-.208-.912.336-.576q.48-.16 1.168.384t.88 1.056q.096.256.16.8zm-10.4 1.792-.32-1.408q-.128-.544-.128-.8 0-.544.464-1.296t.976-.784q.48 0 .592.896t-.048 1.28q-.32 1.376-1.536 2.112zm12.448 0q-1.216-.736-1.536-2.112-.16-.384-.064-1.28t.608-.896q.512.032.976.784t.464 1.296q0 .288-.128.8zM4.352 12.864l-.8-1.216q-.288-.448-.384-.704-.192-.416 0-1.328t.672-1.104q.448-.192.8.512t.416 1.312q.192 1.408-.704 2.528zm15.136 0q-.896-1.12-.736-2.528.096-.608.448-1.312t.8-.512q.48.192.656 1.104t-.016 1.328q-.064.256-.384.704zm-5.536 6.176-3.392-.064q0-.832-.032-3.424t-.064-3.456q0-.416.016-.672t.192-.384.592-.128q.192 0 2.56.064.032 1.056.064 4.032t.064 4.032zM3.904 15.552l-1.152-.864q-.448-.32-.608-.544-.32-.416-.464-1.248t.24-1.28q.384-.32.96.224t.832 1.088q.672 1.28.192 2.624zm16.032 0q-.48-1.344.192-2.624.256-.544.832-1.088t.96-.224q.352.448.224 1.28t-.448 1.248q-.192.224-.608.544zM6.56 19.04q0-.448-.016-2.24t-.016-2.24q0-.064-.016-.272t-.016-.272.064-.16.192-.16.32-.112.384-.112.32-.128q.832-.352 1.696-.48-.096 3.232.032 6.176-1.472-.032-2.944 0zm8.352 0q0-.096-.032-.672t-.064-1.216-.032-1.328.048-1.152.208-.496q.032-.032.72.224t1.344.464.656.144q.064.544.08 2.016t-.016 2.016h-2.912zm-10.528-.832-1.344-.416q-.544-.16-.768-.288-.448-.288-.88-1.056T1.216 15.2q.16-.32.624-.192t.864.352.624.448q1.056.992 1.056 2.4zm15.072 0q0-1.408 1.056-2.4.16-.128.432-.32t.608-.352.64-.16.432.224q.256.48-.176 1.248t-.88 1.056q-.224.128-.768.288zM4.352 20.64q-.544.032-.8-.032-.544-.096-1.216-.688t-.576-1.072q.032-.352.512-.416t.928.032.768.224q1.312.544 1.792 1.888zm15.136 0-1.44-.064q.512-1.344 1.824-1.888.16-.096.4-.16t.544-.096.576-.032.464.112.224.336q.096.48-.576 1.072t-1.216.688q-.256.064-.8.032zM5.792 23.104q-.32.064-.816-.048t-.944-.384-.512-.624q-.064-.256.16-.464t.592-.288.704-.128.56-.016q1.408.064 2.336 1.152l-1.312.544q-.512.224-.768.256zm12.256 0q-.288-.032-.768-.256l-1.312-.544q.896-1.088 2.336-1.152.32-.032.784.032t.88.288.352.576q-.096.512-.912.832t-1.36.224zm-9.28 1.568q-.384.256-1.312.24t-1.216-.464q-.256-.416.384-.88t1.216-.656q1.376-.416 2.592.288l-1.024.96q-.416.384-.64.512zm6.304 0q-.256-.128-.64-.512l-1.056-.96q1.248-.704 2.624-.288.576.192 1.2.656t.368.88q-.256.448-1.184.464t-1.312-.24zM8.64 28.64q-.352.128-.72.048t-.56-.368q-.16-.192-.064-.352.032-.096.288-.192.864-.352 1.568-1.376.16-.256.992-1.856.288-.512.576-.736.384-.352.8-.192.256.096.032.48l-.32.384q-.256.288-.608 1.312-.32 1.024-.928 1.92-.544.704-1.056.928zm6.56 0q-.544-.224-1.056-.928-.608-.896-.96-1.92-.32-1.024-.576-1.312-.32-.384-.352-.384-.288-.544.256-.512.352.032.608.224.256.224.544.736.864 1.6 1.024 1.856.704.992 1.568 1.376.256.096.288.192.096.16-.064.352-.192.288-.576.368t-.704-.048z"/></svg>