<svg xmlns="http://www.w3.org/2000/svg" width="22" height="32"><path d="M20.864 19.168q0 1.312-.832 2.304-.736.864-1.856 1.152T16 22.496q-1.088-.448-1.696-1.472-.16-.256-.224-.288-.128-.032-.512 0h-1.152q.192.576.256 1.216.032.288.032.576-.032.448 0 .512l.352.224q.224.128.448.352.448.416.704.928.576 1.088.352 2.304-.224 1.12-1.072 1.904t-2 .912-2.176-.48-1.472-1.696q-.416-1.12-.096-2.272t1.28-1.856q.224-.16.48-.288.192-.128.224-.192v-.512q-.032-.32-.096-.544-.224-.832-1.312-1.024-1.632-.32-2.048-.48-1.088-.416-1.792-1.248-.608-.768-.896-2.08-.064-.32-.16-.384l-.448-.224q-.512-.288-.896-.736-.768-.864-.928-2.064t.416-2.224q.544-1.024 1.6-1.568t2.224-.4 2.048.96 1.136 1.968q.16.768.016 1.52t-.576 1.408-1.104 1.072l-.384.192q-.032.064.032.288.192.416.576.672.16.096.352.16t.352.096.384.048.384.016.4-.016.368-.016h4.544q.192.032.256-.064.032-.064.096-.208t.128-.208q.128-.224.32-.448.384-.416.896-.704.32-.16.32-.192.032-.064.032-.48-.032-.16-.032-1.28v-.704q0-.192-.128-.288-.608-.32-.928-.64-.832-.8-1.024-1.984-.192-1.152.368-2.192t1.616-1.552q1.088-.48 2.272-.224t1.936 1.184.8 2.144-.656 2.176q-.32.448-.768.768-.064.032-.208.128t-.208.128q-.096.096-.096.352-.032.384 0 1.168t0 1.168q-.032.224.064.288.032.064.16.112t.16.048q.416.288.8.768.736.96.768 2.144zm-4.48-9.152q0 .384.272.656t.656.304q.384 0 .672-.272t.288-.656q.032-.384-.272-.688t-.72-.272q-.352 0-.624.272t-.272.656zm-12.512 3.12q0 .4.304.704t.72.304q.384 0 .688-.288t.304-.672q.032-.448-.288-.752t-.736-.304-.704.304-.288.704zm14.4 6.064q0-.384-.272-.656t-.656-.272-.672.288-.288.672.32.672.704.256q.352-.032.608-.32t.256-.64zm-6.224 6.976q-.016-.384-.288-.656t-.64-.272-.656.272-.288.656.272.656.688.272q.352 0 .64-.272t.272-.656z"/></svg>