<svg xmlns="http://www.w3.org/2000/svg" width="26" height="32"><path d="M10.048 28q-.192-.032-.48-.704t-.672-1.536-.736-1.248q-.16-.16-2.272-.144t-2.112-.016q-.192-.224.064-2.112T4 20.192q-.16-.192-.88-.896t-1.36-1.312l-.64-.576q2.4-2.816 2.528-3.136-.064-.224-.256-.656t-.352-.848-.304-.848-.144-.816.192-.608q.128-.16 2.032-.56t2.128-.592q.032-.032.384-.992t.736-1.776.576-.88q.448-.16 1.264.176t1.552.768.928.432q.16-.032.736-.336t1.136-.656 1.072-.624.608-.24q.48.224 1.168 1.648t.784 1.456q.16.096 1.184.24t1.952.32.96.336q.096.448 0 1.344t-.224 1.632-.096.864q.032.064.384.288t.832.496.96.592.816.688.368.688q.032.224-.112.512t-.384.592-.544.624-.592.592-.544.48-.416.336l-.16.128q.032.064.048.128t.048.32.08.48.096.576.096.608.096.592.064.544l.032.416-.016.208q.032.192-.496.384t-1.2.304-1.296.256-.72.208-.8 1.792-.992 1.792q-.352-.064-1.952-.704t-1.792-.704q-.512.384-1.856 1.104T10.048 28zm7.072-5.984q.16-.128.16-.576t-.128-1.072-.272-1.2-.272-.96l-.128-.416q.992-.64 1.856-1.536t.768-1.408q-.064-.32-.976-.56t-1.776-.304l-.864-.064q0-.032-.032-.112t-.144-.32l-.224-.48-.288-.544-.32-.576-.32-.544-.32-.464-.288-.304-.272-.112q-.352.032-.832.816t-.768 1.52l-.288.768q-4.192.608-4.352 1.216-.032.16.24.528t.656.768.784.768.688.624l.256.224q-.032.064-.08.192t-.208.496-.288.704-.256.784-.192.816-.032.688.192.48q.256.224.72.16t1.072-.352 1.136-.592.88-.56l.352-.256q.064.032.144.08l.32.192.48.272.592.32.624.32.624.288.592.224.48.112.304-.048z"/></svg>