<svg xmlns="http://www.w3.org/2000/svg" width="32" height="32"><path d="M23.552 21.28q-1.568-1.216-2.464-1.824.992-1.76.992-3.136 0-3.616-2.528-6.24Q18.208 8.704 15.968 8l-.192-.032q-.928-.288-1.408-.416 0-1.568-.032-3.104.832.128 2.336.608l.192.064q2.976.896 4.864 2.848 1.632 1.696 2.512 3.856t.88 4.496q0 2.304-1.568 4.96zM13.12 22.656q-3.072 0-4.992-2.656-1.344-1.888-1.344-3.68 0-1.28.512-2.464.736-1.76 2.32-2.816t3.504-1.056q.576 0 1.888.416l.096.032q1.6.48 2.56 1.472 1.792 1.856 1.792 4.416 0 1.344-1.312 3.328-1.952 3.008-5.024 3.008zm2.944-2.56q.16-.224.064-.912t-.32-1.392l-.224-.736q.736-.48 1.36-1.136t.528-1.008q-.032-.16-.304-.288t-.656-.192-.752-.112-.624-.08h-.256q0-.032-.032-.096t-.112-.24-.16-.336-.208-.384-.224-.432-.224-.4-.24-.336-.224-.224-.176-.048q-.288 0-.624.56t-.56 1.136l-.192.544q-3.04.448-3.168.864 0 .128.192.4t.48.56l.56.56.496.432.192.192q-.032.032-.064.128t-.144.352-.208.512-.192.576-.144.576-.032.496.144.368q.256.256 1.008-.032t1.392-.704l.64-.416q.032.032.128.08t.384.208.528.288.592.304.576.256.48.144.32-.032z"/></svg>