<svg xmlns="http://www.w3.org/2000/svg" width="26" height="32"><path d="M2.368 26.976q-1.216 0-1.216-1.664l-.032-5.216.096-3.296-.096-6.272q0-.864.416-1.296t1.12-.432q1.216 0 3.264.048t2.896.048 2.992-.064q.832-.032 6.656-.032l4.864.032q1.664 0 1.664 1.28l.096 15.04q0 .736-.416 1.264t-1.408.528l-14.976-.128-2.944.128zm1.952-2.912q.352-.032 1.008-.016t1.04-.016l1.76.032q.288.032.384-.096t.032-.288v-3.264q.096-.224-.032-.448l-.224-.064-.256-.032q-.16 0-.288-.08t-.128-.208l-.032-6.656.032-1.024q-.064-.288-.16-.352-.064-.064-.288-.096h-2.08q-.128 0-.416.016t-.352.016q-.416 0-.416.384v2.656q-.032 1.536 0 9.152 0 .16.128.272t.288.112zm13.792 0 1.728-.032q.32.032 1.04.016t1.008.016q.192 0 .304-.112t.112-.272q.032-.768.048-2.352t.016-2.416q0-2.464-.032-4.384 0-.128-.016-.496t-.016-.528v-1.632q0-.384-.416-.384-.032 0-.336-.016t-.432-.016h-2.048q-.256.032-.32.096l-.128.352.032 1.024-.032 2.272-.032 4.384q0 .128-.128.208t-.288.08l-.256.032q-.192-.032-.224.064-.096.224-.032.448v3.264q-.064.16.048.288t.4.096zm-5.376.064 2.24-.064q.256 0 .352-.064.064-.064.064-.32l.032-3.52q0-.128-.032-.192l-.16-.064h-.448q-.064 0-.128-.032t-.112-.064-.08-.096-.032-.128v-7.712q.032-.288-.032-.352l-.288-.032h-2.048q-.224.032-.288.096l-.064.352v7.648q0 .128-.112.224t-.24.096h-.384q-.16.032-.192.096l-.032.352v3.328q-.032.224.096.352.096.064.32.032z"/></svg>