<svg xmlns="http://www.w3.org/2000/svg" width="24" height="32"><path d="M23.2 14.752q.064.064.096.224t.048.336.016.352v12.048q.032.928-.224 1.152-.096.128-.4.208t-.56.08l-.256.032H3.264q-.832-.096-1.056-.384-.064-.128-.096-.48t-.032-.64V14.56l-.8-3.104-.128-.448v-.256l.224-.096 1.248-.32q.448-.096 1.344-.384l5.92-1.632.64-.128.768-.256 4.32-1.184.672-.256 1.344-.288 3.456-.96.48-.032q.064.032.128.16t.096.256l.032.096.672 2.592.032.416q-.064.192-.224.256l-4.096 1.12q-.064.032-.16.064l-3.2.864q-.128.064-.224.064l-3.328.928q-.064.032-.544.128l-2.144.608q-.224.064-.288.096L2.112 14.56h2.944q.128 0 .832-.016t.832-.016q.384 0 .784.016t.88.016q.192 0 .72.016t.784.016.72-.016.752-.016q1.056 0 3.04-.016t3.04-.016q.48 0 1.584.016t1.52.016h2.336q.128 0 .32.192zM14.976 7.68l.32.224 1.888 1.376q.224.192.352.224l.384-.096 2.624-.704.096-.096-.16-.16-2.048-1.472q-.16-.16-.224-.192l-.288.096-2.56.704q-.384.032-.384.096zM8 9.6q0 .032.096.096t.16.096l.096.064 1.92 1.376q.192.192.288.192l.352-.096 2.624-.704.16-.096-.16-.192-2.048-1.44q-.16-.16-.256-.192l-.288.096-2.464.672q-.448.064-.48.128zm-6.272 1.728.352.256 1.888 1.376q.224.192.32.224l.352-.096 2.528-.704q.32-.064.352-.096l-.224-.16-2.016-1.472q-.224-.192-.32-.192l-.288.064-2.656.736zm1.696 6.368h2.464q.16.032.224 0l.16-.096.32-.352 1.76-1.664.16-.224-.192-.032H5.472q-.16 0-.224.032l-.16.128-1.696 1.632q-.416.48-.448.576h.48zm5.952-.064q0 .128.512.064h1.952q.608.064.832-.032.096-.064.224-.176t.224-.208l.064-.128 1.6-1.536.16-.224-.288-.064h-2.592q-.224 0-.288.032l-.256.192-1.472 1.408q-.64.544-.672.672zm12.576-1.984.16-.256-.32-.032h-2.496q-.288 0-.384.032l-.288.224-1.536 1.472-.576.608q0 .032.096.048t.208.016.224-.016.208-.016l.064-.032h1.696q.64.096.832 0 .096 0 .192-.112t.16-.208l.064-.064zm-2.56 9.28.032-.544v-2.336q.032-.48-.032-.608-.064-.16-.384-.16h-1.344q-.768 0-1.344.032-.448.032-1.184.096-.096.032-.224.048l-.256.032-.224.016q-.672.064-1.12.096-.192.032-.352.032h-.192q-.384 0-1.024-.064-.032 0-.208-.016t-.272-.016q-.32-.032-.544-.032-.128 0-.352-.032h-.512q-.64 0-1.6-.032H6.4l-.096-.016-.176.016-.112.16-.032.48-.032 2.688q0 .352.064.352.032 0 .096.032.064.064.16.064H9.76q.256 0 .544.032h.352q.224 0 .544.032.064 0 .24.016t.272.048q.256 0 .416.032h1.12q.48-.032 1.184-.096.16-.032.256-.032.768-.096.832-.096.48-.064.832-.096.64-.032 1.632-.032h1.088q.256 0 .32-.096z"/></svg>