<svg xmlns="http://www.w3.org/2000/svg" width="27" height="32"><path d="M13.344 28.928q-2.112.16-4.304-.688t-3.952-2.4-2.864-3.936-1.104-5.04q0-2.944 1.28-5.536t3.392-4.224q3.936-3.008 7.296-3.008 2.048 0 3.824.448t3.072 1.216 2.352 1.808 1.76 2.16 1.184 2.352.72 2.32.304 2.112q.192 3.008-.656 5.328t-2.608 3.792-4.176 2.288-5.52 1.008zm-.32-3.616q2.368-.16 4.016-.64t2.864-1.472 1.744-2.624.368-3.968q-.544-8.64-8.608-8.64-2.4 0-5.28 2.4-1.472 1.216-2.256 2.72t-.784 3.584q0 4.384 2.176 6.624t5.76 2.016zm6.848-5.28q-.864.224-2.72-.032t-3.616-.8q-.288.64-.64.768l-.256-.032q-.32-.352-.608-1.28-1.664-.736-1.696-1.376l.128-.256q.352-.192 1.216-.256-.32-1.856-.16-3.92t.8-2.608q.256-.192.56-.16t.56.416q.448.8.608 2.72t-.032 3.648q2.208.224 4.128.816t2.272 1.328q-.064.096-.112.256t-.096.272-.128.256-.208.24z"/></svg>