<svg xmlns="http://www.w3.org/2000/svg" width="17" height="32"><path d="M1.184 8.064q-.064 2.784-.064 5.456t.016 4.352.064 4.064.08 3.696l12.736 3.712 2.016-1.568.288-16.992-13.088-3.84zm2.24 2.624 9.28 2.976-.096 11.904-3.136-.928q-.16.096-.512.336t-.56.368-.24.128l-.032.032q-1.952.8-3.52.704-.928-.096-1.376-.512-.352-.352-.416-.96-.256-2.528.384-4.224L3.392 20zM7.68 13.6q-.48.224-1.088.672-.448.352-.704.8-.256.48-.352 1.184-.16 1.088.032 1.792.064.224.128.384.224.384.688.4t1.872-.528q.288-.192.416-.256 1.408-.768 1.568-1.76.064-.384 0-1.12-.096-.928-.384-1.376-.256-.448-1.12-.448-.288 0-.512.032zm.544.8q.224-.096.512-.096.224 0 .384.192.192.512.16 1.344v.32q-.224.544-.96.96-.032 0-.096.032V14.4zm-.512 4.992q-1.216.608-1.952.256-.128-.032-.224-.096-.128-.096-.16-.064-.416.192-.608.384-.416.416-.672 1.216-.192.64-.256 1.472-.032.736 0 1.504.032.608.064.704.032.192.352.288.352.128 1.056.096.928-.064 2.464-.704.032 0 .112-.032t.144-.064l.192-.096q.608-.288 1.216-.672 1.12-.672 1.28-.832 1.248-1.152 1.184-2.848-.032-.992-.512-1.568-.32-.352-.768-.352h-.064q-.352 0-.704.192-.224.128-.768.448t-.832.48zm.512.832q.416-.224 1.168-.656t.976-.56q.192-.064.24-.064t.144.192q.544 1.12-.32 2.464-.288.416-.576.576-.192.128-.592.368t-.592.368l-.448.256v-2.944z"/></svg>