<svg xmlns="http://www.w3.org/2000/svg" width="22" height="32"><path d="M20.8 26.976q.032-4.576-.576-7.136Q19.2 15.68 16 12.192q-3.072-3.328-6.464-4.576Q6.24 6.4 1.12 6.656l.192 4.256q4.256-.192 6.752.736 2.432.864 4.8 3.424 2.464 2.688 3.2 5.76.512 2.048.448 6.08zm-7.2.32q.096-2.912-.544-5.248T10.304 17.6q-1.12-1.12-2.176-1.824t-2.224-1.04-2.128-.432-2.464-.128l-.064 4.288q2.336.032 3.488.384t2.56 1.76q1.376 1.376 1.744 2.896t.304 3.632zm-12.192-.192 4.48-.064q-.032-.256-.112-.656t-.464-1.344-.928-1.488q-.608-.576-1.36-.832t-1.232-.192l-.448.064z"/></svg>