<svg xmlns="http://www.w3.org/2000/svg" width="31" height="32"><path d="m6.944 23.392.736-1.344q1.216-2.624-.512-2.912l-2.752-.448q-3.232-.64-3.296-5.216-.064-2.336.88-4.176t2.704-2.8Q7.2 5.088 10.72 5.28q1.76.064 3.68.544t2.816 1.088q1.184.832 1.888 1.808T20 10.544t.272 1.744-.016 1.568q-.032 1.6-1.312 3.152t-3.136 2q-1.152.288-2.32.288t-1.776-.08-.64-.048l-.032.16q-.032.16-.096.4t-.16.544-.288.688-.448.736q-.448.672-2.24 1.536zM24.768 28q-.416-.064-.672-.192-1.472-.736-1.856-1.312-.864-1.408-.864-2.112-.032-.032-.704.048t-1.744.08-1.936-.224q-.96-.224-1.52-.768t-1.008-1.568v-.64q6.304-.512 7.776-5.408.64-2.176.256-4.096v-.064q2.4 0 4.096 1.024 1.504.928 2.576 2.608t1.072 3.632q0 1.44-.928 2.896t-2.4 1.808q-.672.16-1.344.272t-.992.144h-.352q-.128.16-.256.832-.128.512.08 1.28t.464 1.28z"/></svg>