<svg xmlns="http://www.w3.org/2000/svg" width="21" height="32"><path d="M19.968 24.544q.096.544-.64 1.248-1.376 1.376-3.584 1.888-1.792.416-4.768.512-2.272.064-4.384-.416-2.112-.448-3.872-1.44-.384-.192-.576-.32t-.528-.384-.448-.544-.016-.608q.064-.224.16-.464t.192-.432.208-.448.176-.448l2.016-4.768Q7.808 8.672 8.448 7.104q.448-.992.704-1.504.416-.96.704-1.152.32-.224.816-.176t.816.304q.416.352.8 1.12.48 1.056.992 2.272t1.088 2.704.928 2.288l.96 2.368q1.568 3.68 3.328 8.288zM16.224 15.2q.192.48.256.608l-.224-.48z"/></svg>