<svg xmlns="http://www.w3.org/2000/svg" width="25" height="32"><path d="M22.56 21.472q1.024 1.088.896 2.832t-1.216 2.832q-1.28 1.152-2.704 1.024t-2.608-1.28q-.864-.864-1.152-1.92T16 22.944q-.256-.352-.992-1.136t-1.056-1.072q-.544-.48-1.184-.832-.256.224-.608.208t-.576-.272l-1.312-1.312h-.032l-1.312-1.312q-.256-.256-.256-.624t.256-.624l.096-.096q-.192-.256-.384-.416-.096-.128-.944-.944T6.56 13.376q-.416-.448-.672-.64-.832.288-1.888.016t-1.824-1.04Q1.12 10.688 1.12 9.2t1.056-2.544Q3.328 5.504 4.8 5.472t2.56 1.056q1.888 1.888 1.088 3.744.352.512.576.704t.528.56.688.736.864.72q.096.064.24.176t.208.176l.064-.064q.256-.256.64-.256t.64.256l2.624 2.624q.256.256.272.592t-.208.624q.32.64.832 1.152.288.32 1.072 1.056t1.136.992q.512-.448 1.2-.384t1.376.464 1.36 1.072z"/></svg>