<svg xmlns="http://www.w3.org/2000/svg" width="30" height="32"><path d="M28.64 21.248v.352q-.096 1.28-.736 2.272-.672 1.088-1.952 1.696-1.056.48-2.528.768-.672.128-4.352.512-1.12.128-1.664.256-.736.16-.832.32h.032q.064-.032.096-.064l-.256.288q-.032 0-.016.304t.016.336q-.032.992-.768 1.024-.288.032-.608.032H13.76l-4.16.032q-.8-.032-.832-.736l.032-.48v-4.576q.032-.576.352-.832.224-.192.96-.256.576-.032 1.152-.032 1.216-.064 2.496-.032l1.312.064q.928.064 1.024.096.224.032.32.192t.112.288-.016.384v1.056q.224-.032.48-.064.48 0 3.712.16 1.76.096 2.944-.032 1.088-.128 1.792-.48.768-.384 1.152-.96.416-.704.384-1.664-.032-.832-.56-1.408t-1.52-.832q-1.056-.288-2.592-.16-.352 0-.8.096l-.448.064-.16.032q-.032.032-.032.08v.336q0 .288-.032.512v.288l-.016.368-.096.272-.24.256q-.096.032-.448.032l-1.472-.032-3.52-.032q-1.184-.032-1.216-.736v-1.536q-.64.064-1.312.064-1.76 0-3.296-.224-1.12-.16-2.08-.384-.928-.224-1.696-.512-.896-.352-1.536-.768-.8-.48-1.312-1.024-.64-.64-.992-1.376-.32-.64-.416-1.28-.096-.608-.032-1.184.096-.576.32-1.12t.608-1.056q.384-.48.864-.896t1.088-.768 1.248-.608q.704-.288 1.472-.448t1.6-.224q.192 0 .416-.032.032 0 .128.016t.192.016.128-.032q.064-.032.08-.24t0-.512l-.016-.304q0-1.184.736-1.216 0-.032 1.008-.032h4.08q.096 0 .304-.016t.32-.016.304.016.288.08.208.144.176.224.064.336l-.032 1.92v3.808q-.032.384-.224.672-.224.32-1.024.384-3.008.224-5.664-.064-.416-.032-.528-.272t-.112-.688l.032-1.216q-.096.032-.224.016t-.272-.048-.208-.064q-.608-.064-1.184-.064-.672 0-1.312.16-1.024.192-1.792.672Q3.52 11.36 3.136 12q-.384.576-.352 1.28 0 .608.352 1.216.288.512.8.896.48.416 1.12.688t1.344.432q.736.192 1.536.256 1.088.096 2.304 0 1.44-.096 2.656-.384.864-.192.896-.288v-1.184q0-.768.768-.768l5.088.032q.704 0 .96.352.096.096.144.256t.064.272.032.352.016.272q.032.544.096.576h.192q.768.032 1.504.096 1.248.128 2.304.48.608.224 1.12.48.512.288.96.64.704.544 1.088 1.28.512.896.512 2.016zm-12.064 6.176z"/></svg>