<svg xmlns="http://www.w3.org/2000/svg" width="26" height="32"><path d="M6.72 26.336q-2.048.128-3.712-.096l-1.888-.288.576-3.712q1.984.32 2.24.352 1.088.096 2.304.032l.512-.032.384-.288q.288-.32.64-.864.192-.288.384-.608t.416-.72.384-.624q.736-1.28 1.472-1.984-.16-.16-.32-.336t-.272-.32-.288-.384-.256-.336-.24-.4-.208-.368-.24-.4-.224-.4q-.608-1.056-.992-1.536-.288-.352-.416-.432t-.608-.176l-.512-.032q-1.28-.064-2.112 0l-1.888.192-.352-3.712.224-.032q1.408-.128 1.632-.16 1.44-.128 3.552.032 1.024.064 1.888.608.768.448 1.472 1.312.544.672 1.152 1.728 1.024 1.728 1.12 1.856.704 1.056 1.824 1.28l4.352.192-1.056-1.12 2.016-1.92.384.384 2.016 2.144 2.304 2.4-4.864 4.96-1.984-1.952 1.152-1.152q-2.592-.128-4.064.096-.8.096-1.408.544-.448.352-.96 1.184-.096.128-.176.272l-.16.288-.16.272-.16.288-.144.256q-.992 1.696-1.888 2.528-.608.544-1.312.864-.64.256-1.536.32z"/></svg>