<svg xmlns="http://www.w3.org/2000/svg" width="21" height="32"><path d="M3.232 28.288q-.8 0-1.344-.768-.928-1.28-.736-4.448 0-.352.064-.8t.128-.96.096-.8q.128-1.12.256-1.76.096-.256.352-.96l.256-.832.16-.224q0-.064.032-.064.384-.352.992-.448 1.28-.224 1.344.128l.32.16.048.048.112.032.192-.048q0-.032.464-.096t1.264-.176 1.408-.208q-.16-.8.336-1.584t1.264-1.328q.416-.32 1.168-.8t1.008-.672q.672-.512.528-1.072t-.912-.816q-.384-.096-.88-.16t-.912-.112-.848-.128-.832-.32-.688-.624q-.608-.736-.656-1.728t.496-1.792q.224-.288.592-.256t.512.288-.016.608q-.576.8-.192 1.696.352.928 1.696 1.088.16.032.736.08t.832.096.688.16.736.336.56.544q.64.896.256 1.952-.256.672-1.344 1.408-.096.064-.608.368t-.848.544-.752.576-.592.704-.08.72q3.36-.608 3.424-.608.096 0 .192-.032t.096-.064l.032-.032.128-.192q0-.032.096-.192l.032-.064q.384-.288 1.088-.416.672-.096 1.216.16l.032.032.256.192q.352.448.544.64.576.704.672.832.064.128.736 1.6.16.32.384.992t.32.928q.608 1.44.96 3.264.256.992.08 1.696t-.912 1.056q-.32.128-.624.16t-.56-.08-.48-.272-.464-.416-.416-.496-.432-.576-.448-.528q-.192-.224-.352-.512t-.256-.48l-.064-.192-.448-.224q-.384.512-1.152.64-.8.128-1.376-.288l-2.368.288-.96.256q-.448.608-1.184.736-.704.128-1.312-.256-.32.128-.352.352-.16 1.12-.32 1.696-.192.704-.32 1.04t-.416.832-.72.72-1.008.256zm14.912-15.36q0 .32.048.368t.336.048h1.056q.352-.032.352-.672V8.48q0-.32-.016-.976t-.016-.976V5.152q0-.16-.08-.224t-.304-.064-.48.032q-.16 0-.384.016t-.384.016q-.224 0-.352.128-.096.064-1.472 1.12l-.128.128q-.064.064-.064.128t.032.128q.128.224.736 1.216.096.192.192.192t.224-.128q.096-.096.672-.544v.576q0 .352.016 1.008t.016 1.04v3.008zm-2.56 4.256q.224-.032.384-.288t.128-.512q-.064-.256-.32-.384-.128-.064-.448-.032-.256.064-.384.256t-.096.432.272.4.464.128zm1.376.96q.16 0 .288-.096t.176-.256.048-.32q-.032-.224-.24-.384t-.464-.096q-.224.032-.352.24t-.128.432q.064.416.672.48zm-2.48.416q.24-.032.384-.24t.096-.448-.24-.368-.448-.096-.4.224-.08.448.256.384.432.096zm-10.288.768.16-.096q.224-.32.224-.352l.064-.128q-.064-.448-.064-.544 0-.128-.128-.224-.128-.064-.464-.016t-.464.176q-.064.128-.032.256l.128.512q.032.064.096.128l.352.256zm11.744.224q.224-.064.368-.256t.112-.432-.224-.384-.448-.08q-.256.032-.416.24t-.064.432q.192.544.672.48zm-10.752.48.112-.016.24-.032.192-.016q.128 0 .192-.128.096-.128.032-.48t-.192-.448q-.096-.064-.224-.032l-.512.128q-.064.032-.128.096l-.256.352-.032.128.064.16q.32.192.384.224zm-2.176.416.512-.128q.064-.032.096-.096l.256-.352.064-.16-.096-.128q-.32-.224-.352-.256l-.128-.032q-.448.032-.544.032-.128.032-.224.128-.064.16 0 .512.032.32.16.416t.256.064zm10.432 1.376q.608-.128.832-.416.192-.256.096-.896-.096-.48-.48-.752t-.832-.176q-.416.128-.688.496t-.24.816q.064.448.448.72t.864.208zm-8.896-.528q.352-.048.448-.176.064-.128.032-.256l-.128-.512-.064-.128-.384-.256-.128-.032-.16.096q-.192.32-.224.352l-.032.16q.032.416.032.512.032.128.128.224.128.064.48.016zm3.008 1.552q.448-.096.72-.464t.208-.816q-.096-.512-.48-.784t-.832-.144q-.544.16-.752.448t-.144.864q0 .32.16.544t.464.336.656.016z"/></svg>