<svg xmlns="http://www.w3.org/2000/svg" width="22" height="32"><path d="M16.544 12.768q.288.032.48.032.224 0 .64-.016t.608-.016q1.152.032 1.824.032h.736q.16 0 .224-.032t.064-.192.016-.352.016-.4.032-.336q0-.32-.16-.32-.256 0-1.312.032t-1.152.032h-.288q0-.128.032-.288.096-.288.432-.768t.56-.672.608-.608q.896-.928.992-1.6.064-.384.064-.704 0-.8-.608-1.504-.064-.064-.192-.16t-.16-.16q-.352-.288-.928-.352h-.416q-1.024 0-1.712.624t-.688 1.232q0 .064.064.096.192.096.528.224t.592.224q.064.032.096.032.096 0 .128-.128.096-.192.192-.352.192-.288.672-.288.288 0 .512.224t.224.544q0 .448-.576.992-.128.16-.416.416t-.448.416q-.896.96-1.184 1.696-.288.8-.288 1.6 0 .192.032.608.032.192.16.192zM3.232 28.288q-.8 0-1.344-.768-.928-1.28-.736-4.448 0-.352.064-.8t.128-.96.096-.8q.128-1.12.256-1.76.096-.256.352-.96l.256-.832.16-.224q0-.064.032-.064.384-.352.992-.448 1.28-.224 1.344.128l.32.16.048.048.112.032.192-.048q0-.032.464-.096t1.264-.176 1.408-.208q-.16-.8.336-1.584t1.264-1.328q.416-.32 1.168-.8t1.008-.672q.672-.512.528-1.072t-.912-.816q-.48-.128-1.408-.208t-1.6-.304-1.152-.832q-.608-.736-.656-1.728t.496-1.792q.224-.288.592-.256t.512.288-.048.608q-.544.8-.16 1.696.352.928 1.696 1.088.16.032.736.08t.832.096.688.16.736.336.56.544q.64.896.256 1.952-.256.672-1.344 1.408-.096.064-.608.368t-.848.544-.752.576-.592.704-.08.72q3.36-.608 3.424-.608.096 0 .192-.032t.096-.064l.032-.032.128-.192q0-.032.096-.192l.032-.064q.384-.288 1.088-.416.672-.096 1.216.16l.032.032.256.192q.352.448.544.64.576.704.672.832.064.128.736 1.6.16.32.384.992t.32.928q.608 1.44.96 3.264.256.992.08 1.696t-.912 1.056q-.32.128-.624.16t-.56-.08-.48-.272-.464-.416-.416-.496-.432-.576-.448-.528q-.192-.224-.352-.512t-.256-.48l-.064-.192-.448-.224q-.384.512-1.152.64-.8.128-1.376-.288l-2.368.288-.96.256q-.448.608-1.184.736-.704.128-1.312-.256-.32.128-.352.352-.16 1.12-.32 1.696-.192.704-.32 1.04t-.416.832-.72.72-1.008.256zm12.336-11.104q.24-.032.4-.288t.128-.512q-.064-.256-.32-.384-.128-.064-.448-.032-.256.064-.384.256t-.096.432.256.4.464.128zm1.392.96q.16 0 .288-.096t.176-.256.016-.32q0-.224-.208-.384t-.464-.096q-.224.032-.352.24t-.128.432q.064.416.672.48zm-2.48.416q.24-.032.384-.24t.096-.448-.24-.368-.448-.096-.4.224-.08.448.256.384.432.096zm-10.288.768.16-.096q.224-.32.224-.352l.064-.128q-.064-.448-.064-.544 0-.128-.128-.224-.128-.064-.464-.016t-.464.176q-.064.128-.032.256l.128.512q.032.064.096.128l.32.256zm11.744.224q.16-.032.272-.128t.16-.24.048-.304q-.032-.256-.224-.4t-.448-.08q-.256.032-.416.24t-.064.432q.192.544.672.48zm-10.752.48.112-.016.24-.032.192-.016q.128 0 .192-.128.096-.128.032-.48t-.192-.448q-.096-.064-.224-.032l-.512.128q-.064.032-.128.096l-.256.352-.032.128.064.128q.32.224.384.256zm-2.176.416.512-.128q.064-.032.096-.096l.256-.352.064-.16-.096-.128q-.32-.224-.352-.256l-.128-.032q-.448.032-.544.032-.128.032-.224.128-.064.16 0 .512.032.32.16.416t.256.064zm10.432 1.376q.608-.128.832-.416.192-.256.096-.896-.096-.48-.48-.752t-.832-.176q-.416.128-.688.496t-.24.816q.064.448.448.72t.864.208zm-8.896-.528q.352-.048.448-.176.064-.128.032-.256l-.128-.512-.064-.128-.384-.256-.128-.032-.16.096q-.192.32-.224.352l-.032.16q.032.416.032.512.032.128.128.224.128.064.48.016zm3.008 1.552q.448-.096.72-.464t.208-.816q-.096-.512-.48-.784t-.832-.144q-.544.16-.752.448t-.144.864q0 .32.16.544t.464.336.656.016z"/></svg>