<svg xmlns="http://www.w3.org/2000/svg" width="28" height="32"><path d="M20 27.232q-3.232 1.824-5.984 1.984-3.424.352-6.56-1.424t-4.928-4.848l-.16-.256q-1.28-3.264-1.248-6.816 0-4.576 4.928-8.256 5.632-4.16 10.368-3.008 2.752.64 4.752 2.56T24.832 12q1.728 2.944 1.568 6.144-.064 1.856-.544 2.912-1.312 2.592-4.16 5.056-.224.192-1.696 1.12zm-3.232-4.256q.032-.096.128-.224l.064-.064q.128-.064.544-.512 1.728-1.728 2.112-1.984.096-.096-.08-.32t-.304-.32q-.576-.416-2.752-2.816l3.392-3.296q.064-.064-.144-.32t-.448-.528-.24-.304q-.128-.224-.304-.416t-.368-.368-.288-.272q-.064-.032-.272-.256t-.272-.256h-.128l-.48.352q-1.952 1.632-3.232 2.912-.192-.192-1.648-1.728t-1.68-1.76q-.032-.064-.208.032t-.4.288-.336.304l-.24.24q-.384.256-.992.928l-.16.16-.24.224-.144.16v.128l.32.48q.8 1.056 1.056 1.28l1.824 1.92-.128.032q-.48.544-1.584 1.616t-1.36 1.264q-.096.16-.288.224l-.064.096.224.192q.384.32.512.512 1.376 1.152 2.016 2.112l2.528-2.208q.192-.16.464-.464t.4-.4h.096q2.496 2.624 2.816 2.912l.192.288q.096.032.096.16z"/></svg>