<svg xmlns="http://www.w3.org/2000/svg" width="16" height="32"><path d="M11.744 23.52q0-.16-.128-.192 0-.032-.032-.096t-.096-.128-.064-.096q-.384-.32-3.2-3.296h-.128q-.128.096-.448.448t-.544.512L4.256 23.2q-.288-.448-1.04-1.216T1.952 20.8q-.128-.224-.576-.576L1.12 20l.064-.128q.224-.032.32-.256.32-.224 1.568-1.424t1.792-1.84l.16-.032-2.08-2.176q-.288-.256-1.216-1.472-.352-.416-.352-.544V12q.032-.064.16-.192t.272-.256.176-.192q.704-.736 1.12-1.024l.272-.272.4-.368.448-.336.256-.016q.16.16.72.752t1.168 1.232 1.168 1.232.72.752q1.44-1.472 3.648-3.328.448-.384.576-.384h.128q.064.032.176.144l.432.432q.128.128.352.32t.4.4.336.464q.032.064.304.368t.496.592.16.352l-3.84 3.744q.416.48 1.648 1.76t1.456 1.44q.16.128.368.368t.08.368q-.448.288-2.4 2.272-.48.48-.608.576l-.048.048-.112.128-.064.144z"/></svg>