<svg xmlns="http://www.w3.org/2000/svg" width="27" height="32"><path d="M14.112 29.216q-3.744-.064-6.176-1.28Q4.8 26.528 2.96 23.424t-1.84-6.688v-.288q.48-3.456 2.304-6.528 2.304-3.968 8.416-4.672 6.944-.8 10.464 2.56Q25.92 11.2 25.92 18.432q0 3.392-1.728 6.08-.992 1.6-1.92 2.272-2.432 1.6-6.144 2.304-.288.032-2.016.128zm-1.248-3.84 1.184-.032q3.072-.032 4.736-.736.352-.16 1.104-.72t.848-.624q.512-.544.816-1.392t.384-1.728.128-1.856-.016-1.84q-.032-4.096-2.592-6.272-.96-.8-2.16-1.152t-2.336-.32-2.448.128q-2.624.224-4.352 1.248-1.056.672-1.632 1.584t-1.376 2.768q-.416.928-.416 2.32t.208 2.368.432 1.424q1.728 4.256 7.488 4.832zm4.096-2.08q.032-.096.128-.224l.064-.064q.096-.096.544-.512 1.728-1.728 2.112-1.984.064-.064-.016-.224t-.192-.272-.176-.144q-.128-.096-.256-.224t-.272-.336-.208-.304q-.832-.768-1.088-1.056-.64-.576-.928-.896.224-.288 1.056-1.12.576-.64.928-.864.192-.128.432-.352t.528-.528.448-.432q.064-.064-.144-.32t-.448-.528-.24-.304q-.128-.224-.304-.416t-.368-.368-.288-.272-.288-.272-.256-.24H17.6l-.48.352q-.896.64-1.28 1.024-.672.608-1.952 1.888-.96-.96-1.184-1.152-.736-.736-.832-.896-.416-.544-1.312-1.44-.032-.064-.208.032t-.4.288-.336.304l-.24.24q-.384.256-.992.928l-.544.544v.128l.32.48q.8 1.056 1.056 1.28l1.824 1.92-.128.032q-1.056 1.184-2.176 2.176-.096.064-.352.32t-.416.384q-.096.16-.288.224l-.064.096.224.192q.384.32.512.512.448.384 1.104 1.056t.912 1.056q.096.096.368-.096t.304-.288q.128-.16.432-.4t.4-.304q.032-.032 1.024-1.12.192-.16.464-.464t.4-.4h.096q.288.32 1.008 1.04t1.072 1.104q.288.384.736.768.032.032.08.096t.08.112.032.08q.096.032.096.16z"/></svg>