<svg xmlns="http://www.w3.org/2000/svg" width="26" height="32"><path d="M18.784 28.928q-.32 0-.512.256l-17.152.032v-22.4h24.16v22.368h-5.984q-.192-.256-.512-.256zm-9.12-10.432q.256 0 .432-.176t.176-.432-.176-.432-.432-.176H8.448q-.256 0-.432.176t-.176.432.176.432.432.176h1.216zm3.68 0q.256 0 .432-.176t.176-.432-.176-.432-.432-.176h-1.216q-.256 0-.432.176t-.176.432.176.432.432.176h1.216zm3.648 0q.256 0 .432-.176t.176-.432-.176-.432-.432-.176h-1.216q-.256 0-.432.176t-.176.432.176.432.432.176h1.216zm1.184.032v1.248q0 .224.176.416t.432.192.432-.192.176-.416v-1.248q0-.224-.176-.416t-.432-.192-.432.192-.176.416zm-9.952 2.176v-1.216q0-.256-.176-.432t-.432-.176-.432.176-.176.432v1.216q0 .256.176.432t.432.176.432-.176.176-.432zm9.952 1.504v1.216q0 .256.176.432t.432.176.432-.176.176-.432v-1.216q0-.256-.176-.432t-.432-.176-.432.176-.176.432zm-9.952 2.176v-1.216q0-.256-.176-.432t-.432-.176-.432.176-.176.432v1.216q0 .256.176.432t.432.176.432-.176.176-.432zm9.952 1.472v1.216q0 .256.176.448t.432.192.432-.192.176-.448v-1.216q0-.256-.176-.432t-.432-.176-.432.176-.176.432zm-9.952 2.176v-1.216q0-.256-.176-.432t-.432-.176-.432.176-.176.432v1.216q0 .256.176.432t.432.176.432-.176.176-.432z"/></svg>