<svg xmlns="http://www.w3.org/2000/svg" width="30" height="32"><path d="M25.248 6.88q-.416-.032-.64.256-.16.256-.112.528t.272.464l.16.128q.288.256.544.576.192.192.464.576t.432.608q.192.288.336.64t.272.736q.096.384.16.8t.096.864 0 .944-.096 1.04q-.16.384-.144.928t.528.672q.448.096.704-.32.128-.192.32-1.312.128-.608.16-1.152.032-.576.032-1.088-.032-.544-.096-1.04t-.208-.976-.336-.928-.448-.864q-.288-.448-.576-.736-.288-.352-.672-.672-.384-.288-.832-.576-.16-.096-.32-.096zM5.92 7.008q-.256-.032-.768.256-.48.256-.912.56t-.8.656-.688.736-.576.8-.448.864-.32.96q-.128.48-.224.992-.064.512-.064 1.008t.096 1.072q.064.448.096.544.128.448.544.576t.704-.32q.096-.128.128-.352t.016-.528-.016-.4q.032-.288.064-.864.064-.608.096-.832.096-.384.208-.768t.24-.736q.16-.352.368-.672t.464-.624.56-.608.672-.56.784-.512q.192-.096.272-.208t.08-.192-.032-.256-.032-.272q-.16-.288-.512-.32zm17.376 1.6q-.448-.064-.672.288-.128.256-.064.528t.288.432q.064.032.128.096.224.192.416.416.128.128.384.416t.352.416q.128.192.256.448t.224.512.192.544q.064.288.096.624t.032.688-.032.768q-.128.352-.064.816t.512.528q.448.096.704-.288.128-.192.256-1.088.064-.448.096-.864 0-.448-.032-.864t-.112-.8-.208-.752-.304-.704-.4-.656q-.224-.352-.48-.576t-.608-.48q-.288-.192-.672-.384-.128-.064-.288-.064zm-15.904.384q-.256-.032-.704.192-.384.192-.736.432t-.656.496-.56.56-.464.624-.368.672-.272.736-.176.768q-.064.416-.064.8.032.352.096.8.064.352.288.672t.512.384.544-.384q.096-.128.112-.288t.016-.416v-.32q.032-.128.096-.64.032-.512.064-.576.032-.288.128-.56t.192-.528q.128-.256.256-.48.16-.224.352-.448t.432-.432.512-.416.624-.368q.224-.16.32-.416t-.032-.512q-.16-.32-.512-.352zm7.52 19.072q-.16-.128-.464-.352t-1.2-.976-1.76-1.584-2.032-2.128-2.16-2.64q-1.632-2.432-1.488-4.544t1.424-3.552 2.944-1.568q.8-.032 1.488.176t1.152.576.832.832.592.928.368.864.176.624l.064.256q0-.096.064-.288t.256-.736.464-.944.736-.976 1.024-.816 1.36-.432 1.728.16q1.344.32 2.16 1.12t1.008 2.016-.464 2.944-2.128 3.712q-1.376 1.856-2.912 3.68t-2.368 2.752zm-5.12-12.672q.096-.096.064-.128 0-.032-.016-.032t-.016-.032l-.128-.16v-.032q.032-.064.064-.096.096-.128.128-.256.032 0 .096.032l.288.064q.032.032.032-.032v-.032q.032-.384 0-.384-.064-.032-.32-.032 0-.032-.032-.24l-.032-.208.064-.032q.224-.16.192-.192 0-.032-.256-.288v-.032q-.032 0-.032.032-.16.192-.256.192l-.032-.032-.224-.16q0-.032-.032-.032l-.032-.032q0-.032.064-.256l.016-.016.016-.048-.032-.032h-.064q-.064 0-.128-.032-.128-.032-.224-.032-.064 0-.064.064-.032.064-.032.112v.144l-.032.032H8.48l-.032.032-.032-.032-.128-.224q-.064-.032-.064-.064-.032 0-.064.032l-.16.096q0 .032-.048.048l-.048.016q-.064.064-.064.096l.096.096.048.064.08.096q-.064.032-.128.16l-.096.192h-.064q-.288-.096-.32-.064v.064l-.032.064v.192q0 .096.096.096.032.032.096.032h.128q.032 0 0 .032l.032.192q0 .128.064.288-.064 0-.16.096l-.064.032h-.032q-.032.032-.064.032l.064.064.032.064.096.128v.032l.032.064q.064.064.352-.192.064.096.224.192l.128.064.032.032v.064l-.064.224.192.096.16.032q.064 0 .096-.016t.032-.112v-.224q.096.032.224 0 .064-.032.192-.064l.064-.032.032.096.096.16q.032.032.064 0l.032-.032q.096-.032.192-.096zm10.24 1.056q.16-.064.16-.096t-.016-.048l-.048-.048-.064-.224q-.032-.032 0-.064.064-.032.128-.096.16-.128.256-.256l.064.064.352.224q.032 0 .064-.064v-.032q.16-.448.128-.48-.064-.032-.352-.128 0-.064.032-.32t.048-.272.048-.016h.032q.32-.096.32-.16 0-.032-.192-.448v-.032h-.064q-.288.192-.352.16-.032 0-.032-.032-.064-.064-.224-.288-.032-.032-.032-.064-.032-.032-.032-.064t.16-.256l.016-.032.048-.032-.032-.064h-.064q-.096-.064-.16-.096-.096-.096-.256-.128-.064-.032-.096.064-.032.032-.064.112t-.032.112-.016.064-.048.016-.08-.032-.08-.016q-.16-.064-.256-.064H19.2q-.032-.032-.096-.352l-.032-.096-.032-.032-.064.032-.224.064q-.032.032-.08.032t-.08.032q-.096.032-.096.064l.064.128q0 .032.032.128t.064.128q-.064.032-.192.16l-.192.224-.064-.032-.032-.032q-.288-.192-.352-.192v.064l-.064.064-.096.192-.032.096q-.032.096.096.16.032 0 .128.032.128.032.128.064.032 0 .032.032h-.032l-.064.256v.352q-.032 0-.096.016l-.128.032-.08.016-.048.032q-.064.032-.064 0v.064q.032.032.032.064v.032l.064.192q0 .032.032.064v.096q.032.064.48-.096.032.128.224.288 0 .032.096.128.064.032.032.064l-.032.08-.128.24q-.032.064.096.128.064.032.288.16.064.032.096 0 .032 0 .096-.096 0-.032.064-.256.128.032.32.064.064 0 .256-.032.032 0 .048.016t.032.064l.016.048.032.256q.032.032.064 0h.064q.128-.032.256-.096zm-7.04-1.536q.096-.064.096-.096-.032 0-.048-.016l-.016-.016-.064-.096q-.032-.032 0-.032.032-.064.032-.096.064-.096.096-.16h.064l.224.064V14.4q.032-.256 0-.256-.064-.032-.224-.032 0-.032-.016-.176l-.016-.144.032-.032q.16-.096.16-.128-.032-.032-.192-.224h-.032q-.128.16-.192.16v-.032q-.032-.032-.16-.128h-.032q-.032-.032-.032-.048t.032-.176l.032-.032-.032-.032h-.032q-.064 0-.096-.032-.064-.032-.16-.032-.032 0-.064.064v.176l-.032.016h-.064q-.096 0-.16.032h-.064l-.096-.16-.064-.064h-.032l-.128.096-.032.016-.032.048-.032.032.064.064q0 .032.032.064t.032.064q-.032.032-.064.128l-.032.032q-.032.064-.032.096h-.064q-.192-.064-.224-.032v.064q-.032.064-.032.112v.048q0 .064.096.064 0 .032.064.032h.096v.16q0 .096.032.192l-.096.064-.064.064h-.032l.032.032v.032l.032.032.064.096.016.016.016.048q.032.032.224-.128.064.064.192.128l.064.032.032.032v.048l-.032.176.256.064h.048l.048-.064q0-.032-.032-.16.096 0 .192-.032.032 0 .128-.032.032-.032.048-.016t.016.032v.016l.064.128q.032.032.064 0 .096-.032.128-.096zm-.384-.608q-.128.224-.416.064-.064-.032-.096-.064 0-.032-.032-.096t-.032-.096q-.032-.064.048-.176t.176-.144q.064-.032.16 0 .064.032.096.032l.096.096q.096.096.064.192 0 .064-.064.192zm-3.392.224q-.192.288-.576.064-.064-.032-.096-.064t-.08-.128-.048-.128q-.032-.096.08-.24t.208-.208q.096-.032.288 0 .064.032.096.064.096.064.128.128.128.096.128.288-.032.064-.128.224zm10.432.704q-.32.288-.704-.128-.064-.096-.128-.16 0-.032-.032-.16v-.192q0-.128.192-.256t.352-.16q.096-.032.288.096.096.064.128.096.064.128.128.224.096.16 0 .384-.032.096-.224.256zM12 22.272q.096.032.768-.224l.032-.032.064-.032q.096 0 .096-.032.064-.032-.016-.32t-.208-.48q.416-.192.608-.352l.224-.224.048-.08.08-.08q.032.064.064.096t.096.08.096.08q.096.064.16.096.032.032.096.08t.096.048q0-.032.064-.096l.416-.736q.064-.128.032-.16t-.064-.048-.176-.096-.368-.176l-.032-.032q-.032-.032-.032-.048t.016-.08.016-.096q.032-.096.032-.192.032-.224.032-.48v-.16l-.016-.048.016-.048h.224q.32-.096.448-.096.032 0 .096-.016l.064-.016q.096 0 .096-.064l-.096-.352-.096-.48q-.032-.096-.064-.128-.064-.096-.224-.032-.352.128-.384.128-.192.096-.224.064l-.032-.128-.064-.128q-.256-.544-.512-.704l.064-.064q.032-.064.096-.16.032-.032.032-.064.224-.416.224-.448t-.032-.064-.112-.08l-.08-.048q-.064-.064-.224-.128t-.224-.096-.096-.064l-.032-.032-.064-.032q-.032-.032-.096.096-.032.064-.048.112l-.032.096-.048.096-.032.08q-.064.128-.096.256l-.032.032q-.032.064-.064.064l-.736-.192-.128-.032-.032-.096-.128-.512q-.096-.288-.128-.288.032 0-.16.064-.032 0-.208.032t-.32.08-.176.048q-.128.032-.192.128 0 .032.032.16.064.128.16.576.032.064.016.064t-.048.032h-.032q-.224.096-.576.32-.256.16-.272.144t-.08-.048q-.512-.384-.64-.448 0 .032-.048.096t-.08.128-.032.096q-.288.512-.32.672 0 .096.032.128t.128.064l.32.16q.16.064.16.096.032 0 .016.032t-.016.064q-.032.128-.064.464t0 .432v.032q.032.064 0 .064t-.272.048-.432.112-.192.096v.096q0 .032.016.08t.016.08q.032.128.224.544l.096.224q.032 0 .128-.032l.032-.032q.48-.16.544-.192.096.32.256.576.064.16.16.256.064.064.128.16l.048.048-.016.048q-.032.096-.192.384 0 .032-.032.08t-.064.048l-.032.128q-.032 0-.032.032v.032l-.032.032.384.256q.032.032.128.096.224.16.256.16.128.064.208-.048t.112-.176q.192-.448.192-.512.48.16 1.056.192.064 0 .064.032l.032.096.16.64q0 .096.032.128zm6.272-.608h.064q.192-.032.192-.096 0-.032-.016-.08l-.016-.048-.032-.352q-.032-.064.032-.096.096-.032.192-.096.288-.128.448-.288l.096.128.384.384q.064.032.096-.032.032-.032.032-.048v-.048q.416-.576.352-.608-.128-.096-.48-.288.032-.096.16-.448l.128-.352q0-.032.064-.032h.096q.448-.032.48-.128 0-.032-.16-.704l.016-.016-.016-.016q0-.032-.032-.032t-.032.032q-.448.16-.576.096l-.032-.064q-.032-.128-.224-.48 0-.032-.032-.064-.032-.064-.032-.096.032-.064.32-.352.032 0 .064-.032l.032-.032q.032-.032 0-.096-.032 0-.096-.032-.128-.096-.192-.192-.128-.16-.32-.256-.064-.064-.192.064-.032.032-.096.16t-.096.128q0 .032-.032.064t-.08.016-.112-.048-.064-.064q-.224-.096-.384-.16h-.032q-.096 0-.096-.032t-.032-.512q-.032-.128-.032-.16t-.016-.032h-.08l-.384.032q-.032.032-.112.032h-.112q-.128.032-.16.064l.032.224q.032.032.032.112t.016.144.016.128q-.096 0-.288.16-.032.032-.128.08t-.16.096-.064.08l-.096-.096q-.384-.384-.448-.384-.032 0-.032.032-.032.032-.032.064l-.064.032-.032.032q-.096.128-.16.24t-.096.112q-.064.128.096.256.064.032.128.096.192.096.224.128.032 0 0 .032l-.032.032-.16.352q-.096.224-.128.48H15.6l-.192.016h-.128l-.08.016h-.08l.016.096v.128l.032.32v.192q.032.128.704 0 0 .224.224.512l.128.224q.032.064.032.096l-.08.096-.272.32q-.064.064.448.48.096.064.16.064.032 0 .128-.096l.192-.384q.16.096.416.192.096.032.384.032.064 0 .096.032v.544q0 .064.064.032h.384l.096-.032zm-6.496-1.984q-.064 0-.352-.032-.224-.032-.48-.256-.32-.288-.352-.64 0-.384.192-.864.096-.256.512-.352.352-.064.512-.064.352.064.672.384l.192.352q.032.096-.032.544t-.128.512q-.032.064-.368.224t-.368.192zm6.368.128q-.256.192-.512.032t-.352-.256-.16-.192q-.064-.128-.096-.224v-.256l.032-.256q.064-.192.368-.336t.528-.112q.192 0 .416.256.096.096.128.16.064.192.096.352.128.256-.064.512-.096.16-.384.32zm-3.008 5.984q.224-.032.224-.096l-.016-.032-.016-.064.032-.288q-.032-.064.032-.064l.192-.064q.224-.064.384-.192 0 .032.064.128l.288.352q.032.032.064-.032l.032-.032q.384-.448.352-.48-.096-.096-.352-.288.032-.064.176-.336t.16-.288.064 0l.048.016q.384 0 .416-.064 0-.032-.032-.608v-.032q-.032-.032-.064 0-.064 0-.256.016t-.224.016v-.064q-.032-.096-.128-.416-.032-.032-.032-.064-.032-.064-.032-.096.032-.032.32-.224 0-.032.032-.048l.032-.016q.032 0 0-.064l-.064-.064-.128-.16q-.096-.16-.224-.256-.064-.032-.16.032-.032.032-.112.128l-.08.096q-.032.032-.048.064t-.048 0-.096-.064l-.064-.064q-.16-.096-.288-.16h-.032l-.064-.032v-.032q0-.032.032-.416v-.16h-.384q-.032 0-.096-.016t-.096-.016l-.128.032v.192q0 .032-.016.176t.016.144q-.096 0-.288.096-.288.16-.288.192-.032-.032-.048-.064t-.048-.032q-.256-.352-.288-.384-.032 0-.064.032 0 .032-.016.048t-.048.032l-.032.016q-.064.064-.112.128t-.08.08-.064.048q-.064.096.064.224l.096.096q.16.096.16.128.032 0 0 .032h-.032l-.16.256q-.096.192-.192.416-.032-.032-.112-.032t-.16-.016l-.08-.016h-.16v.448q0 .032-.016.08t-.016.08q0 .128.576.096 0 .16.128.448l.064.16q.032.064.032.096l-.08.08-.272.208q-.032.064.32.48.064.064.128.064.032 0 .128-.096.032-.032.192-.256.128.096.32.192l.288.096q.096 0 .096.032l-.032.128-.032.32q0 .032.064.032v-.032q.032 0 .032.016t.032.016q.16.032.32.032zm.096-1.568q-.48.192-.768-.448-.064-.096-.064-.192 0-.064.032-.224t.064-.192q.064-.16.336-.24t.432-.048.32.256q.064.096.064.16.064.192.064.32.064.224-.128.416-.096.096-.352.192z"/></svg>