<svg xmlns="http://www.w3.org/2000/svg" width="21" height="32"><path d="M13.12 28.544q-3.648.352-6.688-.352-2.272-.544-4.16-1.696-1.088-.672-1.152-1.472V11.616q0-.128.032-2.048V6.816q0-.704.928-1.44.8-.672 2.048-1.216.992-.416 2.336-.64 1.472-.224 3.648-.32 3.296-.128 6.144.832 1.088.352 2.08.864 1.248.672 1.6 1.12.32.416.32.832 0 .064-.016.224l-.016.16q-.032.928-.032 2.016-.032 1.184-.064 2.464l.032 2.432v3.52l.032 4.992.032 2.208q-.128.928-2.08 2.144t-5.024 1.536zm-2.88-18.208q2.112 0 4.096-.448 2.272-.48 3.68-1.408.64-.416.48-.832-.096-.256-.384-.32-.128-.032-.416.096-.064.032-.096.064-.48.32-1.632.768-.448.128-.928.256-.256.064-.608.128-.224.064-.352.096l-.512.064q-.128.032-.288.032 0 .032-.224.032-.224.032-.592.064t-.528.064q-.288 0-.672.032h-.8q-.384.032-.448.032h-.16q-.064 0-.176-.016t-.176-.016h-.576q-.384-.032-.448-.032h-.128q-1.12-.096-2.08-.288-.864-.16-1.568-.416-.128-.064-.288-.128-.736-.32-1.056-.608-.352-.256-.64-.096-.416.224-.224.672.128.224.736.64.352.256.832.448 1.536.736 3.84.992 1.056.128 2.336.128z"/></svg>