<svg xmlns="http://www.w3.org/2000/svg" width="26" height="32"><path d="M20.48 14.016q-.608.8-1.504 1.216-.96.448-2.016.32-.512-.064-.96-.288-.224-.096-.448-.224-.064-.032-.128-.08t-.144-.096-.144-.08q-.064-.064-.208-.096t-.176-.064q-.16-.064-.288-.096-.288-.096-.48-.128l.16.576q.032.128.096.256.256.608.704 1.344.064.064.192.256t.208.336.112.304q.064.256-.048.528t-.336.432-.512.16q-.128 0-.24-.016t-.224-.112-.16-.112-.208-.16-.16-.176q-.352-.32-.704-.576-.672-.512-1.088-.672.032.448.48 1.152.352.544.8 1.088.512.608.256 1.152-.192.384-.592.496t-.752-.112q-.128-.064-.32-.256l-.224-.224q-.352-.288-.672-.512-.576-.384-.992-.544.032.096.096.224.256.544.8 1.344.064.064.288.336t.288.432q.256.448.016.912t-.752.496q-.096 0-.208-.016t-.208-.064-.192-.112-.16-.112-.176-.128-.176-.112q-.384-.288-.768-.512-.416-.256-.768-.416-.16-.064-.288-.128-.032 0-.128-.032t-.128-.032v-.032h-.064v.16q0 .256.064.512.064.16.32.448t.288.384q.32.48.48 1.024.128.576.096 1.152t-.224 1.12q-.224.544-.576.976t-.8.752q-.48.32-1.024.48t-1.152.16q-.576-.032-1.12-.224t-.992-.528-.784-.784-.496-.992q-.192-.544-.192-1.136t.16-1.136q.192-.544.512-1.008t.768-.816.992-.544 1.12-.208 1.152.144q-.032-.32.032-.608.16-.672.736-.992.544-.288 1.312-.064-.128-.48-.096-.864.128-.8.768-1.152.576-.352 1.344-.192-.064-.416 0-.768.128-.864.8-1.28.64-.352 1.504-.128-.064-.416 0-.768.096-.672.592-1.008t1.104-.176l-.064-.32q-.16-.608-.064-1.248.064-.64.352-1.184t.72-.976.976-.688q.576-.288 1.184-.352.64-.064 1.28.064.608.16 1.12.48.512.352.896.816t.608 1.04q.192.608.192 1.248v.256q-.064 1.024-.64 1.888zm-1.76-2.112v-.192q-.032-.256-.176-.48t-.352-.384-.464-.224q-.896-.16-1.376.608t.096 1.472 1.44.384q.352-.128.592-.464t.24-.72zm5.76 8.256.032.096q0 .128-.064.192-.096.192-.24.4t-.32.448-.272.4q-.128.192-.336.576t-.272.48q-.096.16-.208.352t-.176.288q0 .032-.224.416t-.384.64v.224q0 .512.016 1.488t.016 1.456v.48q0 .224-.048.272t-.272.048q-.576 0-.768.032h-.384q-.32 0-.32-.224 0-.672-.032-2.016 0-.352-.032-1.632-.16-.256-.752-1.072t-.72-1.008q-.192-.32-.4-.688t-.272-.496q-.48-.832-.48-.896l.224-.192q.576-.416.992-.8l.032-.032q.064 0 .144.128t.224.352.24.352q.736 1.216.96 1.536.128.224.672.928l.192-.288q.288-.512.832-1.392t.768-1.264q.064-.128.096-.16.128-.16.224-.16.064 0 .192.064.512.256 1.024.576.096.064.096.096zm-18.4 4.384v-.192q-.064-.384-.336-.688t-.656-.368q-.896-.192-1.376.576t.096 1.472 1.44.384q.352-.128.592-.464t.24-.72z"/></svg>