<svg xmlns="http://www.w3.org/2000/svg" width="25" height="32"><path d="M20.48 14.016q-.608.8-1.504 1.216-.96.448-2.016.32-.512-.064-.96-.288-.224-.096-.448-.224-.064-.032-.128-.08t-.144-.096-.144-.08q-.064-.064-.208-.096t-.176-.064q-.16-.064-.288-.096-.288-.096-.48-.128l.16.576q.032.128.096.256.256.608.704 1.344.064.064.192.256t.208.336.112.304q.064.256-.048.528t-.336.432-.512.16q-.128 0-.24-.016t-.224-.112-.16-.112-.208-.16-.16-.176q-.352-.32-.704-.576-.672-.512-1.088-.672.032.448.48 1.152.352.544.8 1.088.512.608.256 1.152-.192.384-.592.496t-.752-.112q-.128-.064-.32-.256l-.224-.224q-.352-.288-.672-.512-.576-.384-.992-.544.032.096.096.224.256.544.8 1.344.064.064.288.336t.288.432q.256.448.016.912t-.752.496q-.096 0-.208-.016t-.208-.064-.192-.112-.16-.112-.176-.128-.176-.112q-.384-.288-.768-.512-.416-.256-.768-.416-.16-.064-.288-.128-.032 0-.128-.032t-.128-.032v-.032h-.064v.16q0 .256.064.512.064.16.32.448t.288.384q.32.48.48 1.024.128.576.096 1.152t-.224 1.12q-.224.544-.576.976t-.8.752q-.48.32-1.024.48t-1.152.16q-.576-.032-1.12-.224t-.992-.528-.784-.784-.496-.992q-.192-.544-.192-1.136t.16-1.136q.192-.544.512-1.008t.768-.816.992-.544 1.12-.208 1.152.144q-.032-.32.032-.608.16-.672.736-.992.544-.288 1.312-.064-.128-.48-.096-.864.128-.8.768-1.152.576-.352 1.344-.192-.064-.416 0-.768.128-.864.8-1.28.64-.352 1.504-.128-.064-.416 0-.768.096-.672.592-1.008t1.104-.176l-.064-.32q-.16-.608-.064-1.248.064-.64.352-1.184t.72-.976.976-.688q.576-.288 1.184-.352.64-.064 1.28.064.608.16 1.12.48.512.352.896.816t.608 1.04q.192.608.192 1.248v.256q-.064 1.024-.64 1.888zm-1.76-2.112v-.192q-.032-.256-.176-.48t-.352-.384-.464-.224q-.896-.16-1.376.608t.096 1.472 1.44.384q.352-.128.592-.464t.24-.72zm5.248 15.36q.064.096.032.192 0 .16-.32.352-.16.128-.416.304t-.48.304q-.064.032-.128.032t-.128-.128q-.448-.768-.736-1.184-.288-.512-.928-1.472-.096-.128-.128-.224-.064.064-.16.32-.16.32-.736 1.504-.064.128-.144.304l-.16.352-.176.336q-.096.224-.192.224t-.352-.16l-.48-.192-.448-.192q-.16-.064-.192-.192 0-.064.064-.224l.608-1.216q.256-.512.72-1.408t.592-1.12q-1.088-1.728-1.184-1.92-.224-.32-.352-.608-.064-.064-.112-.16t-.112-.192-.096-.16-.032-.128.064-.096q.032-.032.176-.112t.176-.112q.416-.256.768-.512.064-.064.128-.064l.128.128q.032.032.096.16.032.064.064.096.288.48.48.736.736 1.12.8 1.248l.16.224.064-.128.08-.128.08-.128q.288-.512.992-1.824 0-.064.192-.288.16-.192.352-.096.224.096.32.16.096.032.192.128t.208.16.208.128q.16.096.16.16 0 .032-.032.192l-.192.384-.064.096q-.16.32-1.024 2.016-.032.128-.352.672l-.16.256q.224.384.224.416.224.352.656.992t.656.96q.32.48.576.832zM6.08 24.544v-.192q-.032-.256-.176-.48t-.352-.384-.464-.192q-.896-.192-1.376.576t.096 1.472 1.44.384q.352-.128.592-.464t.24-.72z"/></svg>