<svg xmlns="http://www.w3.org/2000/svg" width="27" height="32"><path d="m10.272 17.696-1.344-1.312q-.256-.256-.256-.624t.256-.624l.096-.096q-.192-.224-.384-.416-.096-.128-.944-.944T6.56 12.544q-.416-.448-.672-.64-.832.288-1.888.016t-1.824-1.04Q1.12 9.856 1.12 8.368t1.056-2.544Q3.328 4.672 4.8 4.64t2.56 1.056Q9.248 7.584 8.448 9.44q.352.512.576.704.128.128.784.832t1.296 1.184q.096.064.24.176t.208.176l.064-.064q.256-.256.64-.256t.64.256l1.312 1.312-1.088 1.088.352.352q.288.288 0 .576t-.608 0l-.352-.352-.672.704.352.352q.288.288-.016.592t-.592-.016l-.352-.352zm14.496 11.072q-1.28 1.152-2.72 1.04t-2.592-1.296q-.864-.864-1.152-1.904t.224-2q-.288-.352-1.008-1.136t-1.072-1.104q-.512-.48-1.152-.832-.256.224-.608.208t-.608-.24l-1.312-1.312 3.968-3.968 1.312 1.312q.224.256.24.608t-.176.608q.32.64.8 1.152.32.352 1.104 1.072t1.136 1.008q.48-.448 1.168-.384t1.392.464 1.376 1.072q.992 1.056.864 2.816t-1.184 2.816z"/></svg>