<svg xmlns="http://www.w3.org/2000/svg" width="27" height="32"><path d="M14.016 16.768q-3.648-5.44-9.728-5.888-.128 0-.912.048t-1.28.048-.784-.096q-.096-.032-.064-.528t0-.56q-.064-.32-.096-.736t-.032-.784V6.72q10.816-.512 16.32 7.712-.736.32-.8.416-.224.192-.752.48t-.688.416q-.672.512-1.184 1.024zM13.44 27.2l-4.224-.128q.064-2.08-.304-3.6t-1.744-2.896q-1.376-1.408-2.512-1.76t-3.472-.384l.064-4.224q1.184 0 1.968.064t1.76.256 1.744.544 1.664.992 1.792 1.536q2.08 2.08 2.72 4.416t.544 5.184zm9.568-.928q-1.44.8-2.656.864-1.504.16-2.88-.624t-2.176-2.16l-.064-.096q-.576-1.44-.544-3.008 0-2.016 2.176-3.616 2.464-1.824 4.544-1.312 2.112.48 3.712 3.232.736 1.312.672 2.688-.032.832-.224 1.312-.576 1.12-1.824 2.208-.096.096-.736.512zm-1.44-1.888q0-.032.064-.096l.256-.256q.768-.768.928-.864.096-.096-.16-.288t-1.216-1.248l1.504-1.44q0-.032-.08-.144t-.192-.224-.112-.144q-.064-.096-.128-.176t-.16-.16-.128-.112l-.224-.224h-.064l-.224.128q-.864.736-1.408 1.28-.096-.064-.416-.4t-.64-.688-.416-.416q-.032-.032-.096 0t-.16.128-.16.144-.096.08q-.192.128-.448.416 0 .032-.064.08t-.112.096-.048.08v.032l.128.224q.352.48.48.576l.8.832h-.064q-.736.832-1.312 1.28-.032.064-.096.096l-.032.032.096.096q.16.128.224.224.608.512.864.928l1.12-.96q.096-.064.208-.208t.176-.176h.032q1.088 1.152 1.248 1.28l.032.032q.032.064.064.096.032 0 .032.064zM1.344 27.008l-.064-4.48q.192-.032.496-.048t1.104.208 1.408.832q.544.544.928 1.408t.48 1.44l.096.608z"/></svg>