<svg xmlns="http://www.w3.org/2000/svg" width="32" height="32"><path d="m6.656 29.568-3.744-1.856 2.208-4.448q.352-.704 1.056-.992l2.08-.928-.032-2.048v-.128l-.32.256q-.544.48-1.248.48-.64 0-1.152-.416l-4.384-3.36 2.336-3.04 3.136 2.432 1.6-1.376q-1.088-.608-1.76-1.712t-.672-2.384q0-1.952 1.392-3.344t3.328-1.392 3.328 1.392 1.392 3.344q0 1.344-.72 2.48t-1.872 1.712l1.984 1.472 2.752-2.88 2.752 2.656-3.872 4.064q-.576.608-1.376.608-.64 0-1.12-.384l-1.312-.96v.416l.032 1.472 2.72 1.312q.576.288.928.864l2.592 4.448-3.648 2.112-2.272-3.904-1.696-.832-2.528 1.088zm15.392-5.824L20.64 22.4l-.16-.192q-.032-.16.032-.288.192-.128 1.904-1.776t1.936-1.936q.064-.032.416-.48.32-.416.56-.496t.416.016.656.48q.416.256 2.144 2.112.192.224.72.72t1.008.96l.48.464q.128.224-.16.384-1.056.928-1.376 1.312-.256.224-.448.064-1.152-.928-1.856-1.664-1.312-1.184-1.344-1.152-.416.096-1.472 1.184-.352.352-.672.656t-.48.432l-.16.128-.064.064-.128.144-.176.16-.208.096-.16-.048zm0 5.056-1.408-1.344q-.032-.032-.08-.064t-.112-.176.064-.24q.192-.128 1.904-1.776t1.936-1.936q.064-.032.416-.48.32-.416.56-.496t.416.016.656.48q.416.256 2.144 2.112l.528.528.704.688.656.624.32.304q.128.224-.16.384-1.056.928-1.376 1.312-.256.224-.448.064-1.152-.928-1.856-1.664-1.312-1.184-1.344-1.184-.416.128-1.472 1.216-.352.352-.672.656t-.48.432l-.16.128-.064.064-.128.144-.176.16-.208.096-.16-.048z"/></svg>