<svg xmlns="http://www.w3.org/2000/svg" width="26" height="32"><path d="M24.8 11.04q.288.832-.864 1.984-.8.768-1.984 1.184-.384.16-.992.16h-.192q-.096.16-.352.48.384.096.608.224.864.416 1.44 1.552t.736 2.544q.384 2.976-1.168 5.648t-3.824 3.28q-.896.256-2.432.192-2.08-.032-3.12-.112t-2.64-.528-2.88-1.344Q1.92 22.72 1.152 15.488q-.128-1.248.32-1.632.224-.192.64-.128.672.032 2.4.384t2.176.416q2.176.352 5.216.416-.832-.96-1.248-1.888-.064-.16-.24-.496t-.24-.496-.128-.448-.064-.608q0-1.568 1.28-3.392 2.048-2.752 4.576-2.464 1.888.256 3.328 1.376t2.112 2.784q.064.032.176.096t.176.096q.448.288.896.48.128.032.288.08t.336.08.272.064q1.152.192 1.376.832zm-6.528-1.248q.032 0 .096-.016t.096-.016q.704-.064.704-.864-.064-.8-.896-.928-.384-.032-.736.384-.192.32-.192.544 0 .064.048.176t.048.144q.32.576.832.576zm5.056 2.592q.736-.704.64-1.056-.064-.128-.704-.256-.768-.16-1.024-.256-.576-.224-1.056-.544-.672-.384-.864-.384t-.384.224q-.544.544-.48 1.6.064.992.512 1.44.64.576 1.696.224 1.024-.384 1.664-.992z"/></svg>