<svg xmlns="http://www.w3.org/2000/svg" width="25" height="32"><path d="M14.432 13.44q-.768-1.376-.864-2.528-.128-1.44.608-2.768t2.048-2.064l.128-.064q1.344-.544 2.848-.544 1.952 0 3.488 2.08 1.76 2.4 1.28 4.384-.48 2.016-3.136 3.552-1.248.704-2.56.64-.8-.032-1.248-.224-1.088-.544-2.144-1.76-.064-.096-.448-.704zm1.6-1.92 5.632-.096q.256 0 .336-.144t.08-.592v-.672q0-.096-.064-.128h-3.84l-1.504.032q-.608 0-.832.064-.192.032-.192.128v.64q0 .48.064.608.064.16.32.16zm-4.64 13.312q-.096-1.344-.448-2.24-.736-1.952-2.512-3.168t-3.888-1.216q1.824 0 3.376-.88t2.48-2.4.928-3.312q0 2.72 2.032 4.656t4.784 1.936q-1.184 0-2.304.416-1.952.736-3.2 2.448t-1.248 3.76zm-7.84-.576q0-.96-.736-1.664t-1.696-.704q.64 0 1.2-.304t.88-.848.32-1.184q.032.96.768 1.648t1.696.688q-.96 0-1.696.704t-.736 1.664zM7.52 30.08q-.032-.928-.528-1.744t-1.328-1.28-1.792-.464q.96 0 1.792-.48t1.328-1.296.496-1.744q0 1.44 1.088 2.48t2.56 1.04q-1.472 0-2.544 1.024T7.52 30.08z"/></svg>