<svg xmlns="http://www.w3.org/2000/svg" width="25" height="32"><path d="M22.976 8.16q.768 1.376.832 2.528.096.96-.208 1.904t-.944 1.712-1.504 1.248l-.096.064q-1.376.544-2.88.544-1.952 0-3.488-2.112-1.76-2.368-1.28-4.352.48-2.048 3.136-3.584 1.248-.704 2.592-.64.768 0 1.216.224 1.12.544 2.144 1.76.096.096.48.704zm-4.224 5.344q.64 0 .64-.096 0-.544-.032-.672v-1.472l1.28-.032q.608-.032.736-.064.16-.032.16-.128v-.544q0-.416-.032-.544-.064-.128-.288-.128l-1.888.032q0-1.536-.032-1.984-.032-.256-.288-.256h-.544q-.256 0-.352.032-.096.064-.128.16-.032.128-.032.416v1.664l-1.632.032q-.224 0-.288.128t-.064.512v.576q0 .096.064.096.032.032.352.032h1.568l.032 2.112q0 .064.16.096.192.032.608.032zm-7.36 11.328q-.096-1.344-.448-2.24-.736-1.952-2.512-3.168t-3.888-1.216q1.824 0 3.376-.88t2.48-2.4.928-3.312q0 2.72 2.032 4.656t4.816 1.936q-1.216 0-2.336.416-1.28.48-2.288 1.408t-1.584 2.176-.576 2.624zm-7.84-.576q0-.96-.736-1.664t-1.696-.704q.64 0 1.2-.304t.88-.848.32-1.184q.032.96.768 1.648t1.696.688q-.96 0-1.696.704t-.736 1.664zM7.52 30.08q-.032-1.44-1.104-2.464t-2.544-1.024q1.472 0 2.544-1.04t1.072-2.48q0 1.44 1.088 2.48t2.56 1.04q-1.472 0-2.544 1.024T7.52 30.08z"/></svg>