<svg xmlns="http://www.w3.org/2000/svg" width="30" height="32"><path d="M11.968 6.528q-.096.064-.256.256-.864.128-1.536.512l.032-.096.16-.192q.704-.832 1.12-1.216.832-.768 1.344-1.152.832-.576 1.408-.736.128-.032.32-.032t.384.048.256.112l.288.32.992.896.736.832.96 1.12 2.528 2.464q.288.448.112 1.12t-.464 1.12q-.288.48-.8 1.088-.032.032-.272.304t-.368.4q-.448.448-.96.8-.192.16-.384.288-.992.608-2.048.8-.352.032-.576-.128-.16-.192-.896-.928l-.768-.832-.352-.288-.8-.8q.096-.512.096-3.008v-.224q.384-.32.896-.832 1.376-1.472 1.792-2.656.256-.672-.288-1.024-.544-.16-1.696.768-.256.224-.96.896zM9.76 13.664q-.16 0-.272-.144t-.144-.4-.032-.48.016-.512.016-.352v-1.664q0-1.6.256-1.856.16-.192.736-.4t1.344-.208l1.184.032-1.12 1.12q-.352.32-.416.352v1.12q-.096 2.464-.288 2.624l-.192.064q-.256 0-.32-.176t-.16-.688q0 .064-.032.368t-.064.464-.08.368-.16.288-.272.08zm13.312-1.568q0 2.4 1.808 4.112t4.24 1.712q-1.056 0-2.08.352-1.696.64-2.8 2.144t-1.104 3.328q-.064-1.216-.384-1.984-.416-1.12-1.28-2t-2-1.36-2.352-.48q2.432 0 4.192-1.712t1.76-4.112zm-9.024 7.424q0 .032-.096-.064t-.208-.192l-.112-.096q.096.224.032.224-.032.032-.096 0-.096-.064-.096.032.672.8.576.928-.032.032-.576-.544.352.608.192.608-.16-.032-.352-.256-.032 0 .064.192.224.48.176.496t-.352-.352-.336-.368-.112-.112l-.16-.224-.112-.112q-.064-.032-.144 0t-.112-.064q-.48-.864-.864-1.184-1.856-1.728-3.552-1.696-.864 0-1.504.096t-1.232.352-.896.736-.304 1.216.976 1.248 2.368.816 2.8.656 2.416 1.024 1.072 1.664q.032.672-.352 1.2t-1.008.816-1.472.464-1.584.224-1.472.016q-1.184-.032-2.064-.24t-1.328-.448-.72-.608-.32-.56-.08-.448v-.096q-.128-.704.672-1.28.16-.096.352-.16.032 0-.048.128t-.064.128.128-.048.192-.08.08 0-.224.256-.224.256.096-.064q.192-.16.224-.128.064.032-.016.144t-.16.336-.048.448q.096.608.848 1.024t1.744.512 1.968-.032 1.632-.624.656-1.2q-.032-.48-1.04-.96t-2.448-.912-2.864-.896-2.432-1.104-1.008-1.344q0-1.568 1.936-2.656t4.816-.992q.544 0 1.04.064t.864.112.768.208.624.208.56.32.448.32.432.384.368.384.4.464.384.448q.096.16.096.208t-.048.08-.048.064q.064.096.256.48.064.096.032.16zm-1.696-1.664q-.032.064.384.608.128.16.24.288t.176.176.096.048q.032-.032-.416-.608-.096-.128-.208-.256t-.192-.192zm1.232.816q.048-.048-.224-.352t-.32-.256.224.352.32.256zm-.304 1.168q.064-.032-.384-.608-.128-.128-.24-.256t-.176-.192-.096-.032q-.032.064.416.608.096.16.208.272t.192.176.08.032zm5.088 1.312q-.832 0-1.488.624t-.656 1.456q0-.864-.64-1.472t-1.504-.608q.864 0 1.504-.608t.64-1.472q0 .864.656 1.472t1.488.608zm1.312 1.024q0 1.28.96 2.192t2.272.912q-1.28 0-2.24.912t-.96 2.192q0-.832-.448-1.552t-1.168-1.136-1.584-.416q.864 0 1.584-.416t1.152-1.136.432-1.552z"/></svg>