<svg xmlns="http://www.w3.org/2000/svg" width="23" height="32"><path d="M18.656 13.28q-.672 0-1.296-.32t-1.072-.832-.736-1.12q-.032-.096-.144-.304t-.144-.288-.08-.272-.048-.352q0-.992.768-2.048 1.216-1.664 2.752-1.472 1.408.192 2.384 1.168t1.136 2.352q-.032.672-.224 1.248t-.544 1.024-.864.736-1.152.384q-.032 0-.208.032t-.32.048-.208.016zm-6.4 2.24q-.832 0-1.52-.544t-1.04-1.344q-.352-.704-.352-.992 0-.8.64-1.696.992-1.376 2.272-1.216.768.096 1.392.496t1.024 1.024.464 1.392q-.032 1.12-.624 1.888t-1.648.896q-.032 0-.288.048t-.32.048zm-4.128 3.552q-.64 0-1.152-.416t-.768-.992q-.256-.544-.256-.768 0-.576.48-1.248.736-1.024 1.696-.896.544.064 1.024.368t.768.768.352 1.008q-.032.864-.48 1.44t-1.216.64q-.032.032-.128.048l-.192.032-.128.016zm-6.112 9.44q0-.384.032-.976t.336-2.064.848-2.656L1.6 23.2l-.48-2.048 5.312-1.248 1.344 5.056-2.048.544-.512-1.92q-.512 1.056-.8 2.368-.288 1.376-.288 2.56H2.016z"/></svg>