<svg xmlns="http://www.w3.org/2000/svg" width="26" height="32"><path d="M14.016 17.376q.32.256 2.272 2.272v3.808H12.96v3.712L1.152 23.264 1.12 6.496l15.168.256v4.576q-.64.672-.864.864l-.032.032q-1.6 1.472-1.952 1.984-.64.768-.672 1.28-.064.768.832 1.504v.032h.032q.128.096.224.16v.064zM3.232 21.792l7.712 2.432L10.912 12 3.264 9.568zm14.752-10.848-.256.272-.56.592-.624.64-.448.448q-1.664 1.536-1.888 1.92-.32.384-.416.56t-.016.368.432.512q.416.288.448.352.224.192 1.68 1.712T17.92 20q.128.064.224.048t.16-.08l.064-.064q1.024-1.056 1.152-1.248.096-.096.016-.256t-.24-.288l-.128-.128q-.352-.48-1.056-1.152.224 0 .624-.032t.464-.032q.544-.032 1.968-.016t2.368.016h1.328q.096-.032.128-.048t.048-.064.016-.112v-.16l-.032-1.504q0-.448-.096-.512-.064-.032-.192-.064t-.24-.032h-.464l-1.808-.032q-1.776-.032-2.16 0h-2.112q.16-.16.784-.736t.784-.8q.16-.192-.064-.384l-1.12-1.216zM8.208 16q.624 0 1.056.432t.432 1.056-.432 1.056-1.056.432-1.056-.432-.432-1.056.432-1.056T8.208 16z"/></svg>