<svg xmlns="http://www.w3.org/2000/svg" width="26" height="32"><path d="M15.936 17.184h.224v6.112h-3.264v3.68L1.152 23.104 1.12 6.432l15.04.256v6.048h-.352q-.928.032-1.152.032h-.352q-.704 0-1.12.288-.448.352-.48 1.248v.032l-.032 1.472V16q0 .512.304.816t.752.368h2.208zM3.232 21.632l7.648 2.432-.032-12.16-7.584-2.4zm19.328-9.248-.64-.64-.848-.88-.4-.432-.32.16q-.832.896-1.152 1.184-.192.224-.064.416.16.192.784.768t.784.736h-2.08q-.416 0-2.16.016t-1.808.016h-.448l-.24.032-.176.096q-.096.032-.096.512l-.032 1.44v.288l.048.064.144.032q.096.032 1.296.016t2.368-.016 1.936.032q.096 0 .48.032t.608.032q-.288.288-.56.576t-.4.416l-.096.16q-.032 0-.064.032l-.128.128-.128.16-.08.176.048.144 1.184 1.248q0 .032.048.064t.16.08.208-.048q.128-.16 1.568-1.664T24 16.064q.032-.064.416-.352l.384-.384.096-.304-.128-.304-.352-.448q-.224-.384-1.856-1.888zm-14.4 3.488q.608 0 1.04.432t.432 1.04-.432 1.04-1.04.432-1.04-.432-.432-1.04q0-.384.192-.72t.544-.544.736-.208z"/></svg>