<svg xmlns="http://www.w3.org/2000/svg" width="26" height="32"><path d="M25.12 15.744q.192.16.208.448t-.144.448q-.416.448-1.088.96-1.568 1.248-3.728 3.2t-3.824 3.328-3.136 2.176q-.576.288-.832.032t-.256-.928V18.4q-1.344 1.152-2.752 2.272t-2.272 1.776-2.304 1.728-2.08 1.552q-.224.128-.64.32t-.544.288q-.128.064-.224.032t-.176-.112-.112-.16-.032-.176v-.256q0-.608-.016-1.552t-.032-5.36T1.12 7.328q0-.64.256-.896t.832 0q1.408.8 2.976 2.064t3.664 3.168 3.472 3.056q.032-2.08.032-3.632V8.816l.016-1.152.016-.592v-.224q0-.192.16-.352t.384-.064q.128.096.544.288t.64.32q.64.48 1.888 1.408t2.064 1.536 2 1.536 2.432 1.968 2.624 2.256z"/></svg>