<svg xmlns="http://www.w3.org/2000/svg" width="24" height="32"><path d="M8.288 29.28q-.224.096-.256-.096-.064-1.376-.128-5.776t-.192-6.224q-.064-.608-.16-.896-.064-.16-.704-1.28t-1.504-2.624-1.936-3.2T1.6 6.464q-.736-.896-.352-1.408.064-.064.32-.112t.496-.064.528-.016h.288q.32-.032 1.44 0t1.44 0Q7.68 4.8 10.528 4.8q.864 0 2.56.016t2.56.016q.448 0 1.152-.016t1.376-.016 1.28-.016 1.008-.016h.4l.912.016 1.104.016q.032 0 .096.08t.096.224-.032.304q-.128.32-.336.624t-.384.528l-.176.224q-.288.512-.864 1.568t-1.056 1.904-.928 1.52q-.096.16-.672.896t-.8 1.152q-.256.384-.528.832t-.496.8-.432.64-.32.48-.112.224q-.032.128.032 1.776t.112 3.792.016 3.168v.384q-.032.096-.32.288-.064.032-1.04.432t-2.128.864-2.224.912-1.296.544q-.352.16-.8.32zm2.688-4.608q.128-.064.624-.272t.624-.272q.704-.32.8-.352.032-1.12.064-4.032-.032-2.624 0-3.968 0-.064.096-.24t.272-.496.496-.864.944-1.536 1.488-2.304q.352-.48 1.024-1.504.32-.448.48-.704H10.56q-3.104.032-4.352.064.416.512 1.12 1.696t1.056 1.664q2.08 3.616 2.368 4.224.064.544.128 3.008t.032 3.712q-.032.384.016 1.12t.048 1.056z"/></svg>