<svg xmlns="http://www.w3.org/2000/svg" width="27" height="32"><path d="M23.456 24.864q-.096 0-.224-.096-3.872-4.096-3.968-4.192-.288-.32-.768-.896t-.608-.736l-.48-.48q-.384.288-.608.512-.032.448-.032 1.536v1.792q0 1.216-.032 1.792 0 .224-.048.336t-.16.16-.336.08h-2.464q-.192 0-.272-.048t-.112-.144-.032-.32v-2.848q0-.832-.032-2.272t-.032-2.112q0-.288.016-.912t.016-.912q-.032-1.568-.032-4.704 0-.16.032-.896t.032-1.152q0-.256.256-.256 1.216-.064 1.728-.032h1.024q.32 0 .352.416.064.576.16 3.168.032.32.032.976t.032.976v1.28h.128q1.536-1.824 1.568-1.824.384-.544 1.216-1.488t1.056-1.2.688-.736.624-.672q.16-.16.448-.4t.416-.4q.192-.192.32-.192t.352.256q.928 1.024 1.152 1.312.192.224.192.448 0 .128-.064.224-.064.128-.704.928-.128.128-2.752 3.2L19.68 16.48q.224.256.528.56t.608.592.528.512l3.328 3.296.96.96q.096.096.096.192t-.128.224l-1.856 1.856q-.192.192-.288.192zM3.68 24.768q-.8-.064-.992-.064-.384 0-.576.032-.288.032-.8-.064-.192-.032-.192-.288v-.096q0-.352.016-1.104t.016-1.104v-2.944l.096-3.328V9.056q0-.416.032-.576.064-.352.544-.352h.992q.896 0 2.688-.032H8L10.368 8q.416 0 .704.096.224.096.224.352 0 .896-.032 2.688 0 .352-.32.352h-.064q-.736-.064-2.784.032-2.912.096-3.168.096h-.32v.416q0 .192-.016.608t-.016.64q0 1.344.064 2.016v.544h.576q.192 0 .592.016t.624.016q1.696-.032 2.368-.032.512-.032 1.12-.032.128 0 .176.08t.048.368v1.216q0 .736-.032 1.12-.064.352-.16.448t-.384.096q-.8-.032-2.368-.032-.416 0-1.024.032t-.864.032h-.64q0 .096.016.304t.016.368q-.064 1.536.064 4.32 0 .352-.096.448t-.448.16H3.68z"/></svg>