<svg xmlns="http://www.w3.org/2000/svg" width="21" height="32"><path d="M1.728 28.32q-.064-.032-.112-.048t-.096-.048-.08-.064-.048-.112-.016-.128v-7.888q-.032-2.24-.128-6.352T1.12 8.256V5.248q0-.128.032-.176t.096-.096.224-.048H4.32q.288.032.352.096t.064.288q0 .64-.032 2.128t-.032 2.128q0 .32.016 2.384t.016 2.448v1.216q0 .736.016 2.24t.016 2.272q0 .48.032 0v-.288l.032-.512v.256q.032 1.248.032 7.648 0 .096.016.32t0 .304-.032.208-.096.192-.176.064h-.592l-.816.016h-.784l-.624-.016zm12-9.408q-.64-.192-1.152-.416t-.848-.432-.592-.432-.464-.432l-.4-.4-.464-.368-.624-.272q-1.088-.384-1.84-.192t-1.2.432-.48.144l-.256-10.4Q7.744 5.056 9.6 5.536q.832.256 1.472.8t1.344 1.104 1.728.848q1.28.288 2.288.016t2.016-.528 1.392-.032q.128.192-.576 1.264t-1.744 2.288-1.776 1.696L20 16.928q-1.088.864-2.944 1.632t-3.328.352z"/></svg>