<svg xmlns="http://www.w3.org/2000/svg" width="29" height="32"><path d="M26.944 19.04q.224 0 .336.096t.144.176.096.304q.096.256.064.416t-.352.16l-4.864-.032.576 3.712q0 .128-.016.176t-.08.064-.144 0-.224-.032-.256-.016-.288.016-.288.032-.208 0-.16-.08-.096-.16l-.448-3.744-4.864-.032.096 3.328q0 .48-.544.56t-1.28-.016q-.16 0-.384.016t-.352.016-.304-.016-.256-.048-.16-.096-.112-.176-.032-.272l.096-3.328-4.832-.032-.448 3.68q-.032.192-.128.224t-.384 0-.4-.032-.272.016-.256.016h-.176l-.096-.064-.016-.16L6.208 20l-4.8-.032q-.128 0-.192-.032t-.08-.096 0-.112.048-.16.048-.176.048-.208.048-.192.112-.096.256-.048l4.672.032.48-3.136-3.68-.032q-.64-.032-.784-.304t-.032-.72.368-.672.864-.16h3.552l.416-2.784H3.584q-.16 0-.208-.048t.032-.176.08-.192q.032-.096.016-.176t.048-.144.224-.064l3.904.032.288-1.984q.032-.064.624-.048t.624.048l-.224 1.984h3.904l.064-1.632q0-.192.176-.288t.384-.112.624-.016q1.344 0 1.344.416l.064 1.664h3.936l-.224-1.984q-.032-.096.032-.112t.24.016.304.032q.064 0 .176-.016t.192-.032.144 0 .112.032.048.08l.32 1.984 3.936.032q.16 0 .24.048t.096.064.032.144l.016.128q.096.16.096.288t-.288.128l-4-.032.416 2.816h3.616q.992.032 1.248.96.256.96-.832.96l-3.712-.032.48 3.168zM8.896 11.072l-.352 2.816h1.632q.256-.384.416-.592t.48-.496.768-.416 1.024-.128l.032-1.152zm10.688.064-4.032-.032.064 1.152q2.08.416 2.816 1.664l1.504.032zM7.936 18.88l4.736.032.032-1.216q-1.248-.32-1.808-.752t-.88-1.168l-1.696-.032zm7.872.064 4.768.032-.384-3.136h-1.568q-.384.864-1.216 1.184-.128.064-.688.368t-.944.368z"/></svg>