<svg xmlns="http://www.w3.org/2000/svg" width="26" height="32"><path d="M10.08 28.128q-.16-.032-.448-.704t-.688-1.552-.752-1.264q-.16-.128-2.272-.128t-2.112-.032q-.192-.352-.08-1.184t.24-1.84.064-1.136q-.096-.096-.288-.304t-.464-.464-.56-.544-.576-.56-.512-.48-.384-.336l-.128-.128q2.432-2.848 2.528-3.168-.064-.224-.256-.656T3.04 12.8t-.304-.848-.144-.816.192-.64q.128-.16 2.048-.56t2.144-.56q.032-.064.4-1.024t.736-1.776.56-.912q.448-.128 1.28.208t1.568.768.928.432q.224-.032 1.056-.512t1.616-.944.88-.4q.512.224 1.2 1.648t.784 1.456q.16.096 1.184.256t1.968.336.976.336q.128.576-.112 2.16t-.208 1.68.864.576 1.648 1.088.848 1.12q.032.288-.24.736t-.688.88-.816.816-.72.608l-.288.224q.032.096.048.208t.08.512.128.72.128.784.096.752.064.608 0 .32q.032.224-.816.464t-1.824.416-1.104.272q-.096.064-.8 1.808t-.992 1.808q-.352-.096-1.952-.72t-1.824-.688q-.512.384-1.872 1.104t-1.68.624z"/></svg>