<svg xmlns="http://www.w3.org/2000/svg" width="33" height="32"><path d="m27.808 18.368 2.208 2.176q.416.416.32.992l-.512 3.488-2.272-.352.416-2.912-.96-.96-.608 1.568q-.224.608-.864.704l-3.392.608-.384-2.272 2.752-.48 1.024-2.688.032-1.28-1.024.064-1.056 1.792-1.984-1.184 1.376-2.304q.32-.512.896-.544l1.568-.128q-.928-.768-.928-1.984 0-1.056.752-1.808t1.824-.752 1.824.752.752 1.808q0 .704-.352 1.312t-.96.928l.992.736 1.408-1.504 1.664 1.568-2.112 2.24q-.352.352-.832.352-.384 0-.672-.224l-.864-.608zm-13.152 0q.256.032.336.224t-.176.416q-.384.288-.88.4t-1.008-.016q-.352.768-.832 1.472l-.112.112-.208.192-.24.224-.208.192-.096.112q-.224.288-.4.432t-.56.4-.608.416q-.288.192-.752.32t-.592.16q-.8.352-2.208.416-1.472.032-1.824-.032-.096-.032-.304-.096t-.24-.064q-1.056-.32-1.312-.448-.192-.096-.464-.224t-.416-.224-.304-.256q-.224-.256-.096-.528t.416-.272q1.664 0 2.112-2.24-.704-.032-1.28-.512-.128-.128-.128-.288t.288-.32q1.184-.32 1.248-1.792v-.192q0-1.344.992-2.752.096-.128.384-.368t.352-.304q.8-.832 1.696-1.184.832-.288 1.44-.288.864 0 1.824.416.64.32 1.376.896Q13.6 14.24 13.6 16.352q.032.416-.096 1.088.384.8 1.152.928zm-2.752-2.976v-.256q0-.352-.24-.592t-.592-.24q-.192 0-.352.064-.032 0-.272.256t-.24.512q0 .352.24.576t.624.224.544-.16q.224-.192.288-.384zm4.8-.736 3.456 2.72.096.096.144.208.08.176-.416.416-3.008 2.016-.448.224q-.128-.064-.192-.448-.256-2.56-.032-5.216.032-.224.064-.256zm-9.92 1.76q.352 0 .608-.24t.256-.592q0-.448-.416-.672-.32-.192-.448-.192-.352-.128-.672.416-.16.288-.16.448 0 .352.24.592t.592.24zm3.392 1.152q.544-.512.16-.768-.032-.064-.128-.032t-.128.048-.128.112l-.128.128q-.32.256-.704.32-.096 0-.192-.016t-.192-.08l-.144-.096-.128-.112-.08-.112q-.192-.16-.448-.032-.288.16-.064.448.16.288.576.48t.736.16q.544-.064.992-.448z"/></svg>