<svg xmlns="http://www.w3.org/2000/svg" width="18" height="32"><path d="M6.752 18.176q-.064.096-.192.096-2.496-.544-4.032-2.656-1.408-1.92-1.408-3.872 0-1.472.512-2.624.768-1.824 2.416-2.944T7.68 5.024q.736 0 1.568.256l.64.224q1.632.48 2.688 1.568 1.888 1.92 1.888 4.672 0 1.472-1.376 3.488-.032.064-.144.208t-.24.304-.256.288-.256.272-.16.176q-.096.096-.192.032l-.384-.448q-.192-.128-.032-.256.064-.064.432-.512t.464-.576q1.216-1.824 1.216-2.976 0-2.336-1.632-4Q11.072 6.848 9.6 6.4l-.128-.064q-1.312-.352-1.696-.352-1.728 0-3.168.944t-2.08 2.544q-.48 1.088-.48 2.272 0 1.632 1.216 3.296.64.864 1.632 1.472t1.984.864q.16.032.096.192zm3.36-4.384q.064-.032.096-.096t.08-.128.112-.128q.704-1.152.704-1.696 0-1.344-.96-2.336-.448-.48-1.312-.736l-.064-.032q-.736-.224-.992-.224-.992 0-1.824.56t-1.216 1.488q-.224.608-.224 1.28 0 .864.672 1.888.736 1.024 1.696 1.248.096 0 .096.16v.64q0 .096-.064.144t-.128.016q-1.44-.384-2.336-1.632-.896-1.216-.896-2.464 0-.928.32-1.696.48-1.184 1.552-1.888t2.352-.704q.288 0 1.248.256l.096.032q1.056.352 1.728 1.024 1.184 1.248 1.184 2.976 0 .928-.832 2.208-.352.576-.448.704t-.224 0l-.416-.736q-.064-.064 0-.128zm6.24 6.944q.704 1.536.368 3.072t-1.488 2.784q-1.056 1.152-2.512 1.68t-2.96.272q-1.408-.224-2.576-1.056t-1.68-2.08q-.544-1.312-.256-2.848.224-1.312 1.44-2.816 1.184-1.44 1.248-2.464.064-.192 0-.88t-.08-.896-.128-.896-.144-.88q-.448-.096-.848-.384t-.64-.736-.208-.896q.064-.736.512-1.296t1.152-.592q.704-.064 1.344.304t.896 1.008q.256.608.064 1.28t-.736.992q.032.16.24.704t.304.752.32.688.4.72.448.56.592.512.704.32q.192.064.624.192t.688.208.608.24.608.352q.992.704 1.696 2.08zm-9.184-8.864q.096.256.368.432t.56.112q.448-.096.56-.464t-.128-.688-.688-.32q-.16 0-.32.096l-.032.032q-.48.32-.32.8zm7.712 12.192q.448-1.056.128-2.224T13.76 20q-.416-.352-1.408-.64t-1.12-.352q-.48-.192-.752-.336t-.544-.4-.496-.608q.032.512-.08.848t-.432.912q-.224.352-.704.928t-.608.8q-1.248 1.76-.576 3.424.288.768.976 1.328t1.552.784q1.6.448 3.12-.32t2.192-2.304zm-.864-2.4q.224.896-.544 1.216l-.064.032q-.096.064-.128.064-.608.16-1.088-.416-.192-.192-.224-.32-.096-.256.064-.64.192-.608.672-.672.352-.032.672.096h-.032q-.288.096-.192.416t.384.224.224-.384q.16.16.256.384zM9.76 22.88q.224.928-.512 1.216-.032 0-.112.048t-.112.048q-.576.192-1.088-.384-.192-.224-.224-.32-.064-.288.064-.672.192-.576.672-.64.352-.064.672.064v.032q-.32.064-.224.384t.384.224q.288-.064.224-.384.16.16.256.384zm2.592.672q-.064 0-.128.032l-.064.096q-.16.192-.288.32-.32.288-.64.32-.288.032-.736-.192l-.064-.032q-.096 0-.16.064t-.064.176.064.176l.16.16q.32.288.672.384.192.064.4.016t.368-.144q.256-.192.48-.608.032-.096.096-.192.032-.16.064-.224.032-.128 0-.224-.032-.064-.064-.08z"/></svg>