<svg xmlns="http://www.w3.org/2000/svg" width="26" height="32"><path d="M23.072 15.392q0 .352.064.4t.384.048h1.184q.384-.032.384-.768v-4.704q0-.384-.016-1.104t-.016-1.104V6.624q-.032-.192-.112-.24t-.336-.048h-.512q-.192 0-.448.016t-.416.016q-.256 0-.416.16l-1.664 1.248-.16.16q-.064.064-.064.16 0 .064.064.128.128.256.8 1.376.128.192.224.192t.288-.128q.096-.096.736-.608v2.912q0 .96.032 3.424zM18.72 26.56h.032q.768-.032 1.056-.736.096-.192.16-.544.128-.512.224-1.472.192-1.568.416-4.256.224-2.912.384-6.176l-2.112-.096q-.192 3.2-.256 4.096-.128-1.376-.224-2.08t-.16-1.088q-.032-.224-.064-.352-.224-.736-.992-.8-.352-.032-.688.16t-.464.576q-.416 1.44-.896 6.08-.128.96-.16 1.28 0-.32-.032-.672-.288-3.2-.512-4.48-.224-1.088-.544-1.696-.544-1.088-1.632-1.12-1.024-.032-1.568.96-.288.512-.512 1.472-.192 1.056-.448 3.872-.224 2.528-.416 3.552-.128.768-.288 1.248-.128-.384-.256-.96-.192-.896-.448-3.136-.352-3.104-.704-4.352-.736-2.656-2.56-2.656h-.032q-.928.032-1.664.64-.896.8-1.44 2.688-.384 1.44-.608 3.584-.256 2.656-.192 6.272l2.112-.032q-.032-3.52.192-6.08.416-4.256 1.44-5.152.096-.064.128-.096.384.352.672 1.664.256 1.088.544 3.712.32 2.752.608 3.808.224.928.576 1.472.608.896 1.632.896h.032q1.056-.032 1.664-1.056.352-.576.576-1.632.256-1.184.544-4.256.192-2.272.352-3.2.032-.256.064-.448.096.384.16.864.192 1.088.416 3.776.192 2.56.352 3.52.16.832.352 1.312.416.96 1.312 1.024 1.056.096 1.504-1.024.224-.512.384-1.408.128-.768.256-1.952.096.8.192 1.408.128 1.12.256 1.696.064.352.128.576.288.8 1.152.8z"/></svg>