<svg xmlns="http://www.w3.org/2000/svg" width="24" height="32"><path d="M19.776 20.224v1.792q-.096.768-.704 1.248-.224.192-.544.32-.128.032-.288.096-.384.096-2.048.16-.448.512-.832.96l.032 1.728q0 .256-.064.48v-.064q0 .064-.032.128l.032-.064q-.032.096-.096.192l.032-.032q-.064.192-.192.352l.032-.032q-.064.064-.096.128v-.032q-.352.448-.96.608-.32.064-.832.096-.8.064-1.76.032-.928-.032-1.344-.192-.288-.128-.512-.32-.512-.416-.608-1.056-.032-.16-.032-1.28-.832-.768-1.632-1.6H6.56q-.8 0-1.28-.352l-.544-.608-.16-.48-.032-.24v-1.36q-1.728-2.08-2.64-3.856t-.752-3.856q.064-1.344.72-2.64t1.68-2.176 2.352-1.2 2.768.224q.928.384 1.68 1.168t1.2 1.728.64 2q.288-1.344 1.056-2.56 1.344-2.144 3.424-2.528.608-.128 1.264-.08t1.296.208 1.232.464 1.072.72q.96.832 1.296 2.016t.144 2.304-.768 2.416-1.168 2.24-1.296 1.904v.096q.032.416.032.8zm-1.44 1.536v-2.24l-.016-.176-.064-.16-.096-.144-.128-.112-.176-.08q-.032-.032-.48-.032-.064 0-3.584.096 0-1.152-.064-3.328 0-.032-.016-.128t-.016-.144v-.128l-.016-.144-.032-.128-.048-.112-.08-.096-.112-.08-.128-.032q-.128-.032-.256-.048t-.256 0-.256.016-.272.016-.24.016q-.064 0-.256-.016t-.288-.016-.256.032-.24.08-.176.128-.16.24q-.064.192-.064 1.248l.032 2.656q-1.792.032-2.688.064h-.96q-.48.032-.608.304t-.16.88v1.344q0 .512.032.544.064.096.224.112t.4 0l.24-.016q1.344 0 3.552.032l.032 2.592q0 .16-.016.448t-.016.528.064.464q.032.288.176.352t.56.064q.736.032 1.536 0 .832-.032.896-.096.096-.128.096-.432t-.048-.72-.048-.512l-.032-2.72h.672l1.184-.016 1.216-.048 1.04-.128.4-.224z"/></svg>