<svg xmlns="http://www.w3.org/2000/svg" width="35" height="32"><path d="m12.704 5.152.544-2.528q0-.064.032-.256t.032-.288q0-.032.032-.112t.032-.144v-.096l.768.384q.256-.512.416-.736.096-.128.208-.304t.224-.368.208-.32q.288-.32.32-.256.064 0 .064.224 0 .352-.096.736-.032.256-.144.848t-.112.912q0 .032-.032.464t-.096.592l-.736-.352-.352.352-.832.864q-.16.224-.32.256-.128.128-.16.128zm9.344 24.608q-.256 0-1.248-.64l-4.864-3.872q-.576-.48-1.232-1.072l-1.312-1.184-1.248-1.136-1.264-1.184-1.12-1.056q-.512-.448-.352-2.752v-.144l.048-.16.08-.16.112-.16.144-.144.16-.144.144-.112.16-.128.144-.096q1.984-1.472 2.88-2.08.192-.032.32-.192l-.032-.048-.048-.08-.048-.096q-.064-.032-.704-.688t-.704-.688l-.48-.608q-.064 0-.192-.016t-.224-.016q-.832 0-1.44-.16-.16-.032-.48-.32t-.48-.704q-.416-.896-.16-1.664 0-.16.16-.48 0-.096.144-.4t.144-.368q.096-.192.352-.32.064-.032.48-.352t.768-.416q.544-.096 1.184.032t.864.32q.192.128.464.48t.368.672q.224.32.288.768.096.512-.064 1.056.032.064.24.272t.304.336q.032.096.32.368t.56.528.272.288l.064.064.128.096q.032.064.224.256.192.064.384.288.064 0 .128.064.16-.096 1.168-.848t1.552-1.104q1.024-.64 1.696-.608 1.024.864 4.832 3.52.032.032.08.064t.112.096l.288.288 2.912 2.432q2.432 2.016 3.456 3.136l.448.288q.128.192.256.32l.176.176.08.096.064.08.032.128q.096.064.096 2.4-.096.288-.48.576-.256.224-.688.496t-.656.464q-5.792 4.224-6.016 4.384-.736.576-1.856 1.12t-1.888.448zM16.992 8.416l-.064-.8-.48-.16q-.672-.096-1.216-.288-.256-.096-.384-.16-.096 0-.128-.032l2.464-.768q.096-.032.224-.064t.224-.048.192-.048l.224-.128.128-.032v.832h.832q1.28.128 1.312.128.416 0 .416.096 0 .032-.112.08t-.144.048q-.032.032-.304.16t-.432.16q-.192.064-1.76.576-.544.384-.992.448zM3.328 9.856l.192-.8q-.64-.16-.8-.256-.128-.064-.544-.176t-.608-.208l-.448-.192v-.032q.096-.064.256-.064Q1.664 8 2.144 8q1.216-.064 1.888-.128.928-.128 1.056-.128l-.128.736q.32.224.384.32 1.024.544 1.12.608l.544.416H4.32q-.096.032-.336.032h-.656zm1.024 6.368q-.064-.224.032-.32.032-.16.112-.4l.112-.336q.544-.96.704-1.664.032-.064.096-.288t.144-.384.176-.256l.576.544q.352-.224.48-.256.928-.544.992-.576.32-.224.448-.256 0-.032.16-.032l-1.152 2.336q-.256.16-.256.448 0 .032-.032.128t-.032.16l-.064.064-.64-.608-.544.608q-.576.512-1.024.8l-.064.08-.144.144zm17.888 8.64q1.12-.448 2.528-1.632t1.792-1.472q.8-.48 1.344-.896t1.056-.768l.064-.032q-.736-.736-1.152-1.024-.704-.576-1.872-1.664t-2.192-1.888l-3.424-2.368q-.32.16-.832.544t-1.088.672q-.576.384-1.6.864l-.16.128q-.928.512-1.056.608-.512.352-2.112 1.632.352.288.64.464t.672.528q.352.32.768.784t.736.752q1.92 1.696 4.384 3.68.256.224.432.368t.256.208.352.224.464.288zm-1.952-7.776q-.16-.096-.352-.224t-.256-.192q-.096-.064-.32-.192t-.288-.224q-.032 0-.128-.08t-.128-.112q-.224-.224.096-.384.032-.032.8-.624t.896-.656q.128-.128.352 0l.224.192q.288.288.704.544.448.32.192.512-.064.064-.352.304t-.576.512-.384.368q-.064.032-.16.112t-.176.128-.144.016zm2.208 1.888q-.256-.288-.448-.416-.064-.096-.144-.144t-.24-.16-.384-.304q-.096-.16-.016-.272t.144-.112q.032 0 .272-.176t.512-.368l.544-.384.304-.224q.256 0 .288.032l.096.096.128.096q.288.448.576.544.032.032.096.112t.112.128.032.128-.112.144q-.096.128-.48.512l-.384.256-.416.352q-.32.224-.48.16zm-5.44.224q-.16-.064-.512-.352l-.416-.416q-.032 0-.096-.048l-.128-.096-.096-.048-.096-.224.672-.48q.064-.032.576-.4t.576-.4q.032-.032.16-.032t.16.064l.16.096q.096.256.64.672.416.224.128.48-.352.32-.512.416-.096.128-.24.24l-.288.224-.24.176q-.288.256-.448.128zm7.616 1.952q-.192-.224-1.152-.832l-.048-.048-.128-.096-.112-.08q-.16-.128.064-.32.032-.032.048-.032t.256-.192.304-.224q.288-.32.608-.48.064-.032.544-.416.128-.064.352 0 .032.032.192.176t.4.32.336.272q.16.064.256.192t-.064.32q-.064.064-.192.176t-.224.208-.16.192q-.416.288-.736.608-.064.032-.176.112t-.192.128-.176.016zm-5.088.064q-.512-.384-.576-.416l-.64-.384q0-.032-.032-.048t-.08-.08-.08-.128q-.224-.16.064-.288.224-.256.544-.384.064-.128.272-.304t.272-.208q.512-.352.608-.416.096-.16.384 0l.16.224q.064 0 .16.08t.256.192.32.24l.064.032.096.08.08.112.032.144-.08.144q-.544.448-.608.544-.256.288-.736.64-.256.352-.48.224zm2.304 2.144q-.096-.064-.192-.112t-.304-.256-.432-.368l-.32-.256q-.16-.192.16-.352l.272-.192.56-.4.288-.208q.16-.224.512-.352 0-.032.112-.032t.176.032q.032 0 .32.336t.512.432q0 .032.064.096t.112.144.032.16-.08.144q-.416.32-1.344 1.088l-.128.064-.16.064-.16-.032z"/></svg>