<svg xmlns="http://www.w3.org/2000/svg" width="19" height="32"><path d="m4.032 26.304-3.04.768v-1.568q0-.224-.032-.704v-2.752q0-.32.032-.544 0-.16.032-.256v-.416q.032-.16.032-.384v-1.616l.032-.816V16.32q.064-1.792.064-2.368-.032-1.728-.032-2.144-.064-.576-.064-.992l1.6-2.656 1.44 2.464v.192q0 .448.064 1.216 0 .192.016 1.216t.016 1.312q-.032.064-.032.688v.72q0 .256-.032.544v1.504q-.032.128-.032.384v.896q.064-.032.176-.128t.144-.128q.192-.16.32-.256.064-.064.128-.096t.064-.064q.16-.16.192-.16.512-.48.96-.864V16q0-.928.032-1.504v-.48q.032-.096.032-.16v-.704q-.032-.096-.032-.208v-.192l-.016-.208-.016-.224v-.16q-.032-.384-.032-.64-.032-.256 0-.512v-.144l.032-.112.112-.176.176-.272.32-.512.448-.768 1.088 2.368v.512l.032.384q0 .096.016.288t.016.256q0 .448.032.704v.512q0 .128-.032.288v.256q-.032.192-.032.448.128-.128.288-.32.448-.576.896-1.056l.128-.128v-1.632l.032-.288v-.256l.864-1.376.768 1.696v4.736q.032.256.032.736v.992q.032.448.032.896v.608q.032.32.032.736-.032.256-.032.608 0 .256-.032 1.536v1.024l-1.632.576v-1.024q0-.16.016-.448t.016-.416v-1.184q.032-.416 0-.704v-.896q-.032-.512-.032-.896 0-.512-.032-1.152-.224.288-.448.64-.192.256-.224.288l-.064.096-.032.032q-.064.128-.192.32-.032.032-.096.144t-.064.144l-.192.288-.096.16V20q-.032.736-.064 1.28v.352q-.032.352-.032.672l-.032.192v.256q-.032.16-.032.352v.352q0 .416.032.992v.096l-2.208.896q-.032-.8-.032-1.376v-.48q.032-.256.032-.512v-.16q0-.096.032-.256 0-.32.032-.672l-.32.32q-.16.128-.416.384l-.544.544q-.16.16-.32.288v.032l-.032.032v.016l-.032.016q-.032.064-.064.096-.096.128-.16.224v2.368zm11.424.768 2.72-.096q-.064-2.112 0-10.048.064-4.8.064-6.848h-2.72q0 2.048-.064 6.816-.096 8 0 10.176z"/></svg>