<svg xmlns="http://www.w3.org/2000/svg" width="20" height="32"><path d="m5.056 27.072-3.904-.32v-1.536q0-.448-.032-.672v-2.688q.032-.288.032-.544.032-.096.032-.224v-.128q.032-.128.032-.256v-.352q0-.288.032-.8v-1.568q.032-1.024.032-1.632.064-1.792.064-2.304Q1.312 12.384 1.28 12q-.032-.544-.032-.96L3.2 8.064l1.952 2.24q-.032.032-.032.064v.128q.032.48.096 1.28 0 .224.016 1.312t.016 1.408q0 .064-.016.736T5.216 16q0 .256-.032.576 0 .608-.032 1.6v1.376q.352-.192.48-.224.288-.16.448-.256l.192-.096q.096-.032.128-.064.192-.128.224-.16.8-.48 1.536-.896.032-.384 0-.992V16q0-1.024.032-1.696.032-.288.032-.544.032-.128.032-.224v-.064l.032-.032v-.032q0-.128-.032-.288v-.384q-.032-.128-.048-.288t-.032-.352-.016-.288q0-.064-.032-.192-.032-.448-.032-.736-.032-.288 0-.544 0-.16.016-.208T8.16 10t.176-.24.32-.368.544-.672.784-1.04l1.984 2.56q.032.288.032.32v.352q.032.16.032.448.032.128.048.352t.016.32q.064.544.096.864v.64q0 .192-.032.352 0 .064-.016.144t-.016.112v.096q-.032.256-.032.544.256-.192.512-.416.96-.736 1.888-1.44.064-.032.16-.096l.128-.096q0-.416.016-1.2t.016-.944v-.768l1.984-2.08 1.92 2.08v2.656q-.032 1.376 0 2.272 0 .384.032.736 0 .096.016.32t.016.256v.512q.032.384.048 1.072t.032.928.016.496q.032.736.064 1.312 0 .192.032.48v.384q.032.48.032 1.056v.864q0 .512-.064 2.24v1.472h-3.936q0-.544.032-1.408v-.288l.016-.272.016-.288v-.752q.032-.704.032-1.12v-.96q0-.192-.032-.384v-.192q0-.096-.032-.256v-.352l-.064-1.184q0-.416-.064-1.568-.448.384-.992.8-.16.128-.448.352l-.192.192q-.16.128-.384.352-.064.064-.192.176t-.192.176l-.352.352q-.096.096-.192.16v.576q-.032.96-.096 1.6 0 .16-.032.48-.032.544-.064.8v.256q-.032.032-.032.096v.192q-.032.224-.032.48v.448q0 .512.032 1.216v.128l-3.904.16q-.032-.928-.032-1.6v-.544q0-.32.032-.576v-.192q.032-.224.032-.288.032-.352.064-.768-.032.032-.16.096-.16.064-.368.176t-.624.32-.48.272q-.128.064-.352.16-.288.16-.448.256l-.096.096q-.064.032-.128.096-.096.064-.224.16v1.216q.032.256.032.352v.544q0 .288-.032.448z"/></svg>