<svg xmlns="http://www.w3.org/2000/svg" width="26" height="32"><path d="M24.576 23.424q.448 0 .672.48t-.16.96q-.256.256-.512.432t-.736.384-.768.368q-.256.128-.56.256t-.512.192-.64.176-.624.144q-.032.032-.4.144t-.528.144q-.256.064-.528.096t-.496.032h-.528l-.528-.016-.56-.032-.56-.016q-.672-.032-.976-.048t-.848-.08-1.024-.192-.992-.352q-.224-.128-1.04-.336t-1.296-.56l-1.584-1.056-.528-.432-.608-.656q-.064-.096-.752-.736t-.752-.736q-.864-1.216-1.44-2.56-.928.256-1.792.032t-1.504-.704q-.448-.384-.32-.72t.608-.4q.544-.096 1.088-.48t.864-1.12q-.064-.512-.112-.976t-.048-.688v-.224q0-3.712 3.072-6.24Q7.84 6.88 8.992 6.336 10.688 5.6 12.16 5.6q1.088 0 2.496.512 1.568.576 2.976 2.08.128.128.608.528t.672.624q1.728 2.464 1.728 4.8v.352q.096 2.528 2.144 3.136.384.096.496.32t.032.4-.24.304q-.96.864-2.24.896.8 3.872 3.744 3.872zM8 13.408q.64 0 1.056-.384t.416-.992q0-.48-.416-.896-.416-.448-.448-.448Q8.32 10.56 8 10.56q-.608 0-1.04.432t-.432 1.04q0 .288.032.448.064.32.448.672.288.256.992.256zm7.424.864q.608 0 1.056-.432t.448-1.04q0-.256-.32-.8-.544-.928-1.184-.704-.192 0-.736.32-.736.416-.736 1.184 0 .608.432 1.04t1.04.432zM13.6 15.936q.352-.512-.16-.8-.448-.224-.768.064 0 .032-.16.192t-.224.208-.224.16-.336.144-.368 0q-.672-.064-1.184-.544-.096-.064-.208-.176l-.176-.176-.16-.112-.192-.048-.192.096q-.288.224-.192.576t.512.736q.768.672 1.696.768.544.032 1.264-.304t1.072-.784z"/></svg>