<svg xmlns="http://www.w3.org/2000/svg" width="33" height="32"><path d="M14.304 29.664Q10.464 29.6 7.296 28q-1.632-.832-2.752-1.92-1.152-1.184-1.952-2.912-1.28-2.72-1.472-6.272 0-.288.032-2.016.032-1.44.352-2.88.256-1.088.64-1.984.288-.672.96-1.344.48-.48 1.312-1.056.96-.704 1.088-.8l.384-.384q.256-.224.544-.384.544-.384 1.312-.672 1.408-.544 3.264-.864 1.632-.256 3.104-.256.928 0 2.272.32 1.76.416 2.656.832.192.096.64.384l.768.512q-.448.16-.864.96-.256.512-.416 1.184-.064.256-.096.448v.144l-.096.08h-.032l-.128.128q-.288.256-.48.672-.256.544-.288.832 0 .032-.016.08t-.016.064v.272l.032.512q.064.576.224 1.12-.16-.032-.256-.096-.128-.128-.256-.192-.128-.032-.256-.032-.224 0-.288.064-.16.128-.224.448-.064.16-.08.512t-.08.544q-.096.352-.192.512-.064.096-.224.032l-.032-.032h-.096q-.064-.032-.192-.192 0-.032-.416-.64-.16-.256-.384-.704-.032-.096-.064-.224t-.064-.192q-.032-.128-.064-.128v-.16q0-.096-.064-.176t-.144-.176-.112-.16q-.16-.192-.032-.544.128-.384.096-.608-.128-.736-.736-1.12-.032-.032-.144-.096t-.176-.096-.16-.112-.08-.144.08-.16q.064-.032.192-.112t.192-.16 0-.176l-.128-.192-.176-.16-.176-.112-.208-.112-.208-.096q-.448-.224-.544-.32l-.208-.208-.24-.208q-.128-.096-.192-.192v-.096l-.032-.096q-.064-.032-.224 0l-.064.032-.448.032h-.112l-.16.016-.112.048-.144.064-.112.064q-.256.096-.672.224-.608.16-.64.176t-.112.064-.144.048q-.128.064-.416.16l-.224.096.096.032q.16.096.16.128.032.032-.032.128t-.064.128q-.032.16.032.224 0 .032.08.08t.112.112q.032.032.08.192t.176.192.352-.128q.032.096.288.128.032 0 .288.16.384.224.48.384.128.256-.032.512-.224.384-.224.416 0 .128.192.544.16.32.416.384.064.032.256.048t.304.08.112.192q0 .224-.128.544-.096.256-.16.32-.032.032-.128.064t-.112.048-.048.064-.064.08q-.032 0-.064.016t-.048.032-.064.048l-.048.032H10.4q-.032.032-.064.032h-.224q-.256-.064-.32-.048t-.096.144q0 .032-.016.112t-.048.112q-.128.288.064.48.064.064.208.192t.208.192q.32.352.448.608 0 .032.192.192.096.096.128.224-.064 0-.224-.096-.032-.032-.192-.064l-.352-.128q-.128-.032-.16-.064l-.032-.048-.064-.08h-.064l-.16-.096q-.032 0-.08-.032l-.048-.032-.032-.096q-.032-.032-.224-.032-.096 0-.192.064-.064.064-.128.064-.128 0-.256-.064-.064-.032-.32-.256t-.416-.256q-.224-.032-.384.16l-.128.256q-.096.128-.096.224-.032.16-.032.352v.512l.032.032v.032l.032.096q.064.16.096.256.032.288-.192.352-.064 0-.32.032-.064 0-.32-.032h-.128l-.192-.064-.064-.032-.096-.032q-.064 0-.096-.064 0-.032-.032-.048l-.032-.016v-.032l-.032-.032H5.92v.032h-.064l-.032.032v.032q-.032.032-.032.048t-.064.016q0 .032-.032.032v.032h-.064v.032q-.032 0-.032.032t-.032.032-.128-.096q-.064-.096-.16-.416-.032-.256.096-.48.224-.384.16-.512-.096-.416-.192-.544t-.352-.096q-.032 0-.128.064 0 .032-.016.032h-.08q-.032 0-.08.016t-.096.016-.08.032q-.128.064-.16.192-.032.064 0 .32t.032.32q0 .224-.16.768-.256.864.128 1.344.096.128.256.24l.32.224.256.208q.288.288.384.576.032.096.064.304t.064.336q.096.224.272.4t.288.24.432.224q.384.192.576.384t.16.608q0 .192-.096.704-.064.416.064.64.32.512.256 1.28-.032.32-.096.448-.064.224-.064.352 0 .16.08.384t.176.32q.128.128.32.224.096.064.32.128.128.064.352.224.16.128.336.192t.368.096q.256.064.832.128.224.032.768.256l.384.144.288.112.048.048.08.048h.064q.032 0 .064.016l.032.016q.064 0 .256.064 1.28.288 1.952.16l.08-.016.112-.016.128-.096q.064-.032.16-.048t.128-.048q.096-.032.256-.128l.096-.08.16-.08q.032-.032.128-.032t.16-.032q.032 0 .128-.08t.16-.08q.128-.032.32-.032.096 0 .16.032.032 0 .096.032t.096.032q.448.16.544.16h.384q.096 0 .224.016t.24.032.24.032.224.016q.16.032.256.032.064.032.16.096.064.032.096 0 0-.032.016-.048t.016-.032.032-.032.064-.016v-.032l.032-.064q.032-.032.16 0h.064q.064 0 .128-.016t.144-.096l.112-.112.096-.048.112-.048.08-.064q.064-.032.128-.128t.096-.128.064-.128.064-.128.064-.08l.032-.048q.064-.096.24-.24t.24-.208q.16-.128.224-.16.096-.064.128-.096l.064-.096.08-.096.08-.112.064-.112.224-.256q.032-.032.048-.096t.016-.096.064-.096l.048-.048.016-.08.032-.032.128-.448q.096-.256.352-.864.32-.896.576-1.664.064-.256.096-.256l.416.288.192.128h.032q.064.032.064.064l-.032.128-.288 1.44q.224.256.48.544l.672.768.032.064-.128.256q-.064.128-.096.224l-.512.96q-1.12 1.856-2.464 2.912-.8.64-1.632.928-.768.288-1.952.448-.992.096-1.888.192-.864.064-1.76.032zm9.472-12.16q-.032 0 0-.192v-1.184q0-.032-.096-.064-.864-.256-1.504-.704-.064.096-.512.704-.064.128-.224.256t-.32-.032q-.064-.032-.352-.32-.096-.128-.16-.192-.096-.16-.352-.416l-.128-.128.032-.032q.032-.032.048-.064t.048-.032l.128-.16q.032-.032.096-.08t.096-.08q.352-.384.448-.544.032-.032.016-.048t-.048-.08v-.032l-.128-.256q-.096-.192-.16-.448-.128-.448-.16-.992-.096.032-.896.096l-.064.016-.112.016h-.08q-.032-.032-.048-.096t-.016-.16v-.128q-.128-.672-.128-.896v-.416q.032-.032.368-.048t.656 0 .416.016h.064v-.16q0-.128.16-.624t.256-.688l.064-.064q.032-.064 0-.096l-.192-.192-.416-.352q-.16-.128-.192-.16-.064-.064 0-.192.128-.256.736-.928.32-.32.352-.384.192.128.8.896l.096.096q.032.032.48-.128.64-.192.992-.256h.064q.064 0 .08-.016t.016-.08q0-.736-.032-.96-.032-.192.032-.256.064-.096.288-.096h1.12q.032 0 .096-.016t.112-.016.08.032q.064 0 .064.448l.032.864v.128l.192.096q1.024.576 1.056.576.032.032.096-.064.032-.032.032-.064l.256-.32q.032-.064.112-.176t.144-.192.128-.144q.16-.192.224-.128.032 0 .064.064l.032.064.128.128.272.224.304.288q.032 0 .112.096t.144.16.032.128q0 .064-.512.576-.032.032-.08.096t-.096.112l-.08.08-.096.064-.064.032q.352.32.512 1.248.032.128.032.224v.064q0 .128.032.16l.352-.032q.064 0 .608-.064.288-.032.352.16.032.032.032.224v1.312q-.032.096-.16.064-.032 0-.128-.016t-.16-.016q-.192-.032-.704-.032-.096 0-.192-.032-.16-.032-.176-.032t-.016.16v.032l-.064.192q-.096.384-.224.704-.032.16-.128.32l-.048.096-.08.128q0 .032.048.08t.08.048q.16.16.32.304t.224.192.112.096l.112.112q.032.096-.128.256-.192.16-.576.576t-.32.384q-.096.064-.128.128-.064-.032-.128-.128t-.096-.128q-.096-.096-.192-.256-.032-.032-.128-.144t-.128-.144-.064-.16q-.064 0-.144.096t-.112.096q-.064.032-.208.112t-.208.112q-.384.192-1.024.32.064.32.08.784t-.08.528q0 .032-.128.032h-.128q-.064.032-.096.032-.128 0-.656.032t-.56 0zm.64-4q.032 0 .336-.064t.592-.144.352-.112.224-.384.288-.72.128-.464l-.16-.608q-.384-.576-.896-.8-.224-.096-.768-.096-.672 0-.896.32-.512.64-.608 1.248-.096.512.256 1.056.288.448.64.608.416.16.512.16zm3.04 10.144q-.224-.032-.48-.16l-.016-.016-.048-.016h-.032q-.096-.032-.096-.064l.224-.448q0-.032.032-.064l.032-.16q0-.032-.096-.064-.32-.16-.416-.256-.256-.224-.416-.416-.352.32-.384.352-.192.096-.256.064t-.128-.128q-.416-.768-.32-.832.352-.16.48-.24l.128-.08q.032-.032.032-.128-.064-.288-.064-.32-.096-.448-.032-.704-.864-.192-.832-.352.032-.064.064-.144t.032-.112l.096-.352q.032-.032.048-.096t.016-.096l.032-.128q.032.032.128.064l.096.032q.032 0 .112.016t.16.048l.16.064.112.064q.192-.32.416-.544l.352-.32h.032q.064-.032.032-.064 0-.032-.192-.256l-.128-.192q-.128-.224.032-.32 0-.032.144-.112t.304-.208l.064-.016.096-.016.064-.032.032-.032q.096.032.352.672l.032.064.032.096q.064-.064.16-.08t.224-.032.16-.048q.32-.064.448-.032 0-.064.016-.128t.032-.112.048-.128.032-.112l.064-.288q.032-.032.224 0 .032 0 .128.032t.128.064l.48.128q.096 0 .096.016v.08l-.032.16q-.192.608-.192.64l-.032.032q.032 0 .096.064.032 0 .032.032.192.128.384.384l.064.08.096.112q.064.064.112.032t.08-.064q.032 0 .16-.112t.224-.144q.16-.096.256 0 .16.224.256.48.032.16.128.288.064.096.064.128.032.064 0 .096-.032 0-.08.016t-.08.016q-.512.192-.544.256-.032.032 0 .128v.096q.032.544.032.672v.128q.032.032.352.08t.384.048.096.032 0 .032-.032.032q-.128.864-.16.896-.064.128-.64-.064-.032 0-.08-.032t-.08-.016-.352.384-.416.432q.352.416.448.608.032.032-.048.096t-.656.448l-.064.064v.032q-.096.064-.16 0l-.288-.672q-.064-.16-.064-.192-.256.096-.64.128-.16.032-.288.032-.096 0-.096.064l-.128.448v.16q-.032.096-.384.032zm-17.44 1.184q.032 0 .096-.032.032-.032.064-.032.032-.032.096-.048t.096-.016l.32-.256.096-.048.128-.112q.224-.192.288-.224t.16-.128q.064-.032.096-.064.544-.352.608-.416.32-.288.16-.672-.128-.32-.128-.384 0-.16.16-.384.064-.064.256-.24t.256-.304q.32-.512.512-.576.096-.064.208-.08t.24-.048.192-.064q.256-.096.256-.512 0-.16-.064-.416t-.064-.352q-.064-.512.128-.736.096-.128.288-.16h.256q.064-.064-.064-.32 0-.032-.048-.096t-.08-.128-.064-.096q-.064-.16-.016-.288t.144-.256.224-.192q.256-.096.704.032.064.032.192.08t.192.08l.32.128q.064.032.144.08t.112.08h.032l.096.064h.32q.064 0 .256-.016t.288.016q.608 0 .864.256.032.032.224.272t.32.336q.064.032.768.352.352.16.64.544.48.608.224 1.6-.128.416-.672 1.6-.064.16-.192.432t-.224.496T19.2 24q-.256.384-.512.448t-.576-.224q-.096-.064-.256-.224l-.256-.256q-.288-.224-.704-.16-.32.064-.48.064-.192-.032-.512-.096-.8-.16-.992-.192-.544-.064-.928.128-.256.128-.672.48-.768.672-1.472.864-.96.256-1.824 0zm-.736-2.784-.128-.064q-.064-.064-.128-.064-.192-.096-.32-.192-.256-.192-.384-.48-.064-.192.224-.576.128-.16.16-.256.032-.128-.064-.288-.064-.096-.192-.272t-.192-.272q-.16-.256-.192-.416L8 18.784q0-.064-.08-.208t-.08-.208.064-.192q.224-.288.448-.032.064.096.128.128t.096.032l.032-.032q.064-.032.144-.032t.112-.032q.064 0 .32-.16.224-.096.288-.064t.128.192q.032.096.192.608.128.384.192.48l.224.224q.064.128.16.288.288.608.288 1.216 0 .096-.384.128l-.576.064q-.32.064-.32.384 0 .096.032.16 0 .032.032.096t.032.128q0 .16-.192.096zm18.912-.704q.448-.064.64-.16.32-.256.32-.608.032-.192.032-.48 0-.096-.064-.256-.16-.416-.352-.512-.256-.096-.688-.096t-.592.224q-.064.064-.192.288-.096.224-.096.32-.032.128 0 .288t.096.352.304.432.592.208z"/></svg>