<svg xmlns="http://www.w3.org/2000/svg" width="19" height="32"><path d="M17.6 10.624q.96.288.448 2.144-.384 1.504-1.152 4.576-.096.352-.112 1.024t-.064 1.568-.144 1.6q-.096.864-.384 1.456t-.576.88-.528 1.008-.272 1.84q-.032.8-.832 1.296t-1.92.576-2.224-.048-1.904-.48-.8-.768q-.064-.608-.304-1.216t-.704-1.392-.656-1.2q-.768-.8-1.552-1.888t-1.168-1.744-1.056-1.872q-.576-1.056-.576-1.76 0-.512.272-.928t.688-.48q.224-.064.384.032.096.064.288.288l.64.816.96 1.232q.64.864 1.28.864.544-.512.544-1.088-.032-1.152-.304-3.28t-.528-3.696l-.256-1.536q0-.064-.016-.176t.016-.368.144-.464.384-.384.688-.176q1.056 0 1.216 1.472l1.184 7.328q.16-1.92.192-2.848 0-.448.08-2.624t.08-3.584q0-.288.128-.48.224-.384.736-.48.768-.096 1.248.576.192.288.192.896.032 1.152.128 2.72t.096 2.176q.032.096.032 1.216t.032 2.272q.352-1.28.576-2.448t.288-1.792.128-1.328.096-.832q.16-1.28.416-1.664.32-.512.8-.576.384-.064.704.144t.48.496q.192.288.064 1.44-.032.352-.144 1.504t-.192 1.808-.224 1.696-.304 1.904l.112-.192.288-.544.384-.8.432-.992.352-1.024q.608-1.984 1.696-1.696z"/></svg>