<svg xmlns="http://www.w3.org/2000/svg" width="23" height="32"><path d="M15.52 9.568q-.032.256 0 .48-.256.512-.256.544-.832 1.472-2.048 1.664-1.28.192-2.528-.4t-2.144-1.648q-.288-.32-.224-.736-.192-.576-.032-1.12.224-.928 1.184-1.408.512-.256 1.152-.288.448-.128.96-.128.224-.032.416-.032.672-.064 1.216.032.16 0 .32.032 2.336 1.088 1.984 3.008zM6.976 8.32q.192.32.224.736t-.08.896-.24.864-.336.928-.272.768q-.512.64-.88 1.056t-1.024.816-1.2.272q-.16-.032-.352-.096-.416 0-.736-.256t-.32-.736q-.032-.352-.048-1.008t-.048-.944q.32-1.44 1.456-2.48t2.672-1.424q.896.128 1.184.608zM20.8 12.864q1.024 2.112.928 3.072-1.056.864-2.08.704-1.632-.288-3.072-1.728-.576-.608-.752-1.328t-.24-1.904q.064-.736.464-1.344t.528-.768l.16-.16q.384-.32.832-.272t.8.4q1.536 1.44 2.432 3.328zm-6.592 1.632q.32.928-.048 1.936t-1.136 1.808q-.192.352-.384.672-.256.416-.736.464t-.864-.176q-1.856-1.056-3.2-2.656-.8-.928-1.12-1.472-.576-1.568.544-2.24.672-.448 2.336-.064.416.096.992.256.096.032.128.032.096.032.128.032h.096q.864-.48 1.888-.048t1.376 1.456zm-6.112 3.68q.416 1.216.032 2.544t-1.28 2.384q-.352.384-.784.384t-.848-.288Q3.52 21.92 2.4 20.16q-.288-.448-.416-.672t-.4-.736-.352-.848-.096-.768.176-.72q.096-.16.224-.288.128-.416.48-.624t.8-.08q3.2.992 3.296 1.024 1.6.544 1.984 1.728zM20.576 20q.064.8-.032 1.664-.64 1.248-1.792 2.144-.416.288-.848.192t-.752-.448q-1.376-1.6-2.112-3.584-.288-.704-.384-1.088-.064-1.088 0-2.048.032-.128 0-.256.192-.384.752-.512T16.416 16q.96.128 2.24 1.056 1.152.8 1.536 1.504.224.48.384 1.44zm-5.024 4.128q.096.32 0 .608t-.304.496-.496.304q-.672.288-1.376.464t-1.408.272q-.704-.096-1.792-.256-1.152-.544-1.536-1.472-.416-.96-.448-1.12-.032-.224.048-.448t.144-.352.288-.448q.288-.416.48-.64l.096-.096.128-.112.096-.08q.768-.608 1.472-.768.096-.032.16-.032.48-.096.896.032 1.248.288 2.176 1.312t1.376 2.336z"/></svg>