<svg xmlns="http://www.w3.org/2000/svg" width="25" height="32"><path d="M16.928 27.84q-6.336 0-9.68-.096t-4.24-.224-1.216-.384q-.288-.192-.4-.544t-.192-1.92-.08-4.896q0-4.256.128-8.384.064-2.208.128-3.264t.144-1.296.24-.432q.192-.224.464-.304t1.568-.176 3.936-.08 7.536.016h3.296q2.656-.192 3.632.064t1.136.96q.064.352.064 5.824v2.752l-.016 4.304-.064 4.656-.112 2.176q-.256.896-1.072 1.072t-3.536.176h-1.664zm1.536-17.024q1.632-.032 2.976-.064 0-2.048-.032-2.976-.992-.096-2.72.032h-.096q-.064 1.536-.128 3.008zm-7.2.096q0-1.408.032-3.136-1.92 0-3.328.032.096 1.568.16 3.04 1.952 0 2.816.064h.32zm1.952 0q1.344 0 3.296-.032.064-1.504.128-3.072h-3.392q-.032 1.408-.032 3.104zM3.2 10.848q1.6-.032 2.976-.032-.096-1.504-.16-3.008-1.856.032-2.656.096-.064.928-.16 2.944zm18.24 5.088v-3.232q-1.472.032-3.04.064-.064 1.856-.096 3.072 1.248.064 3.136.096zm-18.336-.064q1.696 0 3.296-.032-.064-1.408-.128-3.04-1.536-.032-3.104 0-.032 1.472-.064 3.072zm5.248-.064h2.88q0-1.056.032-2.944h-.416q-.8-.064-2.624-.064.064 1.632.128 3.008zm8 0q.032-1.216.096-2.976-1.888.032-3.232.032-.032 1.632-.032 2.912h2.976q.064 0 .192.032zm-3.072 5.216q.64 0 .896-.032h2.272q-.064-2.432-.096-2.88-.032-.096-.032-.352-.128 0-.256-.032h-2.848q0 1.088.064 3.296zm-1.952-.032q-.064-2.112-.096-3.232-1.184 0-2.816.032.032 1.248.032 2.08 0 .672-.032 1.088 1.792.032 2.912.032zm-4.864-.032q.064-.768 0-3.168-1.856.032-3.392.032v3.072q1.632.032 3.392.064zm14.944.128q0-1.568.032-3.2-1.664-.032-3.168-.064v.096q.064.512.128 3.104 1.44.032 3.008.064zM6.272 25.792q0-1.6.064-2.88-1.536-.032-3.232-.064.032 1.888.096 2.752.864.096 3.072.192zm5.216.064q-.064-1.504-.096-2.912-1.248 0-3.104-.032-.064 1.312-.032 2.912 1.408.032 3.232.032zm5.056.032-.064-2.944h-2.208q-.256.032-.928.032.032 1.376.096 2.912h3.104zm2.048 0q2.272 0 2.72-.064.032-.736.064-2.784-1.536-.032-2.912-.064 0 1.312.032 2.912h.096z"/></svg>