<svg xmlns="http://www.w3.org/2000/svg" width="23" height="32"><path d="m21.984 16.032.288.096q-.032.096-.048.224t-.112.592-.208.944-.288 1.2-.4 1.408-.512 1.52-.608 1.6-.752 1.584-.88 1.552H4.576q-.096-.096-.256-.272t-.624-.992-.88-1.952-.896-3.312-.8-4.864q0-.128.128-.16t.16.096q.288.704.608 1.328t.832 1.328.752 1.04.96 1.184.848 1.008q-.672-4.8-.96-11.008-.032-.128.112-.144t.176.112q1.28 3.424 3.424 8.928.448-4.032 1.056-7.216t.992-4.336l.384-1.152q.032-.128.16-.112t.128.144q-.032 2.048.464 6.048t.56 5.024q.48-2.208 1.072-4.16t1.12-3.152.992-2.08.752-1.264l.256-.352q.032-.128.176-.112t.144.144q-.192 7.616-.448 10.72.352-.608.736-1.232t.688-1.136.608-.992.544-.832.416-.624.272-.4l.096-.16q.032-.096.16-.064t.128.16l-2.048 9.344q3.008-3.2 4.416-5.248z"/></svg>