<svg xmlns="http://www.w3.org/2000/svg" width="25" height="32"><path d="M9.12 11.84q1.728 0 3.248-.864T14.8 8.624t.912-3.216q0 1.728.912 3.216t2.464 2.352 3.28.864q-1.152 0-2.272.416-1.888.672-3.104 2.352t-1.216 3.664q-.096-1.312-.416-2.176-.384-.96-1.024-1.744t-1.456-1.344-1.792-.864-1.968-.304zm10.272-2.048q-.96-.608-1.6-1.536-.736-1.056-.896-2.272.096-.032 1.504-.256l.544-.096q.032 0 .096-.032t.128-.032h.16l.016.032.032.096.032.128.016.096q.032.16.08.384t.096.384.096.384.08.384l.608 2.848q-.512-.192-.992-.512zm4.32 15.744q.032.128.016.16t-.112.032l-.56.144-.816.176q-.192.064-.416.096t-.48.08-.384.08l-6.976 1.376-6.016 1.216q-.416.064-1.568.256l-.928.128q-.032 0-.144.032t-.192.048-.112-.016l-.128-.48-.192-.96q-.096-.416-.704-3.52l-1.44-7.456-1.184-6.144-.112-.544q-.08-.384-.112-.576-.128-.608.32-.736.736-.192 1.056-.256.064 0 .128-.016t.144-.032.144-.016l11.488-2.144q-.064.256-.16.512-.16.544-.448 1.024-.096.128-.16.256-.096.128-.448.192-1.216.256-2.624.544-2.176.448-4.928 1.056-.896.192-1.632.352l-.448.096h-.032q-.128 0-.128.032l.064.256.128.768.512 2.592 1.312 6.784.512 2.592.16.8v.064q.032.192.064.224l.288-.064.8-.128 9.44-1.664q2.464-.416 3.648-.672.224-.032.224-.064l-.064-.416q-.192-.96-.384-1.888-.256-1.472-.544-2.88-.16-.736-.32-1.568-.064-.288-.192-.896-.032-.224.032-.288.224-.224.96-.576.48-.192.96-.32l.256 1.248 1.216 5.504.736 3.456.288 1.312zM8.096 12.16q0 .96.704 1.632t1.664.672q-.928 0-1.648.672t-.72 1.632q0-.64-.336-1.168t-.88-.832-1.152-.304q.96 0 1.664-.672t.704-1.632zM12 21.888q-.032-1.44-1.088-2.432t-2.464-.992q.704 0 1.344-.288t1.12-.736.768-1.088.288-1.344q0 1.408 1.056 2.432t2.496 1.024q-1.408 0-2.464 1.008T12 21.888z"/></svg>