<svg xmlns="http://www.w3.org/2000/svg" width="23" height="32"><path d="M17.28 9.472q2.816 2.016 3.936 5.392t-.064 6.704q-.704 1.984-2.224 3.552t-3.536 2.464q-2.56 1.088-5.248.768-.16.512-.512.928-.416.48-.896.608-.512.128-1.408-.224-1.408-.544-1.792-1.312-.352-.736-.032-1.76-2.272-1.632-3.456-4.224-.864-1.984-.912-4.144t.752-4.112Q3.2 10.88 6.24 9.136t6.432-1.392q.064-.32.224-.64.352-.736.832-.96.32-.16.864-.128 1.376.096 2.272 1.184t.416 2.272zm1.92 11.392q.448-1.216.48-2.576t-.336-2.672-1.168-2.512-1.952-2.032q-.288.288-.64.352-.352.096-.864-.032-.352.992-.88 2.416t-.928 2.48-.432 1.184q-.032.032-.064.096.64.512.192.832-.16.096-.384.096-.256 0-.704-.192-.704-.256-.96-.512-.288-.32-.096-.64.096-.192.32-.224l.08.016.144.016.08-.016.896-2.4 1.392-3.76q-.512-.32-.704-.768-.096-.128-.128-.352-2.784-.288-5.248 1.28T3.84 14.912q-.64 1.568-.592 3.296T4 21.568q.896 1.984 2.624 3.264.16-.192.32-.256.32-.16.8-.128.192.032.448.096l1.12-3.008 1.376.512-1.184 3.168q.544.448.736 1.056 2.24.32 4.32-.608 1.632-.704 2.848-1.952t1.792-2.848zm-4.16-4.544q.544.288 1.312.832.864.576 1.184.928.448.512.672 1.088.256.736 0 1.312-.256.64-1.024.96-.448.192-1.376.256-1.472.16-2.688 0-1.056-.128-2.144-.528t-1.648-.704-1.424-.848q-.224-.096-.56-.304t-1.152-.96-1.328-1.648q-.288-.512-.256-.864 0-.64.672-1.024.384-.256 1.184-.384t1.504-.128q.032.064.448.048t.48-.016q.48.032.96.128.864.128 1.312.256l-.704 1.92q-.544 0-.768.448-.288.512.16.992.384.384 1.504.832.704.256 1.088.256.352.032.576-.16.32-.192.384-.592t-.256-.752l.704-1.92q.576.256 1.184.576z"/></svg>