<svg xmlns="http://www.w3.org/2000/svg" width="26" height="32"><path d="M24.416 15.424q.384 1.984.16 3.936-.288 1.92-1.248 3.776-.64 1.248-2.048 3.232-.64.864-1.92 2.528-.352.48-.8.128-.512-.352-.16-.832l1.76-2.592q1.152-1.664 1.888-3.104.8-1.696 1.024-3.328.032-.16.112-.672t.096-.752.064-.656.032-.752-.08-.656q-.608-3.168-3.84-5.824-1.408-1.152-3.184-1.872t-3.44-.72q-2.976-.032-6.24 2.432-2.816 2.144-3.68 5.632-.448 1.696-.288 3.424.096 1.792.8 3.328.192.448 1.728 3.2.256.48.768 1.392t.768 1.36q.288.512-.224.8l-.032.032q-.448.288-.8-.16-.992-1.472-1.76-2.656-1.408-2.144-1.952-3.264-1.44-2.976-.224-7.776 1.152-4.704 3.872-6.688Q8.8 5.888 13.056 5.952q4.16.064 7.36 2.752 3.2 2.656 4 6.72zM20.512 24q-.384.704-.96 1.504-.544.864-1.696 2.528-.384.512-.512.64-.704.544-1.664.128-.864-.384-1.408-1.408-.352-.512-.256-.96.064-.288.192-.48.448-.96.96-1.696.128-.192.4-.56t.4-.56q.416-.832.512-.992.192-.352.64-.992.128-.16.4-.512t.4-.544q.608-.8 1.024-.928.704-.16 1.536.448.768.544 1.056 1.184.16.352.224.768 0 .352-.096.64-.032.064-.416.544-.16.224-.416.672t-.32.576zm-9.408 1.952q.288.544.32.736.192.896-.672 1.536-.672.544-1.888.608-.64 0-.992-.256-.16-.096-.352-.384-.832-1.312-1.024-1.664-.384-.832-.608-1.216-.064-.096-.64-.928-.224-.32-.544-1.024-.096-.192-.288-.608t-.288-.608q-.448-.8-.32-1.344.192-.672 1.088-1.12.8-.416 1.568-.384.384 0 .8.16.288.16.512.416.032.032.288.608.16.352.736 1.216.416.704.896 1.568.224.448.688 1.344t.72 1.344z"/></svg>