<svg xmlns="http://www.w3.org/2000/svg" width="21" height="32"><path d="M17.696 25.248q-.096 0-.224-.128-3.872-4.096-3.968-4.192-.288-.288-.768-.864t-.608-.736q-.224-.256-.48-.512-.384.288-.608.544-.032.448-.032 1.536v1.76q0 1.216-.032 1.792 0 .224-.048.336t-.16.176-.336.064-.64.016-.656.016-.592-.016-.576-.016q-.288 0-.352-.096t-.064-.416v-2.848q0-.832-.032-2.272t-.032-2.08q0-.32.016-.944t.016-.912q-.032-1.568-.032-4.672 0-.192.032-.928t.032-1.12q0-.256.256-.256 1.216-.096 1.728-.064h1.024q.32 0 .352.416.064.608.16 3.168.032.352.032.992t.032.992v1.248h.128q1.536-1.824 1.568-1.824.384-.512 1.216-1.472t1.056-1.216q.16-.192.4-.448T16 9.76t.416-.448q.16-.128.448-.384t.416-.416q.192-.192.32-.192t.352.256q.928 1.024 1.152 1.312.192.224.192.448 0 .128-.064.256-.064.096-.704.928-.096.096-2.752 3.168l-1.856 2.176q.288.288.848.832t.816.832l3.328 3.264.96.96q.096.096.096.192t-.128.224q-1.152 1.152-1.856 1.888-.192.192-.288.192zm-13.344-.096q-1.632 0-2.432-.032-.384-.032-.464-.128t-.08-.48q0-.672-.032-1.968t-.064-1.968v-2.4q0-2.88-.064-4.32L1.12 8.928q0-.352.416-.352 1.024.032 3.04.032.352 0 .384.416.128 2.304.128 2.816.064 4.16.064 8.608v4.416q0 .256-.224.256z"/></svg>