<svg xmlns="http://www.w3.org/2000/svg" width="32" height="32"><path d="M4.896 24q0 .608.096.704t.64.096h2.112q.672-.032.672-1.312 0-2.848-.032-4.48V15.2q0-.672-.016-1.952t-.016-1.92V8.64l-.048-.24-.064-.144-.128-.096-.208-.048-.32-.016h-.928q-.32 0-.768.032t-.768.032q-.416 0-.704.256-.192.16-2.912 2.24l-.256.256q-.128.128-.128.256 0 .16.064.256l1.472 2.4q.192.352.352.352.192 0 .48-.224L4.8 12.864v1.12q0 .704.016 2.016t.016 2.016q0 1.664.064 5.984zm16.704.096q0 .608.096.704t.672.096h2.08q.672-.064.672-1.344 0-2.816-.032-4.48v-3.808q0-.64-.016-1.92t-.016-1.92v-2.72q-.032-.32-.176-.432t-.592-.112q-.416 0-.928.032-.32 0-.768.016t-.768.016q-.416 0-.704.288-.192.128-2.912 2.24l-.256.256q-.128.128-.128.256t.064.256l1.472 2.4q.192.352.352.352.192 0 .512-.256.16-.16 1.28-1.056v1.12q0 .704.016 2t.016 2.032q0 1.664.064 5.984zm-7.776-9.088q-.64 0-1.056-.224-.544-.224-.848-.752t-.304-1.136v-.064q.064-.576.384-1.12.384-.672 1.44-.8 1.184-.128 1.792.448t.608 1.824q0 .576-.288 1.024-.16.288-.32.384-.416.288-1.056.384-.064.032-.352.032zm0 7.264q-.64 0-1.056-.224-.544-.224-.848-.752t-.304-1.136v-.064q.064-.576.384-1.12.384-.672 1.44-.768 1.184-.16 1.792.416t.608 1.824q0 .576-.288 1.024-.16.288-.32.384-.416.288-1.056.416h-.352z"/></svg>