<svg xmlns="http://www.w3.org/2000/svg" width="18" height="32"><path d="M2.464 9.184q.096-.256.32-.704t.528-.928.624-.896.544-.544q.096-.032.224-.112l.256-.16.224-.112q.064-.032.48-.272t.64-.304q.448-.192.96-.32 1.44-.256 2.56-.192.512.064.768.16.864.224 1.248.48.096.064.416.304t.624.464.4.288q.128.064.304.272t.208.272q.896 1.056.992 2.272-.32.128-1.728.512-.064-.224-.4-.8t-.528-.768q-.64-.64-1.136-.928t-1.296-.416q-.736-.096-1.168-.048t-1.488.368q-.352.096-.64.272t-.432.32-.336.352-.288.304q-.448.384-.864 1.408 0 .064-.384-.048T3.2 9.392t-.736-.208zm3.2 1.6q.48-1.568.608-1.76.768-.96 2.272-.832.64.064 1.28.32.512.192.896.64t.544.96q0 .064.112.32t.112.416v.16q-1.024.16-1.248.224-.032 0-.176.016t-.24-.016q-.032 0-.032-.064v-.176l-.032-.24-.112-.272-.208-.256-.336-.208-.496-.096q-.64-.064-.976.256t-.368.64l-.032.352q-.832-.128-.992-.128-.128-.032-.272-.096t-.24-.128zm2.976 1.728q3.264.224 5.664 2.288t2.944 5.232q.128 3.2-1.392 5.44t-4.4 2.784q-.096.032-.8.208t-.896.176q-2.304.16-4.32-1.232t-3.2-3.536q-.128-.192-.32-.544l-.288-.528-.224-.464-.192-.576-.096-.64q-.128-2.208 1.44-4.768 1.12-1.792 2.672-2.864t3.408-.976zm5.824 6.304q.096-.448-.512-1.184t-1.696-1.472q-1.184-.8-2.432-.896-.768-.096-.928.192-.064.096.096.512.128.256.336.352t.672.224.944.384q.128.064.272.144t.208.112l.128.064q.512.288 1.248.832t1.12.752.544-.016z"/></svg>