<svg xmlns="http://www.w3.org/2000/svg" width="26" height="32"><path d="M7.296 7.68q2.496.32 4.208 2.016t1.968 4.128q-.096 2.432-1.36 4.064t-3.504 1.92q-.064 0-.608.096T7.296 20q-1.76 0-3.216-1.168t-2.256-2.864l-.256-.512-.24-.528-.128-.448-.08-.656q0-1.696 1.344-3.552.96-1.312 2.192-2.048t2.64-.544zm4.096 4.992q.128-.352-.304-.944t-1.232-1.2q-.864-.672-1.792-.832-.576-.096-.736.096-.032.064.064.416.064.192.224.272t.512.208.672.352l.448.256q.384.256.912.704t.816.624.416.048zm9.216 3.808.032 1.568v.48l-.064.576-.064.832h-1.44l-.064-.512-.064-.32v-.544l-2.976 3.904-.32.416-1.44-1.184-.256-.224-.288-.256-.64-.608-.896-.832.928-1.12.672.48.416.288.192.16.16.128.896.768.256-.288 2.304-2.816-1.472-.064v-1.408l4.128-.096v.672zM3.136 23.456h-.8q-.352.032-.544.064t-.432.208-.24.464q0 .32.224.496t.416.208.544.032q.672.032 1.536.128.448.064.976.16t1.12.208.976.176q1.12.192 2.4.288 1.248.096 2.4.096 1.12 0 2.4-.032 1.184-.032 3.904-.224 1.824-.128 2.4-.096 1.6.032 2.048 0 .64-.064 1.152-.224.352-.096.576-.224.672-.352.432-.944t-.976-.368q-.48.16-.736.16-.416.064-.992 0-.288 0-.72-.048t-.832-.096-.72-.08q-.64 0-4.192.032h-2.528q-2.208.032-2.304.032-1.408 0-2.144-.032-.64-.032-2.848-.256-1.568-.128-2.496-.128z"/></svg>