<svg xmlns="http://www.w3.org/2000/svg" width="27" height="32"><path d="M3.168 23.328q-1.824-3.232-1.984-5.984-.224-2.272.512-4.496t2.24-4.032 3.52-2.96l.256-.16q3.264-1.28 6.816-1.248 4.576 0 8.256 4.928 4.16 5.632 3.008 10.368-.64 2.752-2.56 4.752T18.4 28.16q-2.944 1.728-6.144 1.568-1.856-.064-2.912-.544-2.592-1.312-5.056-4.16-.192-.224-1.12-1.696zm10.24-11.584q.672 0 1.088-.128.448-.128.784-.416t.48-.656.144-.784q0-.832-.672-1.504-.544-.544-1.408-.544-1.184 0-1.712.672t-.528 1.568q0 .256.112.528t.288.496.4.4.496.272.528.096zm.544 12.928q1.44 0 2.352-.864t.912-2.752q-.16-.288-.672 0-1.216.608-1.696.608-.672 0-.8-1.312l.992-5.984q0-.384-.448-.384-.416 0-.784-.016t-.496-.016q-.672 0-1.44.064-.224 0-.352.656t-.768 4.592q-.064.288-.096.464t-.064.448-.096.528q0 1.12.352 2.176.608 1.792 3.104 1.792z"/></svg>