<svg xmlns="http://www.w3.org/2000/svg" width="25" height="32"><path d="M13.472 9.984q.416 0 .752-.256t.432-.64q.096-.48-.16-.912t-.736-.528q-.64-.16-1.312-.256l-.288-.032q-.48-.032-.864.288t-.432.816.272.864.8.432h.224q.512.096 1.056.192.128.032.256.032zm-5.952.992q.352 0 .64-.192.448-.288.896-.496t.624-.672-.032-.912-.672-.624-.912.016q-.608.288-1.184.672-.416.288-.528.768t.176.896q.352.544.992.544zm10.272.992q.608 0 .992-.48.288-.416.208-.896t-.496-.8q-.512-.384-1.088-.704-.416-.256-.896-.128t-.736.56-.128.912.544.736q.48.256.896.576.32.224.704.224zm-13.6 2.4q.608 0 .992-.512.096-.192.224-.352.192-.288.416-.544.32-.384.272-.88t-.448-.8-.88-.256-.8.432q-.256.32-.512.672-.128.16-.256.352-.288.416-.192.912t.512.752q.288.224.672.224zm8.096 11.008q.256 0 .992-.128.288-.064.32-.064 2.496-.288 4-2.176 1.344-1.76 1.44-4.32v-.192q-.288-2.592-2.144-4.416-1.824-1.824-4.448-2.176-1.504-.192-2.928.544T7.008 14.72q-1.44 2.016-1.44 3.904 0 .96.544 2.08.128.224.192.352.832 1.792 2.304 2.944 1.696 1.376 3.68 1.376zm8.672-9.856q.32 0 .608-.16.416-.256.56-.736t-.112-.896q-.32-.576-.704-1.12-.32-.416-.8-.496t-.88.208-.48.784.208.912q.32.416.576.896.352.608 1.024.608zm-9.12-1.248h.32q1.792.256 3.024 1.472t1.456 2.944q-.096 1.728-.928 2.848-.864 1.088-2.368 1.28-.128 0-.48.064-.48.096-.576.096-.992 0-2.064-.72T8.48 20.064q-.064-.16-.224-.416-.288-.64-.288-1.024 0-1.12.96-2.496 1.344-1.856 2.912-1.856zM2.304 18.72q.448 0 .784-.288t.4-.736q.096-.512.224-.992.16-.48-.08-.912t-.72-.576-.912.096-.56.688q-.224.672-.32 1.344-.064.512.24.896t.784.48h.16zm20.064 1.312q.48 0 .816-.32t.368-.8v-.384q-.064-.544-.16-1.088-.096-.512-.512-.784t-.896-.176-.752.512-.176.896q.064.384.096.8v.096q0 .512.32.864t.832.384h.064zm-19.04 3.264q.288 0 .512-.128.448-.192.624-.672t-.048-.928q-.096-.256-.32-.672l-.192-.384q-.224-.448-.688-.624t-.912.048-.608.688.032.912q.096.16.224.448.224.416.32.608.32.704 1.056.704zm17.952 1.376q.736 0 1.088-.704.256-.576.48-1.216.16-.48-.064-.928t-.688-.608-.912.064-.608.704q-.16.512-.384.992-.224.448-.048.912t.624.656q.224.128.512.128zm-15.2 2.496q.512 0 .864-.352t.336-.848-.368-.848q-.384-.352-.736-.8-.32-.352-.816-.4t-.88.272-.416.816.288.88q.416.512.896.96.352.32.832.32zm12.128 1.088q.352 0 .64-.192.576-.384 1.088-.832.384-.32.416-.816t-.304-.864-.832-.4-.848.288q-.384.352-.8.608-.416.288-.528.768t.176.896q.352.544.992.544zM10.144 29.6q.384 0 .72-.24t.432-.624q.128-.48-.112-.912t-.72-.56-.96-.352q-.448-.192-.912-.016t-.672.624-.016.912.64.656q.64.288 1.28.48.16.032.32.032zm3.552.096h.192q.576-.096.672-.128l.512-.064q.48-.064.768-.48t.208-.896-.48-.768-.88-.224l-.384.064-.832.128q-.48.096-.768.496t-.192.912q.064.416.4.688t.784.272z"/></svg>