<svg xmlns="http://www.w3.org/2000/svg" width="27" height="32"><path d="M13.216 29.536q-1.504-.288-2.56-1.664-.032-.064-.288-.416t-.32-.544q-.384-1.056-.192-2.144.288-1.824 1.824-2.752.032-.032.224-.144t.256-.144q.288-.16 1.344-.416.352-.768 1.088-2.304t.8-1.664q.096-.192.288-.656t.256-.656q-1.12-1.216-1.44-2.944-.576-.224-1.28-.384-3.776-.672-4.672-.896-.704.864-2.08 1.216-.16.096-.448.096-.8.128-1.376 0-1.248-.224-2.128-1.056T1.28 10.08q-.256-.8-.096-1.888.224-1.248 1.216-2.304.288-.256.704-.48 1.536-.96 3.04-.704 1.152.224 2.016.992t1.216 1.76q4.032.8 4.896 1.024.224.032.704.144t.768.176q.064-.16.192-.288.896-.864 2.064-1.456t2.128-.56q1.056 0 2.112.416l1.152.672q.064.064.928 1.088.48.64 1.12 2.016.256.736.16 1.408 0 .832-.64 2.848-.224.48-.832 1.216-.512.576-1.568 1.056-1.472.704-2.528.704l-.608 1.28q-.064.16-.768 1.84t-1.088 2.416q.064.128.192.352t.224.4.16.368q.096.608-.128 1.6-.288 1.248-.928 1.952-.064.064-.256.192t-.256.224q-1.536 1.28-3.36.992zm6.528-14.208q.928.224 1.968-.56t1.296-1.456q.416-.992-.176-2.448t-1.936-1.68q-1.44-.224-2.624.624t-1.024 2.16q.16 1.728.704 2.384t1.792.976z"/></svg>