<svg xmlns="http://www.w3.org/2000/svg" width="25" height="32"><path d="M11.424 19.424q-.48 0-.96-.032-1.344-.064-2.32-.368t-1.552-1.136q-.576-.8-.672-2.112-.032-.352-.064-1.072T5.792 13.6q-.064-.256-.032-1.136t.032-1.152.08-1.152.08-1.168q.128-1.408.384-1.952.544-1.024 1.728-1.152.448-.032 2.336-.064 1.664-.032 2.24 0 .448.032 1.232.128t1.04.096q.736.064 1.184.064l1.024.032q.48.064.928.416.256.224.352.352.064.128.16.448.224.736.384 2.208.224 2.304.16 4.672 0 1.312-.128 2.272-.096.672-.224 1.12-.192.64-.416.896-.608.608-2.048.64-1.408.032-2.016.096-.096-.608-.224-1.008t-.288-.56q-.384-.352-1.12-.352-.768.032-1.024.48-.096.16-.16.608-.032.416-.032.992zm2.4 8.736q-3.168.032-5.984-.128-2.944-.16-4.224-.448-.352-.096-.512-.16-.256-.096-.48-.448-1.056-1.408-1.312-3.776-.384-3.616 0-8.448.192-2.24.512-4.128.16-.96.352-1.76.032-.064.064-.208t.048-.24.064-.224.096-.224.112-.192.16-.16q.544-.352 2.016-.608-.16.544-.288 2.08-.16 2.176-.192 2.304-.064 1.248 0 2.272.032.352.08 1.056t.048 1.056q.16 2.464 1.664 3.776 1.312 1.12 4.032 1.344.544.032 1.152.032h.224q.064.032.08.048t.016.08l.032.064q.032.288.096.512.192.704.768.832.608.16 1.248-.128.608-.256.704-.928.032-.192.032-.448v-.192q.032-.032.096-.032h.224q.48-.064 1.12-.064 1.408.032 2.176-.256 1.088-.384 1.632-1.184.48-.672.704-1.984.288-1.76.256-4.544-.064-2.624-.352-4.544l-.224-1.12q.64.128.608.128.864.192 1.424.56t.784 1.168q.288 1.12.544 3.136.544 4.064.608 8.672.064 3.008-.384 4.416-.256.768-.672 1.536-.224.448-.352.544-.256.224-1.12.416-.8.16-2.016.288-2.304.224-5.664.256zm1.984-14.816q.256-.448.288-.544.384-1.088.32-1.984-.032-.32-.32-.832-.416-.864-1.312-1.376-1.92-1.12-3.36-.672-1.44.416-2.272 2.368-.736 1.696-.064 2.944.544.928 1.376 1.6l.064.032q.928.544 2.048.528t1.952-.624q.704-.448 1.28-1.44zm-3.968.48q-.064.032-.976-.816t-.944-.912q0-.096.352-.448t.416-.352.32.24.48.496l.224.224 2.688-2.72.864.8q-3.36 3.488-3.424 3.488z"/></svg>