<svg xmlns="http://www.w3.org/2000/svg" width="29" height="32"><path d="M20.096 29.888q.064-1.664.064-2.496 0-.448-.064-1.456t-.064-1.52q.192-4.16.32-8.384 0-.928-.032-3.344t.032-3.376q0-.8.256-4.928 2.464 0 4.896-.096 1.568.064 2.272.128 0 .672.032 2.784t0 3.264q0 .576-.032 1.552t-.048 1.792-.016 1.552q.032.96.032 4.528t.128 5.52q.064.96.064 1.44-.064 1.12-.032 1.632v.224l.064 1.024q-1.088 0-3.296.08t-3.328.08h-1.248zm-13.728-1.28-3.552-1.76 2.08-4.192q.32-.672.992-.96l1.984-.864-.064-1.92v-.128l-.288.256q-.512.416-1.152.416t-1.12-.352l-4.128-3.2 2.208-2.848 2.976 2.272 1.504-1.28q-1.056-.576-1.68-1.616t-.624-2.256.592-2.24T7.712 6.32t2.24-.592q1.856 0 3.152 1.296t1.296 3.152q0 1.28-.672 2.336t-1.76 1.632l1.888 1.376 2.56-2.72 2.624 2.496-3.68 3.84q-.512.576-1.28.576-.608 0-1.088-.352l-1.216-.896v.384l.032 1.408 2.592 1.216q.544.288.832.8l2.464 4.224-3.424 1.984-2.144-3.68-1.6-.8-2.4 1.056zm15.488-.32q.704-.096 2.032-.08t2-.048h.288q0-.736-.016-2.144t-.016-2.112q-.128-6.272-.16-9.44 0-.736.096-2.848t.064-3.264q0-.416-.032-1.232t-.032-1.2v-.032q-.096 0-.288-.016t-.256-.016q-.608.032-1.648.048t-1.392.016h-.256q-.064 1.312-.064 1.824h.256q.736-.064 1.536 0h.32q.128 0 .128.032t.016.112.016.112q0 .512-.032.736.032.064 0 .096h-.896q-.832-.064-1.248-.032-.096.032-.16.032-.032.672-.032 1.824h2.176q.096.032.128.032v.992q0 .064-.032.064h-.096q0 .032-.416.032l-.416-.032H22.08V13.6h.32q.736-.032 1.536 0 .064.032.16.032h.16q.128 0 .128.032v.192q0 .096.016.24t.016.256-.032.208v.16l-.128.032q-.544 0-.832-.032H22.08v.064q0 1.088-.032 1.728l.256-.032q1.056 0 1.568.032h.32q.128 0 .128.096v.192q0 .096.016.24t.016.256-.032.24v.096h-.96q-.832-.064-1.248-.032h-.128l-.064 1.088-.032.768h2.368q.096 0 .128.032v.992q0 .064-.032.064h-.928l-.608-.016-.608.016h-.352q0 .32-.016.928t-.016.96q.064 0 .256-.016t.32-.016q.736-.064 1.536 0h.16l.16.032q.128 0 .128.032v.224q0 .064.016.208t.016.272-.032.224v.096h-2.592v1.856q.288 0 .512-.032 1.056 0 1.568.032h.32q.128 0 .128.032v1.056h-.96q-.96-.064-1.248-.032h-.256v1.888z"/></svg>