<svg xmlns="http://www.w3.org/2000/svg" width="26" height="32"><path d="M12.352 12.512q-1.056 0-1.808-.896t-.752-2.144q0-1.472.528-2.272t2.032-.8q1.248 0 1.92.624t.672 2.448q0 .8-.352 1.504t-.944 1.12-1.296.416zm3.584 4.864q1.088 1.472 1.76 3.392.064.128.048.272t-.08.272-.16.224-.256.16q-.128.032-.256.032-.512 0-.672-.48-.512-1.44-1.472-2.88l-.512-.224q-1.12.64-2.4.64l-.512 1.408q0 .032-.032.096-.288.608-1.44 1.952-.224.256-.576.256-.256 0-.448-.192-.256-.192-.272-.496t.176-.528q.896-1.056 1.248-1.632l.448-1.28-.032-.032q-.992-.896-.448-3.488h.064q.608-.128.736-.768.032-.288-.048-.496t-.304-.368q0-.032.016-.112t.048-.112q.096-.032.272-.064t.736-.112.992-.112 1.04-.064.928.032q.032.096.064.224.224-.096.832-.192.096-.032.416-.096l.56-.112.56-.064.512.016q.128-.16.448-.448.16-.128.432-.336t.384-.288.288-.192.304-.144.256-.032q-.032.16-.048.288t-.08.256-.08.208-.096.192-.112.16-.128.16-.128.128-.16.144l-.16.16q-.544.512-.768.608-.128.096-.304.176t-.368.144-.432.112-.4.064-.4.048-.304.064q-.48.064-.672.064.544 1.952.352 2.976l.352.16q.192.064.288.256zm-9.856-4.16-.144-.144-.144-.128-.128-.112-.112-.144-.096-.144-.112-.16-.08-.16-.08-.192-.064-.224-.032-.288q.096 0 .224.032t.224.08.256.16.272.192.32.24.368.288q.32.288.448.448.256-.032.64 0t.864.128.544.128q.448.064.64.112t.368.224.144.464q-.064.416-.448.48t-.896-.064q-.064 0-.368-.048t-.512-.08-.48-.096-.496-.16-.352-.224q-.224-.096-.768-.608zm-4.96 12.64q.096-.896.464-1.936t1.056-2.24 1.92-2.224 2.8-1.536v1.92q-1.216.32-2.224 1.408t-1.52 2.304-.64 2.304q0 .064-.48.08t-.944-.016-.432-.064zm23.936-3.424q.032.064-.256 1.696-.064.384-.176.992t-.208.768q-.064.16-.448.096-.128 0-.32-.032-.064-.032-.24-.048t-.384-.032-.48-.064-.496-.08l-1.344-.256-.064-.256q.16-.832.192-.96.032-.064.144-.08t.24.016l.096.032.768.16q-.256-1.664-1.312-2.96t-2.304-1.616q-.064-.032-.08-.416t.016-.768.064-.352q.992.256 1.712.656t1.2 1.04.768 1.12.672 1.376.64 1.344q.032-.256.048-.688t.048-.688.128-.288q.096-.064.608.064t.544.128z"/></svg>