<svg xmlns="http://www.w3.org/2000/svg" width="27" height="32"><path d="M8.288 10.624q.416.096.624.464t.08.752q-.064.352-.336.56t-.624.208q-.128 0-.256-.032-.16-.064-.352-.096 0 .032-.016.048l-.016.016q-.352.448-1.232 1.536t-1.232 1.568q-.064.032-.112.112t-.08.112l-.144.144-.064.032-.08.016q-.064 0-.128-.032t-.096-.064-.112-.128T4 15.68q-.288-.352-.624-.784t-.624-.848-.528-.768-.4-.592-.192-.24q-.512-.64-.512-.768 0-.064.032-.096.096-.16.448-.64t1.232-1.568 1.232-1.504q.032-.064.096-.16.224-.288.384-.288.064 0 .112.032t.08.064.112.128.144.192q.768.864 1.952 2.592h.128q.512 0 1.216.192zm4.224 2.752q.288.32.24.736t-.368.672q-.256.256-.64.256-.448 0-.768-.384-.288-.32-.608-.64-.288-.288-.304-.704t.272-.704.704-.304.704.272q.416.352.768.8zm2.176 4.416q.096.384-.112.752t-.592.464q-.128.032-.256.032-.352 0-.624-.208t-.368-.528q-.128-.48-.256-.896-.096-.256-.048-.512t.224-.464.432-.304q.384-.128.768.048t.512.592q.16.48.32 1.024zm10.56 5.12q.544.672.512.768-.032.192-.48.736-.352.48-1.216 1.552t-1.216 1.552q-.064.032-.128.112t-.08.112-.064.08-.08.064l-.064.032-.096.016-.112-.032-.08-.064-.112-.128-.144-.16q-.832-.992-2.176-3.008-.448-.032-.8-.128-.416-.096-.64-.448t-.128-.752.448-.624.768-.128q.064 0 .208.032t.176.032q.224-.288.544-.688t.592-.736.576-.72.528-.64q.032-.064.096-.144t.08-.112.064-.08.08-.064l.064-.032.096-.016.112.032.08.08.112.144.144.16q.288.32.624.752t.624.848.528.768.4.592zm-9.152-2.464q.288.352.608.64t.352.704-.256.704q-.288.352-.736.352-.384 0-.672-.256-.416-.384-.8-.832-.288-.288-.256-.704t.352-.688.736-.24.672.32z"/></svg>