<svg xmlns="http://www.w3.org/2000/svg" width="29" height="32"><path d="m14.784 30.688-6.912-3.392-6.144-2.752q-.064.032-.096-.064-.064-.16.096-.224.32-.16.72-.352t.848-.448.704-.384q.672-.352 1.216-.608.256-.128.48-.224.288-.16.544-.256.16-.064.288-.128.576-.224 1.472-.576l.288-.096-6.72-3.456-.064-.064.064-.064q.416-.128.848-.32t.944-.464.8-.4q.864-.384 1.6-.704.832-.352 1.376-.576.192-.096.608-.256.32-.128.704-.288.416-.16.64-.256l-7.872-3.488q-.16-.064-.032-.16l10.112-3.84 3.776-1.728q.16-.032.768.192.288.096.784.352t.784.384q.384.16.736.288.352.16.608.288.224.096.544.256.352.192.8.416.16.064 1.6.864.32.16.352.192.672.352 1.12.576.32.16 1.632.768.192.064.32.128.512.224.864.416l1.984.992q-.16.192-.336.368t-.304.272-.368.256-.304.192-.352.192-.32.16q-.192.128-.288.16-.736.384-1.344.672-.576.288-.992.48-.192.096-.608.256-.256.096-.704.288-.32.128-.736.288l3.008 1.344 3.04 1.504q-.096.192-.192.336t-.224.272l-.208.208-.256.208-.24.176-.272.176-.24.16q-.768.48-1.376.832-.32.192-.576.32-.256.16-.48.288-.192.064-.608.256-.288.128-.704.32-.288.128-.64.288l.064.032q.32.128.512.224.256.096.8.384t.864.416l.16.064q.448.16.672.288.16.096.352.192t.384.224q.16.096.496.224t.496.256l1.888 1.28q-.16.128-.352.256t-.384.24-.352.192-.368.16-.368.144-.384.144-.384.144q-2.24.864-3.84 1.472-.8.32-1.408.576-.288.096-.544.192-.32.128-.448.192-.288.128-.624.288t-.848.384q-.864.384-1.92.896l-.64.288zm.256-16.32q.224-.096 1.44-.544 2.208-.864 3.744-1.44.704-.288 1.216-.48.224-.096.416-.192.224-.064.304-.096l.24-.096-.192-.096q-.16-.096-.256-.128-.224-.128-.384-.192-.416-.224-1.024-.544-.224-.096-.624-.32t-.56-.32q-.096-.032-.256-.128-.576-.32-.928-.512-.384-.16-.608-.256-.192-.096-.432-.208t-.528-.24Q16 8.352 15.2 8.032L15.104 8 12.32 9.312 8 10.944l2.432 1.088zm-.032 6.88q.64-.256 1.12-.48 2.336-.928 3.84-1.568.768-.352 1.312-.576.224-.128.416-.192.224-.096.32-.144t.256-.144q-.416-.16-.88-.384t-.896-.416-.864-.4-.896-.416-.848-.4q-1.184.448-2.976 1.152l-2.624-1.344q-.992.416-1.76.704-.608.224-1.088.448l-.704.256q-.32.128-.448.192-.256.096-.64.256l-.064.032q1.312.672 2.224 1.104t1.408.656 1.616.72 2.176.944zm-.16 6.496q.416-.064.704-.192.224-.128.448-.224.704-.32 1.248-.576.512-.224.896-.384.288-.128.704-.288t.96-.384q.96-.384 2.432-.96-.16-.064-.416-.16-.608-.256-1.024-.416-.256-.096-.848-.368t-1.296-.592q-.352-.16-.64-.32-1.28.544-3.072 1.28l-3.2-1.44q-.896.32-1.12.416-1.856.704-2.88 1.12l-.064.032 1.312.608z"/></svg>