<svg xmlns="http://www.w3.org/2000/svg" width="20" height="32"><path d="M1.12 28.16v-.512l.224-.736 2.272-4.096.224-.32 1.824-1.856.576-2.176-2.496 2.72-2.4-2.24 4.224-4.608q.288-.32.704-.448l1.408-.48.096-.256q-1.568-1.12-1.6-3.04 0-1.6 1.104-2.704t2.672-1.104 2.704 1.104 1.168 2.704q0 1.376-.864 2.416t-2.176 1.296l-.064.288.928.448q.576.256.8.864l.992 2.72q.128.32.064.672l-.352 3.68-3.04-.32.352-3.328-.608-1.728-.448 1.504-.512 1.92 1.44 2.976q.192.384.16.8l-.384 4.384-3.072-.288.32-3.936-.352-.768-.8.8-1.984 3.584v.128zM16 13.312l2.848 2.944-2.624 2.912-1.376-1.248 1.472-1.632-1.664-1.696z"/></svg>