<svg xmlns="http://www.w3.org/2000/svg" width="33" height="32"><path d="M1.824 12.992q-.384-.128-.576-.48t-.096-.736q.48-2.304 2.432-4.384t4.512-2.528q.416-.096.784.16t.464.704q.032.288-.064.56t-.304.464-.496.224q-1.888.352-3.376 1.936t-1.84 3.312q-.096.416-.48.672t-.8.16q-.096-.032-.16-.064zm3.264.832-.032-.032q-.416-.16-.576-.576t0-.832q1.376-3.168 4.544-4.288.288-.096.56-.048t.496.24.32.448q.128.416-.064.832t-.608.544q-2.272.8-3.264 3.136-.16.384-.56.56t-.816.016zm2.88 14.08q-1.088-.128-1.664-1.248-.96-1.952-.096-6.144.096-.48.256-1.072t.352-1.28.288-1.072q.384-1.472.736-2.272.128-.384.64-1.248l.512-1.056.288-.288q0-.064.032-.064.576-.416 1.408-.416 1.792-.032 1.792.448l.256.16.16.128q0 .032.048.064t.16.08.24-.048q.032-.032.752-.032t1.696.016 2.032-.016q1.28-.032 2.992-.08t2.24-.08 1.072 0q.16.032.272.016t.144-.08l.064-.032.192-.256q0-.032.16-.224l.032-.032.032-.064q.576-.288 1.568-.32.32 0 .72.112t.608.208.272.128l.032.064.288.288q.416.672.608.992.64 1.056.736 1.248.064.16.672 2.272.16.512.32 1.44t.256 1.312q.512 2.048.64 4.608.064 1.504-.288 2.352t-1.408 1.136q-.384.192-.768.112t-.656-.144-.56-.336-.48-.496-.432-.624-.416-.704-.416-.736-.432-.736-.368-.736-.24-.688l-.064-.288q-.032-.096-.096-.16t-.144-.112-.144-.064-.128-.048h-.032q-.608.608-1.696.608-1.088.032-1.792-.608l-3.232-.096-1.344.16q-.736.704-1.76.736-.96 0-1.728-.608-.416.096-.544.384-.416 1.504-.736 2.24-.32.704-.512 1.056t-.56.912-.72.816-.912.432-1.2.08zm18.88-12.416q.32 0 .576-.304t.256-.624q0-.384-.352-.608-.16-.128-.576-.128-.224 0-.416.112t-.288.304-.096.416q0 .32.272.592t.624.24zm-15.776.544.224-.096q.352-.384.384-.416l.096-.192q.032-.576.064-.704 0-.192-.128-.32-.192-.16-.656-.144t-.656.176q-.096.096-.096.288l.064.736q.032.096.096.192l.416.416zm17.44 1.056q.192.032.384-.08t.288-.32.128-.432q0-.32-.24-.56t-.592-.208q-.32 0-.544.256t-.224.544q-.032.256.208.48t.592.32zm-3.456.032q.32 0 .56-.24t.224-.56-.24-.544-.576-.256q-.352 0-.576.24t-.192.592q.032.32.256.544t.544.224zm-12.8.064q.608.032.736.032.16.032.288-.128.16-.128.16-.64 0-.48-.16-.64-.128-.128-.32-.096l-.704.064q-.096 0-.192.096l-.416.416-.064.192.064.192q.384.352.448.416zm-3.008.096.704-.064q.096-.032.16-.096l.448-.416.064-.192-.096-.192-.416-.416-.192-.096q-.576-.032-.704-.032-.192-.032-.32.096-.128.192-.128.672 0 .448.16.64.16.128.32.096zm1.872 1.472q.464 0 .656-.16.128-.128.096-.32l-.064-.704q0-.096-.096-.192l-.416-.416-.192-.064-.192.064q-.352.384-.416.448l-.064.192q-.064.576-.064.704 0 .192.128.32.16.128.624.128zm15.696 0q.32 0 .544-.24t.256-.56q0-.224-.096-.416t-.288-.288-.448-.096q-.352.032-.592.272t-.176.528q.064.352.288.576t.512.224zm-3.808 2.528q.832 0 1.184-.352.32-.32.32-1.184-.032-.672-.496-1.136t-1.072-.368q-.576.064-1.024.512t-.48 1.024q-.032.64.448 1.072t1.12.432zm-8.16.192q.64-.032 1.088-.48t.416-1.056q0-.704-.448-1.136t-1.088-.368q-.768.096-1.104.432t-.4 1.104q-.032.448.128.8t.544.544.864.16z"/></svg>