<svg xmlns="http://www.w3.org/2000/svg" width="26" height="32"><path d="M21.984 7.232q.064 1.408.272 2.656t.448 2.576.368 2.64q.032.416.976 4.24t.976 5.104q-.416.608-1.36 1.6t-1.392 1.28l-21.024.48q.16-6.496-.032-12.96-.064-.512-.048-2.272t-.016-2.272q0-.096-.016-.496t-.016-.784V8.24l.032-.688.096-.32q2.304-.032 3.424.064 1.056.032 1.28.048t1.232-.064 1.296-.112q1.888-.096 5.728-.032 1.184 0 3.856.048t3.92.048zM6.336 23.424q2.688-.032 8.224-.112t8.224-.144q-.48-3.68-1.776-8.608t-1.36-5.376q-.96-.032-3.024 0t-2.992 0q-2.944-.032-4.416.032-.256.032-.736.064l-.72.048-.72.032-.736-.016-2.56-.192q-.096.384 0 1.408t.192 1.6q.288 1.792 1.04 5.472t1.36 5.792zm6.816-7.616q-.544 0-1.008-.368t-.72-.928-.288-1.136q0-.768.4-1.456t1.04-.816q.8-.192 1.536.464t.864 1.584-.448 1.776-1.376.88zm-.128-3.648q-.416.032-.72.48t-.24.96q.064.48.448.832t.8.256q.384-.096.592-.464t.208-.752q-.032-.48-.352-.896t-.736-.416zm.032 5.408 1.248-.032.48 3.52-1.248.032z"/></svg>