<svg xmlns="http://www.w3.org/2000/svg" width="17" height="32"><path d="M8.32 27.488q-1.504-.032-2.208-.4t-.704-1.552V22.08q-.288-.224-.432-.368t-.272-.448-.128-.72q0-.832-.08-1.248T4.32 18.8 4 18.672t-.352-.144q-1.28-.928-1.936-2.048t-.592-3.008q.064-1.024.208-1.92t.624-2.048T3.2 7.568t2.192-1.264 3.28-.288q1.536.128 2.672.512t1.744.832 1.056 1.136.592 1.152.304 1.216.256 1.008q.192.864.112 1.952t-.544 2.288-1.136 1.808q-.352.32-.768.608-.32.192-.368.384t-.048 1.12v.416q0 .192-.032.352t-.128.32-.16.256-.224.24-.208.192-.24.192l-.192.144q0 .288.016 1.36t.016 1.36v.8q-.032 1.088-.736 1.44t-2.176.384h-.16zm.144-6.976q.72 0 1.184-.128t.64-.4.224-.496.048-.576q0-.896.048-1.2t.144-.4.512-.304.832-.624q.736-.672.976-2.144t-.144-2.208q-.096-.256-.224-.8t-.288-.88-.544-.752-1.2-.688-2.064-.432q-1.312-.192-2.272.112t-1.44.768-.768 1.328-.352 1.376-.128 1.344v.064q-.032.576.048 1.04t.208.752.432.608.512.48l.624.48q.704.512.8.784t.096 1.36q0 .352.048.56t.24.48.64.384 1.168.112z"/></svg>