<svg xmlns="http://www.w3.org/2000/svg" width="28" height="32"><path d="M13.664 4.384q-.224 0-.384-.16t-.192-.384L12.736.032q0-.224.24-.512t.56-.288q.416 0 .64.24t.192.624l-.16 3.712q-.032.224-.176.384t-.368.192zm4.16 1.216q-.16 0-.288-.064-.448-.256-.192-.736l1.184-2.688q.128-.256.448-.416t.736.064q.64.48.192 1.152l-1.6 2.4q-.192.288-.48.288zm-8.416.096q-.288 0-.512-.416l-1.28-2.272q-.16-.192-.064-.528t.48-.528.688.016.4.496l.832 2.496q.064.224-.048.432t-.336.272q-.064.032-.16.032zM5.92 8.48q-.16 0-.32-.096L3.136 6.912q-.32-.192-.384-.56t.096-.528q.16-.256.496-.368t.656.08l2.24 1.952q.16.128.192.368t-.064.4q-.16.224-.448.224zm7.808 19.008q-1.504-.032-2.192-.4t-.688-1.552q0-.448-.016-1.728t-.016-1.728q-.288-.224-.416-.368t-.272-.448-.144-.72q0-.832-.08-1.248t-.176-.496-.304-.128-.336-.144Q7.776 17.6 7.12 16.48t-.56-3.008q.032-1.024.192-1.92t.64-2.048T8.64 7.568t2.176-1.264 3.296-.288q1.504.128 2.64.512t1.76.832 1.072 1.136.576 1.152.304 1.216.24 1.008q.384 1.216-.064 3.168t-1.504 2.88q-.352.32-.768.608-.288.192-.352.384t-.064 1.12v.416q0 .192-.032.352t-.128.32-.144.256-.208.24-.224.192-.24.192l-.176.144q.032 3.424 0 3.52 0 .768-.4 1.168t-.96.512-1.52.144h-.192zm7.52-18.752q-.352 0-.512-.288-.192-.448.256-.768l1.952-1.312q.416-.32.928-.272t.704.496q.384.992-.896 1.376l-2.208.704q-.16.064-.224.064zm-7.36 11.776q.736 0 1.184-.128t.624-.4.224-.496.048-.576q0-.896.064-1.2t.16-.4.496-.304.848-.624q.736-.672.976-2.144t-.144-2.208q-.096-.256-.208-.672t-.192-.72-.336-.672-.64-.624-1.136-.496-1.84-.368q-1.312-.192-2.256.112t-1.424.768-.784 1.328-.368 1.376-.096 1.344q-.032.032-.032.064-.032.48.016.864t.192.704.272.544.4.48.432.384.512.384q.736.512.832.784t.096 1.36q0 .352.048.56t.224.48.624.384 1.184.112zm-3.456-5.152q-.224-.064-.224-.288l.096-2.112q0-.192.16-.336t.384-.144q.192 0 .352.128l.736.704.512-1.536q.064-.224.272-.32t.432-.032q.192.096.32.288l.64 1.216.48-1.184q.064-.192.288-.288t.432-.016.304.304l.832 2.048.672-.704q.192-.192.416 0 .16.16.064.352l-.896 1.664q-.128.192-.32.256T16 15.328q-.16-.096-.224-.288l-.672-1.6-.384.992q-.096.224-.304.32t-.4 0q-.192-.064-.288-.256l-.64-1.152-.384 1.152q-.064.224-.272.32t-.432.032q-.128-.032-.192-.128l-.704-.64-.32 1.088q-.064.288-.352.192zm-8.384-1.984q-.48.064-.704-.224t-.224-.608q0-.288.24-.576t.688-.256l2.624.224q.192.032.368.208t.176.336q0 .192-.16.368t-.384.208zm23.488.032-3.392-.224q-.128 0-.256-.08t-.208-.192-.08-.272q0-.224.16-.384t.384-.16l3.392-.32q.288 0 .592.192t.304.608-.304.64-.592.192zM2.208 19.776l-.32-.32q-.192-.16-.112-.592t.432-.624l2.496-1.504q.48-.288.704-.032.096.128.096.384t-.16.416L3.52 19.52q-.288.32-.736.352t-.576-.096zm21.504.416q-.288.128-.512-.064l-2.176-2.112q-.384-.384-.064-.768t.768-.064l2.464 1.728q.192.16.144.464t-.208.496q-.192.224-.416.32z"/></svg>