<svg xmlns="http://www.w3.org/2000/svg" width="32" height="32"><path d="M25.12 16.384v2.688h-3.84q-.384.768-.96 1.424t-1.072 1.04-1.168.832q-2.432 1.6-4.512 2.464Q10.88 25.92 8 26.24q-1.6.16-3.168.096l-.672-.032q-.352 0-.544-.336t0-.656l.32-.576q.128-.256.448-.832.288-.512.416-.736l-3.68-.096V20.48h4.896q.352-1.216.352-2.944 0-.8-.416-2.368H1.184l-.064-2.592h3.936q-.064-.192-.288-.576-.384-.64-.576-1.088L4 10.432q-.128-.288.016-.576t.464-.352l.512-.096q1.408-.256 2.24-.192 4.8.416 8.896 2.912 3.36 2.08 4.96 4.32z"/></svg>