<svg xmlns="http://www.w3.org/2000/svg" width="26" height="32"><path d="M25.024 10.464v1.376h-1.376q-.512.928-1.664 1.696-1.216.8-2.304 1.248-1.376.544-2.848.704-.8.096-1.6.064h-.352q-.192-.032-.288-.192t0-.32l.16-.32q.064-.064.256-.416.096-.192.192-.352l-1.088-.032q-.16.224-.224.384-.16.288-.48.704h-.032q-.16.192-.24.256t-.592.128q-.288 0-.32-.288-.032-.512.096-.704.032-.032.048-.064t.08-.096q.192-.224.256-.32l-1.6-.032v-1.344h2.368q.096-.288.192-.704.096-.32.032-1.024-.032-.512-.128-.96h-2.4l-.064-1.344h1.888q-.16-.224-.48-.48-.256-.224-.192-.832 0-.16.16-.192.192-.064.464-.016t.368.112q.608.512.992 1.28.032.032.096.128h.96q-.064-.096-.16-.288-.192-.32-.288-.544l-.128-.256q-.064-.16.016-.304t.24-.176l.256-.032q.736-.16 1.152-.096 2.464.192 4.544 1.472 1.728 1.056 2.528 2.208zm-9.184 2.08q.192-.608.192-1.472 0-.416-.224-1.216h-.992q.064.448.096.896.032.896-.096 1.376-.032.224-.096.416h1.12zm-2.304 5.088v1.312h-1.504q-.256 1.76-1.952 3.2-.352.32-.64.384-.192.064-.64.096-1.824 0-1.856.032t-1.568-.048-1.824-.08q-.416-.032-.384-.32v-1.28l-2.048-.032v-1.28h1.984q0-.064-.048-.96t-.08-1.376v-.256H1.152l-.032-1.28h1.792q0-.736.096-1.312.064-.32.544-.352.608 0 1.456-.064t1.52-.096q1.216 0 1.792.128.48.096 1.024.384 1.088.544 1.792 1.392t.896 1.84zm11.488 5.216v1.312h-1.856q-.448.864-1.568 1.568-1.152.768-2.176 1.184-1.28.544-2.656.672-.768.096-1.536.064h-.32q-.096 0-.16-.048t-.096-.128-.048-.16.048-.144l.16-.288q.064-.16.192-.384.096-.192.224-.384l-1.792-.032v-1.248h2.368q.16-.608.16-1.408 0-.384-.192-1.152h-2.304l-.032-1.248h1.92q-.064-.096-.16-.288-.192-.288-.288-.512l-.096-.256q-.064-.128.016-.272t.24-.144l.224-.064q.704-.128 1.088-.096 2.336.192 4.288 1.408 1.632.992 2.4 2.08z"/></svg>