<svg xmlns="http://www.w3.org/2000/svg" width="32" height="32"><path d="M25.12 16.256v2.528h-2.88q-.544 3.392-3.808 6.208-.672.576-1.216.768-.384.096-1.216.16-1.504.064-2.864.064t-2.176-.032-2.464-.112-2.672-.112q-.32 0-.544-.176t-.224-.432q.064-1.088.032-2.464L1.12 22.56v-2.464h3.872q-.032-.512-.096-1.424t-.112-1.664-.048-1.392q-.032-.128-.032-.512h-3.52L1.12 12.64h3.488q-.032-1.472.16-2.56.064-.288.368-.48t.688-.192q1.184-.032 2.816-.16t2.944-.128q2.336-.032 3.456.192.96.224 1.984.768 2.112 1.056 3.456 2.704t1.728 3.504z"/></svg>