<svg xmlns="http://www.w3.org/2000/svg" width="23" height="32"><path d="M20.032 18.144q0 .192.016.528t.032.608 0 .576-.096.592-.208.512q-.384.608-1.184.832-.416.128-1.888.192-.8.992-1.6 1.952t-1.408 1.648-1.104 1.232-.752.832l-.256.256q-.352-.256-.944-.704t-2.256-1.968T5.28 22.08h-.544q-.64 0-.96-.16-.256-.128-.576-.48t-.352-.48q-.096-.224-.128-.512t-.032-.496.016-.544.016-.496q-1.088-1.536-1.44-3.248t.16-3.504q.48-1.504 1.648-2.624t2.64-1.44 3.008.48q1.088.64 1.808 1.808t.944 2.512q.224-.992.768-1.984.928-1.76 2.4-2.464 1.952-.928 4.384.16 1.344.608 1.968 1.68t.544 2.336-.48 2.48T20 17.44q.032.384.032.704zm-1.568 1.92v-2.272q0-.416-.064-.64t-.272-.368-.56-.176l-3.616.096q-4.672.096-5.568.096H7.376l-1.2.016-1.024.016q-.576.064-.736.384t-.16 1.024v1.696q0 .48.16.576.096.064.288.064t.432-.016.304-.016h1.44q2.944.032 4.16 0 .448 0 2.112.016t2.736-.016 2.096-.192q.096 0 .192-.032.192-.064.224-.128.064-.064.064-.128z"/></svg>