<svg xmlns="http://www.w3.org/2000/svg" width="28" height="32"><path d="M27.168 16.832v2.56h-2.592q-.576 1.056-1.312 1.76t-1.792 1.376q-2.304 1.536-4.32 2.368-2.56 1.056-5.312 1.344-1.504.16-3.008.096l-.64-.032q-.352 0-.528-.32t-.016-.64l.32-.544q.128-.256.416-.768.224-.416.384-.704l-2.048-.032q-.256.416-.416.704-.288.544-.896 1.312l-.032.032q-.288.352-.448.464t-1.12.208q-.224.032-.4-.128t-.176-.384q-.064-.992.16-1.344.032-.032.064-.096.064-.032.16-.16l.032-.032q.32-.384.448-.608l-2.976-.032v-2.496h4.384q.192-.576.384-1.344.16-.576.096-1.92-.064-.928-.256-1.824H1.184l-.064-2.496h3.52q-.32-.416-.896-.896-.192-.16-.304-.672t-.08-.864q0-.32.32-.384.352-.096.848-.032t.688.224q.672.576 1.056 1.04t.832 1.328q.064.096.16.256h1.792q-.096-.192-.288-.512-.384-.608-.576-1.088L8 11.104q-.128-.288.016-.56t.464-.304l.48-.096q1.376-.256 2.176-.192 4.576.384 8.48 2.816 3.232 1.952 4.768 4.128zM9.952 20.736q.352-1.184.352-2.816 0-.768-.416-2.272H8.032q.16.864.192 1.696.096 1.696-.128 2.624-.128.384-.224.768h2.08z"/></svg>