<svg xmlns="http://www.w3.org/2000/svg" width="26" height="32"><path d="M20.544 5.536q0 .032.08.336t.16.64.176.704.128.496q.448 1.472.448 1.792.128.544.048.736t-.624.288q-.416.032-.448.064-.256.064-1.536.448t-1.472.448q-.224.032-.256-.224-.32-1.184-.32-1.376 0-.224.512-.32.448-.192 1.248-.384.288-.064.384-.112t.128-.128.048-.096-.144-.912q-.192-.704-.384-1.76-.032-.192.224-.256l1.312-.384q.192-.128.288 0zm-4.672 2.528q-1.056-.352-2.912-.352h-.288l-.064-1.76h.352q2.112 0 3.456.416zM7.328 9.44 6.336 8Q7.904 6.912 9.76 6.368l.48 1.728q-1.568.416-2.912 1.344zm-3.616 4.32-1.6-.704q.768-1.76 2.048-3.2l1.312 1.184q-1.088 1.248-1.76 2.72zm8.416 10.528q-1.504-.128-2.144-.416-2.208-1.056-3.52-3.936-.544-.896-.544-1.28 0-.32.864-1.408l-1.12-.864q-.128-.064-.128-.192l.096-.224.768-.864q.096-.096.192-.096.064 0 .128.048t.096.08l.032.032.864.768.032-.032q.288-.352.544-.608l-.384-.416-.192-.224-.352-.416q-.096-.032-.096-.128l.096-.16.64-.544.352-.288.224-.064q.064 0 .112.048t.08.112l.032.032.192.288.064.16.16.192.288.352q.16-.064.448-.224.192-.096.32-.128l-.448-1.44q-.096-.128.032-.224.096-.064.752-.208t.752-.144.192.288l.224 1.312q.096-.032.384-.064.32-.064.736-.064l.192-1.568q.032-.128.224-.128.064-.032.448.032t.752.144.4.112q.096.032 0 .288-.032.224-.288 1.216.384.064.8.256.032 0 .08.016l.096.032.08.048.192-.256.096-.288.512-.832.192-.096q.096.032.688.448t.656.48q.128.096-.064.384-.224.256-.512.544-.064.096-.208.272t-.208.24l.128.16q.288.192.8.64l.608-.608q.48-.544.512-.544.192-.192.256-.16.096.064.624.656t.56.688l-.064.256q-.416.256-.768.576l-.288.288-.288.192q.064.128.304.432t.352.48.272.432.24.48.08.448q0 .16-.08.384t-.208.448-.288.48-.288.432-.256.336-.16.224q-.256.448-.352.576-.448.512-1.6 1.184-2.208 1.376-4.992 1.12zm11.264-6.976q-.096-1.472-.736-3.2l1.664-.608q.736 1.952.832 3.68zM12.32 22.304q2.08.192 3.584-.672.928-.544 1.248-1.024.096-.128.256-.384t.304-.464.208-.4l.096-.16.064-.096q-.064-.16-.176-.4t-.144-.304q-.256-.448-.416-.64-.288-.416-.96-1.056-.096-.064-.24-.192t-.24-.208-.224-.192-.256-.192-.256-.176-.288-.16q-1.088-.512-2.912-.128-.896.16-1.344.448-.96.64-1.952 2.144-.064.096-.224.384t-.256.448q0 .064.048.144t.08.144.032.128q.32.64.544.928.896 1.408 2.08 1.888.288.128 1.344.192zM1.248 19.616q-.128-.896-.128-1.824 0-.992.16-1.984l1.76.288q-.16.832-.16 1.696 0 .8.128 1.568zm11.904 2.016q-.992 0-1.792-.832-.832-.864-.832-1.792 0-1.152.832-1.92.8-.704 1.792-.704.352 0 .768.128.544.128 1.152.736.704.8.704 1.76 0 .832-.256 1.344-.512.832-1.696 1.184-.448.096-.672.096zm10.496 2.016-1.504-.896q.832-1.44 1.12-3.008l1.728.32q-.32 1.888-1.344 3.584zM4.064 25.6q-1.28-1.44-2.016-3.232l1.632-.672q.64 1.504 1.696 2.752zm14.816 2.56-.832-1.568q1.44-.768 2.592-1.92l1.28 1.216q-1.344 1.376-3.04 2.272zm-9.248.992q-1.856-.544-3.456-1.632L7.2 26.048q1.344.96 2.912 1.408zm3.328.48h-.512l.064-1.76q1.632.064 3.232-.384l.48 1.728q-1.6.416-3.264.416z"/></svg>