<svg xmlns="http://www.w3.org/2000/svg" width="21" height="32"><path d="M11.488 27.616q-2.976.16-5.152-.704-2.464-.96-3.808-3.104-1.248-2.016-1.408-4.896-.128-2.848.8-5.056.992-2.432 3.2-3.808 2.016-1.28 4.864-1.504.608-.032 1.28-.032 1.824 0 3.84.384.352.064.64.128l.352.064v.224l-.032 3.872V14.4q-2.528-.544-3.84-.64-1.664-.128-2.912.16-1.568.32-2.24 1.312-.64.928-.704 2.528-.096 1.6.288 2.656.256.704.704 1.12t1.184.608q1.152.352 2.88.224 1.504-.096 4.544-.896l.128-.032-.032 4.064v1.376l-.192.032-.48.096q-.928.192-1.248.256-1.408.256-2.656.352zm8.736-12.384-2.752-.48.064-5.312 2.72.32zm-2.656 11.36-.096-5.568 2.72-.48.064 5.536z"/></svg>