<svg xmlns="http://www.w3.org/2000/svg" width="27" height="32"><path d="M3.136 23.68q-1.792-3.264-1.952-6.016-.352-3.392 1.408-6.544t4.864-4.944l.256-.128q3.232-1.312 6.816-1.28 4.576 0 8.256 4.96 4.16 5.632 3.008 10.336-.352 1.44-1.072 2.72t-1.744 2.304-2.112 1.824-2.464 1.6q-2.944 1.696-6.144 1.536-1.856-.064-2.912-.544-2.624-1.312-5.088-4.16-.16-.224-1.12-1.664zm3.84-4.576 13.376-.256q.608 0 .8-.336t.192-1.36V15.52q0-.192-.16-.256-.096-.032-1.024-.032-1.12 0-4.288-.032l-3.776.032-3.552.064q-1.472.032-2.016.16-.448.096-.448.32v1.536q0 1.088.16 1.44.16.384.736.352z"/></svg>