<svg xmlns="http://www.w3.org/2000/svg" width="17" height="32"><path d="M4.832 20.32q-.224-.416-.416-1.024-.512-1.504-.448-4.864.032-2.368.128-3.456.096-1.6.608-2.656.704-1.44 2.304-1.952h.096q.608-.064 1.12-.032 2.56.064 3.744 1.696.48.672.608 1.92l-1.984.032q-.608 0-.608.032l-.032.032-.032.224v.288l.032.288q.032.16.032.192h.448l2.272-.032q.064.672.096 1.28H9.984v.048l-.032.016-.032.224v.288q0 .192.032.32 0 .16.032.16.032.032.448.032h2.432q.064.64.064 1.248h-2.912q-.032 0-.032.016v.048q-.032 0-.032.224-.032.128-.032.288 0 .192.032.32 0 .16.032.16.032.032.448.032h2.528q0 .64-.032 1.248h-2.912q-.032 0-.032.032-.032.032-.032.256-.032.128-.032.288 0 .192.032.32 0 .16.032.16.032.032.448.032h2.4q-.128 1.44-.448 2.176-.384.896-1.344 1.504t-2.016.64q-1.28.032-1.888-.192-.864-.32-1.6-1.024-.48-.48-.704-.832zm10.944-6.08v3.296q0 1.184-.128 1.824-.224 1.28-.736 2.08-.864 1.376-1.664 2.16T11.2 24.832q-1.088.384-1.856.48H9.28q-.032.896-.032 1.248 0 .224.016.448t.016.448.032.32h3.296q.288 0 .32.032v.288q.032.192.032.512v.448l-.032.352v.032q0 .032-.016.048t-.432.016h-1.184q-.096 0-1.056-.032t-1.632-.032q-.544 0-1.392.032t-1.072.032H4.32q-.288 0-.32-.032-.032 0-.032-.288v-.928q0-.352.032-.384v-.064h2.944v-.032h.672v-.256h-.032v-2.208h-.032q-1.6-.192-3.392-1.344-1.344-.864-2.272-2.656-.768-1.536-.768-3.296v-4q0-.384.064-.416.032-.032.288-.032.224 0 .544.032l.512.064q.288.032.32.064t.032.576v3.232q0 1.312.224 2.048.288.928.864 1.728 1.216 1.664 3.2 2.112 1.984.48 3.824-.464t2.608-2.832q.16-.384.256-.784t.128-.896.032-.8v-3.536q0-.288.032-.32l.288-.032h.992q.352.032.384.032h.016l.032.016.016.432z"/></svg>