<svg xmlns="http://www.w3.org/2000/svg" width="27" height="32"><path d="m4.832 28.96-1.184.016q-1.12.016-1.184-.08l-.32-.032q-.032 0-.032-.176v-.912q-.032-.928.032-5.376 0-.8.016-1.92t.048-2.176.032-1.92h-.768q-.128 0-.24-.112t-.112-.24v-2.72q0-.16.112-.272t.24-.112h.704q-.032-.992.016-3.008t.048-2.88q-.032-.128.208-.16t.64 0 .464.032q.192 0 .432.016t.512.016h.56l.112.016.112.016h.096q.128 0 .192.064t.096.192.032.384q.032.8.032 1.376 0 1.792.032 3.936h.704q.128 0 .24.112t.112.272v2.72q0 .128-.112.24t-.24.112h-.64q.064 5.152-.064 9.344v1.024l-.032 1.152q-.064.96-.096.96-.096.032-.368.064t-.432.032zm11.232 0q-.16 0-.432-.032t-.368-.064q-.032 0-.064-.96-.032-.448-.048-1.152t-.016-1.024q-.128-4.8-.032-10.912.032-.128.032-.8h-.672q-.096 0-.192-.048t-.144-.128-.048-.176v-2.72q0-.16.112-.256t.272-.096h.704v-1.6q0-.576.064-1.376 0-.192.016-.304t.048-.192.08-.112.144-.032q.064 0 .208-.016t.24-.016.608-.016.8-.016q.032 0 .448-.032t.64 0 .224.16q0 .704.032 3.552h.704q.096 0 .176.048t.128.128.048.176v2.72q0 .096-.048.176t-.128.128-.176.048h-.704q-.032 1.952-.032 2.8t.032 2.8.064 2.784q.032 4.448 0 5.376v1.088l-.32.032q-.096.096-1.2.08t-1.2-.016zm-6.016-.032q-.064 0-.48.032t-.64.016-.224-.176q.032-.8-.032-3.072t0-3.392h-.704q-.16 0-.256-.096t-.096-.256v-2.72q0-.16.096-.256t.256-.096h.736q0-.768-.016-1.744T8.656 15.2t-.048-1.76q-.032-4.448 0-5.344v-1.12l.32-.032q.096-.096 1.2-.08t1.2.016q.16 0 .432.048t.368.048q.032 0 .096.992 0 .416.016 1.136t.016 1.008q.128 3.968.064 8.8h.608q.096 0 .192.048t.144.128.048.176v2.72q0 .064-.032.128t-.08.112-.112.08-.16.032h-.672q-.032 2.496-.032 4.544 0 .576-.032 1.376-.032.256-.048.368t-.08.176-.192.064q-.064 0-.208.016t-.24.016q-.128 0-.272.016t-.288.016h-.816zm12.96 0q-.064 0-.464.032t-.624.016-.224-.176q0-.832-.064-3.008h-.672q-.096 0-.16-.032t-.112-.08-.08-.112-.032-.128v-2.72q0-.16.112-.272t.272-.112h.672v-.128q.064-1.024.064-2.224t-.016-2.128-.048-2.256-.032-2.16q-.064-4.448-.032-5.344v-.912l.032-.208.32-.032q.064-.096 1.184-.08t1.2.016.192.016.192.032.208.032.192.016.096.992q.032.416.032 1.136v1.008q.16 4.832.032 10.912 0 .576-.032 1.312h.704q.128 0 .24.112t.112.272v2.72q0 .128-.112.24t-.24.112h-.736v1.088q0 .576-.032 1.376-.032.352-.08.48t-.24.128q-.032 0-.176.016t-.256.016-.624.016-.768.016z"/></svg>