<svg xmlns="http://www.w3.org/2000/svg" width="26" height="32"><path d="M14.688 16.096q-.288.224-.624.16t-.56-.144-.512-.336-.464-.464-.416-.48-.384-.416-.288-.304-.32-.336-.272-.304l-.928-1.056h-.8q-.32 0-.896.016t-.896-.016q-.096 0-.416.032t-.576.032-.384-.096q-.064-.064-.064-.32v-1.312q-.032-.896 0-1.312 0-.128-.016-.416t-.016-.464.064-.4.192-.352q.16-.192.928-.16 1.248.096 2.72.032.864-.928 1.184-1.152.288-.192.496-.4t.448-.464.464-.48q.128-.096.352-.288t.352-.32q.288-.224.592-.384t.624-.24.528.112.208.704q0 .096.032.8t.032.832q-.032.384.016 1.152t.048 1.056q.032.64-.032 1.44 0 .288.032.8t.032.608q.032.32 0 .912t-.032.752q0 .32-.016.688t-.032.784-.048.704q0 .608-.352.8zm3.328-.896q-.032-.16-.16-.592t-.208-.736-.016-.304q.832-.32 1.152-.672.064-.064.32-.272t.432-.448.272-.592q.288-.832.336-1.184t.016-.96q-.064-.352-.144-.624t-.224-.512-.288-.416-.368-.432q-.096-.064-.256-.192t-.352-.256-.368-.224-.272-.128q.32-1.088.448-1.376.992.128 1.824.864.032.032.192.176t.224.24q.032.096.384.592t.416.592q.192.32.32 1.024.096.192.128.608.032.896-.224 2.048-.096.416-.256.768-.064.192-.272.512t-.24.384q-.032.096-.144.288t-.144.256q-.224.352-1.12.88t-1.408.688zm-1.184-2.784q-.16-.224-.192-.48l-.096-.8q.064 0 .128-.016t.24-.064.32-.144.256-.32.112-.544q-.032-.288-.144-.512t-.256-.304-.288-.128-.256-.048h-.112q0-.096.016-.208l.016-.112.192-1.024h.128q.096 0 .208.048t.208.096l.16.08Q17.76 8 18 8.16t.448.416.304.544q.192.512.224 1.024.064 1.216-.736 1.824zM8.96 24.768q-.448-.032-.624-.304t-.08-.672.208-.704.272-.624q.608-1.152 2.272-2.592-2.528.864-4.96 5.44-.864.96-1.968.656t-1.392-1.552q-.16-.704-.016-1.44t.56-1.504T4 20.176t.896-1.2q-.128.096-.368.368t-.48.528-.544.512-.56.384-.528.096-.464-.288q-.704-.928.928-3.648-.256.224-.672.672-.096.128-.256.24t-.304.16-.288.032-.208-.16-.032-.432q.096-.704 1.44-1.824.896-.8 2.048-1.184 1.056-.32 1.408-.16.32.16.384.448t-.064.544-.352.512q-.32.128-1.056 1.088 1.344-.96 2.752-1.504.064 0 .288-.096l.336-.144.368-.128.4-.112.368-.064.384-.016.32.048.288.128q.192.16.288.288t.064.288-.064.272-.176.272-.208.24-.256.24-.224.192q-.96.864-1.856 2.272 2.528-1.504 4.16-.96.672.224 1.008.72t-.016 1.104q-.128.256-.384.496t-.48.416-.528.4-.496.384q-.992.928-1.28 1.792-.032.128-.096.368t-.112.4-.144.32-.256.24-.416.048zm6.976-8.032q-1.344 2.944-3.296 7.456-.032.096-.304.704t-.4.928q-.064.224-.096.368t.064.24.16.112.304.08.336.096q.384.096 1.296.448t1.632.512 1.296.032q.704-.16 3.808-1.056.48-.16 2.016-.64l.56-.112.704-.176.496-.224q.128-.128.144-.32t-.08-.432-.208-.448-.272-.464-.224-.352q-.192-.384-.48-.928-.512-.992-1.952-3.904-.032-.064-.144-.272t-.16-.32-.16-.272-.24-.224q-.16-.096-.384-.16t-.496-.128-.4-.096q-.384-.128-1.168-.352t-1.168-.352q-.416-.224-.688-.208t-.496.464zm4.288 2.016q-.576 1.44-1.632 3.936-.768 1.856-.864 2.08-.032.096-.176.48t-.272.688-.288.592-.288.304-.176-.032-.048-.176.032-.272.112-.336.128-.32.128-.304l.08-.176q.48-1.088.8-1.792 1.92-4.224 2.272-4.864.032-.032.096-.032h.064l.032.032.032.064q0 .064-.032.128z"/></svg>