<svg xmlns="http://www.w3.org/2000/svg" width="28" height="32"><path d="M14.688 13.152q-.256.032-.848 0t-.752-.032q-.672 0-.672-.032-.128-.128-.128-.832 0-.224.016-.816t.048-1.008q.064-1.216.064-2.048-.16.16-.384.432t-.336.4-.256.288-.24.208-.192.016q-.192-.032-.48-.32t-.48-.576l-.192-.256-.192-.448.768-.896q.768-.864.96-1.088.32-.384 1.168-1.104t1.136-.784q.128-.096.224-.064t.384.352q.064.064.192.224l.128.16q.096.096.896.928t1.52 1.568.816.8q.064.096 0 .208t-.16.208l-.096.064q-.8.928-.992 1.088-.064.096-.224-.016t-.256-.24L16 9.376q-.224-.192-.896-.96 0 .224-.032.624t0 .56q.064 2.976.032 3.392 0 .096-.032.128t-.08.048-.144 0-.16-.016zm-9.44 8.16-.384-.416q-.416-.416-.848-.88t-.624-.624q-1.6-1.472-1.824-1.856 0-.032-.24-.24t-.208-.336q.032-.192.112-.352t.192-.288.144-.192q.384-.288.416-.352.224-.192 1.648-1.664t1.552-1.632q.128-.096.208-.064t.144.096l.064.064q1.024 1.024 1.152 1.216.096.096 0 .256t-.224.288l-.128.096q-.256.352-.96 1.024.224 0 .608.032t.48.032q2.656-.128 3.36-.064.096 0 .128.048t.048.096.016.128v.176l-.032 1.76q0 .512-.096.576-.128.128-.864.128-.224 0-.784-.016t-.944-.048q-1.024-.096-2.016-.096.16.16.704.672t.704.704q.128.192-.064.384l-1.12 1.184q0 .032-.032.064t-.112.096-.176 0zm17.344-.192q-.128.096-.208.08t-.112-.08l-.064-.096q-.96-1.024-1.184-1.216-.096-.096.016-.256t.272-.288l.128-.096.928-.96q-.16 0-1.152-.08t-1.152-.048q-1.376.096-2.144.096-.288-.064-.288-.416-.096-1.44-.096-1.504 0-.768.064-.8.448-.096.864-.032.288 0 .784-.032t.88 0q.96.096 2.208.096-.256-.256-.672-.608t-.592-.528-.144-.304.704-.736l.64-.64q0-.032.032-.064t.112-.064.144 0q.032.032.448.416t.912.832.656.576q.352.32 1.088 1.136t.896 1.072q.128.224-.256.704l-.096.096q-.096.096-.16.176t-.096.08q-.064.032-.304.384t-.624.848-.736.816-.768.656-.656.544-.272.24zm-8.864-1.824q-.864 0-1.568-.768t-.704-1.536q0-.96.704-1.728.672-.608 1.568-.608.288 0 .672.128.416.096.96.64.64.736.64 1.568 0 .704-.256 1.12-.448.832-1.408 1.088-.576.096-.608.096zm-.064 10.624q-.128 0-.304-.16t-.368-.32l-.16-.192q-.032-.064-.16-.208t-.16-.176q-.128-.16-.816-.832t-1.408-1.376-.752-.736q-.096-.096-.016-.208t.208-.24l.128-.096.992-1.152q.032-.032.112.032t.224.224.272.304.368.416.4.464q0-.256.016-.656t.016-.528q-.16-2.048 0-3.456 0-.096.032-.144t.08-.064.144-.016h.16q.192 0 .848.032t.912.032q.448 0 .704.064v.96q0 .224-.016.8t-.048.992q-.064 1.344-.064 2.112.32-.384.672-.736t.576-.56.256-.176q.128.032.464.352t.624.608l.288.32.096.288q-.032.064-.416.464t-.848.864-.592.656q-1.28 1.152-1.568 1.376l-.192.192q-.192.16-.4.32t-.304.16z"/></svg>