<svg xmlns="http://www.w3.org/2000/svg" width="26" height="32"><path d="M20.928 8.192q1.44 1.024 2.304 2.224t1.104 2.24.336 2.144-.032 1.936q-.032 1.952-1.6 3.872t-3.84 2.464q-1.408.352-2.848.352t-2.192-.112-.784-.048l-.096.448q-.096.448-.4 1.2t-.784 1.456q-.544.8-2.752 1.888l-1.056.192.832-1.472q1.632-3.424-.544-3.776l-3.392-.544q-4-.8-4.064-6.4-.096-2.848 1.072-5.12T5.536 7.68q3.072-1.728 7.392-1.504 2.144.096 4.528.688t3.472 1.328zm.032 4.736q.32 0 .32-.352v-.672q0-.32-.352-.32h-3.2q.064-.256 0-.448 0-.32-.32-.32h-.672q-.384.064-.32.352 0 .288-.032.416h-2.976q-.352 0-.352.32v.672q0 .352.32.352.576 0 1.792.016t1.792.016q.224 0 .624-.016t.592-.016q-.544 1.344-1.408 2.304-.256-.416-.64-1.376-.128-.32-.416-.192l-.608.192q-.288.128-.192.448.352 1.056.896 1.824-1.248.928-2.656 1.184-.32.064-.256.384l.096.672q0 .352.384.288 1.856-.352 3.328-1.536.384.32.576.448 1.536 1.056 3.264 1.056h.032q.352 0 .352-.384l-.096-.64q-.064-.288-.32-.288-1.344 0-2.496-.8-.256-.192-.352-.288 1.248-1.344 1.984-3.296h1.312zm-9.952 6.016q.192 0 .192-.16v-.096q-.224-.896-.32-1.184-.096-.384-.272-1.056t-.272-1.024q-.064-.192-.416-1.456t-.544-1.936l-.192-.576q-.096-.352-.32-.352h-1.28q-.192 0-.224.192 0 .032-.16.432t-.288.752q-.128.384-.352 1.104t-.256.752q-.096.288-.352 1.104t-.384 1.232q-.096.32-.304.976t-.304.976l-.064.192q0 .096.256.128h.704q.128.032.512.032.16 0 .256-.224.16-.576.32-1.024.032 0 .032-.064t.032-.064h2.208q0 .032.064.224.064.352.192.992.032.16.224.16h.576q.448 0 .736-.032zm-2.848-5.6q.096.352.336 1.392t.336 1.392l-.768.032q-.128 0-.352-.016t-.352-.016q.512-2.048.8-2.784z"/></svg>