<svg xmlns="http://www.w3.org/2000/svg" width="28" height="32"><path d="M4 23.136q-.736.032-1.552-.176t-1.168-.784q-.192-.416-.144-1.136t.304-1.136q.032-.032.112-.144t.112-.176.112-.16.128-.16.128-.16.144-.16l.144-.144.16-.128.176-.112.192-.096q.384-.128 1.568-.224l-.032-.544q0-.32-.016-1.28T4.32 14.88q-.32-1.92-.352-2.368 0-.256-.288-4.576 0-.192.48-.32t1.2-.256 1.008-.256q1.984-.832 4.352-1.632.256-.096.912-.176t.976-.208q.096-.032.992-.352t.992-.352l.032.032.096.128.128.224.128.304.128.368.096.464.064.528q.128.768.128.8.128 1.056.256 3.52 0 .224.064 1.056.16 1.184.224 3.36l.096 2.016v.256q0 .096-.016.368t-.048.512-.064.368q-.128.256-.464.608t-.72.64-.736.48q-.768.448-1.376.448-2.272.096-2.88-1.056-.352-.608.224-2.016.256-.64 1.6-1.344.224-.128.432-.16t.544 0 .432.032q0-.096.016-.704t-.016-.736q-.032-.736-.192-2.384t-.224-2.448q0-.032-.016-.112t-.016-.144l-.032-.16q-.192.064-.608.224t-.672.256q-.352.096-1.984.64-1.984.608-2.208.704l-.128.096q0 .256.032.592t.08.624.096.64.08.64q.032.512.064 1.136t.048 1.296.048 1.088q.032.544.032 1.696V20q0 .096-.032.128-.032.288-.192.64-.448 1.056-1.248 1.504-1.248.768-1.888.864zm13.184 5.984q-1.12.256-2.24.128t-1.968-.784-.88-1.52q-.032-.672.368-1.472t.976-1.152q.416-.224 1.024-.384t1.312-.208 1.184.24l.576-3.136q.032-.256.128-.592t.208-.704.144-.56l.064-.736q.064-.416.576-2.688t.576-2.56q.064-.224.208-.64t.176-.64q0-.512.064-.608l.128-.032h.112l.176.032.208.048.176.016q.096.032.48.096t.672.16q.064.064.56.176t.624.176q.128 2.112.608 2.784.032.032.416.688t.64.784 1.088.448 1.152.48q.192.064.16.352t-.192.352q-.032 0-.096.016t-.096.016q-.416.128-.848.144t-1.008-.032-.864-.048q-.416 0-.992-.16t-.992-.192q-.064.352-.16.752t-.16.656-.064.32q-.512 2.56-.576 3.2-.064.224-.128.64t-.064.448q-.064.256-.128.736t-.064.544q-.032.064-.096.256t-.112.32-.048.256q0 .096-.064.352v.064q-.032.64-.528 1.312t-1.168 1.152q-.8.544-1.248.704z"/></svg>