<svg xmlns="http://www.w3.org/2000/svg" width="31" height="32"><path d="M17.984 28.704q-1.184-.032-2.4-.384-1.088-.352-2.144-.992-.992-.608-1.888-1.44-.224-.224-.448-.416-.032-.064-.128-.128-.128-.128-.144-.192t.112-.256q.256-.352.608-.736t.832-.816.672-.656q.288.32.576.576.576.576 1.184.992t1.248.672q.576.256 1.184.352.704.16 1.664-.032.256-.032.848-.112t1.008-.176.8-.224q.864-.256 1.568-.768.768-.544 1.344-1.344.608-.8.992-1.888t.512-2.368q.096-.896-.224-2.048-.288-.96-.768-1.792-.448-.832-1.056-1.552T22.56 11.68t-1.632-1.008-1.824-.688-1.6-.288q-.416-.032-.864.064-.448.064-.928.256-.704.288-1.408.832-.896.672-1.696 1.664-.32-.32-.928-.96-.128-.128-.384-.368t-.448-.448-.352-.432q-.032-.064-.096-.128-.064-.032 0-.128 0-.064.032-.096l.288-.32q.64-.704 1.312-1.248 1.152-.896 2.368-1.408.832-.352 1.664-.512.896-.16 1.792-.096 1.248.096 2.752.576 1.408.48 2.656 1.216 1.28.736 2.32 1.728t1.84 2.176q.8 1.216 1.28 2.592.512 1.408.672 2.88 0 .32-.032.768-.128 1.568-.544 2.944-.416 1.408-1.12 2.56-.704 1.184-1.664 2.08-.96.928-2.176 1.536-1.248.608-2.72.864-.256.032-.752.128t-.816.16-.768.112-.8.016zm-9.28-4.864q-.16.096-.288.08t-.192-.112l-.096-.096Q6.72 22.304 6.56 22.048q-.064-.096-.048-.208t.096-.224.176-.208l.256-.256q.48-.608 1.44-1.536-.32 0-.848-.048t-.656-.048H4.88l-2.24.016-1.264-.016q-.128 0-.176-.048t-.064-.096-.016-.144v-.224l.032-1.984q.032-.608.128-.672t.256-.112.32-.048h.608q.256 0 1.568-.032t1.856 0h2.784q-.224-.224-1.056-.992T6.56 14.112q-.192-.256.096-.512l1.536-1.632.16-.192q.128-.096.256-.032.032.032.56.608t1.136 1.184.864.832q2.176 2.048 2.496 2.56.448.544.56.752t.016.48-.576.688q-.544.384-.576.48-.32.256-2.272 2.272t-2.112 2.24z"/></svg>