<svg xmlns="http://www.w3.org/2000/svg" width="21" height="32"><path d="M18.208 14.144q-.736 0-1.44-.384-.288-.16-.576-.384-.096-.064-.096-.16 0-.064.064-.16l.08-.08.08-.096.064-.096.096-.112q.16-.192.224-.256.096-.096.16-.096l.16.096q.64.384 1.008.384t.688-.288q.288-.288.288-.832 0-.672-.8-.992-.448-.192-.832-.192-.128 0-.128-.16l-.032-.608q0-.064.16-.256.48-.544.672-.768l.128-.16h-.192l-1.472-.032q-.192-.032-.192-.128V8.32q0-.128.016-.368t.016-.336q0-.16.048-.192t.176-.064h1.056q.384 0 1.104.016t1.072.016q.128 0 .176.048t.048.24v.576q0 .096-.128.256-.064.032-.112.096t-.096.112-.08.096-.064.08l-.032.032q-.096.064-.176.16t-.192.208-.176.144q0 .032-.096.128.032 0 .384.16.512.192.8.768.256.544.256 1.12 0 .448-.224 1.12-.032.128-.224.416-.32.512-1.056.864-.288.128-.608.128zM1.792 28.16q-.704-.896-.672-1.808t.704-1.76 1.584-1.472 1.968-.912 1.856-.096Q7.2 21.056 7.2 19.648q.064-3.232 0-5.536-.064-2.176.128-5.056.032-.48.656-.624t1.232.112.608.8q0 .288.16.64.224.512.928 1.056.416.288 1.376.784t1.376.848q.736.576 1.088 1.184.448.736.448 1.568 0 .32-.064.64-.096.448-.352.864-.288.48-.768.864l.096.096q.512.448.768.864.288.544.32 1.152 0 .544-.224 1.12-.224.512-.608.96-.384.48-1.088.608-.416.096-.384-.192 0-.192.192-.448.16-.224.256-.48.224-.416.256-.8.032-.352-.032-.704 0-.16-.288-.416-.192-.192-.8-.544-.448-.256-1.392-.656t-1.424-.656q0 .384-.048 1.216t-.08 1.28q-.032.64-.048 1.888t-.016 1.408q-.032 1.632-.16 2.016-.288.928-1.216 1.792t-2.048 1.36-2.32.416-1.936-.912zm11.456-10.912q.064-.096.096-.128.288-.512.32-.96.032-.384-.096-.768-.096-.352-.384-.672-.128-.16-.672-.512-.448-.288-1.408-.64t-1.376-.608v1.072l.032.352.096.336q.192.48.736.96.32.288.752.544t.96.512.816.448z"/></svg>