<svg xmlns="http://www.w3.org/2000/svg" width="15" height="32"><path d="M3.712 30.4q-2.4-.064-2.592-1.888-.16-1.632 1.408-3.392 1.824-1.984 3.968-1.824.288 0 .576.064v-3.936q.032-1.92-.032-3.328-.096-3.84.128-6.88.032-.544.24-.736t.784-.16q.384.032.608.112t.336.336.16.432.112.704.128.912q.16.864.48 1.536.352.704.832 1.184.288.288 1.008.784t1.04.816q.608.64.896 1.28.32.736.32 1.568 0 .48-.128.992-.192.704-.672 1.376-.352.512-1.216.96-.576.32-.576-.032.032-.16.16-.416.032-.096.096-.128.448-.704.64-1.392t.112-1.232-.272-.928q-.16-.256-.608-.672-.32-.32-1.072-.736T9.6 15.2q0 1.76-.032 2.336l-.048 1.76q-.048 1.728-.08 3.52v.736l-.016.72-.016.704-.032.72q-.096 1.344-.944 2.464T6.32 29.872t-2.608.528zm8.096-1.952q-.352 0-.704-.256-.672-.48-.672-1.088 0-.48.432-.928t.944-.448q.448 0 .64.096.704.384.704 1.28 0 .576-.256.896-.352.448-1.088.448z"/></svg>