<svg xmlns="http://www.w3.org/2000/svg" width="18" height="32"><path d="M14.4 14.784q-.736 0-1.44-.384-.256-.16-.576-.384-.064-.064-.064-.16 0-.064.064-.144t.144-.192.144-.208q.16-.16.224-.256.096-.096.16-.096.032 0 .16.096.64.384 1.024.384t.672-.288.288-.832q0-.672-.8-.992-.448-.192-.8-.192-.128 0-.16-.16v-.608q0-.064.128-.256.512-.544.704-.768l.096-.16h-.16l-1.504-.032q-.16-.032-.16-.128v-.768q0-.16.048-.192T12.768 8q.064 0 .176.016t.192.016.176-.032h.544q.352 0 1.072.016T16 8.032q.16 0 .192.048t.032.24v.064l.016.192.016.32q0 .096-.16.256l-.112.112-.128.144-.08.096-.576.576-.096.128.128.064.128.048.096.048q.544.192.8.768.256.544.256 1.12 0 .448-.192 1.12-.064.128-.224.416-.352.512-1.088.864-.288.128-.608.128zM5.152 30.176q-1.888.288-3.168-.72t-.704-2.864q.608-1.888 2.624-3.184t3.904-.88V20.32q0-2.464-.032-3.904-.128-4.512.192-7.168.064-.48.4-.736t1.392-.32q.352-.032.56.256t.272.8.048.992-.032 1.056-.016.8q.064.96 0 5.376 0 .8-.064 2.272t-.064 2.112q0 .16-.016 1.264T10.4 24.8q-.128 2.144-1.584 3.616t-3.664 1.76z"/></svg>