<svg xmlns="http://www.w3.org/2000/svg" width="16" height="32"><path d="M13.216 24.896q-.736 0-1.44-.384-.256-.16-.576-.384-.096-.064-.096-.16 0-.064.064-.144t.16-.192.16-.208q.128-.16.224-.256t.16-.096q.032 0 .16.096.64.384 1.008.384t.688-.288q.288-.288.288-.832 0-.672-.8-.992-.448-.192-.832-.192-.128 0-.128-.16l-.032-.608q0-.064.16-.256.48-.544.672-.768l.128-.16h-.192l-1.472-.032q-.192-.032-.192-.128v-.064q0-.128.016-.368t.016-.336q0-.16.048-.192t.176-.064h1.056q.384 0 1.104.016t1.072.016q.128 0 .176.048t.048.24v.576q0 .096-.128.256-.064.032-.128.112t-.112.144-.096.096-.048.064q-.096.064-.176.16t-.192.192-.176.16q0 .032-.096.128.032 0 .384.16.512.192.8.768.256.544.256 1.12 0 .448-.224 1.12-.032.128-.224.416-.32.512-1.056.864-.288.128-.608.128zm-12 1.632q-.544-2.336 1.664-3.456 1.952-1.024 4.352-.416 2.464.608 3.008 2.528l.096.704q.096 1.248-.736 2.144t-2.096 1.152-2.592.112-2.384-.896-1.312-1.872zM6.4 27.936q1.344-.16 1.216-1.568-.128-1.312-1.216-2.144-.736-.576-1.504-.416-1.504.288-1.312 1.696.192 1.248 1.344 2.048.704.48 1.472.384z"/></svg>