<svg xmlns="http://www.w3.org/2000/svg" width="15" height="32"><path d="M3.072 29.984q-2.176-.416-1.92-2.24.224-1.664 1.952-3.104 1.856-1.536 3.616-1.152-.032-.352-.016-.784t.016-.912v-.832q.032-9.184 0-12.128-.032-1.376.128-2.368.128-.768 1.536-.48.192.032.336.208t.192.384.016.304v.064q0 .32.192.704.224.512.96 1.056.416.256 1.36.704t1.36.768q.736.544 1.056 1.088.48.736.48 1.504.032.288-.032.608-.096.448-.352.864-.256.448-.704.8.032.032.064.096.32.384.512.8.224.448.256.928.064.512-.064.992-.128.384-.352.768-.256.416-.672.768l.096.096q.448.384.704.768.288.512.32.992.064.48-.128 1.056-.128.48-.416.896-.288.48-.736.832-.288.192-.576-.032-.16-.288.032-.576.064-.032.096-.096.288-.48.384-.992.064-.576-.032-.864-.064-.16-.288-.448-.16-.224-.96-.672-.352-.16-1.136-.496t-1.168-.56l-.192-.128v1.664q-.032.384-.048.848t-.032.96-.048.848v.928l-.032 1.088q-.064 1.312-.912 2.448t-2.176 1.712-2.672.32zm9.472-15.552q.032-.032.032-.064.224-.384.288-.736.032-.288-.016-.576t-.176-.576q-.16-.256-.32-.448-.192-.224-.512-.384-.192-.128-.416-.256-.32-.16-1.136-.512t-1.232-.608q.096 1.28.192 1.568.256.64.896 1.152.384.32 1.216.752t1.184.688zm-.288 4.416q.032-.032.064-.096.288-.48.32-.928.032-.384-.096-.768-.128-.32-.384-.64-.192-.192-.864-.576-.352-.192-1.12-.496t-1.12-.528q-.064.544.032 1.024.128.608.416 1.072t.736.784q.128.096.16.096.288.192.88.512t.816.48q.064.032.16.064z"/></svg>