<svg xmlns="http://www.w3.org/2000/svg" width="27" height="32"><path d="M19.616 6.368q3.136 1.408 4.976 4.512t1.84 6.688v.288q-.48 3.456-2.304 6.528-2.304 3.968-8.416 4.672-6.944.768-10.464-2.56-2.08-1.952-2.848-4.608t-.768-6.016q0-3.424 1.728-6.08.992-1.6 1.92-2.272 2.432-1.6 6.144-2.304.288-.064 2.016-.128 3.744.032 6.176 1.28zm-12.8 4.672q-.512.544-.816 1.376t-.384 1.712T5.504 16t0 1.824q0 1.792.48 3.168 1.824-1.568 7.488-5.728l6.112-4.736q-1.952-1.312-4.896-1.6h-1.152q-3.104.064-4.768.768-.352.128-1.104.704t-.848.64zM22.4 19.872q.288-.672.368-1.584t0-1.76-.208-1.504-.288-1.072l-5.824 4-8.032 6.4q.928.672 2.064.976t2.224.272 2.336-.128q2.624-.256 4.352-1.248 1.056-.672 1.648-1.584t1.36-2.768z"/></svg>