<svg xmlns="http://www.w3.org/2000/svg" width="26" height="32"><path d="M21.152 22.592q.032 1.024-.832 1.6-.064.064-.192.16-.352.288-1.152 1.088l-1.344 1.344q-.384.672-1.152.832t-1.408-.256l-1.984 2.208q-1.376-.96-3.296-2.72-.608.576-1.44.48t-1.28-.8q-.16-.192-.384-.48-.608-.64-1.44-1.44-.128-.096-.32-.304t-.256-.272q-.096-.064-.288-.24t-.272-.272-.208-.256-.16-.352q-.352-1.056.512-1.92-1.696-2.08-2.528-4.032t-.544-4.096q.256-1.888 1.472-3.488T5.6 7.12t3.744.144q1.44.608 2.384 2.032t1.232 3.12q.352-1.44 1.184-2.784 1.472-2.336 3.776-2.688.896-.128 1.84.016t1.84.544 1.536 1.008q.768.736 1.12 1.664T24.624 12t-.304 1.968-.72 1.936-1.04 1.888-1.104 1.68-1.072 1.456q.064.064.096.128l.064.064q.128.128.224.256.384.608.384 1.216zm-1.504-7.648q0-.064-.032-.096-.064-.128-.416-.544-.48-.576-.512-.608-.128-.256-.352-.48l-.736-.736q-.512-.512-.64-.576-.096-.032-.256.064-.32.128-.64.4t-.704.656-.576.512q-1.12.992-2.208 2.08l-.096-.096q-.608-.64-1.744-1.84t-1.488-1.552q-.032-.032-.128-.176t-.208-.24-.176-.096q-.032 0-.096.016t-.096.016q-.064.032-.416.32-.096.096-.368.352t-.4.352q-.032-.032-.064-.096.032.064.064.096-.192.128-.384.288l-.208.208-.256.272-.208.224-.304.288-.336.352q0 .096.064.288t.224.384.384.464.288.336q.352.48.8.944t1.04 1.056.848.88l-.128.032q-.224.256-.576.608-.704.736-1.728 1.696-.8.768-1.056.992-.032.064-.064.064-.096.16-.288.192l-.064.128q.064.032.128.096t.112.096.112.096.128.096q.256.256.352.416.256.192.608.512.672.64 1.184 1.248.352.384.512.64.32-.256.752-.624t.752-.656.72-.64.72-.64q.192-.16.48-.48t.48-.448h.096q1.248 1.312 1.824 1.888.16.192.448.464t.528.512.432.464q.128.16.192.32h.064q.064.064.064.192v-.032q.032-.032.032-.064.032-.096.192-.256.032-.032.064-.032.224-.192.48-.432t.544-.56.448-.48.656-.576.72-.672l.096-.096.032-.192q0-.128-.32-.416-.128-.128-.4-.368t-.4-.4q.032-.032.064-.032l-.064.032q-1.376-1.376-2.464-2.56l2.24-2.208q.48-.448 1.344-1.28l.288-.288v-.064z"/></svg>