<svg xmlns="http://www.w3.org/2000/svg" width="27" height="32"><path d="M3.04 12.032q-.128 0-.256-.032-.736-.064-1.248-.576-.512-.448-.416-.992.064-.192.352-.544.544-.704 1.888-1.664 1.056-.768 2.24-1.44.48-.288.768-.416.352-.192.96-.192h.256q.096.032.192.032.608 0 .96-.256.256-.16.544-.576.032-.064.128-.192.256-.416.384-.448h.032q.128 0 .224.064l.032.032v.128l-.032.256q-.064.832.288 1.28.288.384 1.024.896.224.16.352.256.384.32 1.056 1.152l.16.192q.448.544 1.2 1.232t1.36 1.072q.064.032 0 .096l-8.896 6.464q-.096.064-.096-.064v-.896q.032-2.752 0-3.36-.032-.576-.16-.96-.32-.832-1.12-.896h-.128q-.32 0-.928.16-.16.032-.224.064-.544.128-.896.128zm22.336 4.992v.576q-.128 1.056-.576 2.432-.8 2.656-2.016 4.416-1.152 1.6-3.072 2.592-.864.448-1.92.736-.48.16-.992.256l-.576.128q-.032 0-.128.032-.16.032-.192.032h-.064q-1.696.256-3.2.256-1.888 0-3.488-.384-2.272-.576-3.872-1.952-1.568-1.376-2.464-3.296-.864-1.824-1.12-4.256-.128-1.152-.16-2.496-.032-1.728.16-2.912 0-.064.064-.064l2.592.064q.032 0 .048.016t.016.048q-.096.992-.128 2.624-.064 2.88.288 4.32l.16.672q.032.096.096.032l.512-.448q1.536-1.28 4.544-3.552.48-.352 1.28-.96 2.368-1.76 3.52-2.656l4.544-3.52q.032-.032.032-.064t-.032-.032l-.576-.32q-.864-.48-2.464-.928-.8-.256-2.72-.512h-.032q-.128-.16-.192-.224l-.064-.096q-.064-.064-.112-.144t-.144-.176l-1.472-1.408q-.224-.16-.32-.256h-.032l-.192-.192q0-.064.064-.064h.352l.064-.032h.576q2.944 0 4.736.448 2.048.512 3.808 1.76 1.728 1.248 2.88 3.04 1.504 2.304 1.888 5.12.064.608.096 1.216v.128zm-2.56 1.024q.128-1.44-.192-3.136-.224-1.28-.736-2.304l-.224-.448q-.032-.064-.096 0l-.416.288q-.16.128-.352.256-1.728 1.28-4.576 3.232-.8.576-1.92 1.472l-7.84 6.24q-.064.064 0 .096l.352.32q1.6 1.504 3.872 1.824.704.096 1.536.096t2.176-.128q2.368-.224 4.032-.96 1.504-.704 2.464-2.048.608-.864 1.44-2.784l.064-.224q.32-.768.416-1.792zm-2.112-3.872q.384 1.76.416 2.752.032.896-.096 1.568-.096.512-.512 1.472l-.064.128q-.768 1.632-1.472 2.368-.864.896-2.464 1.344-1.792.544-4.576.544-.48 0-1.168-.128t-1.36-.336-1.12-.432q-.032 0-.032-.032t.032-.064l12.32-9.216q.096-.064.096.032z"/></svg>