<svg xmlns="http://www.w3.org/2000/svg" width="28" height="32"><path d="M4.416 16.992q-.832.224-1.616.032t-1.36-.64q-.416-.352-.304-.656t.56-.368q1.216-.16 1.792-1.44-.096-.448-.128-.88t-.032-.624v-.224q0-3.36 2.784-5.664Q7.232 5.6 8.288 5.12q1.504-.672 2.848-.672.992 0 2.272.48 1.408.512 2.688 1.856.128.128.368.32t.448.384.336.352q1.056 1.504 1.408 2.88L6.464 20q-.672-.608-.736-.672-.768-1.12-1.312-2.336zm20.544-5.024q1.76 2.976 1.76 6.464v.288q-.48 3.36-2.24 6.368-2.24 3.84-8.192 4.512-1.312.16-2.496.16-2.304 0-4.128-.576-2.112-.64-3.584-2.048-1.824-1.728-2.688-4.288-.672-1.984-.8-4.64.256.032.48.032h.256l.352-.096q.096.128.224.416.32.768.736 1.312h.032q.192.224.608.704.64.736.704.8l.288.288 13.856-10.56-.064-.192q-.064-.192-.128-.512-.32-1.216-1.12-2.304-.32-.64-1.088-1.408 1.28.288 2.368.832 3.04 1.376 4.864 4.448zm-17.6-3.04q-.352 0-.672.192t-.496.496-.176.656q0 .288.032.416.064.288.416.608.288.224.896.224.384 0 .688-.144t.48-.432.176-.672q0-.416-.384-.8l-.416-.416q-.256-.128-.544-.128zm6.048.992q-.64.352-.64 1.056 0 .544.384.944t.944.4.96-.4.4-.944q0-.224-.288-.704-.512-.832-1.056-.64-.192 0-.704.288zm-4.096 3.392-.208-.208-.192-.176-.192-.08-.24.08q-.256.224-.16.528t.448.656q.704.608 1.568.704.48.032 1.136-.272t.944-.72q.352-.48-.128-.736-.384-.192-.672.096-.032 0-.16.144t-.192.192-.208.144-.304.128-.352 0q-.576-.064-1.088-.48zm14.144 7.616q.416-1.024.416-2.48t-.208-2.48-.432-1.504v-.128q0-.256-.064-.416l-.192-.32-6.24 4.16-8.896 7.072.288.256q.16.128.288.256 1.056.896 2.4 1.28 1.12.32 2.592.32.896 0 2.304-.128 2.72-.256 4.544-1.312h.032q1.12-.736 1.744-1.696t1.424-2.88zm-1.376-.32q.384 0 .448.432t-.32.88q-.64.736-1.312 1.072t-1.984.72q-.032 0-.368.112t-.496.144q-.32.064-.704.08t-.656.016-.784-.032-.736-.032q-2.208-.064-3.488-.608-.096-.064-.256-.096l7.68-5.792q.352 1.504.992 2.304t1.984.8z"/></svg>