<svg xmlns="http://www.w3.org/2000/svg" width="21" height="32"><path d="M18.144 12.48q-.704 0-1.44-.384-.256-.16-.544-.384-.096-.096-.096-.16t.064-.144.144-.208.144-.192q.16-.192.256-.256.064-.096.128-.096.032 0 .192.096.64.384 1.008.384t.688-.288q.256-.288.256-.864 0-.64-.8-.992-.448-.16-.8-.16-.128 0-.128-.16l-.032-.608q0-.096.128-.256l.704-.8.128-.16h-.192l-1.472-.032q-.192 0-.192-.096v-.56l.016-.24.032-.128.064-.064.144-.032H17.6q.352 0 1.072.016t1.104.016q.096 0 .144.016t.048.08.032.192v.576q0 .096-.128.224-.096.096-.176.192t-.144.16-.064.096l-.544.512q0 .032-.096.128l.384.16q.512.16.8.768.256.512.256 1.088 0 .48-.224 1.12-.032.16-.224.448-.32.48-1.088.864-.256.128-.608.128zM3.072 29.984q-2.176-.416-1.92-2.24.224-1.664 1.952-3.104 1.856-1.536 3.616-1.152-.032-.448-.016-1.328t.016-1.2q.032-9.184 0-12.128-.032-1.376.128-2.368.128-.768 1.536-.48.192.032.336.208t.192.384.016.304v.064q0 .32.192.704.224.512.96 1.056.416.256 1.36.704t1.36.768q.736.544 1.056 1.088.48.736.48 1.504.032.288-.032.608-.096.448-.352.864-.256.448-.704.8.032.032.064.096.32.384.512.8.224.448.256.928.064.512-.064.992-.128.384-.352.768-.256.416-.672.768l.096.096q.448.384.704.768.288.512.32.992.064.48-.128 1.056-.128.48-.416.896-.288.48-.736.832-.288.192-.576-.032-.16-.288.032-.576.064-.032.096-.096.288-.48.384-.992.064-.576-.032-.864-.064-.16-.288-.448-.16-.224-.96-.672-.352-.16-1.136-.496t-1.168-.56l-.192-.128v1.664q-.032.448-.064 1.344t-.064 1.312v.928l-.032 1.088q-.096 2.048-1.888 3.456t-3.872 1.024zm9.472-15.552q.032-.032.032-.064.224-.384.288-.736.032-.288-.016-.576t-.176-.576q-.16-.256-.32-.448-.192-.224-.512-.384-.192-.128-.416-.256-.32-.16-1.136-.512t-1.232-.608q.096 1.28.192 1.568.256.64.896 1.152.384.32 1.216.752t1.184.688zm-.288 4.416q.032-.032.064-.096.288-.48.32-.928.032-.384-.096-.768-.128-.32-.384-.64-.192-.192-.864-.576-.352-.192-1.12-.496t-1.12-.528q-.064.544.032 1.024.128.608.416 1.072t.736.784q.128.096.16.096.288.192.88.512t.816.48q.064.032.16.064z"/></svg>