<svg xmlns="http://www.w3.org/2000/svg" width="18" height="32"><path d="M14.944 14.784q-.736 0-1.44-.384-.256-.16-.544-.384-.096-.064-.096-.16 0-.064.064-.16.032-.064.08-.112t.096-.128.112-.144q.16-.16.224-.256.096-.096.16-.096.032 0 .192.096.608.384.992.384t.704-.288q.256-.288.256-.832 0-.672-.8-.992-.448-.192-.8-.192-.128 0-.16-.16v-.608q0-.064.128-.256.512-.544.704-.768l.128-.16h-.192l-1.504-.032q-.16-.032-.16-.128v-.768q.032-.16.064-.192T13.344 8q.032 0 .144.016t.208.016.16-.032h.544q.352 0 1.072.016t1.104.016q.128 0 .16.048t.032.24l.016.064.016.192v.32q0 .128-.128.256-.096.064-.176.16t-.144.16l-.256.256-.192.208-.16.144q-.032.032-.096.128l.384.16q.512.192.8.768.224.544.224 1.12 0 .448-.192 1.12-.064.128-.224.416-.32.512-1.088.864-.256.128-.608.128zM5.12 30.176q-1.856.256-3.136-.72t-.704-2.864 2.624-3.184 3.936-.848q-.032-1.024 0-2.4 0-2.176-.032-3.904Q7.68 12.992 8 9.088q.032-.384.128-.576t.352-.272.736-.048q.128 0 .304.016t.336.016.304.08.208.24q.192.416.24 1.104t.032 1.472-.016.976q.064.928 0 5.312 0 .864-.064 2.448t-.064 1.936q-.032.672-.016 1.184t-.016 1.168-.096 1.168q-.224 1.952-1.712 3.264t-3.536 1.6zm-1.408-3.36q-.896 1.856.224 1.76 1.056-.096 2.72-1.504.48-.384.704-.704.416-.64.528-1.248t-.24-.928-1.184 0q-.768.288-1.584 1.072t-1.168 1.552z"/></svg>