<svg xmlns="http://www.w3.org/2000/svg" width="28" height="32"><path d="M11.424 28.672q-1.088-.096-2.112-.448-.992-.352-1.92-.928-.896-.544-1.696-1.312-.8-.704-1.472-1.568-.96-1.152-1.632-2.496-1.088-2.144-1.28-2.88-.192-.64-.192-1.408 0-1.152.288-2.336.288-1.024.832-2.112.704-1.344 1.76-2.656 1.152-1.472 2.496-2.432Q7.52 7.36 8.608 6.912q.8-.32 1.6-.416.864-.16 1.76-.064 1.216.096 2.656.576 1.376.416 2.592 1.12t2.24 1.664q-.288.16-.512.416-1.28 1.28-1.824 1.952-.352-.32-.704-.576-.768-.544-1.632-.96t-1.824-.64q-.928-.256-1.504-.256-.416-.032-.864.064t-.928.288q-.704.32-1.44.896-.864.672-1.664 1.664-.8 1.056-1.344 2.048-.48.96-.672 1.824-.16.896-.064 1.472.032.288.16.576t.352.704.288.544q.64 1.344 1.28 2.208.576.768 1.248 1.408.544.512 1.12.896.608.416 1.216.64.608.256 1.184.352.672.128 1.92-.096 2.112-.384 2.368-.48.448-.128.8-.32.096-.032.368-.24t.4-.24q.064-.032.176.016t.128.064.112.128.128.144q.128.16.288.32l.608.608q.352.352.592.544t.56.32q-.064.192-.864.704-.992.704-2.176 1.088-.64.224-2.528.544-1.984.352-2.784.256zm9.6-4.832q-.16.128-.288.096t-.192-.128l-.096-.096q-1.376-1.408-1.568-1.664-.128-.128 0-.336t.32-.368l.16-.16q.48-.64 1.44-1.536-.32 0-.848-.048t-.656-.048q-.544-.032-1.504-.032t-1.76.016-1.52.016-.784-.032q-.128 0-.192-.032t-.064-.096v-.16l-.032-.224.064-1.952q0-.608.128-.704.096-.096.336-.128t.448-.016.4.016q.224 0 1.536-.032t1.856 0h2.784q-.224-.224-1.056-.992t-1.056-1.056q-.192-.256.096-.512L20.512 12l.16-.224q.16-.032.256 0 .032.032.368.4t.736.768.816.832.608.624q2.208 2.016 2.496 2.528.48.544.592.768t0 .496-.592.656q-.512.416-.544.48-.352.288-2.288 2.288t-2.096 2.224z"/></svg>