<svg xmlns="http://www.w3.org/2000/svg" width="26" height="32"><path d="M24.928 20.384q-.8.704-3.104 1.728T16.864 24q-1.504.48-3.808 1.392t-5.328 2.144T3.2 29.344q0-.032-.048-.128t-.128-.272-.144-.368q-1.024-3.104.256-5.952 1.12-2.528-.192-4.736-.832-1.408-1.632-4.544-.384-1.472.048-2.992T2.512 7.84 4.16 6.016q-.448-.64-.448-1.152 0-.448.352-1.152.512-.832 1.344-.864.672 0 1.28.48t.768 1.152q1.088-.224 2.016-.24t1.904.208 1.872.848 1.632 1.68q2.176 3.008 2.72 4.416.608 1.632 1.216 2.624t1.44 1.344q2.816 1.088 4.096 3.68zM3.712 4.864zm10.4 24.736q-1.824 0-3.136-1.472L18.4 24.96v.32q0 2.144-.912 3.232T14.112 29.6z"/></svg>