<svg xmlns="http://www.w3.org/2000/svg" width="16" height="32"><path d="M2.688 29.632q-2.176-.864-1.344-2.912.64-1.632 2.528-2.752 1.664-1.024 2.944-.704 0-.512.016-1.488t.016-1.456q0-1.12-.128-6.304T6.688 6.08q.128-3.456.128-3.904t.624-.704 1.248-.08.56.784v.032q.032.192.128.448.192.384.96.928.352.256 1.28.736t1.344.832q.704.544 1.024 1.12.416.704.416 1.504 0 .288-.064.608-.096.416-.352.864t-.736.832q.032 0 .096.064.352.384.576.768.224.448.32.928.096.544 0 1.056-.096.416-.32.832-.256.448-.672.8 0 .032.096.096.352.384.576.8.224.448.32.928.096.544-.032 1.056-.064.416-.32.832-.256.448-.704.832.032 0 .128.064.48.416.736.832.288.512.352 1.056.032.48-.16 1.088-.128.48-.448.928-.736.992-1.312.704-.192-.288.032-.576.064-.064.064-.096.32-.48.416-.992.064-.576-.032-.832-.064-.192-.256-.448-.128-.192-.864-.608-.384-.224-1.328-.608t-1.424-.704q.032.96 0 1.632 0 .352-.048 1.232t-.048 1.36q0 .256.048 1.04t.016 1.312-.16.944q-.288 1.088-1.392 2.016t-2.368 1.248-2.448-.032zm9.856-20.128q.032-.064.064-.096.288-.48.32-.928.032-.352-.096-.736-.128-.352-.384-.608-.128-.192-.672-.512-.096-.064-.4-.208t-.688-.304-.752-.32-.624-.272l-.256-.112v.464l.016.432.048.432.128.432q.192.416.864.928.384.288 1.232.736t1.2.672zm-.032 4.448q0-.032.032-.096.224-.384.256-.736.032-.288 0-.544-.064-.288-.224-.576-.128-.224-.32-.416-.224-.224-.544-.384-.192-.128-.416-.224-.288-.16-.704-.32t-.8-.32-.704-.352q0 .128-.016.288t-.016.288v.288l.032.256q.064.352.176.544t.24.352q.256.352.928.768.32.224 1.024.592t1.056.592zm-.064 4.576q.16-.224.256-.48.128-.416.128-.736-.032-.352-.192-.672-.096-.224-.224-.384-.16-.192-.64-.544-.448-.288-1.392-.656t-1.328-.56q-.064.608.192 1.312.192.608.64 1.088.288.32.672.576t.944.544.752.416q.096.032.192.096z"/></svg>