<svg xmlns="http://www.w3.org/2000/svg" width="15" height="32"><path d="M5.12 30.176q-1.856.256-3.136-.72t-.704-2.864 2.624-3.184 3.936-.848q-.032-1.024 0-2.4 0-2.176-.032-3.904Q7.68 12.992 8 9.088q.032-.384.128-.576t.352-.272.736-.048q.128 0 .304.016t.336.016.304.08.208.24q.192.416.24 1.104t.032 1.472-.016.976q.064.928 0 5.312 0 .864-.064 2.448t-.064 1.936q-.032.672-.016 1.184t-.016 1.168-.096 1.168q-.224 1.952-1.712 3.264t-3.536 1.6zm-1.408-3.36q-.896 1.856.224 1.76 1.056-.096 2.72-1.504.48-.384.704-.704.416-.64.528-1.248t-.24-.928-1.184 0q-.768.288-1.584 1.072t-1.168 1.552zm8.768 1.632q-.32 0-.704-.256-.64-.48-.64-1.088 0-.48.432-.928t.912-.448.672.096q.704.384.704 1.28 0 .576-.256.896-.352.448-1.12.448z"/></svg>