<svg xmlns="http://www.w3.org/2000/svg" width="16" height="32"><path d="M1.792 28.16q-.704-.896-.672-1.808t.704-1.76 1.584-1.472 1.968-.912 1.856-.096Q7.2 21.056 7.2 19.648q.064-3.232 0-5.536-.064-2.176.128-5.056.032-.48.656-.624t1.232.112.608.8q0 .288.16.64.224.512.928 1.056.352.256.88.528t1.024.544.848.56q.736.576 1.088 1.184.448.736.448 1.568 0 .32-.064.64-.096.448-.384.864-.256.48-.736.864l.096.096q.512.448.768.864.288.544.32 1.152 0 .544-.224 1.12-.224.512-.608.96-.384.48-1.088.608-.416.096-.384-.192 0-.192.192-.448.16-.224.256-.48.224-.416.256-.8.032-.352-.032-.704 0-.16-.288-.416-.192-.192-.8-.544-.384-.224-.896-.448t-1.024-.432-.896-.432q0 .384-.048 1.216t-.08 1.28q-.032.64-.048 1.888t-.016 1.408q-.032 1.632-.16 2.016-.288.928-1.216 1.792t-2.048 1.36-2.32.416-1.936-.912zm11.456-10.912q.064-.096.096-.128.288-.512.32-.96.032-.384-.096-.768-.096-.352-.384-.672-.128-.16-.672-.512-.448-.288-1.408-.64t-1.376-.608v1.072l.032.352.096.336q.192.48.736.96.32.288.752.544t.96.512.816.448zm-1.76 11.2q-.352 0-.704-.256-.672-.48-.672-1.088 0-.48.432-.928t.944-.448q.48 0 .672.096.672.384.672 1.28 0 .576-.256.896-.352.448-1.088.448z"/></svg>