<svg xmlns="http://www.w3.org/2000/svg" width="15" height="32"><path d="M1.216 26.528q-.544-2.336 1.664-3.456 1.952-1.024 4.352-.416 2.464.608 3.008 2.528l.096.704q.096 1.248-.736 2.144t-2.096 1.152-2.592.112-2.384-.896-1.312-1.872zM6.4 27.936q1.344-.16 1.216-1.568-.128-1.312-1.216-2.144-.736-.576-1.504-.416-1.504.288-1.312 1.696.192 1.248 1.344 2.048.704.48 1.472.384zm6.336-1.184q-.32 0-.704-.288-.64-.448-.64-1.088 0-.448.432-.896t.912-.448.672.096q.704.352.704 1.248 0 .256-.064.512t-.192.416q-.352.448-1.12.448z"/></svg>