<svg xmlns="http://www.w3.org/2000/svg" width="20" height="32"><path d="M16.512 14.784q-.736 0-1.44-.384-.256-.16-.576-.384-.096-.064-.096-.16 0-.064.064-.144t.16-.192.16-.208q.16-.192.224-.256.096-.096.16-.096.032 0 .16.096.64.384 1.024.384t.672-.288.288-.832q0-.672-.8-.992-.448-.192-.8-.192-.128 0-.16-.16v-.608q0-.064.128-.256.512-.544.704-.768l.096-.16h-.16l-1.504-.032q-.16-.032-.16-.128v-.768q0-.16.048-.192T14.88 8h1.088q.352 0 1.072.016t1.072.016q.16 0 .192.048t.032.24v.576q0 .096-.128.256-.064.032-.128.112t-.112.144-.096.096-.048.064l-.368.368-.176.144q0 .032-.064.128l.352.16q.544.192.8.768.256.544.256 1.12 0 .448-.192 1.12-.064.128-.256.416-.32.512-1.056.864-.288.128-.608.128zM3.712 30.4q-2.4-.064-2.592-1.888-.16-1.632 1.408-3.392 1.824-1.984 3.968-1.824.288 0 .576.064v-3.936q.032-1.92-.032-3.328-.096-3.84.128-6.88.032-.544.24-.736t.784-.16q.384.032.608.112t.336.336.16.432.112.704.128.912q.16.864.48 1.536.352.704.832 1.184.288.288 1.008.784t1.04.816q.608.64.896 1.28.32.736.32 1.568 0 .48-.128.992-.192.704-.672 1.376-.352.512-1.216.96-.576.32-.576-.032.032-.16.16-.416.032-.096.096-.128.448-.704.64-1.392t.112-1.232-.272-.928q-.16-.256-.608-.672-.32-.32-1.072-.736T9.6 15.2q0 1.76-.032 2.336l-.048 1.76q-.048 1.728-.08 3.52v.928L9.424 24.8l-.048.896q-.16 2.048-1.872 3.424T3.712 30.4z"/></svg>