<svg xmlns="http://www.w3.org/2000/svg" width="29" height="32"><path d="M4.352 27.744q-.48-.384.032-1.152l5.632-.64.576-1.504-6.848-.032q-1.056.192-1.568-.224-.128-.096-.368-.272t-.288-.24-.16-.24-.144-.384-.032-.592q-.064-.704-.064-3.792v-5.84l.032-2.72q0-.032-.016-.192t.032-.48.128-.624.304-.592.544-.448q.544-.288 1.152-.368t.96-.048l.352.032 20.704-.224q.224 0 .576-.032t.496-.032.432.08.64.24q.576.256.64 1.216l.16 4.512-.16 9.888q-.128 1.408-.704 1.44l-2.4.128-6.496-.064.576 1.472 5.856.576q.096-.128.192.192.128.384.128.928zm.096-6.112q.384.256 10.192.224t10.32-.288q.544-.288.16-11.008-.032-.16-.176-.304t-.272-.208l-.128-.032-19.872.256q-.416.192-.416.544-.096 1.6-.08 6.112t.272 4.704zm14.496-3.072q-.8 0-1.536-.384-.288-.128-.608-.384-.096-.064-.096-.16 0-.064.064-.144t.16-.208.16-.192q.16-.192.256-.256.096-.096.16-.096.032 0 .192.096.64.384.928.384.416 0 .736-.32.288-.288.288-.864 0-.64-.64-.896-.288-.128-1.056-.128-.16 0-.16-.16l-.032-.736q0-.064.16-.256.096-.128.432-.432t.464-.432l.128-.16H17.12q-.192-.032-.192-.128v-.064q0-.128.016-.48t.016-.48q0-.096.016-.144t.064-.064.176-.048h1.12q.416 0 1.184.016t1.152.016q.16 0 .192.048t.032.24l.016.08.016.272v.48q0 .096-.16.256-.064.032-.128.112t-.128.144-.096.112-.064.048q-.096.064-.176.16t-.208.208-.192.176l-.096.128q.064.032.144.048t.144.048l.128.064q.544.192.864.8.256.512.256 1.12 0 .448-.224 1.12-.064.224-.256.48-.288.448-1.152.832-.288.128-.64.128zm-8.8-.512q-.256 0-.288-.048t-.032-.304Q9.792 16 9.792 15.68t-.016-.88-.016-.848v-.512q-.48.416-.544.48-.128.096-.224.096-.064 0-.16-.16-.512-.832-.608-1.024-.032-.032-.032-.096t.064-.128l.096-.096q.192-.16.624-.416t.624-.416q.128-.128.32-.128h.64q.224-.032.416-.032.096 0 .16.016t.096.048.048.064.016.128V12.8q0 .256.016.816t.016.848v3.008q0 .544-.288.576h-.896zm2.752 2.56h-.448q-.128-.032-.128-.192-.032-.288-.032-.448 0-.64.256-1.28.224-.576 1.024-1.312.096-.096.224-.208t.272-.224.24-.208q.512-.448.512-.8 0-.256-.192-.432t-.448-.176q-.416 0-.576.256-.032 0-.144.144t-.144.208q-.032.096-.096.096-.032 0-.096-.032l-.864-.416q-.064-.032-.064-.096 0-.512.592-.992t1.488-.48q.224 0 .384.032.48.032.8.256l.08.08.096.08.112.096q.512.544.512 1.184 0 .224-.032.544-.096.48-.864 1.216-.352.32-.512.48-.192.16-.496.544t-.368.576q-.032.128-.032.224h.256q.064 0 .992-.016t1.12-.016q.128 0 .128.224 0 .16-.016.464t-.016.464-.256.16h-3.264z"/></svg>