<svg xmlns="http://www.w3.org/2000/svg" width="32" height="32"><path d="M25.472 23.936q-1.792 0-3.52-.896-.608-.352-1.344-.864-.256-.192-.256-.384 0-.16.16-.336t.384-.448.384-.464q.352-.416.544-.576.224-.224.384-.224.064 0 .416.224.096.064.256.16t.256.144.24.144.256.144.256.096.272.08.288.064.288.032q.416 0 .928-.24t.736-.432q.672-.672.672-1.984 0-.896-.368-1.344t-1.072-.704q-.672-.256-2.432-.256-.32 0-.352-.384l-.064-1.696q0-.16.352-.544.224-.256.624-.624t.8-.72.624-.64l.288-.352h-4.096q-.192-.032-.24-.032t-.112-.032-.08-.08-.016-.144v-.656l.016-.576.016-.592v-.512q.032-.32.128-.416t.448-.096h1.28q.192 0 .64-.016t.672-.016q.864 0 2.624.032t2.624.032q.352 0 .432.128t.112.544v.176l.016.608.016 1.072q0 .256-.32.576-.192.16-.416.384t-.368.384-.176.192l-1.312 1.216q0 .032-.192.288.096.064.224.096t.224.08.224.096.224.08q.384.128.784.432t.688.656.48.704q.608 1.216.608 2.528 0 1.088-.512 2.624-.192.48-.576 1.088-.672.992-2.592 1.888-.672.288-1.472.288zM5.536 22.72q-.576 0-.672-.112t-.096-.688q-.032-3.872-.032-4.576t-.016-1.968-.016-1.968V12.32q-1.088.896-1.28 1.056-.288.224-.48.224-.16 0-.352-.352-1.184-1.92-1.408-2.336-.064-.096-.064-.224t.128-.256l.256-.256q.416-.352 1.392-.928T4.32 8.32q.288-.256.704-.256.32 0 .752-.032T6.496 8h.896q.448 0 .592.096t.144.416v2.304q0 .64.032 1.888t.032 1.888v3.712q.032 1.6.032 3.104 0 1.248-.672 1.312H5.536zm6.208 5.824q-.416 0-.96-.032-.128-.032-.192-.064t-.08-.112-.048-.208q-.096-.704-.096-1.088 0-1.408.608-2.848.544-1.312 2.336-3.008.256-.256.832-.736t.832-.704q1.12-1.024 1.12-1.824 0-.352-.208-.672t-.528-.48-.672-.16q-.992 0-1.344.512-.032.064-.288.384t-.352.448q-.064.192-.256.192-.064 0-.16-.032l-.576-.256-.448-.24-.432-.24-.464-.256q-.192-.064-.192-.192 0-1.12 1.36-2.224t3.376-1.104q.48 0 .832.032 1.088.128 1.792.64.064.064.304.24t.368.304q1.184 1.248 1.184 2.72 0 .512-.128 1.184-.064.544-.432 1.104t-.624.832-.864.848q-.768.736-1.184 1.088-.256.192-.656.672t-.784 1.024-.48.864q-.064.288-.096.512h.576q.192 0 2.272-.064t2.528-.064q.224 0 .272.128t.048.416q-.032.352-.064 1.04t-.032 1.04q-.032.256-.128.32t-.448.064H17.76q-1.344 0-3.584-.032-.416 0-1.232.016t-1.2.016z"/></svg>