<svg xmlns="http://www.w3.org/2000/svg" width="24" height="32"><path d="M12.224 29.6q.352 0 1.6-.224.512-.096.64-.096 4.064-.48 6.464-3.552 2.24-2.88 2.368-7.2V18.4q-.448-4.32-3.52-7.36-3.04-3.04-7.424-3.616-2.624-.352-5.152 1.12-2.048 1.248-3.712 3.52-2.368 3.328-2.368 6.432 0 .704.144 1.328t.288.976.464.96q.224.416.32.672 1.408 3.008 3.84 4.96Q8.992 29.6 12.224 29.6zm-.832-20.064q.352 0 .672.032 3.648.512 6.176 3.008 2.496 2.464 2.88 5.984-.128 3.52-1.92 5.824-1.824 2.336-4.992 2.72l-.768.128q-1.056.192-1.216.192-1.376 0-2.656-.528t-2.272-1.408T5.568 23.6 4.32 21.504l-.352-.704q-.256-.544-.368-.8t-.208-.656-.096-.848q0-2.4 1.984-5.152 1.376-1.92 3.04-2.912 1.504-.896 3.072-.896zm1.984 4.896q.256 0 .48-.096t.4-.288.24-.448q.096-.32.032-.608t-.272-.528-.528-.336q-.672-.224-1.376-.32-.576-.064-1.152 0-.48.064-.784.448t-.256.864.448.784.88.272q.288-.032.576 0 .48.064.96.192.16.064.352.064zm-5.728 2.464q.64 0 .992-.544.096-.16.224-.352.192-.256.384-.48.32-.352.288-.848t-.416-.816-.864-.288-.8.416q-.288.288-.512.64l-.32.448q-.256.384-.16.88t.512.752q.32.192.672.192zm9.344.448q.288 0 .576-.128.416-.256.56-.72t-.112-.912q-.352-.608-.8-1.152-.32-.384-.816-.416t-.864.272-.416.8.272.88q.32.352.544.768.352.608 1.056.608zm-9.76 4q.256 0 .512-.096.448-.224.608-.688t-.064-.912q-.032-.064-.096-.16-.224-.48-.256-.672-.096-.48-.512-.752t-.896-.16-.752.528-.176.896.48 1.216q.032.064.064.16.32.64 1.088.64zm10.048.576q.832 0 1.12-.768.224-.64.352-1.344.096-.48-.176-.88t-.768-.496-.896.192-.496.768q-.064.48-.256.928-.16.448.032.896t.672.64q.192.064.416.064zm-6.912 2.848q.768 0 1.088-.704.192-.448.032-.896t-.608-.672q-.416-.192-.8-.48t-.88-.224-.784.464-.224.88.448.768q.576.48 1.248.768.224.096.48.096zm3.488.16q.128 0 .256-.032.736-.16 1.408-.48.416-.224.576-.688t-.048-.896-.672-.592-.912.032q-.384.192-.864.288-.288.096-.528.304t-.336.512-.032.592q.096.416.416.688t.736.272z"/></svg>