<svg xmlns="http://www.w3.org/2000/svg" width="32" height="32"><path d="m18.688 13.152-.032 2.528q0 .224-.16.384t-.384.16l-1.44-.032q-.224 0-.368-.16t-.144-.384l.032-3.712q.032-.544-.064-.96t-.096-.96l.064-1.664q0-.224.16-.384t.384-.16l1.504-.032q.16 0 .288.064t.192.192.064.256l.032 1.728q.032.544 0 .976t-.032.944v1.216zm-12.736 0v2.496q0 .224-.16.384t-.384.16l-1.472.032q-.224 0-.368-.16t-.144-.384l.064-2.208q0-.544-.08-.96t-.048-.96l.064-3.136q0-.192.16-.368t.384-.176l1.472-.064q.224-.032.384.128t.192.384l.064 1.728q.032.512-.08.928t-.08.96v.16q.032.544.032 1.056zm19.168.736-.064 1.856q0 .224-.16.384t-.384.16l-1.504-.064q-.224 0-.368-.16t-.144-.384l.064-3.744q0-.544-.08-.96t-.048-.96l.032-1.664q0-.224.16-.368t.384-.144l1.44.032q.224 0 .384.176t.16.4v2.528l.032.96.064.896q.032.512.032 1.056zm-12.832-.736v2.464q0 .224-.16.384t-.384.16l-1.408.032q-.224 0-.384-.16t-.16-.384l.032-3.712q0-.544-.064-.96t-.032-.96l.032-1.632q0-.224.16-.384t.384-.16l1.472.032q.064 0 .16.016t.16.08.112.128.08.144.032.176l.064 1.632q.032.512-.032.928t-.064.96v1.216zm4.224 10.208-.096 2.496q0 .224-.16.368t-.384.144h-1.44q-.224 0-.384-.144t-.16-.368l.064-3.712q0-.544-.032-.96t-.032-.96l-.032-1.728q0-.224.144-.384t.368-.16l1.536.032q.224 0 .368.16t.176.384v2.656q0 .448.032.96v.128q.032.544.032 1.088zm6.272 0-.032 2.464q0 .128-.08.256t-.192.208-.272.08l-1.44.032q-.224 0-.384-.144t-.16-.368l-.032-3.744q0-.544-.016-.96t-.016-.96l.032-1.728q0-.096.048-.208t.112-.176.16-.096.224-.032l1.504.032q.224 0 .384.16t.16.384l-.032 1.664q0 .544-.016.96t.016.96v.16q.032.512.032 1.056zm-19.072 0 .032 2.592q0 .224-.16.384t-.384.16H1.664q-.224 0-.384-.16t-.16-.384v-4.768q.032-.384.032-.96v-1.696q0-.224.16-.384t.384-.16l1.504.032q.096 0 .192.032t.176.112.128.176.048.192l.032 1.696q.032.544 0 .96t-.032.96v.16q-.032.544-.032 1.056zm6.4 0v2.592q0 .224-.16.368t-.384.144l-1.504-.032q-.224 0-.384-.16t-.16-.384l.032-3.744q0-.544-.064-.96t-.064-.96l.064-1.696q0-.192.16-.352t.384-.16l1.472.032q.224 0 .384.176t.192.368l.032 1.632q0 .544-.048.96t-.016.96l.032.16q.032.512.032 1.056z"/></svg>