<svg xmlns="http://www.w3.org/2000/svg" width="22" height="32"><path d="M10.816 28.704q-5.184 0-8.896-2.496-.64-.512-.704-1.184.064-2.336.096-5.76 0-.224-.016-.688t-.016-.688q0-.864-.016-1.776t-.032-1.68-.032-1.488-.032-1.28-.016-.976-.016-.64l-.016-.224q0-.096.112-.816t.144-.784q.416-.864 1.232-1.552T4.432 5.6t2.096-.48q4.448-.352 4.992-.352 2.656.096 4.096.32 1.824.352 3.376 1.28t1.552 1.984v.96L20.576 12l-.064 1.248.032 6.016.096.928-.032 4.8q.032.992-1.552 1.952t-2.8 1.216q-1.312.288-3.168.448-.256 0-.592.016t-.576.032-.544.032-.56.016zm3.36-5.088q.384-.032.768-.176t.64-.416.224-.592q0-.224.032-.752t0-.912q-.032-.48-.064-1.552t.096-2.448q0-.16.032-2.912v.064l.016.144.064.176.128.208.208.192.352.144.512.064q.64 0 .88-.368t.24-1.072q0-.48-.032-1.024t-.032-.928q0-.256-.032-1.024t0-1.088v-.32q-.096-.448-.224-.576-1.12-1.152-3.584-1.408-.768-.064-3.072-.16-.576 0-1.28.096-1.856 0-3.968.384l-.608.096q-.32.064-.64.208t-.656.368-.544.608-.208.864q0 .448.384.816t1.056.56 1.296.32 1.392.176 1.04.064.528.016q0 .512.064 1.936t.064 1.904q0 2.24 1.504 2.272.288 0 .528-.064t.368-.224.208-.272.128-.368.048-.336v-.656q.032.768.032.896 0 1.056.032 1.28 0 .192-.016.384t-.016.384q0 1.28.032 1.936t.032.688q0 .48.144.976t.624.96 1.28.464z"/></svg>