<svg xmlns="http://www.w3.org/2000/svg" width="18" height="32"><path d="M13.728 26.368q-1.248 0-1.68-.048t-.624-.304q-.384-.416-.288-5.408.064-1.824-.032-6.096t-.096-4.848q.032-.448.016-.912t0-.912.048-.8.128-.576.288-.224q1.216-.096 2.432-.096.352 0 .896-.016t.848-.016.64.032.528.096q.192.096.24.56t-.016 1.488-.032 1.536q.032 5.216.032 9.536 0 .288.032 2.304t0 3.184-.16 1.36q-.096.16-.528.208t-1.408 0-1.264-.048zm-9.248 0q-.256 0-.656.016t-.704.032-.64.016-.56-.016-.4-.064-.24-.144q-.128-.192-.16-1.36t.016-3.184.048-2.304q0-4.256.032-9.536 0-.352-.016-.816t-.048-.8-.032-.704.016-.608.08-.416.192-.24q.16-.064.496-.096t.656-.032.848.016.88.016l2.432.096q.192 0 .304.224t.144.576.032.8-.016.912.016.912q.032.576-.064 4.848t-.064 6.096q.096 4.992-.256 5.408-.224.256-.656.304t-1.68.048z"/></svg>