<svg xmlns="http://www.w3.org/2000/svg" width="32" height="32"><path d="m19.68 18.688-.032 4.768q0 .224-.144.368t-.368.144L17.76 24q-.224 0-.384-.16t-.16-.352l.064-12.512q0-.224.144-.384t.368-.16l1.44-.064q.224 0 .368.144t.144.336l-.064 6.816v1.024zm5.344 1.184.032 3.648q0 .128-.064.256t-.192.192-.256.064h-1.536q-.224 0-.368-.144t-.144-.368l.128-12.544q0-.128.08-.256t.192-.208.24-.08l1.472-.064q.128 0 .256.064t.192.176.064.24l-.096 8q-.032.512 0 1.024zM8.96 18.688v4.832q0 .192-.144.352t-.368.16L7.008 24q-.192 0-.352-.16t-.16-.352V10.944q0-.16.064-.272t.176-.176.272-.064l1.408.032q.192 0 .352.144t.16.368l.032 6.688v1.024zm-5.376 0v4.768q0 .224-.144.384t-.368.16h-1.44q-.192 0-.352-.144t-.16-.368V10.912q0-.192.144-.336t.368-.144l1.376.032q.224.032.368.192t.144.352l.064 6.656v1.024zm10.816 0-.096 4.8q0 .192-.144.336t-.368.144l-1.312-.032q-.224 0-.368-.144t-.144-.368l-.032-12.448q0-.192.144-.352t.368-.16l1.248.032q.224 0 .384.16t.16.384l.16 6.624v1.024z"/></svg>