<svg xmlns="http://www.w3.org/2000/svg" width="25" height="32"><path d="M13.696 28.864q-.704.096-1.152-.288-.352-.352-1.824-1.888l-1.568-1.632-.704-.608-1.632-1.6q.192-1.024.192-6.144v-.448q.704-.576 1.824-1.696 1.312-1.408 2.112-2.512t1.024-1.568.512-1.264q.128-.288.16-.528t.016-.528-.224-.544-.56-.48q-1.12-.288-3.424 1.568-.512.416-1.984 1.792-.16.128-.48.544-1.76.224-3.168.992l.128-.16.288-.384Q4.64 9.792 5.504 9.024q1.664-1.6 2.688-2.336 1.728-1.184 2.912-1.536.32-.096 1.024.016t.928.304l.576.576 1.984 1.824L17.152 9.6l1.888 2.272 5.184 4.992q.448.448.336 1.36t-.416 1.792-.656 1.392q-.608.96-1.632 2.176-.064.064-.56.608t-.752.832q-.928.896-1.92 1.632-.416.32-.8.544-1.984 1.248-4.128 1.664zM2.048 24.992q-.352 0-.576-.288t-.288-.832-.064-.976.032-1.04.032-.736v-3.392q0-3.2.48-3.712.352-.384 1.52-.8t2.672-.416l2.464.032q-.032 0-.496.48T6.8 14.352l-.752.752q-.704.64-.896.704v2.304q-.096 3.744-.24 4.592t-.72.848q-.48 0-.64-.352t-.288-1.44q-.032.192-.096.8t-.112.912-.176.72-.336.608-.496.192z"/></svg>