<svg xmlns="http://www.w3.org/2000/svg" width="24" height="32"><path d="m17.696 17.76-.032 5.952q0 .192-.128.32t-.32.128l-1.376-.064q-.192 0-.32-.144t-.16-.336l-.128-2.528q-.032-.448-.032-.928l.288-11.392q0-.192.144-.336t.336-.144l1.216-.064q.192 0 .32.128t.128.32l.064 8.16v.928zm-9.664 1.6L8 23.52q0 .192-.144.336t-.336.176l-1.28.064q-.192.032-.32-.096t-.128-.32l.032-11.264q0-.192.144-.32T6.304 12l1.216.032q.192.032.336.16t.144.32l.032 5.92v.928zm14.4 1.824-.096 2.368q-.032.192-.176.32t-.336.128l-1.184.064q-.192 0-.32-.144t-.128-.304l-.064-8.896q0-.192.128-.32t.32-.128l1.312.032q.16 0 .304.128t.144.32l.128 5.536q0 .448-.032.896zM3.264 20.8v2.752q0 .192-.128.336t-.32.144l-1.248.032q-.128 0-.224-.048t-.16-.16-.064-.24l.064-4.096q.032-.48 0-.928l-.032-2.784q0-.192.128-.32t.32-.128l1.216.032q.16 0 .304.128t.144.32l.032 2.752v1.28q-.032.448-.032.928zm9.568.896-.032 1.92q0 .192-.128.32t-.32.128h-1.248q-.192 0-.336-.128t-.144-.32l.032-2.88q0-.48-.032-.816t-.032-.784l.032-1.248q0-.192.144-.336t.336-.144l1.28-.032q.192 0 .32.128t.128.32l.032 1.312q0 .48-.048.8t-.016.8v.032q.032.448.032.928z"/></svg>