<svg xmlns="http://www.w3.org/2000/svg" width="25" height="32"><path d="M13.856 11.296v1.92q0 .192-.144.304t-.368.112L11.84 13.6q-.224-.032-.384-.144t-.16-.304l-.032-2.784q0-.416-.032-.72t-.032-.72l.064-1.248q0-.16.16-.288t.384-.128h1.504q.224 0 .384.112t.16.304v3.616zm-5.408.416v.096q.096.416.064.832l-.064 1.856q0 .192-.176.304t-.4.144l-1.504.032q-.224 0-.384-.112t-.128-.272l.096-2.88q0-.416-.096-.72t-.064-.72l.032-1.312q0-.16.176-.288t.368-.128l1.536.032q.224 0 .384.128t.192.288l.032 1.28q.032.416-.064.72t0 .72zm10.848 0v.096q.032.416 0 .832l-.032 1.92q0 .16-.16.272t-.384.112l-1.536.032q-.224 0-.384-.112t-.128-.272l.032-2.88q.032-.416-.064-.736t-.064-.704l.096-1.248q0-.16.176-.288t.4-.128l1.44.032q.16 0 .288.048t.208.144.08.224l.032 1.216v1.44zm4.768 5.568.032.8q.032.512 0 1.024l-.096 1.6q0 .224-.176.368t-.4.176l-1.504.064q-.224 0-.368-.144t-.144-.336l.064-3.552q0-.512-.096-.912t-.064-.88l.096-1.568q0-.128.08-.256t.208-.192.256-.064l1.536-.032q.224 0 .384.144t.16.336l.064 1.632q.032.48-.016.88t-.016.912zm-20.224 0v1.12l-.032 2.368q0 .192-.16.352t-.384.16l-1.504.032q-.224.032-.384-.112t-.16-.368l.032-3.552q0-.512-.08-.912t-.048-.88l.096-1.6q0-.192.176-.336t.4-.144l1.472.032q.224 0 .384.16t.16.352l.032 1.536v1.792zm4.608 4.896v.16q.032.352.032.736v1.248q0 .224-.16.384t-.384.16L6.4 24.8q-.128 0-.256-.08t-.208-.208-.08-.288v-5.792q0-.224.16-.384t.384-.128l1.472.032q.224 0 .384.176t.16.4v2.56q0 .544.032 1.088zm10.816 1.152.032-.8-.032 1.728q0 .224-.16.384t-.384.16l-1.472-.064q-.224 0-.384-.176t-.16-.4l-.032-.8v-.032q.064-.448.064-.992v-3.808q0-.224.144-.384t.368-.16l1.44.032q.224 0 .384.16t.16.384l.064 2.528q0 .544-.032 1.088l-.032.16q-.032.544.032.992zm-5.408 1.024v1.76q0 .224-.16.384t-.384.128l-1.472-.032q-.224 0-.384-.176t-.192-.4l-.064-1.664q0-.544.064-.976t.064-1.008v-2.016q0-.224.144-.384t.368-.16h1.44q.224 0 .384.16t.16.384v3.008l.032.992zm-.032-2.08zm-5.344.256zm8.192.832-.032-.832z"/></svg>