<svg xmlns="http://www.w3.org/2000/svg" width="23" height="32"><path d="M13.984 13.984q0 .192-.144.304t-.304.112l-1.12-.032q-.16 0-.304-.128t-.144-.288V7.296q0-.16.128-.288t.32-.128l1.088.032q.128 0 .224.048t.16.144.064.224l.032 5.824v.832zM6.752 15.68q0 .16-.144.272t-.336.112l-1.088.032q-.16 0-.288-.128t-.128-.288l.064-6.592q0-.192.128-.304t.32-.112h.96q.096 0 .208.064t.176.16.064.192l.096 5.76q0 .416-.032.832zm11.36-1.152v2.368q0 .096-.064.192t-.176.16-.208.064h-1.088q-.192 0-.32-.112t-.128-.272l.032-6.624q0-.192.128-.304t.32-.112l1.024.032q.192 0 .32.128t.128.288l.032 3.36v.832zm-7.552 3.456q0 .288-.448.288l-1.024.032q-.192 0-.32-.112t-.128-.272v-2.528q0-.416-.016-.72t-.016-.72l.032-1.024q0-.192.128-.304t.32-.144h1.024q.192 0 .336.112t.144.304l.032 1.056v.736q-.032.256-.032.704l-.032 1.888v.704zm-7.52-.096.032 2.304q0 .192-.128.304t-.32.112h-.96q-.128 0-.24-.048t-.16-.144-.048-.224L1.12 13.6q0-.16.128-.272t.32-.112h1.056q.192.032.32.144t.128.304l-.032 3.392v.832zm18.976 1.216-.064 1.664q0 .16-.128.288t-.32.128H20.48q-.096 0-.208-.048t-.176-.144-.064-.224v-6.56q0-.128.048-.224t.16-.144.208-.048h1.056q.192 0 .32.128t.128.288l.064 4.064q.032.416 0 .832zM14.4 20.768v2.4q0 .192-.128.304t-.32.112h-1.12q-.096 0-.208-.064t-.16-.16-.048-.192v-6.656q0-.16.128-.288t.288-.128l1.088.032q.192 0 .32.128t.128.288l.032 3.424v.8zM6.816 23.2v2.336q0 .16-.144.288t-.304.128H5.312q-.192 0-.32-.112t-.128-.272l.032-6.592q0-.16.128-.288t.32-.128l1.024-.032q.192 0 .32.128t.128.288V23.2zm11.04 1.184v2.4q0 .16-.128.272t-.288.112l-1.024-.032q-.16 0-.304-.128t-.144-.32v-6.496q0-.064.048-.144t.096-.144.128-.096.176-.032h.96q.192 0 .32.112t.128.304l.032 3.36v.832zm-7.136 1.024.032 2.304q0 .16-.144.288t-.304.128l-1.088.064q-.16 0-.288-.112t-.128-.304l.032-6.624q0-.16.128-.288t.32-.128h1.056q.16.032.288.144t.128.304l-.032 3.392v.832z"/></svg>