<svg xmlns="http://www.w3.org/2000/svg" width="28" height="32"><path d="M3.328 28.8q-1.12 0-1.664-.32t-.544-1.312V11.824l.032-.416.096-.432.192-.352q.256-.32.736-.384t1.296.048.88.112q.192.032 4.128 0 .064 0 .416.032t.624.016.368-.08q.064-.032.096-.208t.064-.368.032-.256l.288-1.248q0-.032.032-.24t.048-.256.064-.224.096-.24.112-.192.144-.192.192-.144.24-.144q.512-.224 1.728-.192l2.688.064h.368l.176.016.176.016.16.016.176.048.16.064.16.096.144.128.144.128q.128.192.24.48t.144.496.096.56.096.512q0 .032.048.416t.112.608.224.288q.192.096.56.096t.816-.048.576-.048l2.752.032h2.048l.16.016.144.032.16.032.144.048.144.08.128.096.112.144q.704.768.64 1.664.064 1.024.096 2.144.256 5.568-.096 11.904-.064 1.12-.784 1.664t-1.872.544L20 28.768q-3.072 0-8.736.016t-7.936.016zm12.256-14.368q2.304-.064 5.248-.192.32 0 2.656-.128.064 0 .416.032t.592.016.464-.144.256-.416q0-.128-.032-.208t-.128-.128l-.128-.064-.16-.032-.16-.016q-.736-.128-1.568-.176t-1.904-.064-1.584-.016q-2.944-.128-4.864-.16-1.344-.032-9.184.192h-.576l-.656.016-.592.016q-.032 0-.192-.016t-.272-.016-.208.032q-.288.16-.304.448t.272.448q.192.128.496.144t.656 0 .512.016q.768.064 1.888.128 5.28.352 9.056.288zm-1.568 11.84q1.792 0 3.2-1.168t1.76-2.928q.224-1.312-.192-2.512t-1.312-1.984-2.016-1.184-2.384-.176-2.288 1.088q-1.248 1.056-1.6 2.624t.16 2.928 1.76 2.336 2.912.976z"/></svg>