<svg xmlns="http://www.w3.org/2000/svg" width="29" height="32"><path d="M4.352 27.68q-.48-.416.032-1.184l5.632-.608.576-1.504-6.848-.064q-1.056.224-1.568-.192-.128-.128-.368-.288t-.288-.224-.16-.24-.144-.4-.032-.576q-.064-.704-.064-3.792v-5.84l.032-2.72q-.032-.224-.016-.528t.256-.944.752-.896q.544-.256 1.152-.352t.96-.032l.352.032 20.704-.256q.224 0 .576-.016t.496-.016.432.064.64.224q.576.288.64 1.248l.16 4.48-.16 9.92q-.128 1.376-.704 1.44l-2.4.096-6.496-.064.576 1.504 5.856.576q.096-.128.192.16.128.416.128.96zm9.152-5.888q1.12 0 2.4-.032v-2.208h2.4v2.208q1.312-.032 2.432-.032v-2.176h2.4v2.112q1.664-.064 1.824-.16.192-.096.256-1.952h-2.08V17.12h2.112q0-1.12-.032-2.528h-2.08v-2.4h2.016q0-.864-.032-1.696-.032-.16-.176-.304t-.272-.208l-.128-.064-1.44.032v2.24h-2.432V9.984l-2.368.032v2.176h-2.4v-2.144l-2.4.032v2.112h-2.4v-2.08l-2.368.032v2.048H6.304v-2.016H4.672q-.416.224-.416.544-.032.768-.032 1.472h2.112v2.4H4.192q-.032 1.408 0 2.528h2.144v2.432H4.224q.064 1.888.224 2.016.128.064 1.856.128v-2.144h2.432v2.208q1.056 0 2.368.032v-2.24h2.4v2.24zm-4.8-7.2v-2.4h2.432v2.4H8.704zm4.8 0v-2.4h2.4v2.4h-2.4zm4.768 0v-2.4h2.432v2.4h-2.432zM6.304 17.024v-2.432h2.432v2.432H6.304zm4.8 0v-2.432h2.4v2.432h-2.4zm4.8 0v-2.432h2.4v2.432h-2.4zm4.832 0v-2.432h2.4v2.432h-2.4zM8.704 19.552V17.12h2.432v2.432H8.704zm4.8 0V17.12h2.4v2.432h-2.4zm4.768 0V17.12h2.432v2.432h-2.432z"/></svg>