<svg xmlns="http://www.w3.org/2000/svg" width="29" height="32"><path d="M4.352 27.744q-.48-.384.032-1.152l5.632-.64.576-1.504-6.848-.064q-1.056.224-1.568-.192-.128-.096-.368-.272t-.288-.24-.16-.24-.144-.384-.032-.592q-.064-.704-.064-3.792v-5.84l.032-2.72Q1.12 9.92 1.136 9.6t.256-.96.752-.864q.544-.288 1.152-.368t.96-.048l.352.032 20.704-.224q.224 0 .576-.032t.496-.032.432.08.64.24q.576.256.64 1.216l.16 4.512-.16 9.888q-.128 1.408-.704 1.44l-2.4.128-6.496-.064.576 1.472 5.856.576q.096-.128.192.192.128.384.128.928zm.096-6.112q.384.256 10.192.224t10.288-.288q.576-.288.192-11.008-.032-.16-.176-.304t-.272-.208l-.128-.032-19.872.256q-.416.192-.416.544-.096 1.6-.08 6.112t.272 4.704zm10.656-1.728q-.448 0-.448-.672v-3.04l-.032-.832q0-.672.544-.672h7.488q.608 0 .608.512l.064 3.968q0 .736-.672.704l-5.408-.032-1.088.032z"/></svg>