<svg xmlns="http://www.w3.org/2000/svg" width="29" height="32"><path d="M4.352 27.744q-.48-.384.032-1.152l5.632-.64.576-1.472-6.848-.064q-1.056.192-1.568-.224-.128-.096-.288-.208t-.224-.176-.16-.144-.144-.176-.096-.24-.064-.336-.016-.448q-.064-.704-.064-3.792v-5.808l.032-2.752Q1.12 9.92 1.136 9.6t.256-.944.752-.88q.544-.256 1.152-.352t.96-.064l.352.032 20.704-.224q.224 0 .48-.016t.4-.032.336 0 .416.096.512.208q.576.288.64 1.216l.16 4.512-.16 9.888q-.128 1.408-.704 1.472l-2.4.096-6.496-.064.576 1.472 5.856.576q.096-.128.192.192.128.384.128.96H4.352zm.096-6.112q.384.256 10.192.224t10.32-.288q.544-.288.16-11.008-.032-.16-.176-.304t-.272-.176l-.128-.064-19.872.256q-.416.192-.416.544Q4 21.312 4.448 21.632zm10.112-4.288q-.096-.064-6.112-2.816-.064-.032-.256-.112t-.288-.112l.224.768v.416l-.832.288q-.16.096-.224-.032 0-.128-.32-1.168t-.384-1.168q0-.064-.096-.288-.128-.32-.064-.416t.416-.256q.192-.128 1.28-.448.096-.032.32-.112t.432-.16.4-.144l.192-.064.128.16q.128.608.224.832.032.128-.064.192-.128.064-.544.192t-.544.16l.96.48q4 1.824 5.408 2.528.384.224.384.256.032.032-.064.256l-.384.64q-.032.032-.032.064-.064.096-.16.064zm2.912 2.912q-.32 0-.32-.48v-2.848q0-.512.384-.512 2.368.032 2.464.032.224-.032 1.76-.032l1.312.032q.448 0 .448.352l.032 2.944q0 .512-.48.512l-4-.032-.8.032h-.8z"/></svg>