<svg xmlns="http://www.w3.org/2000/svg" width="24" height="32"><path d="M3.776 27.424q-.352.32-1.024.304t-1.056-.432q-.448-.448-.528-.912t.08-.768.448-.56l.32-.192.288-.128.24-.048.176-.016h.064q-.032-.16-.224-.736t-.304-1.104-.016-.816q.128-.352.224-.576.352-.64 1.344-1.6 0-.032 1.808-1.792T8.8 14.88t2.016-2.112q.256-.288.448-.464t.464-.4.496-.448l.32-.256-.032-.032q-.096-.448-.096-1.28t.096-.928q.192-.192 1.248-.384l.672-.032q0-.128.016-.256t.064-.208.08-.16.08-.128l.096-.096.096-.112.048-.096q.544-.704 1.664-1.28.928-.32 1.568-.384 1.088-.16 2.112.192.576.224 1.12.672.128.128.416.352t.464.4.304.432q.32.512.576 1.472.288 1.312-.416 2.72-.576 1.248-1.376 1.664-.544.256-.992.352h-.064q-.032.064-.096.592t-.16.992-.16.528q-.032.032-.336.064t-.592.032h-.416q-.064.064-.224.192t-.224.224q-.128.224-.24.336l-.272.272-.288.32q-.128.128-.464.512t-.496.576q-.032.128-.816.944t-1.568 1.6-.944.912q-.704.8-1.408 1.344-.384.288-.928.848t-.736.752q-.128.128-.528.368t-.528.336q-.096.096-.56.192t-.528.16q-.224.064-.656.112t-.896.048-.896-.016-.688-.048h-.288q-.096.512-.192.704t-.384.448zm7.776-8.416q.096 0 .272.032t.24.048.176 0 .192-.048.176-.128l2.336-2.272q.576-.576.608-.64.064-.128.096-.16t.128-.16.256-.32l-.176-.304-.432-.672-.384-.496q-.224-.224-.4-.352t-.272-.192-.384-.192-.448-.192q-.224.16-.544.544-.224.192-.56.544t-.592.576q-.416.608-2 2.224t-2.16 2q.48.064 3.872.16z"/></svg>