<svg xmlns="http://www.w3.org/2000/svg" width="26" height="32"><path d="M20.288 26.048q1.344 0 2.336-1.024.864-.896 1.424-2.72t.704-3.568.224-3.376-.016-2.112l-3.2.096q.096 3.008-.288 5.776t-.96 3.536q-.928-1.888-1.408-6.752-.032-.416-.16-1.28-.128-1.152-.208-1.744t-.224-1.6-.288-1.536-.352-1.28-.448-1.152-.576-.816-.736-.576-.912-.192h-.032q-2.048 0-2.672 1.504t-1.168 6.112q-.032.16-.032.256-.096.768-.176 1.424t-.176 1.36l-.192 1.408q-.384 3.168-.672 3.2-.16 0-.32-.608-.192-2.176-.384-3.632T8.896 14t-.656-2.016-.912-1.136-1.28-.448h-.064q-.992 0-1.792.624T2.896 12.64t-.864 2.368-.528 2.704-.272 2.784-.112 2.48v2.976l3.2.096q.096-2.4.48-6.096t.8-4.944q0 .032.432 2.4t.528 3.456q.256 1.632.432 2.576t.48 1.856.688 1.376.96.752 1.376.32q.608.064 1.088-.304t.8-1.088.56-1.568.416-1.968.288-2.064.256-2.08.24-1.808q.288-2.944.928-5.92.608 2.944.864 5.28.192 1.952.336 3.104t.368 2.416.512 1.952.72 1.296 1.024.832 1.392.224z"/></svg>