<svg xmlns="http://www.w3.org/2000/svg" width="26" height="32"><path d="M2.976 19.616q-.704-.192-1.136-.688t-.576-1.28-.144-1.632.224-2.032.448-2.144.576-2.24q.384-1.376.704-2.112.352-.8.576-1.184l.544-.928.256-.032V5.12q0-.064.032-.064.672-.448 1.472-.448.416 0 .768.064t.512.128l.16.064q.064.032.064.096v.288l.224.032.128.128q.128.096.448.096h1.056l.16-.096h7.52l.128.096h1.088l.416-.096.384-.16V4.96l.032-.096q.544-.256 1.44-.256.832 0 1.472.448l.064.064v.224l.256.032q.352.608.544.928.224.384.576 1.184.32.736.672 2.112.352 1.28.592 2.256T25.104 14t.208 2.016-.144 1.632-.576 1.28-1.136.688q-.768.192-1.376-.016t-1.072-.816-.736-1.168-.624-1.456l-.576-1.6q-.064-.128-.176-.224t-.24-.128l-.096-.032q-.672.608-1.568.608-.96 0-1.664-.64h-4.192q-.704.64-1.664.64-.896 0-1.568-.608-.416.096-.512.384-.32.896-.608 1.6-.32.864-.608 1.44t-.752 1.184-1.072.816-1.376.016zM20.56 8.16q.304 0 .528-.224t.224-.528-.224-.512-.528-.208-.512.208-.208.512.208.528.512.224zm-14.48.16.16-.064.352-.352.096-.16q.032-.512.032-.608.032-.16-.096-.288-.16-.128-.544-.128-.416 0-.576.128-.096.096-.064.288l.032.608q0 .096.064.16l.352.352q.096.064.192.064zm1.664 1.152q.16 0 .288-.128T8.16 8.8t-.128-.544-.288-.096l-.608.032q-.064.032-.16.096l-.352.352q-.064.064-.064.16l.064.16q.32.32.352.384l.16.064q.512.032.608.064zm-3.36 0 .64-.064.128-.064.384-.352Q5.6 8.928 5.6 8.8l-.064-.16q-.32-.288-.384-.352l-.128-.064q-.512-.064-.64-.064-.192-.032-.256.096Q4 8.416 4 8.8q0 .448.128.576.096.096.256.096zm14.448.416q.304 0 .528-.224t.224-.528-.224-.512-.528-.208-.528.208-.224.512.224.528.528.224zm3.456 0q.304 0 .528-.208t.224-.528-.224-.528-.528-.208-.528.208-.224.528.224.528.528.208zM6.08 10.88q.416 0 .544-.128t.096-.256l-.032-.64q-.032-.064-.096-.16l-.352-.352q-.064-.064-.16-.064l-.192.064q-.288.32-.352.352l-.064.16q-.032.512-.032.64-.032.16.064.256.16.128.576.128zm14.48.736q.304 0 .528-.224t.224-.528-.224-.512-.528-.208-.512.208-.208.512.208.528.512.224zm-3.552 2.08q.592 0 .992-.416t.4-.992-.4-.992-.992-.416-1.008.416-.416.992.416.992 1.008.416zm-7.536.064q.576 0 .992-.416t.416-.992-.416-.992-.992-.416-.992.416-.416.992q0 .384.192.704t.512.512.704.192zm9.248 11.488q-.96 1.6-2.08 2.368-1.408.992-3.232 1.008t-3.296-.88l-.128-.064q-1.376-1.088-2.24-2.624-1.152-1.984.064-4.8 1.408-3.2 3.712-3.872 2.368-.736 5.504 1.088 1.472.832 2.176 2.24.448.832.512 1.408.096 1.472-.544 3.232zm-6.528.8q.064-.032 1.472-1.456t2.784-2.832l1.376-1.44-1.376-1.344-4.416 4.512q-1.504-1.6-1.664-1.6t-.736.576-.544.704q.032.16 1.52 1.536t1.584 1.344z"/></svg>