<svg xmlns="http://www.w3.org/2000/svg" width="32" height="32"><path d="M4.032 27.072q-1.248-.032-1.984-1.248-1.312-2.048-.8-6.88.096-.736.368-2.208t.304-1.728q.256-1.696.544-2.656.128-.416.608-1.472l.48-1.248.256-.352q.032-.064.064-.096.576-.48 1.536-.608 2.016-.224 2.08.32l.256.128.192.16q.032.032.08.064t.192.064.272-.096q.032 0 .336-.032t.832-.08 1.136-.112 1.36-.128 1.36-.16q.96-.096 2.064-.24t1.888-.24 1.488-.192 1.12-.144.528-.032.208 0 .144-.032.08-.048l.064-.064.224-.32q0-.032.16-.288l.064-.096q.608-.384 1.728-.512.128-.032.288-.032t.32.032.304.048.288.048.256.08.192.064.128.048l.048.032.064.064.352.288q.512.704.8 1.056.832 1.088.928 1.312.128.192 1.056 2.496.192.544.48 1.584t.448 1.456q.8 2.24 1.216 5.088.224 1.696-.08 2.688t-1.456 1.44q-.512.192-.976.208t-.848-.16-.704-.432-.672-.688-.608-.8-.624-.896-.656-.88q-.256-.32-.48-.8t-.352-.768l-.096-.32q-.096-.128-.256-.224t-.288-.128h-.128q-.608.736-1.824.864-1.248.128-2.112-.512l-3.616.256-1.504.32q-.768.864-1.92 1.024-1.088.096-1.984-.512-.48.16-.576.512-.288 1.728-.608 2.592-.288.832-.448 1.248t-.528 1.088-.736.992-.976.576-1.344.224zm19.904-16q.384-.032.64-.4t.192-.752q-.032-.416-.448-.64-.192-.128-.672-.064-.384.032-.608.32t-.192.672.368.64.72.224zm2.048 1.6q.352.032.592-.288t.208-.704q0-.352-.304-.608t-.688-.192q-.352.032-.592.336t-.208.656q.032.288.304.512t.688.288zm-19.712.672.224-.096q.352-.448.384-.512l.096-.224-.032-.8q0-.224-.16-.352-.224-.16-.752-.096t-.688.256q-.128.16-.096.384l.16.768q.032.128.128.224l.48.416zm15.84-.256q.384-.032.608-.32t.192-.656-.32-.592-.672-.224q-.416.032-.656.32t-.144.672q.064.384.352.624t.64.176zm-14.4 1.44q.704 0 .832-.032.192 0 .32-.16.16-.192.096-.736t-.256-.704q-.16-.16-.352-.096l-.8.16q-.128.032-.192.128l-.448.512-.032.224.096.224q.448.352.544.416zm16.544.192q.384-.032.608-.32t.192-.672q0-.256-.128-.448t-.352-.288-.512-.064q-.384.064-.64.368t-.16.656.384.576.608.192zm-19.936.256.8-.16q.128-.032.192-.096l.416-.544.064-.224-.096-.192q-.448-.384-.544-.416l-.192-.096q-.704.032-.832.032-.224 0-.352.16-.128.224-.064.768.064.512.256.704.16.128.352.064zm2.288 1.472q.528-.064.72-.256.128-.16.096-.384l-.16-.768q-.032-.128-.128-.224l-.512-.416-.256-.064-.224.128q-.32.448-.384.512l-.064.224q0 .672.032.8 0 .224.128.352.224.16.752.096zm13.648 1.536q.928-.096 1.28-.512.352-.384.224-1.376-.032-.48-.32-.864t-.704-.576-.896-.096q-.64.16-1.088.704t-.416 1.216q.032.704.608 1.152t1.312.352zm-9.152 1.12q.704-.096 1.152-.656t.384-1.264q-.096-.8-.656-1.232t-1.264-.272q-.864.16-1.2.592t-.336 1.296q0 .768.528 1.216t1.392.32z"/></svg>