<svg xmlns="http://www.w3.org/2000/svg" width="33" height="32"><path d="M23.296 24q.512.032.896.032.352 0 1.088-.016T26.368 24q2.048.032 3.232.032h1.28q.32 0 .416-.064t.096-.32q.032-.32.064-.976t.032-.976-.048-.432-.24-.112q-.416 0-2.288.048t-2.032.048h-.544q.032-.192.096-.48.096-.32.432-.864t.704-1.008.624-.656q.352-.352 1.024-1.088 1.6-1.664 1.76-2.848.128-.672.128-1.216 0-1.44-1.088-2.656-.096-.128-.208-.224t-.224-.176-.176-.144q-.64-.544-1.632-.64-.32-.032-.736-.032-1.824 0-3.04 1.088t-1.216 2.208q0 .128.128.192.32.128.928.368t1.088.4q.064.032.128.032.16 0 .224-.192.192-.352.352-.608.32-.512 1.216-.512.48 0 .88.384t.4.928q0 .8-1.024 1.792-.224.224-.736.704t-.768.736q-1.632 1.696-2.112 3.008-.544 1.408-.544 2.816 0 .352.096 1.056.032.352.256.384zm-20.672-.832q-.576-.128-.928-.528t-.464-1.024-.112-1.296.176-1.616.352-1.712.464-1.824q.32-1.056.576-1.664.256-.64.448-.928l.416-.736.224-.064v-.16q0-.032.032-.064.512-.352 1.184-.352.32 0 .608.064t.416.096l.128.064q.032.032.032.064v.224l.16.032.128.096q.096.064.352.064h.864l.096-.032h6.016l.096.032h.864l.352-.064.288-.128v-.224l.032-.064q.416-.224 1.152-.224.64 0 1.184.352l.032.064v.16l.192.064q.288.48.448.736.192.288.448.928.256.608.544 1.664t.48 1.84.368 1.712.176 1.6-.128 1.296-.464 1.024-.912.528q-.608.16-1.088 0t-.848-.64-.592-.928-.512-1.184l-.448-1.28-.416-.288q-.544.48-1.248.48-.768 0-1.344-.512h-3.36q-.544.512-1.312.512-.704 0-1.248-.48-.32.096-.416.288-.256.736-.48 1.28-.256.704-.48 1.168t-.592.944-.864.64-1.072 0zm14.016-9.12q.256 0 .432-.176t.176-.416-.176-.416-.432-.176-.416.176-.16.4q0 .128.048.24t.128.192.176.128.224.048zm-11.552.128.128-.032.288-.288.064-.128q.032-.416.032-.512 0-.128-.096-.224t-.432-.096-.432.096-.064.224l.032.512q0 .064.032.128l.288.288q.064.032.16.032zm1.344.896q.096.032.208-.08t.112-.448-.128-.432q-.064-.096-.192-.064l-.512.032q-.064 0-.128.064l-.288.288q-.032.032-.032.128l.032.128.288.288.128.064q.416.032.512.032zm-2.688 0 .48-.032q.064 0 .128-.064l.288-.288q.064-.032.064-.128l-.064-.128-.288-.288-.128-.064q-.416-.032-.48-.032-.16-.032-.224.064-.096.128-.096.448 0 .352.096.448.064.064.224.064zm11.504.352q.24 0 .416-.176t.176-.416-.176-.416-.416-.176-.416.176-.176.416.176.416.416.176zm2.768 0q.256 0 .416-.176t.16-.416-.16-.416-.416-.176-.416.176-.16.416.16.416.416.176zm-12.928.8q.32 0 .416-.096t.096-.224l-.032-.48q-.032-.096-.064-.16-.032 0-.096-.08t-.128-.144l-.064-.064q-.064-.032-.128-.032l-.16.032-.288.288-.032.16q-.032.384-.064.48 0 .128.096.224t.448.096zm11.552.576q.256 0 .432-.176t.176-.432q0-.16-.08-.288t-.224-.208-.304-.08q-.128 0-.224.048t-.176.128-.128.192-.048.208q0 .256.16.432t.416.176zm-2.848 1.664q.48 0 .8-.336t.32-.8-.32-.784-.8-.32-.8.32-.32.784.32.8.8.336zm-6 .064q.464 0 .8-.336t.336-.8-.336-.8-.8-.336-.8.336-.336.8.336.8.8.336z"/></svg>