<svg xmlns="http://www.w3.org/2000/svg" width="27" height="32"><path d="M24 11.168q1.824 3.232 1.984 5.984.352 3.424-1.424 6.56t-4.88 4.928l-.224.16q-3.264 1.28-6.816 1.248-4.608 0-8.256-4.928-4.16-5.632-3.008-10.368Q2.016 12 3.936 10t4.832-3.664q2.944-1.728 6.112-1.568 1.888.064 2.944.544 2.592 1.312 5.056 4.16.192.224 1.12 1.696zM13.984 23.776q1.504 0 1.504-.192 0-1.28-.032-1.632l-.032-3.488 3.072-.064q1.376-.064 1.728-.128.384-.096.384-.288v-1.312q0-.96-.128-1.248-.16-.32-.64-.32l-4.448.096q0-.32-.032-1.424t-.064-2.128-.032-1.152q-.064-.384-.192-.496t-.48-.112h-1.248q-.608 0-.832.096-.288.096-.32.352-.096.288-.096.992l.032 3.936-3.84.064q-.544 0-.704.288t-.16 1.184v1.408q0 .192.128.224.096.032.896.032.96 0 3.712.032l.064 4.992q0 .192.32.224.448.064 1.44.064z"/></svg>