<svg xmlns="http://www.w3.org/2000/svg" width="30" height="32"><path d="M25.6 23.424v.432l.08.192.192.096.4.016h1.888q.608-.064.608-1.216 0-2.56-.032-4.032v-3.424q0-.576-.016-1.744T28.704 12V9.6q-.032-.32-.16-.416T28 9.088q-.384 0-.832.032-.256 0-.672.016t-.704.016q-.384 0-.64.224-.16.16-2.624 2.016l-.224.256q-.096.096-.096.224t.064.224q.192.384 1.312 2.176.16.32.32.32t.448-.224q.16-.16 1.152-.96v.992q0 .64.016 1.808t.016 1.84q0 1.504.064 5.376zm-22.976-.256q-.576-.128-.928-.528t-.464-1.024-.112-1.296.176-1.616.352-1.712.464-1.824q.32-1.056.576-1.664.256-.64.448-.928l.416-.736.224-.064v-.16q0-.032.032-.064.512-.352 1.184-.352.32 0 .608.064t.416.096l.128.064q.032.032.032.064v.224l.16.032.128.096q.096.064.352.064h.864l.096-.032h6.016l.096.032h.864l.352-.064.288-.128v-.224l.032-.064q.416-.224 1.152-.224.64 0 1.184.352l.032.064v.16l.192.064q.288.48.448.736.192.288.448.928.256.608.544 1.664t.48 1.84.368 1.712.176 1.6-.128 1.296-.464 1.024-.912.528q-.608.16-1.088 0t-.848-.64-.592-.928-.512-1.184l-.448-1.28-.416-.288q-.544.48-1.248.48-.768 0-1.344-.512h-3.36q-.544.512-1.312.512-.704 0-1.248-.48-.32.096-.416.288-.256.736-.48 1.28-.256.704-.48 1.168t-.592.944-.864.64-1.072 0zm14.016-9.12q.256 0 .432-.176t.176-.416-.176-.416-.432-.176-.416.176-.16.416.16.416.416.176zm-11.552.128.128-.032.288-.288.064-.128q.032-.416.032-.512 0-.128-.096-.224t-.432-.096-.432.096-.064.224l.032.512q0 .064.032.128l.288.288q.064.032.16.032zm1.344.896q.096.032.208-.08t.112-.448-.128-.432q-.064-.096-.192-.064l-.512.032q-.064 0-.128.064l-.288.288q-.032.032-.032.128l.032.128.288.288.128.064q.416.032.512.032zm-2.688 0 .48-.032q.064 0 .128-.064l.288-.288q.064-.032.064-.128l-.064-.128-.288-.288-.128-.064q-.416-.032-.48-.032-.16-.032-.224.064-.096.128-.096.448 0 .352.096.448.064.064.224.064zm11.504.352q.24 0 .416-.176t.176-.416-.176-.416-.4-.176q-.16 0-.304.08t-.224.208-.08.288q0 .256.176.432t.416.176zm2.768 0q.256 0 .416-.176t.16-.416-.16-.416-.416-.176-.416.176-.16.416.16.416.416.176zm-12.928.8q.32 0 .416-.096t.096-.224l-.032-.48q-.032-.096-.064-.16-.032 0-.096-.08t-.128-.144l-.064-.064q-.064-.032-.128-.032l-.16.032-.288.288-.032.16q-.032.384-.064.48 0 .128.096.224t.448.096zm11.552.576q.256 0 .432-.176t.176-.432q0-.16-.08-.288t-.224-.208-.304-.08q-.256 0-.416.176t-.16.416.16.416.416.176zm-2.848 1.664q.48 0 .8-.336t.32-.8-.32-.784-.8-.32-.8.32-.32.784.32.8.8.336zm-6 .064q.464 0 .8-.336t.336-.8-.336-.8-.8-.336-.8.336-.336.8.336.8.8.336z"/></svg>