<svg xmlns="http://www.w3.org/2000/svg" width="20" height="32"><path d="M15.84 13.216q.128.352.176.608t0 .592-.272.656-.672.736-1.152.864q-.096.064-1.248.656t-1.376.784q-.768.672-.768 1.152-.032.288-.016.4t.048.144.096.288.128.704q.032.224.096.512t.144.56.08.496q0 .032.032.128-.32.096-.704.16-.352.064-.768.128-.608.064-4.064.288-1.696.096-3.04.32-.128.032-.32.064t-.288.064v-.224q-.032-.16-.016-.64t-.016-.704q-.032-.48-.096-.976t-.16-1.328q-.064-.768-.464-2.16t-.368-1.904q.128-2.784.672-4 .224-.448.512-.992-.32-.384-.544-.832-.352-.736-.352-1.056 0-.864.672-1.792 1.088-1.44 2.496-1.28 1.568.224 2.464 1.408.192-.096.384-.16.32-.16.672-.32v-.192q0-.032.032-.304t.064-.368q.224-.832.944-1.392t1.616-.72q.8-.16 1.088-.064.8.192 1.504 1.088.608.736.704 1.536 1.056.352 1.408 1.024.288.544.432.96t.112.688-.096.464-.304.352-.4.224-.48.176-.512.208q-.416.192-1.04.592t-1.264.688-1.568.384q-.928.128-1.408.624t-.352 1.168q.096.576.464.736t1.072.16q1.312 0 2.496-.48 1.376-.512 2.368-1.184.224-.16.624-.08t.528.368zM9.92 6.944q-.768.128-1.248-.448.032.288.096.576.32.736 1.04 1.104t1.552.24q.896-.16 1.312-1.28.256-.736.096-1.248-.064-.224-.416-.608-.416-.48-1.008-.688t-1.168-.048q-.032 0-.208.096l-.176.096q-.064.032-.096.032.448.064.768.448.224.224.256.32.064.288-.064.704-.224.608-.736.704zm-4.512 3.584q.64-.512.816-1.328t-.176-1.584q-.416-.864-1.632-.992-.8-.064-1.28.256-.16.096-.48.576-.8 1.248-.16 2.336.032.032.16.176t.16.176l.064.064q-.064-.448.224-.896.16-.256.256-.32.288-.16.704-.128.672.064.896.544.32.736-.096 1.344.256-.096.544-.224zm17.44 17.408H13.12q-.256 0-.32-.032v-.832h.544q.096 0 .096-.096v-.608q0-.096-.064-.096H12.8v-.864h.768q.224 0 .384-.128.064-.064.064-.32v-1.728q.032-.48.032-.736l-.032-.864q0-.256-.08-.368t-.368-.112H12.8v-.576q0-.128.032-.16h.544q.064 0 .064-.096v-.608q0-.096-.064-.096H12.8v-.512q0-.128.032-.16l.192-.032 2.304-.032q.128 0 .368.016t.336.016q2.368.032 3.04.032.32 0 .928-.016t.864-.016q.288 0 .816.016t.656.016q.192 0 .544-.032.128 0 .16.064l.064.128v.544l-.576-.032q-.096 0-.096.096.032.32 0 .608 0 .096.096.096h.576v.768l-.288-.032-.704.032q-.352 0-.448.096v.352q-.032.224-.032.352l.032.352v2.624q0 .256.224.384.16.096.224.096h.96v.832h-.544q-.096 0-.096.096v.608q0 .096.096.096h.544v.608q0 .16-.032.192zm-1.408-7.52q.096 0 .096-.096v-.608q0-.096-.096-.096h-.928q-.096 0-.096.096v.608q0 .096.096.096h.928zm-6.048 0q.064 0 .064-.096V20l.032-.288q0-.096-.096-.096h-.96q-.064 0-.064.096v.608q0 .096.064.096l.416-.032zm2.016 0q.096 0 .096-.096v-.608q0-.096-.096-.096h-.928q-.096 0-.096.096v.224l.032.224-.032.16q0 .096.096.096h.928zm2.016 0q.096 0 .096-.096v-.608q0-.096-.096-.096-.608.032-.928 0-.096 0-.096.096v.608q0 .096.096.096h.544q.224-.032.384 0zm.896 5.024q.128 0 .288-.096.128-.064.128-.384v-3.488q0-.192-.096-.256-.064-.064-.32-.032h-4.928q-.32 0-.352.032-.096.096-.096.32l.032 1.12-.032 1.44v.864q0 .192.128.32t.288.128h1.408q.096 0 .288-.016t.288-.016q.288 0 1.312.032t1.12.032h.544zm-17.056-.32q-.384.032-.768.096-.128.032-.32.064-.096-.544-.16-1.088 1.024-.16 1.6-.224l.032-.032q.352-.032.512-.032.832-.096 2.24-.192 2.176-.096 3.072-.224.928-.096 1.696-.288.032.448 0 .928-.16.064-1.632.448-.736.192-1.792.224-.32.032-.8.048t-.816.016-.768.032-.784.096q-.064 0-1.312.128zm7.808.192q-.032.256.192.8t.416.976.064.56q-.352.416-.912.64t-.992.288-1.488.112-1.632.112q-1.44.128-1.728.064-.224-.064-1.328-.032t-1.168-.128q-.256-.32-.208-.64t.16-.8.08-.672q-.128-.352-.192-.64.256-.064.448-.096l1.44-.128q.128-.032.432-.064t.464-.064q.544-.032 1.584-.064t1.488-.064q.832-.064 1.6-.256 1.216-.32 1.232-.32t.048-.016l.032-.016q0 .224-.032.448zm6.336 1.76q.064 0 .064-.096l.032-.32-.032-.288q0-.096-.064-.096h-.96q-.064 0-.064.096v.608q0 .096.064.096h.96zm-2.016 0q.064 0 .064-.096v-.608q0-.096-.064-.096l-.288.032-.416-.032h-.256q-.064 0-.064.096v.608q0 .096.064.096h.96zm4.032 0q.096 0 .096-.096v-.608q0-.096-.096-.096l-.192.032-.768-.032q-.064 0-.064.096v.608q0 .096.064.096h.96zm2.016 0q.096 0 .096-.096v-.608q0-.096-.096-.096l-.576.032-.352-.032q-.096 0-.096.096v.608q0 .096.096.096h.928z"/></svg>