<svg xmlns="http://www.w3.org/2000/svg" width="13" height="32"><path d="M9.696 11.168q.32.928.032 1.776t-.992 1.488q-1.44 1.28-3.232.8-.8-.224-1.408-.768t-.832-1.28q-.224-.768.032-1.632.192-.736.992-1.504.736-.768.832-1.344.064-.416.032-2.016-.416-.128-.672-.496t-.192-.752q.096-.416.384-.704t.672-.288q.416.032.752.272t.464.624q.096.352-.064.72t-.48.528q.032.096.096.32t.096.352.096.32l.112.336.128.32.176.288.208.256.256.24.304.16q1.152.512 1.376.704.512.48.832 1.28zM4.992 5.6q.064.16.208.272t.304.08q.416-.032.384-.4T5.44 5.12q-.096 0-.192.032-.32.192-.256.448zm3.68 7.392q.32-.576.208-1.264t-.592-1.136q-.256-.192-.784-.432t-.592-.272q-.736-.384-.96-.864 0 .416-.384.96-.16.192-.464.496t-.4.432q-.8.928-.512 1.92.256.896 1.312 1.344.864.32 1.776-.016t1.392-1.168zm-.352-1.44q.064.544-.384.672l-.096.032q-.352.064-.608-.288-.096-.128-.096-.192-.032-.16.064-.352.128-.32.416-.352.192 0 .384.096h-.032q-.16.032-.128.224t.224.16q.16-.032.128-.224.096.096.128.224zM5.824 12q.096.544-.352.672l-.128.032q-.352.064-.608-.288-.096-.128-.096-.192-.032-.16.064-.352.16-.32.416-.352.224 0 .384.096-.192.032-.16.224t.224.16q.16-.032.128-.224.096.096.128.224zm1.44.544H7.2l-.064.064q-.096.096-.192.16-.192.128-.352.128-.192 0-.416-.128l-.032-.032q-.064 0-.096.032T6 12.864t.016.096q.032.064.096.096.16.192.352.256.128.064.24.048t.208-.08q.16-.096.288-.288.064-.064.064-.128.064-.064.064-.128.032-.064 0-.128l-.016-.032-.048-.032zm4.256 9.248q.16.16.192.48t-.16.416q-.16.064-.224-.192-.096-.32-.064-.384-.128.224-.208.128t0-.256.208-.224q-.064-.064-.128-.64 0-.128-.016-.288l-.032-.32-.048-.288q-.032-.448-.064-.512 0-.032-.016-.096t-.048-.112l-.192-.288-.064-.08q-.16-.32-.352-.8-.096 2.176-.096 2.88-.032.768-.512 1.184-.448.384-1.504.352h.032v.064q0 .096.032.288t.032.224q.032.448.032.768.032.576.032.896 0 .032-.016.096t-.016.096.032.096.032.096q0 .064-.032.352-.032.192-.064.416t-.064.512-.032.448q-.032.352-.064.512 0 .224-.064.256.224 0 .592.096t.336.256q-.032.096-.448.096h-.608q-.192-.032-.192-.192 0-.192.096-.224-.064-.064-.064-.192-.032-.128.032-1.088.032-.8.032-1.216v-.128l.048-.08.08-.08-.032-.064q0-.064-.016-.192t-.048-.16q-.096-.672-.096-1.408v-.544q-.032-.032-.608-.032H5.28q-.416 0-.448.032v.864q-.032.608-.16 1.344v.096l-.032.064.064.064.064.096v.288q0 .064.064 1.44v.576q0 .256-.064.32.096.032.096.256-.032.128-.224.16h-.576q-.448 0-.448-.128t.352-.224.576-.096q-.064-.032-.064-.128-.032-.16-.048-.448t-.048-.384q0-.096-.032-.4T4.288 26t-.032-.432q-.032-.192-.032-.256 0-.032.032-.08t.032-.064-.016-.064-.016-.064v-.576l.032-.656q.032-.544.128-1.088-.992 0-1.376-.256-.48-.32-.544-.96-.032-.16-.032-1.504 0-1.024.032-1.792-.224.512-.416.864-.256.416-.256.48t-.032.256-.048.304-.032.416-.048.464q-.064.48-.096.544.096.064.192.224t.016.256-.208-.128q0 .032-.032.256-.064.288-.128.32-.192.096-.256-.192-.064-.16 0-.416.032-.064.08-.176t.048-.144v-.064q-.032-.032-.032-.064v-.128q.032-.192.032-.736V19.52l.032-.096q.032-.096.16-.192l.096-.224q.128-.288.128-.352.16-.352.384-.736.192-.352.256-.384 0-.032.048-.048l.048-.016h.064q.032-.032.032-.16v-.48q.032-.704.352-1.056.352-.416 1.056-.416.256 0 .384.064.512.288.576.352.544.224 1.152.288 1.248.128 2.304-.48.032 0 .192-.112t.256-.144q.416-.096.864.128.16.096.288.224t.208.304.128.288.048.368v.72l-.032.336q.128 0 .224.112t.352.592q.128.224.416.928.032.128.064.128.16.192.16.24t.032.272v1.536q.032.224-.032.288z"/></svg>