<svg xmlns="http://www.w3.org/2000/svg" width="27" height="32"><path d="M8.576 25.568q-.032-.032-.72-.784t-1.472-1.568-1.136-1.104q-2.88-2.656-3.264-3.328-.608-.704-.768-1.008T1.2 17.12t.784-.864q.672-.512.736-.64.416-.352 2.976-2.992T8.48 9.696q.192-.16.368-.112t.272.176l.096.096q1.856 1.856 2.08 2.208.16.128 0 .416t-.416.512l-.224.224q-.608.8-1.888 2.016-1.696 1.632-1.856 2.272 0 .032.08.144t.256.32.368.416.512.544.608.624q1.12 1.12 2.56 2.912.224.32-.128.672l-.432.432-.528.56-.496.544-.4.416-.16.192-.224.256q-.16.096-.352.032zm9.44-15.904.736.768q.704.736 1.488 1.552t1.104 1.136q2.88 2.656 3.264 3.328.608.704.768.992t.016.64-.784.896q-.672.512-.736.64-.416.32-2.96 2.976t-2.8 2.944q-.192.128-.352.096t-.288-.16l-.096-.128q-1.824-1.824-2.08-2.176-.064-.064-.064-.176t.048-.208.128-.208.176-.208l.352-.352q.64-.832 1.888-2.016 1.696-1.664 1.856-2.304.032-.064-.176-.288t-.736-.8l-.88-.96q-1.12-1.12-2.592-2.88-.224-.32.128-.704.256-.224.752-.752t.88-.944l.384-.416q.032-.064.08-.128t.192-.176.304.016z"/></svg>