<svg xmlns="http://www.w3.org/2000/svg" width="27" height="32"><path d="M19.168 7.616q2.112.96 3.68 2.72t2.368 3.968.8 4.576v.288q-.48 3.456-2.304 6.56-2.304 3.968-8.448 4.672-6.976.8-10.528-2.56-2.08-1.952-2.848-4.624t-.768-6.032q0-3.424 1.728-6.112.992-1.6 1.92-2.304 1.44-.928 2.784-1.376.224.896.32 3.584-.32.128-.608.256-1.44.608-2.448 3.056t-.4 4.88q0 .384.144.816t.32.912.24.768q.032 0 .128.16l.672-.544q-.576-1.568-.288-3.424.256-1.76 1.856-3.84.48-.672.752-1.072t.512-1.04.272-1.28q.032-.544-.032-1.232t-.128-1.104-.24-1.296-.208-1.104q-.96-.224-1.712-.976t-.688-1.68q.096-1.024.672-1.792T8.192.576q.96-.064 1.84.4t1.264 1.296q.352.8.112 1.712t-.976 1.392q.096.192.4.928t.432 1.008.448.896.576.944.64.736.816.672.944.416q.256.064.976.256t1.2.352.896.384l.832-.64v-.032q-2.208-1.184-4-1.376h-.128q-.256-.384-1.216-1.616t-1.184-1.936q.096 0 .448-.016t.48-.016q3.744.064 6.176 1.28zM7.552 3.488q.16.448.624.72t.944.144q.768-.192.944-.8t-.256-1.136T8.64 1.92q-.288 0-.544.192l-.032.032q-.32.224-.48.624t-.032.72zm.8 12.128q-1.44 2.24-.864 4.448l.992-.768q-.128-.416.064-.96.288-.928.992-1.056.544-.096 1.056.096-.032 0-.064.032-.352.096-.288.512l6.144-4.864q-.384-.128-.88-.256l-.992-.256-.88-.256q-1.728-.64-2.816-2.496.16 1.76-.608 3.2-.192.416-.528.864t-.704.928-.624.832zm13.76 5.632q.32-.768.4-1.776t-.032-1.888T22.208 16t-.32-.992q-.032-.128-.864-1.12l-.736.608q.16.192.256.416.704 1.248.736 2.72t-.496 2.8-1.488 2.416q-1.344 1.6-3.296 2.384t-4 .528q-1.984-.256-3.584-1.376l-1.088.896q.16.256.192.288.96.8 2.176 1.184t2.384.352 2.512-.128q2.688-.256 4.448-1.28 1.088-.704 1.68-1.632t1.392-2.816zm-9.472-.416-2.688 2.272q.736.416 1.6.608 2.368.608 4.576-.608t3.136-3.52q.8-2.016-.224-4.064l-1.056.896q.256 1.216-.768 1.696l-.128.08-.16.08q-.512.16-1.056-.096l-2.656 2.176q.384.096.704.064.448-.064.896-.416.224-.192.416-.448l.128-.096q.096-.032.192-.032.064 0 .128.032.032.032.064.096.064.096.032.256l-.096.288-.128.256q-.32.512-.704.768-.256.16-.544.224-.256.032-.576 0-.512-.096-.992-.416z"/></svg>