<svg xmlns="http://www.w3.org/2000/svg" width="13" height="32"><path d="M8.608 9.856q.16-.096.288-.032t.192.192l.096.128q1.408 1.6 1.984 2.112.384.352.128.704-1.44 1.76-2.56 2.88-.288.288-.608.624t-.512.56-.368.416-.256.304-.08.144q.16.64 1.856 2.272.352.352.672.688t.528.56.368.416.256.288l.064.096q.032.032.096.08t.224.208.24.288.144.304-.064.272q-.128.128-.64.688t-.992 1.008l-.448.48q-.032.064-.112.128t-.272.16-.384-.128q-.224-.288-2.768-2.928t-2.96-2.992q-.064-.128-.736-.64-.64-.544-.784-.896t.016-.64.768-.992q.384-.672 3.264-3.328.256-.224.816-.8t1.072-1.12.96-1.008.512-.496z"/></svg>