<svg xmlns="http://www.w3.org/2000/svg" width="13" height="32"><path d="M3.904 9.856q.032 0 .736.752t1.488 1.568 1.104 1.104q2.88 2.656 3.296 3.328.608.704.752.992t.016.64-.768.896q-.704.512-.736.64-.448.352-2.992 2.992t-2.768 2.928q-.192.16-.368.112t-.272-.144l-.096-.128Q1.44 23.68 1.216 23.36q-.16-.16 0-.448T1.6 22.4l.256-.192q.608-.832 1.888-2.048Q5.44 18.528 5.6 17.888q0-.032-.048-.096t-.128-.176-.208-.24-.288-.304-.336-.352-.4-.416-.416-.464q-1.12-1.12-2.56-2.88-.256-.352.096-.704.256-.224.768-.752t.864-.944l.384-.416q.032-.064.08-.128T3.6 9.84t.304.016z"/></svg>